<?xml version="1.0" encoding="UTF-8" standalone="no"?>
<svg width="50px" height="50px" viewBox="0 0 50 50" version="1.1" xmlns="http://www.w3.org/2000/svg" xmlns:xlink="http://www.w3.org/1999/xlink" style="background: #FFFFFF;">
    <!-- Generator: Sketch 39.1 (31720) - http://www.bohemiancoding.com/sketch -->
    <title>highrise-icon</title>
    <desc>Created with Sketch.</desc>
    <defs></defs>
    <g id="Page-1" stroke="none" stroke-width="1" fill="none" fill-rule="evenodd">
        <g id="highrise-icon">
            <path d="M24.9352941,4 C13.0941176,4 3.84117647,19.1245614 3,31.8473684 C6.68823529,38.2736842 15.6823529,40.7403509 24.9352941,40.7403509 C34.2529412,40.7403509 43.1823529,38.3385965 46.8705882,31.8473684 C46.0294118,19.1245614 36.7764706,4 24.9352941,4 L24.9352941,4 Z" id="Shape" fill="#ABDEFF"></path>
            <path d="M43.9588235,30.4192982 C42.0823529,35.0280702 35.4823529,37.5596491 24.9352941,37.8192982 C14.4529412,37.5596491 7.59411765,34.8333333 5.97647059,30.2894737 C5.97647059,28.0175439 14.1294118,24.0578947 24.9352941,23.8631579 C35.7411765,23.9929825 43.9588235,28.1473684 43.9588235,30.4192982 L43.9588235,30.4192982 Z" id="Shape" fill="#15C66C"></path>
            <polygon id="Shape" fill="#A8A382" points="37.5529412 16.8526316 33.0882353 15.7491228 28.8823529 16.722807 28.8823529 30.8736842 33.0235294 32.2368421 37.5529412 30.2894737"></polygon>
            <polygon id="Shape" fill="#CAC59D" points="28.8823529 30.8736842 33.0235294 32.2368421 33.0235294 17.6315789 32.8941176 17.6315789 28.8823529 16.722807"></polygon>
            <polygon id="Shape" fill="#F8F3C9" points="37.5529412 16.8526316 33.0882353 17.9561404 28.8823529 16.722807 33.0882353 15.7491228"></polygon>
            <polygon id="Shape" fill="#A8A382" points="21.3117647 23.1491228 16.7823529 19.0596491 12.3176471 20.8122807 12.3176471 30.2245614 16.7823529 32.3666667 21.3117647 30.9385965"></polygon>
            <polygon id="Shape" fill="#CAC59D" points="12.3176471 30.2245614 16.7823529 32.3666667 16.7823529 21.4614035 16.5882353 19.1245614 12.3176471 18.345614"></polygon>
            <polygon id="Shape" fill="#F8F3C9" points="21.3117647 20.6175439 16.7823529 22.4350877 12.3176471 18.345614 16.7823529 16.5929825"></polygon>
            <polygon id="Shape" fill="#5D98B0" points="30.3058824 12.5035088 24.9352941 11.1403509 19.6294118 12.5035088 18.3352941 33.0807018 24.8705882 35.4175439 31.5352941 32.8859649"></polygon>
            <polygon id="Shape" fill="#87C6DE" points="18.3352941 33.0807018 24.8705882 35.4175439 24.9352941 11.2052632 24.7411765 11.2052632 19.6294118 12.5035088"></polygon>
            <polygon id="Shape" fill="#DEF4FF" points="30.3058824 12.5035088 24.9352941 13.9315789 19.6294118 12.5035088 24.9352941 11.1403509"></polygon>
            <path d="M23.4470588,7.89473684 C23.4470588,7.82982456 23.5117647,7.76491228 23.5764706,7.76491228 L23.5764706,7.76491228 C23.6411765,7.76491228 23.7058824,7.82982456 23.7058824,7.89473684 L23.7058824,10.5561404 C23.7705882,10.6210526 23.8352941,10.6859649 23.8352941,10.7508772 L23.8352941,12.8929825 C23.8352941,13.022807 23.7058824,13.1526316 23.5764706,13.1526316 L23.5764706,13.1526316 C23.4470588,13.1526316 23.3176471,13.022807 23.3176471,12.8929825 L23.3176471,10.7508772 C23.3176471,10.6859649 23.3823529,10.5561404 23.4470588,10.5561404 L23.4470588,7.89473684 L23.4470588,7.89473684 Z" id="Shape" fill="#5D98B0"></path>
            <path d="M26.1,6.79122807 C26.1,6.72631579 26.1647059,6.66140351 26.2294118,6.66140351 L26.2294118,6.66140351 C26.2941176,6.66140351 26.3588235,6.72631579 26.3588235,6.79122807 L26.3588235,9.45263158 C26.4235294,9.51754386 26.4882353,9.58245614 26.4882353,9.64736842 L26.4882353,11.7894737 C26.4882353,11.9192982 26.3588235,12.0491228 26.2294118,12.0491228 L26.2294118,12.0491228 C26.1,12.0491228 25.9705882,11.9192982 25.9705882,11.7894737 L25.9705882,9.7122807 C25.9705882,9.64736842 26.0352941,9.51754386 26.1,9.51754386 L26.1,6.79122807 L26.1,6.79122807 Z" id="Shape" fill="#5D98B0"></path>
        </g>
    </g>
</svg>