<?xml version="1.0" encoding="UTF-8" standalone="no"?>
<svg width="50px" height="50px" viewBox="0 0 50 50" version="1.1" xmlns="http://www.w3.org/2000/svg" xmlns:xlink="http://www.w3.org/1999/xlink" style="background: #FFFFFF;">
    <!-- Generator: Sketch 39.1 (31720) - http://www.bohemiancoding.com/sketch -->
    <title>nom-icon</title>
    <desc>Created with Sketch.</desc>
    <defs>
        <rect id="path-1" x="4.26923077" y="3.32819074" width="28.4615385" height="35.3436185" rx="5"></rect>
        <mask id="mask-2" maskContentUnits="userSpaceOnUse" maskUnits="objectBoundingBox" x="0" y="0" width="28.4615385" height="35.3436185" fill="white">
            <use xlink:href="#path-1"></use>
        </mask>
    </defs>
    <g id="Page-1" stroke="none" stroke-width="1" fill="none" fill-rule="evenodd">
        <g id="nom-icon">
            <g id="Group-3" transform="translate(7.000000, 4.000000)">
                <rect id="Rectangle-2" fill="#42A5F5" transform="translate(18.500000, 21.000000) rotate(-345.000000) translate(-18.500000, -21.000000) " x="4.26923077" y="3.32819074" width="28.4615385" height="35.3436185" rx="5"></rect>
                <rect id="Rectangle-2" fill="#A0D2FA" x="4.26923077" y="3.32819074" width="28.4615385" height="35.3436185" rx="5"></rect>
                <use id="Rectangle-2" stroke="#2196F3" mask="url(#mask-2)" fill="#FFFFFF" transform="translate(18.500000, 21.000000) scale(-1, 1) rotate(-345.000000) translate(-18.500000, -21.000000) " xlink:href="#path-1"></use>
                <g id="Face" transform="translate(9.866667, 17.043478)">
                    <path d="M3.54212632,2.21647619 C3.54212632,3.20843819 2.74922135,4.01260494 1.77106316,4.01260494 C0.792904977,4.01260494 2.66453526e-15,3.20843819 2.66453526e-15,2.21647619 C2.66453526e-15,1.2245142 0.792904977,0.420347446 1.77106316,0.420347446 C2.74922135,0.420347446 3.54212632,1.2245142 3.54212632,2.21647619" id="Fill-1" fill="#2196F3"></path>
                    <path d="M2.89313203,1.61703045 C2.89313203,1.91481541 2.65527825,2.15617039 2.36181309,2.15617039 C2.06834792,2.15617039 1.83049414,1.91481541 1.83049414,1.61703045 C1.83049414,1.31924549 2.06834792,1.07789051 2.36181309,1.07789051 C2.65527825,1.07789051 2.89313203,1.31924549 2.89313203,1.61703045" id="Fill-3" fill="#FFFFFF"></path>
                    <path d="M17.0625051,2.21647619 C17.0625051,3.20843819 16.2902203,4.01260494 15.3375,4.01260494 C14.3847796,4.01260494 13.6124948,3.20843819 13.6124948,2.21647619 C13.6124948,1.2245142 14.3847796,0.420347446 15.3375,0.420347446 C16.2902203,0.420347446 17.0625051,1.2245142 17.0625051,2.21647619" id="Fill-5" fill="#2196F3"></path>
                    <path d="M16.4591733,1.61703045 C16.4591733,1.91481541 16.2213195,2.15617039 15.9278543,2.15617039 C15.6343892,2.15617039 15.3965354,1.91481541 15.3965354,1.61703045 C15.3965354,1.31924549 15.6343892,1.07789051 15.9278543,1.07789051 C16.2213195,1.07789051 16.4591733,1.31924549 16.4591733,1.61703045" id="Fill-8" fill="#FFFFFF"></path>
                    <path d="M5.9485082,3.43683536 C5.9485082,6.24847551 8.25767847,8.52779752 11.1061377,8.52779752" id="Page-1" stroke="#2196F3" stroke-width="1.5" stroke-linecap="round" stroke-linejoin="round" transform="translate(8.527323, 5.982316) rotate(-45.000000) translate(-8.527323, -5.982316) "></path>
                </g>
            </g>
        </g>
    </g>
</svg>