<?xml version="1.0" encoding="UTF-8"?>
<svg width="401px" height="843px" viewBox="0 0 401 843" version="1.1" xmlns="http://www.w3.org/2000/svg" xmlns:xlink="http://www.w3.org/1999/xlink">
    <!-- Generator: Sketch 43.2 (39069) - http://www.bohemiancoding.com/sketch -->
    <title>phone</title>
    <desc>Created with Sketch.</desc>
    <defs></defs>
    <g id="Page-1" stroke="none" stroke-width="1" fill="none" fill-rule="evenodd">
        <g id="phone" transform="translate(0.000000, 1.000000)">
            <path d="M336.837252,5.20550473 L57.2358944,5.20550473 C30.0439815,5.20550473 4.16714353,31.1070004 4.16714353,63.0578405 L4.16714353,782.494211 C4.16714353,814.443682 30.0439815,840.343808 61.970164,840.343808 L341.571522,840.343808 C373.496335,840.343808 399.375912,814.443682 399.375912,782.494211 L399.375912,63.0578405 C399.375912,31.1070004 373.496335,5.20824447 336.837252,5.20824447" id="outline"></path>
            <path d="M5.15618943,155.415823 L2.890425,155.415823 C1.73014539,155.415823 0.787675059,154.473353 0.787675059,153.311704 L0.787675059,123.510189 C0.787675059,122.348539 1.73014539,121.406069 2.890425,121.406069 L5.15618943,121.406069 L5.15618943,155.415823 Z" id="Shape" stroke="#BBBBBB"></path>
            <path d="M5.15618943,226.768225 L2.890425,226.768225 C1.73014539,226.768225 0.787675059,225.823015 0.787675059,224.662735 L0.787675059,200.64481 C0.787675059,199.480421 1.73014539,198.54069 2.890425,198.54069 L5.15618943,198.54069 L5.15618943,226.766855 L5.15618943,226.768225 Z" id="Shape" stroke="#BBBBBB"></path>
            <path d="M5.15618943,296.538427 L2.890425,296.538427 C1.73014539,296.538427 0.787675059,295.595956 0.787675059,294.434307 L0.787675059,270.415012 C0.787675059,269.253363 1.73014539,268.312262 2.890425,268.312262 L5.15618943,268.312262 L5.15618943,296.538427 Z" id="Shape" stroke="#BBBBBB"></path>
            <path d="M334.302994,4.77123419 L271.242413,4.77123419 L271.242413,2.20196045 C271.242413,1.13603866 272.183514,0.271234194 273.343793,0.271234194 L332.198874,0.271234194 C333.359153,0.271234194 334.301624,1.13603866 334.301624,2.20196045 L334.301624,4.77123419 L334.302994,4.77123419 Z" id="Shape" stroke="#BBBBBB"></path>
            <path d="M337.313967,4.17262301 L57.7098693,4.17262301 C30.5206962,4.17262301 4.64111843,30.0741187 4.64111843,62.022219 L4.64111843,781.45996 C4.64111843,813.4108 30.5206962,839.309556 62.4455088,839.309556 L342.046867,839.309556 C373.971679,839.309556 399.851257,813.4108 399.851257,781.45996 L399.851257,62.0235889 C399.851257,30.0741187 373.971679,4.17399288 337.313967,4.17399288 M338.007062,5.2767494 C355.047401,5.2767494 370.600702,11.1044499 381.800291,21.6860379 C392.732764,32.0122178 398.752508,46.0294577 398.752508,61.1575859 L398.752508,782.323159 C398.752508,813.136919 373.635358,838.203996 342.764203,838.203996 L61.7308041,838.203996 C30.8610254,838.203996 5.7424985,813.135546 5.7424985,782.323159 L5.7424985,61.1575859 C5.7424985,46.4592575 11.3712075,32.4104349 21.5904536,21.5995287 C31.3911264,11.2252881 44.2897922,5.27400308 56.9709101,5.27400308 L338.004309,5.27400308" id="Shape" fill="#BBBBBB" fill-rule="nonzero"></path>
            <path d="M239.058695,769.773602 C239.058695,789.684657 222.92985,805.825832 203.035233,805.825832 C183.140616,805.825832 167.01177,789.684657 167.01177,769.773602 C167.01177,749.862546 183.140616,733.721372 203.035233,733.721372 C222.92985,733.721372 239.058695,749.862546 239.058695,769.773602 Z" id="Shape" stroke="#DDDDDD"></path>
            <path d="M230.650435,84.6579454 L174.946055,84.6579454 C170.592609,84.6579454 167.063825,81.1236817 167.063825,76.7674961 C167.063825,72.4113106 170.592609,68.8811565 174.946055,68.8811565 L230.650435,68.8811565 C235.003881,68.8811565 238.532665,72.4126805 238.532665,76.768866 C238.532665,81.1250516 235.003881,84.6593153 230.650435,84.6593153 L230.650435,84.6579454 Z" id="Shape" stroke="#DDDDDD"></path>
            <path d="M217.642153,776.576375 C217.642153,780.93256 214.113369,784.466824 209.759923,784.466824 L196.798216,784.466824 C192.44477,784.466824 188.915986,780.93256 188.915986,776.576375 L188.915986,763.603709 C188.915986,759.247523 192.44477,755.713259 196.798216,755.713259 L209.759923,755.713259 C214.113369,755.713259 217.642153,759.247523 217.642153,763.603709 L217.642153,776.576375 Z" id="Shape" stroke="#DDDDDD"></path>
            <path d="M210.11061,45.3262475 C210.11061,49.3920207 206.816073,52.6879271 202.754409,52.6879271 C198.690006,52.6879271 195.398209,49.3920207 195.398209,45.3262475 C195.398209,41.2577346 198.690006,37.9631981 202.754409,37.9631981 C206.816073,37.9631981 210.11061,41.2591045 210.11061,45.3262475 Z" id="Shape" stroke="#DDDDDD"></path>
        </g>
    </g>
</svg>