<?xml version="1.0" encoding="UTF-8"?>
<svg width="401px" height="841px" viewBox="0 0 401 841" version="1.1" xmlns="http://www.w3.org/2000/svg" xmlns:xlink="http://www.w3.org/1999/xlink">
    <!-- Generator: Sketch 43.2 (39069) - http://www.bohemiancoding.com/sketch -->
    <title>phone</title>
    <desc>Created with Sketch.</desc>
    <defs></defs>
    <g id="Page-1" stroke="none" stroke-width="1" fill="none" fill-rule="evenodd">
        <g id="phone" transform="translate(0.000000, 1.000000)">
            <path d="M5.15618943,155.415823 L2.890425,155.415823 C1.73014539,155.415823 0.787675059,154.473353 0.787675059,153.311704 L0.787675059,123.510189 C0.787675059,122.348539 1.73014539,121.406069 2.890425,121.406069 L5.15618943,121.406069 L5.15618943,155.415823 Z" id="Shape" fill="#FFFFFF" stroke="#BBBBBB"></path>
            <path d="M5.15618943,226.768225 L2.890425,226.768225 C1.73014539,226.768225 0.787675059,225.823015 0.787675059,224.662735 L0.787675059,200.64481 C0.787675059,199.480421 1.73014539,198.54069 2.890425,198.54069 L5.15618943,198.54069 L5.15618943,226.766855 L5.15618943,226.768225 Z" id="Shape" fill="#FFFFFF" stroke="#BBBBBB"></path>
            <path d="M5.15618943,296.538427 L2.890425,296.538427 C1.73014539,296.538427 0.787675059,295.595956 0.787675059,294.434307 L0.787675059,270.415012 C0.787675059,269.253363 1.73014539,268.312262 2.890425,268.312262 L5.15618943,268.312262 L5.15618943,296.538427 Z" id="Shape" fill="#FFFFFF" stroke="#BBBBBB"></path>
            <path d="M334.302994,4.77123419 L271.242413,4.77123419 L271.242413,2.20196045 C271.242413,1.13603866 272.183514,0.271234194 273.343793,0.271234194 L332.198874,0.271234194 C333.359153,0.271234194 334.301624,1.13603866 334.301624,2.20196045 L334.301624,4.77123419 L334.302994,4.77123419 Z" id="Shape" fill="#FFFFFF" stroke="#BBBBBB"></path>
            <path d="M337.313967,4.17262301 L57.7098693,4.17262301 C30.5206962,4.17262301 4.64111843,30.0741187 4.64111843,62.022219 L4.64111843,781.45996 C4.64111843,813.4108 30.5206962,839.309556 62.4455088,839.309556 L342.046867,839.309556 C373.971679,839.309556 399.851257,813.4108 399.851257,781.45996 L399.851257,62.0235889 C399.851257,30.0741187 373.971679,4.17399288 337.313967,4.17399288" id="Shape" stroke="#BBBBBB" fill="#FFFFFF" fill-rule="nonzero"></path>
            <path d="M239.058695,769.773602 C239.058695,789.684657 222.92985,805.825832 203.035233,805.825832 C183.140616,805.825832 167.01177,789.684657 167.01177,769.773602 C167.01177,749.862546 183.140616,733.721372 203.035233,733.721372 C222.92985,733.721372 239.058695,749.862546 239.058695,769.773602 Z" id="Shape" fill="#FFFFFF" stroke="#DDDDDD"></path>
            <path d="M230.650435,71.6579454 L174.946055,71.6579454 C170.592609,71.6579454 167.063825,68.1236817 167.063825,63.7674961 C167.063825,59.4113106 170.592609,55.8811565 174.946055,55.8811565 L230.650435,55.8811565 C235.003881,55.8811565 238.532665,59.4126805 238.532665,63.768866 C238.532665,68.1250516 235.003881,71.6593153 230.650435,71.6593153 L230.650435,71.6579454 Z" id="Shape" fill="#FFFFFF" stroke="#DDDDDD"></path>
            <path d="M217.642153,776.576375 C217.642153,780.93256 214.113369,784.466824 209.759923,784.466824 L196.798216,784.466824 C192.44477,784.466824 188.915986,780.93256 188.915986,776.576375 L188.915986,763.603709 C188.915986,759.247523 192.44477,755.713259 196.798216,755.713259 L209.759923,755.713259 C214.113369,755.713259 217.642153,759.247523 217.642153,763.603709 L217.642153,776.576375 Z" id="Shape" fill="#FFFFFF" stroke="#DDDDDD"></path>
            <path d="M146.712401,63.3630494 C146.712401,67.4288226 143.417864,70.724729 139.3562,70.724729 C135.291797,70.724729 132,67.4288226 132,63.3630494 C132,59.2945365 135.291797,56 139.3562,56 C143.417864,56 146.712401,59.2959064 146.712401,63.3630494 Z" id="Shape" fill="#FFFFFF" stroke="#DDDDDD"></path>
        </g>
    </g>
</svg>
