<svg viewBox="0 0 200 92" version="1.1" xmlns="http://www.w3.org/2000/svg" xmlns:xlink="http://www.w3.org/1999/xlink">
  <g id="Brightbit" transform="translate(-429.000000, -3280.000000)" fill="#4E4B48">
    <path d="M491.155178,3311.02451 L500.213071,3311.02451 C501.273614,3311.0231 502.332926,3311.09679 503.383058,3311.24503 C504.383573,3311.37222 505.353673,3311.67552 506.248451,3312.1409 C507.081763,3312.58227 507.790052,3313.22704 508.307565,3314.01533 C508.875366,3314.98701 509.149212,3316.1025 509.095927,3317.22666 C509.143523,3318.46823 508.734599,3319.68421 507.946462,3320.64473 C507.144802,3321.57492 506.092085,3322.2544 504.9143,3322.60186 L504.9143,3322.67077 C505.674628,3322.76634 506.412212,3322.99494 507.093322,3323.34611 C507.728316,3323.65968 508.298711,3324.08981 508.774793,3324.61411 C509.250612,3325.13873 509.617857,3325.75237 509.855345,3326.41962 C510.109023,3327.127 510.236835,3327.87335 510.232987,3328.62483 C510.273674,3329.75708 509.986519,3330.87698 509.406034,3331.84995 C508.867417,3332.6991 508.138935,3333.41154 507.278008,3333.93111 C506.373366,3334.47814 505.381196,3334.86512 504.345081,3335.07507 C503.278301,3335.29802 502.191856,3335.41345 501.102046,3335.41963 L491.152421,3335.41963 L491.152421,3311.02451 L491.155178,3311.02451 Z M496.506943,3320.76878 L500.383975,3320.76878 C500.79413,3320.77132 501.20313,3320.72505 501.602353,3320.63095 C501.987208,3320.55224 502.354081,3320.40269 502.684283,3320.18991 C503.005235,3319.98143 503.270231,3319.69751 503.456106,3319.36296 C503.658478,3318.98151 503.758665,3318.55417 503.746918,3318.12253 C503.762638,3317.67738 503.649706,3317.23714 503.42165,3316.85453 C503.208612,3316.53248 502.919963,3316.26749 502.580914,3316.08271 C502.215384,3315.89139 501.821069,3315.76104 501.413532,3315.6968 C500.995248,3315.61564 500.570242,3315.57411 500.144159,3315.57275 L496.506943,3315.57275 L496.506943,3320.76878 L496.506943,3320.76878 Z M496.506943,3330.87139 L501.311541,3330.87139 C501.73215,3330.86573 502.151237,3330.81958 502.562997,3330.73356 C502.971698,3330.64077 503.361126,3330.47754 503.71384,3330.25117 C504.054466,3330.01601 504.340689,3329.71051 504.553197,3329.35531 C504.782248,3328.94291 504.895138,3328.4761 504.879844,3328.00462 C504.901093,3327.50515 504.749731,3327.01359 504.451206,3326.61258 C504.162586,3326.25702 503.791062,3325.97779 503.369276,3325.79941 C502.918492,3325.61581 502.446037,3325.49075 501.963456,3325.42728 C501.497399,3325.35896 501.027267,3325.32212 500.556257,3325.31702 L496.506943,3325.31702 L496.506943,3330.87139 L496.506943,3330.87139 Z M512.640799,3318.67383 L517.788583,3318.67383 L517.788583,3321.36143 L517.857495,3321.36143 C518.30921,3320.43682 518.980727,3319.63705 519.81324,3319.03218 C520.662541,3318.49294 521.655354,3318.22384 522.660715,3318.26035 C522.958418,3318.26035 523.254743,3318.27413 523.552446,3318.28792 C523.831575,3318.30977 524.10827,3318.35589 524.379399,3318.42574 L524.379399,3323.15316 C524.027433,3323.0349 523.665904,3322.94728 523.298847,3322.89129 C522.929854,3322.83512 522.557081,3322.80748 522.183839,3322.80859 C521.385118,3322.77341 520.588452,3322.91458 519.850452,3323.22207 C519.310792,3323.47109 518.852572,3323.86767 518.528706,3324.36602 C518.203478,3324.90884 517.998556,3325.51515 517.927786,3326.14397 C517.83236,3326.8982 517.78632,3327.65786 517.789961,3328.41809 L517.789961,3335.41963 L512.640799,3335.41963 L512.640799,3318.67383 L512.640799,3318.67383 Z M525.596399,3313.39511 C525.596399,3311.74638 526.932963,3310.40981 528.5817,3310.40981 C530.230436,3310.40981 531.567,3311.74638 531.567,3313.39511 C531.590244,3314.4767 531.026519,3315.48623 530.093518,3316.03384 C529.160517,3316.58146 528.00426,3316.58146 527.071259,3316.03384 C526.138258,3315.48623 525.574533,3314.4767 525.597777,3313.39511 L525.596399,3313.39511 Z M526.009875,3318.67383 L531.150767,3318.67383 L531.150767,3335.41963 L526.009875,3335.41963 L526.009875,3318.67383 L526.009875,3318.67383 Z M551.816327,3334.00003 C552.004878,3336.6276 551.147904,3339.22329 549.431945,3341.22209 C547.454659,3343.00721 544.829628,3343.8995 542.174053,3343.68916 C540.695385,3343.69245 539.221492,3343.52128 537.782932,3343.17921 C536.326095,3342.84119 534.96506,3342.17669 533.80253,3341.23587 L536.650006,3336.96328 C537.409806,3337.61061 538.259361,3338.14449 539.172213,3338.54827 C540.083176,3338.95157 541.070386,3339.15371 542.066549,3339.14092 C543.337188,3339.24935 544.596535,3338.83073 545.5494,3337.98319 C546.302019,3337.18962 546.703842,3336.12671 546.664409,3335.03372 L546.664409,3333.42116 L546.595496,3333.42116 C546.036173,3334.19068 545.268019,3334.78378 544.382018,3335.1302 C543.589358,3335.44386 542.74661,3335.61194 541.894267,3335.62637 C540.742542,3335.63778 539.599836,3335.42235 538.531324,3334.99237 C537.553731,3334.58015 536.672002,3333.97012 535.941583,3333.20064 C535.209602,3332.40631 534.643563,3331.47385 534.27665,3330.45791 C533.517021,3328.28316 533.499089,3325.91805 534.225655,3323.73203 C534.559659,3322.72046 535.073226,3321.77736 535.741736,3320.94795 C536.393031,3320.13755 537.205411,3319.47113 538.127496,3318.99083 C539.116726,3318.494 540.211303,3318.24341 541.318156,3318.26035 C542.582631,3318.23947 543.83248,3318.53311 544.955372,3319.11487 C545.398933,3319.34794 545.815002,3319.62994 546.195802,3319.95561 C546.505292,3320.23135 546.782696,3320.54112 547.022755,3320.87904 L547.091668,3320.87904 L547.091668,3318.67383 L551.825975,3318.67383 L551.825975,3334.00003 L551.816327,3334.00003 Z M538.845566,3326.94336 C538.843381,3327.48238 538.948323,3328.01646 539.154296,3328.51457 C539.362145,3329.0016 539.658943,3329.44563 540.029488,3329.82391 C540.410452,3330.1982 540.851681,3330.50571 541.334696,3330.73356 C541.846931,3330.96332 542.402399,3331.0808 542.963793,3331.07813 C543.519463,3331.07701 544.068751,3330.95964 544.576352,3330.73356 C545.065768,3330.50898 545.512514,3330.20121 545.89672,3329.82391 C546.268154,3329.44635 546.56507,3329.00215 546.771913,3328.51457 C547.407531,3326.99023 547.062086,3325.23308 545.89672,3324.06281 C545.516155,3323.68113 545.068572,3323.37277 544.576352,3323.15316 C544.070878,3322.92062 543.520164,3322.80294 542.963793,3322.80859 C542.401728,3322.79916 541.844806,3322.91695 541.334696,3323.15316 C540.848848,3323.37609 540.406813,3323.68416 540.029488,3324.06281 C539.266229,3324.82651 538.839959,3325.86365 538.845566,3326.94336 L538.845566,3326.94336 Z M560.500713,3309.37061 L560.500713,3320.94795 L560.569626,3320.94795 C560.700438,3320.59202 560.898352,3320.2645 561.152628,3319.98317 C561.441101,3319.64764 561.776214,3319.35523 562.147728,3319.11487 C562.577721,3318.84813 563.041176,3318.63958 563.525984,3318.49466 C564.083608,3318.33617 564.660832,3318.25729 565.240533,3318.26035 C566.324484,3318.21452 567.404557,3318.41724 568.398116,3318.853 C569.163893,3319.23092 569.810583,3319.81275 570.26703,3320.53447 C570.736085,3321.30082 571.045489,3322.15403 571.176679,3323.0429 C571.342347,3324.08206 571.422554,3325.13305 571.416495,3326.18532 L571.416495,3335.41963 L566.27009,3335.41963 L566.27009,3327.21901 C566.27009,3326.73662 566.252172,3326.22667 566.217716,3325.71671 C566.188166,3325.22615 566.084542,3324.74288 565.910365,3324.28333 C565.746701,3323.86535 565.473991,3323.49888 565.120625,3323.22207 C564.671392,3322.91901 564.134289,3322.77358 563.593518,3322.80859 C563.03348,3322.77998 562.476169,3322.90383 561.980959,3323.16694 C561.581593,3323.39309 561.254303,3323.72755 561.036855,3324.13172 C560.811593,3324.55644 560.666301,3325.01895 560.608217,3325.49619 C560.53768,3326.02155 560.503143,3326.55112 560.504848,3327.08119 L560.504848,3335.41963 L555.358443,3335.41963 L555.358443,3309.37061 L560.507605,3309.37061 L560.500713,3309.37061 Z M585.795832,3322.80859 L581.266885,3322.80859 L581.266885,3328.39053 C581.265236,3328.80959 581.288247,3329.22838 581.335798,3329.64474 C581.371671,3329.98841 581.476686,3330.32127 581.644527,3330.6233 C581.812654,3330.91102 582.072225,3331.1342 582.381894,3331.2573 C582.800982,3331.42788 583.251455,3331.50774 583.703641,3331.4916 C584.065727,3331.48645 584.426921,3331.4542 584.784193,3331.39513 C585.153001,3331.37327 585.506172,3331.23855 585.795832,3331.00921 L585.795832,3335.30937 C585.219751,3335.51711 584.621095,3335.65591 584.01237,3335.72285 C583.408442,3335.7932 582.801077,3335.83001 582.193073,3335.83311 C581.384154,3335.83783 580.5776,3335.74528 579.790774,3335.55746 C579.100883,3335.38598 578.449216,3335.08679 577.869486,3334.67537 C577.315082,3334.26859 576.872699,3333.72806 576.583574,3333.10416 C576.253752,3332.36826 576.094952,3331.5672 576.119102,3330.76113 L576.119102,3322.80859 L572.825072,3322.80859 L572.825072,3318.67383 L576.119102,3318.67383 L576.119102,3313.71211 L581.266885,3313.71211 L581.266885,3318.67383 L585.795832,3318.67383 L585.795832,3322.80859 L585.795832,3322.80859 Z M588.654334,3309.37061 L593.800739,3309.37061 L593.800739,3320.46556 L593.87103,3320.46556 C594.437889,3319.67522 595.234286,3319.07853 596.152042,3318.75652 C597.117013,3318.41919 598.133066,3318.25133 599.15526,3318.26035 C600.26208,3318.24374 601.356579,3318.49431 602.345921,3318.99083 C603.271556,3319.47718 604.084071,3320.15349 604.730303,3320.97552 C605.399029,3321.83027 605.912206,3322.79597 606.246384,3323.8285 C606.604454,3324.90858 606.784144,3326.03979 606.77839,3327.17766 C606.791626,3328.36531 606.594239,3329.5459 606.195388,3330.66465 C605.828476,3331.68059 605.262437,3332.61305 604.530456,3333.40738 C603.803342,3334.1773 602.920484,3334.78342 601.940714,3335.18533 C600.875042,3335.62634 599.731014,3335.84671 598.577771,3335.83311 C598.007903,3335.83673 597.44084,3335.75307 596.8963,3335.58502 C596.386172,3335.44019 595.896268,3335.23182 595.438106,3334.96481 C595.017867,3334.73117 594.626519,3334.44899 594.272102,3334.12407 C593.97187,3333.84988 593.701175,3333.545 593.464444,3333.21442 L593.39691,3333.21442 L593.39691,3335.41963 L588.661225,3335.41963 L588.661225,3309.37061 L588.654334,3309.37061 Z M593.390019,3327.03984 C593.339461,3328.16549 593.726716,3329.26699 594.470571,3330.11335 C596.193922,3331.67545 598.821191,3331.67545 600.544542,3330.11335 C601.985427,3328.32282 601.985427,3325.77064 600.544542,3323.98011 C598.821191,3322.41801 596.193922,3322.41801 594.470571,3323.98011 C593.72693,3324.82113 593.339444,3325.91834 593.390019,3327.03984 L593.390019,3327.03984 Z M608.902282,3313.39511 C608.902282,3311.74638 610.238846,3310.40981 611.887583,3310.40981 C613.536319,3310.40981 614.872884,3311.74638 614.872884,3313.39511 C614.872884,3315.04385 613.536319,3316.38041 611.887583,3316.38041 C610.238846,3316.38041 608.902282,3315.04385 608.902282,3313.39511 L608.902282,3313.39511 Z M609.315758,3318.67383 L614.463542,3318.67383 L614.463542,3335.41963 L609.315758,3335.41963 L609.315758,3318.67383 L609.315758,3318.67383 Z M629,3322.80859 L624.471053,3322.80859 L624.471053,3328.39053 C624.469404,3328.80959 624.492415,3329.22838 624.539966,3329.64474 C624.576505,3329.98827 624.681479,3330.321 624.848695,3330.6233 C625.01742,3330.91105 625.277426,3331.13419 625.58744,3331.2573 C626.006077,3331.42777 626.456078,3331.50762 626.907809,3331.4916 C627.269898,3331.48651 627.631096,3331.45426 627.988361,3331.39513 C628.357169,3331.37327 628.71034,3331.23855 629,3331.00921 L629,3335.30937 C628.423963,3335.51726 627.825289,3335.65606 627.216538,3335.72285 C626.613071,3335.7932 626.006165,3335.83001 625.398619,3335.83311 C624.589691,3335.83799 623.783119,3335.74544 622.99632,3335.55746 C622.306331,3335.38626 621.654615,3335.08705 621.075032,3334.67537 C620.520579,3334.26828 620.077814,3333.72786 619.787742,3333.10416 C619.458393,3332.36815 619.300066,3331.56709 619.324648,3330.76113 L619.324648,3322.80859 L616.030618,3322.80859 L616.030618,3318.67383 L619.324648,3318.67383 L619.324648,3313.71211 L624.471053,3313.71211 L624.471053,3318.67383 L629,3318.67383 L629,3322.80859 L629,3322.80859 Z M465.420395,3316.19297 C465.240627,3316.21643 465.067813,3316.27748 464.913197,3316.37214 C464.445969,3316.64779 463.246887,3317.64014 462.202169,3320.74121 C461.972001,3321.43034 461.759749,3322.20216 461.572307,3323.02912 C462.601332,3322.3395 463.532691,3321.5143 464.341222,3320.57582 C466.16741,3318.41196 465.911054,3316.95101 465.844898,3316.67536 C465.845963,3316.42977 465.662843,3316.22235 465.419017,3316.19297 L465.420395,3316.19297 Z M476.533268,3307.56509 L450.346418,3298 L429,3315.98623 L433.840432,3343.53755 L460.027283,3353.10265 L481.372322,3335.11641 L476.533268,3307.56509 Z M466.66496,3322.56051 C465.338836,3324.06254 463.776499,3325.3381 462.039535,3326.33693 L462.039535,3326.33693 C461.677054,3326.55745 461.302169,3326.76419 460.914879,3326.97093 C460.859749,3327.41197 460.808753,3327.79788 460.760514,3328.17001 C460.401408,3330.59728 460.331548,3333.05859 460.552398,3335.50233 C460.597149,3336.05693 460.326529,3336.58965 459.852244,3336.88058 C459.631701,3337.01214 459.382363,3337.08784 459.125904,3337.1011 C458.726838,3337.14064 458.328843,3337.01627 458.023299,3336.75654 C457.718987,3336.47399 457.538663,3336.08263 457.521614,3335.66772 C457.347824,3333.48207 457.389834,3331.28462 457.647036,3329.10722 C457.666331,3328.90048 457.687005,3328.69374 457.707679,3328.47322 C457.285933,3328.63861 456.853161,3328.80401 456.416254,3328.9694 C455.080354,3329.47597 453.719111,3329.913 452.337996,3330.27874 C452.951015,3332.63176 453.352309,3335.03491 453.537079,3337.45945 C453.609731,3338.02752 453.33924,3338.58473 452.847951,3338.87905 C452.632527,3338.99705 452.400027,3339.08075 452.158823,3339.12714 C451.784239,3339.21962 451.387925,3339.13863 451.079649,3338.90662 C450.733909,3338.61994 450.528899,3338.19786 450.517321,3337.74888 C450.352715,3335.49541 449.97851,3333.26217 449.399556,3331.07813 L449.345804,3330.87139 C448.360235,3331.0033 447.365075,3331.04942 446.371529,3331.00921 C444.198733,3331.04959 442.116825,3330.13828 440.672444,3328.51457 C439.082973,3326.4077 438.964942,3323.53652 440.376119,3321.3063 C440.826488,3320.57462 441.439643,3319.95674 442.167851,3319.50078 C443.118059,3318.91284 444.263901,3318.72923 445.350242,3318.99083 C446.754684,3319.32161 448.79588,3320.56204 450.535239,3324.57276 C450.921735,3325.47291 451.259889,3326.39306 451.548256,3327.32927 C452.78469,3327.006 454.003747,3326.61958 455.200633,3326.17154 L455.200633,3326.15776 L455.371536,3326.10262 C456.354232,3325.74428 457.273529,3325.35837 458.107373,3324.97246 C458.363952,3323.20437 458.771098,3321.46143 459.324372,3319.76265 C459.937481,3317.35502 461.362338,3315.23258 463.358526,3313.75346 C463.829742,3313.46136 464.353754,3313.26468 464.900793,3313.17459 C466.725771,3312.90438 468.439772,3314.11955 468.788851,3315.9311 C469.169568,3318.35272 468.381293,3320.81161 466.663582,3322.56051 L466.66496,3322.56051 Z M444.650089,3321.96786 C444.337711,3321.87902 444.00197,3321.93464 443.734927,3322.11947 C443.4152,3322.32795 443.146658,3322.60591 442.949322,3322.93264 C442.212146,3324.04644 442.239569,3325.49982 443.018234,3326.58501 C443.456519,3327.12253 444.847179,3328.28027 448.531255,3327.89436 C447.42176,3324.49007 445.989753,3322.28486 444.64871,3321.96786 L444.650089,3321.96786 Z" id="Brightbit"></path>
  </g>
</svg>
