<?xml version="1.0" encoding="UTF-8"?>
<svg width="169px" height="143px" viewBox="0 0 169 143" version="1.1" xmlns="http://www.w3.org/2000/svg" xmlns:xlink="http://www.w3.org/1999/xlink">
    <!-- Generator: Sketch 43.2 (39069) - http://www.bohemiancoding.com/sketch -->
    <title>Group</title>
    <desc>Created with Sketch.</desc>
    <defs>
        <linearGradient x1="0%" y1="12.7659911%" x2="70.0792701%" y2="12.7659917%" id="linearGradient-kitMath">
            <stop stop-color="#FFFFFF" stop-opacity="0.597005208" offset="0%"></stop>
            <stop stop-color="#FFFFFF" offset="100%"></stop>
        </linearGradient>
    </defs>
    <g id="Page-1" stroke="none" stroke-width="1" fill="none" fill-rule="evenodd">
        <g id="Artboard" transform="translate(-1.000000, -1.000000)">
            <g id="Group" transform="translate(1.000000, 1.000000)">
                <path d="M155.643378,79.6898401 C149.730441,76.0206215 144.558468,70.0034532 140.583921,62.3585441 C139.582032,60.4318369 138.658421,58.3997408 137.815916,56.2782051 C133.176167,47.4505648 126.367912,39.9301208 118.091875,34.4183184 C108.625015,28.1134418 97.2417709,24.434216 84.9933877,24.434216 L84.9933877,0.0415582883 C47.4745797,0.0415582883 16.7841463,34.5912561 14.4135017,78.2559896 C18.0403585,77.2737161 21.8989042,76.4775147 25.9356962,75.8883382 C31.2066947,75.119344 36.7826295,74.7049816 42.5537865,74.7049816 C58.622677,74.7049816 73.187005,77.9047979 83.8195398,83.0910522 C84.624006,83.4835238 85.408667,83.8860027 86.1669212,84.3006778 C96.799456,89.4872449 111.363784,92.6867485 127.432989,92.6867485 C133.204146,92.6867485 138.779766,92.272386 144.050765,91.5033918 C148.087557,90.9145281 151.946102,90.118014 155.572959,89.1360531 C160.375236,87.8357368 164.771036,86.2117488 168.647815,84.3253832 C168.723577,84.1142929 168.798397,83.9032026 168.872273,83.6914869 C164.20706,83.6495815 159.746816,82.2360583 155.643378,79.6898401" id="Fill-1" fill="#FFFFFF"></path>
                <path d="M155.573085,89.135928 C151.946228,90.1178889 148.087683,90.914403 144.050891,91.5032667 C138.779892,92.2722609 133.203957,92.6866234 127.4328,92.6866234 C111.36391,92.6866234 96.7995817,89.4871198 86.167047,84.3005528 C85.3625808,83.9080811 84.5779197,83.505915 83.8196655,83.0912398 C73.1871308,77.9046728 58.6228027,74.7048565 42.5535979,74.7048565 C36.7824409,74.7048565 31.2068204,75.1195317 25.9358219,75.8885259 C21.8990299,76.4773896 18.0404843,77.2739037 14.4136274,78.2558646 C9.45448142,79.5983989 4.08225665,81.7299419 0.11399676,83.6957399 C15.5180001,90.5757203 24.3202878,100.582964 33.4369428,113.404746 C43.1823327,128.728339 60.1581732,142.801026 83.455628,142.938 C83.9677326,142.946131 84.4792083,142.957389 84.9931991,142.957389 C85.5075042,142.957389 86.0189799,142.946756 86.5310845,142.938 C112.141655,142.505187 135.110281,131.291131 151.048395,113.657742 C158.69664,105.196617 164.723377,95.2584851 168.64794,84.3252581 C164.771161,86.2119364 160.375047,87.8359245 155.573085,89.135928" id="Fill-4" fill="url(#linearGradient-kitMath)"></path>
            </g>
        </g>
    </g>
</svg>
