<?xml version="1.0" encoding="UTF-8"?>
<svg width="125px" height="125px" viewBox="0 0 125 125" version="1.1" xmlns="http://www.w3.org/2000/svg" xmlns:xlink="http://www.w3.org/1999/xlink">
    <!-- Generator: Sketch 42 (36781) - http://www.bohemiancoding.com/sketch -->
    <title>Group 2</title>
    <desc>Created with Sketch.</desc>
    <defs></defs>
    <g id="Welcome" stroke="none" stroke-width="1" fill="none" fill-rule="evenodd">
        <g id="Work" transform="translate(-345.000000, -755.000000)" fill="#FFFFFF">
            <g transform="translate(117.000000, 250.000000)" id="Group">
                <g transform="translate(0.000000, 347.000000)">
                    <g id="Group-2" transform="translate(228.000000, 158.000000)">
                        <path d="M68.9924419,39.3411822 C69.9125,39.3411822 70.6881783,40.0679264 70.6881783,41.0369186 C70.6881783,41.9574612 69.9125,42.732655 68.9924419,42.732655 C68.0718992,42.732655 67.2967054,41.9574612 67.2967054,41.0369186 C67.2967054,40.116376 68.0234496,39.3411822 68.9924419,39.3411822 M68.9924419,44.2830426 C70.784593,44.2830426 72.2870155,42.8295543 72.2870155,40.988469 C72.2870155,39.1473837 70.784593,37.6938953 68.9924419,37.6938953 C67.1508721,37.6938953 65.6973837,39.1958333 65.6973837,40.988469 C65.6973837,42.8295543 67.1998062,44.2830426 68.9924419,44.2830426" id="Fill-1"></path>
                        <path d="M55.8140504,39.3411822 C56.7830426,39.3411822 57.5097868,40.0679264 57.5097868,41.0369186 C57.5097868,41.9574612 56.7830426,42.732655 55.8140504,42.732655 C54.8935078,42.732655 54.118314,41.9574612 54.118314,41.0369186 C54.118314,40.116376 54.8935078,39.3411822 55.8140504,39.3411822 M55.8625,44.2830426 C57.6551357,44.2830426 59.108624,42.8295543 59.1570736,40.988469 C59.1570736,39.1473837 57.6551357,37.6938953 55.8625,37.6938953 C54.0214147,37.6938953 52.5679264,39.1958333 52.5679264,40.988469 C52.5679264,42.8295543 54.0698643,44.2830426 55.8625,44.2830426" id="Fill-3"></path>
                        <path d="M89.0020349,92.2965116 L87.4516473,90.746124 C88.2752907,90.1162791 88.856686,89.0988372 88.856686,87.9360465 C88.856686,85.998062 87.2573643,84.3992248 85.3193798,84.3992248 C83.3813953,84.3992248 81.7830426,85.998062 81.7830426,87.9360465 C81.7830426,89.0988372 82.3159884,90.1162791 83.1880814,90.746124 L81.6376938,92.2965116 C80.3780039,91.2306202 79.6028101,89.6802326 79.6028101,87.9360465 C79.6028101,86.5310078 80.1357558,85.2228682 80.9589147,84.253876 L80.9589147,66.5213178 L78.488469,66.5213178 L78.488469,103.924419 L80.1842054,104.893411 L80.1842054,107.945736 L63.2268411,107.945736 L63.2268411,104.893411 L64.9225775,103.924419 L64.9225775,92.5387597 L59.8838178,92.5387597 L59.8838178,103.875969 L61.5795543,104.844961 L61.5795543,107.897287 L44.6706395,107.945736 L44.6706395,104.893411 L46.3179264,103.924419 L46.3179264,66.5213178 L43.7985465,66.5213178 L43.7985465,84.253876 C44.6221899,85.2713178 45.1551357,86.5310078 45.1551357,87.9360465 C45.1551357,89.6802326 44.3799419,91.2306202 43.1202519,92.2965116 L41.5698643,90.746124 C42.4419574,90.1162791 42.9749031,89.0988372 42.9749031,87.9360465 C42.9749031,85.998062 41.3760659,84.3992248 39.4380814,84.3992248 C37.5000969,84.3992248 35.9012597,85.998062 35.9012597,87.9360465 C35.9012597,89.0988372 36.4342054,90.1162791 37.3062984,90.746124 L35.7559109,92.2965116 C34.5446705,91.2306202 33.7210271,89.6802326 33.7210271,87.9360465 C33.7210271,86.5310078 34.2539729,85.2228682 35.0776163,84.253876 L35.0776163,56.6375969 C35.1260659,55.5717054 35.9981589,54.6996124 37.0640504,54.6996124 L87.6938953,54.6996124 C88.7597868,54.6996124 89.6318798,55.5717054 89.679845,56.6375969 L89.679845,84.253876 C90.5524225,85.2713178 91.0369186,86.5310078 91.0369186,87.9360465 C91.0369186,89.6802326 90.2617248,91.2306202 89.0020349,92.2965116 M49.5156008,31.9767442 L75.242345,31.9767442 C76.3082364,31.9767442 77.1803295,32.8488372 77.1803295,33.9147287 L77.1803295,50.6782946 C77.1803295,51.744186 76.3082364,52.6162791 75.242345,52.6162791 L49.5156008,52.6162791 C48.4497093,52.6162791 47.5776163,51.744186 47.5776163,50.6782946 L47.5776163,33.9147287 C47.5776163,32.8488372 48.4497093,31.9767442 49.5156008,31.9767442 M72.6260659,26.8895349 L71.0756783,29.1182171 C69.0887597,27.2286822 65.9395349,25.9689922 62.4031977,25.9689922 C58.866376,25.9689922 55.6687016,27.2286822 53.7307171,29.1182171 L52.1803295,26.8895349 C54.6028101,24.7093023 58.2849806,23.3042636 62.4031977,23.3042636 C66.5214147,23.3042636 70.1551357,24.7093023 72.6260659,26.8895349 M72.5776163,23.498062 C69.9128876,21.4631783 66.3276163,20.3488372 62.5000969,20.3488372 C58.6725775,20.3488372 55.0873062,21.4631783 52.3741279,23.4496124 C51.7442829,23.9341085 51.2113372,24.4670543 50.7268411,25 L49.1764535,22.7713178 C52.1803295,19.6705426 57.0252907,17.6841085 62.5000969,17.6841085 C67.8295543,17.6841085 72.5776163,19.622093 75.5814922,22.5775194 L74.0311047,24.8062016 C73.5950581,24.3217054 73.110562,23.8856589 72.5776163,23.498062 M62.4031977,12.3062016 C68.992345,12.3062016 74.9027132,14.6802326 78.6338178,18.3624031 L77.0829457,20.5426357 C73.8857558,17.1511628 68.5078488,14.9224806 62.4031977,14.9224806 C56.2985465,14.9224806 50.8721899,17.1511628 47.7229651,20.5910853 L46.1725775,18.4108527 C49.9031977,14.6802326 55.7656008,12.3062016 62.4031977,12.3062016 M62.4031977,0 C27.9555233,0 9.68992244e-05,27.9554264 9.68992244e-05,62.4031008 C9.68992244e-05,96.8507752 27.9555233,124.806202 62.4031977,124.806202 C96.8508721,124.806202 124.805814,96.8507752 124.805814,62.4031008 C124.805814,27.9554264 96.8508721,0 62.4031977,0" id="Fill-5"></path>
                    </g>
                </g>
            </g>
        </g>
    </g>
</svg>