<?xml version="1.0" encoding="UTF-8"?>
<svg width="97px" height="97px" viewBox="0 0 97 97" version="1.1" xmlns="http://www.w3.org/2000/svg" xmlns:xlink="http://www.w3.org/1999/xlink">
    <!-- Generator: Sketch 42 (36781) - http://www.bohemiancoding.com/sketch -->
    <title>dsc</title>
    <desc>Created with Sketch.</desc>
    <defs></defs>
    <g id="Page-1" stroke="none" stroke-width="1" fill="none" fill-rule="evenodd">
        <g id="dsc" fill-rule="nonzero" fill="currentColor">
            <path d="M52.8716049,0.241975309 C22.6246914,-2.54074074 -2.54074074,22.6246914 0.241975309,52.8716049 C2.29876543,75.9802469 20.9308642,94.6123457 44.0395062,96.6691358 C74.1654321,99.3308642 99.3308642,74.1654321 96.6691358,44.0395062 C94.491358,20.9308642 75.9802469,2.29876543 52.8716049,0.241975309 Z M91.8296296,48.3950617 C91.8296296,72.3506173 72.3506173,91.8296296 48.3950617,91.8296296 C24.4395062,91.8296296 4.96049383,72.3506173 4.96049383,48.3950617 C4.96049383,24.4395062 24.4395062,4.96049383 48.3950617,4.96049383 C72.3506173,4.96049383 91.8296296,24.4395062 91.8296296,48.3950617 Z" id="Shape"></path>
            <path d="M48.2740741,29.2790123 C47.6691358,29.2790123 46.9432099,28.9160494 46.5802469,28.4320988 L45.2493827,29.8839506 C46.0962963,30.6098765 47.0641975,30.9728395 48.1530864,30.9728395 C49.9679012,30.9728395 51.5407407,30.0049383 51.5407407,28.0691358 C51.5407407,25.0444444 47.5481481,26.0123457 47.5481481,24.4395062 C47.5481481,23.8345679 48.2740741,23.5925926 48.8790123,23.5925926 C49.362963,23.5925926 49.9679012,23.8345679 50.2098765,24.1975309 L51.5407407,22.745679 C50.8148148,22.1407407 49.8469136,21.7777778 48.8790123,21.7777778 C47.1851852,21.7777778 45.6123457,22.745679 45.6123457,24.5604938 C45.6123457,27.4641975 49.7259259,26.617284 49.7259259,28.1901235 C49.4839506,28.9160494 48.8790123,29.2790123 48.2740741,29.2790123 L48.2740741,29.2790123 Z M69.8098765,46.9432099 C70.5358025,46.9432099 71.0197531,47.1851852 71.5037037,47.6691358 L72.9555556,46.4592593 C72.2296296,45.491358 71.0197531,45.1283951 70.0518519,45.1283951 C67.3901235,45.1283951 65.3333333,46.9432099 65.3333333,49.7259259 C65.3333333,52.508642 67.2691358,54.3234568 70.0518519,54.3234568 C71.2617284,54.3234568 72.4716049,53.8395062 73.1975309,52.7506173 L71.6246914,51.5407407 C71.2617284,52.145679 70.6567901,52.508642 69.8098765,52.508642 C68.4790123,52.508642 67.3901235,51.2987654 67.3901235,49.7259259 C67.3901235,48.1530864 68.3580247,46.9432099 69.8098765,46.9432099 Z M31.4567901,49.8469136 C31.4567901,46.7012346 29.1580247,45.491358 26.254321,45.491358 L23.3506173,45.491358 L23.3506173,54.2024691 L26.4962963,54.2024691 C29.1580247,54.0814815 31.4567901,52.6296296 31.4567901,49.8469136 Z M26.254321,52.3876543 L25.2864198,52.3876543 L25.2864198,47.1851852 L26.3753086,47.1851852 C27.9481481,47.1851852 29.4,48.0320988 29.4,49.7259259 C29.4,51.6617284 28.0691358,52.3876543 26.254321,52.3876543 L26.254321,52.3876543 Z" id="Shape"></path>
            <path d="M57.8320988,39.9259259 C57.8320988,39.9259259 58.3160494,38.5950617 59.8888889,37.6271605 C59.8888889,37.6271605 65.091358,34.1185185 66.4222222,33.9975309 L67.9950617,36.054321 L68.237037,36.1753086 L69.3259259,35.5703704 L70.0518519,35.9333333 L73.0765432,40.0469136 C73.0765432,40.0469136 74.1654321,40.7728395 75.254321,39.2 C75.254321,39.2 75.8592593,38.5950617 75.8592593,37.6271605 L62.7925926,20.2049383 C62.7925926,20.2049383 61.2197531,19.6 60.7358025,21.2938272 L60.4938272,23.2296296 L63.2765432,26.9802469 L63.0345679,28.0691358 L62.6716049,28.1901235 L62.5506173,28.9160494 L63.5185185,30.2469136 C63.5185185,30.2469136 59.4049383,33.0296296 58.3160494,34.2395062 L52.508642,39.2 L48.3950617,42.8296296 L44.2814815,38.837037 L38.4740741,33.8765432 C37.3851852,32.6666667 33.2716049,29.8839506 33.2716049,29.8839506 L34.2395062,28.5530864 L34.1185185,27.8271605 L33.7555556,27.7061728 L33.5135802,26.617284 L36.2962963,22.8666667 L36.054321,20.9308642 C35.5703704,19.237037 33.9975309,19.8419753 33.9975309,19.8419753 L20.8098765,37.5061728 C20.8098765,38.4740741 21.4148148,39.0790123 21.4148148,39.0790123 C22.5037037,40.6518519 23.5925926,39.9259259 23.5925926,39.9259259 L26.617284,35.8123457 L27.3432099,35.4493827 L28.4320988,36.054321 L28.6740741,35.9333333 L30.2469136,33.8765432 C31.5777778,33.9975309 36.7802469,37.5061728 36.7802469,37.5061728 C38.3530864,38.4740741 38.837037,39.8049383 38.837037,39.8049383 C39.562963,41.982716 41.1358025,43.1925926 41.1358025,43.1925926 L44.5234568,46.4592593 L23.108642,67.0271605 C23.108642,67.0271605 20.8098765,69.2049383 21.6567901,70.4148148 C21.6567901,70.4148148 23.4716049,72.8345679 26.617284,70.2938272 L34.6024691,63.0345679 L48.3950617,50.0888889 L62.1876543,63.1555556 L70.1728395,70.4148148 C73.3185185,72.8345679 75.1333333,70.5358025 75.1333333,70.5358025 C75.9802469,69.3259259 73.6814815,67.1481481 73.6814815,67.1481481 L52.2666667,46.5802469 L55.654321,43.3135802 C55.5333333,43.3135802 57.1061728,42.1037037 57.8320988,39.9259259 L57.8320988,39.9259259 Z" id="Shape"></path>
        </g>
    </g>
</svg>