<?xml version="1.0" encoding="UTF-8"?>
<svg width="111px" height="98px" viewBox="0 0 111 98" version="1.1" xmlns="http://www.w3.org/2000/svg" xmlns:xlink="http://www.w3.org/1999/xlink">
    <!-- Generator: Sketch 43.2 (39069) - http://www.bohemiancoding.com/sketch -->
    <title>client-amex</title>
    <desc>Created with Sketch.</desc>
    <defs></defs>
    <g id="Page-1" stroke="none" stroke-width="1" fill="none" fill-rule="evenodd">
        <g id="client-amex" fill-rule="nonzero" fill="currentColor">
            <path d="M100.6479,58.856 C100.6479,62.478 103.8459,62.314 106.4099,62.398 C106.8799,62.404 107.1659,62.478 107.3719,62.658 C107.5629,62.812 107.7049,63.081 107.7049,63.415 C107.7049,63.733 107.5629,63.987 107.3769,64.157 C107.1549,64.374 106.7909,64.442 106.2729,64.442 L101.0189,64.442 L101.0189,66.899 L106.2939,66.899 C108.0429,66.899 109.3339,66.413 110.0039,65.433 C110.3909,64.877 110.5809,64.157 110.5809,63.283 C110.5809,62.287 110.3909,61.668 110.0039,61.148 C109.9249,61.053 109.8519,60.947 109.7509,60.857 C109.1369,60.237 108.1389,59.983 106.6479,59.941 L105.1729,59.904 C104.7129,59.899 104.4009,59.872 104.1209,59.772 C103.7619,59.645 103.5179,59.348 103.5179,58.919 C103.5179,58.56 103.6349,58.278 103.9199,58.093 C104.1899,57.908 104.5229,57.887 105.0199,57.887 L110.0039,57.887 L110.0039,55.451 L104.5599,55.451 C101.6999,55.451 100.6479,57.198 100.6479,58.856" id="Fill-10"></path>
            <path d="M74.4673,60.1583 C74.1073,60.3703 73.6533,60.3913 73.1243,60.3913 L69.8043,60.3913 L69.8043,57.8233 L73.1693,57.8233 C73.6533,57.8233 74.1443,57.8333 74.4673,58.0243 C74.8213,58.2153 75.0323,58.5643 75.0323,59.0563 C75.0323,59.5443 74.8213,59.9413 74.4673,60.1583 M78.0503,58.5383 C78.0503,57.2353 77.5113,56.5103 76.6523,55.9963 C75.7593,55.5093 74.7523,55.4503 73.3643,55.4503 L67.0663,55.4503 L67.0663,66.8993 L69.8043,66.8993 L69.8043,62.7163 L72.7273,62.7163 C73.7213,62.7163 74.3293,62.8113 74.7263,63.2293 C75.2333,63.7593 75.1703,64.7763 75.1703,65.4653 L75.1703,66.8993 L77.9073,66.8993 L77.9073,64.6333 C77.9033,63.6213 77.8393,63.1023 77.4533,62.5413 C77.2203,62.2023 76.7233,61.8003 76.1153,61.5773 C76.8383,61.2913 78.0503,60.3603 78.0503,58.5383" id="Fill-13"></path>
            <path d="M61.1509,60.7305 L57.6149,60.7305 L57.6149,57.8235 L61.1779,57.8235 C62.1659,57.8235 62.8479,58.2205 62.8479,59.2265 C62.8479,60.2165 62.1979,60.7305 61.1509,60.7305 L61.1509,60.7305 Z M54.8949,65.8615 L50.7089,61.1965 L54.8949,56.6845 L54.8949,65.8615 Z M44.0719,64.5115 L37.3589,64.5115 L37.3589,62.2345 L43.3529,62.2345 L43.3529,59.8985 L37.3589,59.8985 L37.3589,57.8235 L44.2019,57.8235 L47.1879,61.1545 L44.0719,64.5115 Z M61.1779,55.4505 L52.4559,55.4505 L48.9829,59.2005 L45.6259,55.4505 L34.6449,55.4505 L34.6449,66.8995 L45.4569,66.8995 L48.9509,63.1135 L52.3159,66.8995 L57.6149,66.8995 L57.6149,63.0605 L61.0219,63.0605 C63.4139,63.0605 65.7769,62.3985 65.7769,59.2265 C65.7769,56.0545 63.3449,55.4505 61.1779,55.4505 L61.1779,55.4505 Z" id="Fill-15"></path>
            <polygon id="Fill-16" points="67.941 47.1955 70.727 47.1955 70.727 35.7525 67.941 35.7525"></polygon>
            <polygon id="Fill-17" points="79.5674 66.8995 88.6864 66.8995 88.6864 64.5225 82.2904 64.5115 82.2904 62.2345 88.5274 62.2345 88.5274 59.8995 82.2904 59.8995 82.2904 57.8235 88.6864 57.8235 88.6864 55.4505 79.5674 55.4505"></polygon>
            <path d="M84.5527,37.7056 L86.4447,42.2596 L82.6807,42.2596 L84.5527,37.7056 Z M77.4797,47.1956 L80.6777,47.1956 L81.6977,44.6426 L87.3807,44.6426 L88.4427,47.1956 L94.0037,47.1956 L93.9977,38.6166 L99.1737,47.1956 L103.0417,47.1956 L103.0417,35.7516 L100.2507,35.7516 L100.2507,43.7216 L95.4517,35.7516 L91.2857,35.7516 L91.2857,46.5756 L86.6667,35.7516 L82.5747,35.7516 L78.7287,44.7536 L77.4997,44.7536 C76.7817,44.7536 76.0147,44.6166 75.6027,44.1666 C75.0847,43.5836 74.8467,42.7096 74.8467,41.4816 C74.8467,40.2796 75.1697,39.3686 75.6267,38.8866 C76.1707,38.3576 76.7417,38.2046 77.7387,38.2046 L80.3177,38.2046 L80.3177,35.7516 L77.6807,35.7516 C75.7987,35.7516 74.4187,36.1756 73.5337,37.0916 C72.3627,38.3146 72.0617,39.8606 72.0617,41.5606 C72.0617,43.6476 72.5527,44.9556 73.5227,45.9346 C74.4667,46.8986 76.1477,47.1956 77.4797,47.1956 L77.4797,47.1956 Z" id="Fill-18"></path>
            <path d="M95.9907,59.941 L94.5157,59.904 C94.0507,59.899 93.7447,59.872 93.4587,59.772 C93.1157,59.645 92.8617,59.348 92.8617,58.919 C92.8617,58.559 92.9727,58.278 93.2687,58.093 C93.5437,57.908 93.8657,57.887 94.3677,57.887 L99.3737,57.887 L99.3737,55.451 L93.8977,55.451 C91.0377,55.451 89.9967,57.198 89.9967,58.856 C89.9967,62.478 93.1947,62.314 95.7477,62.399 C96.2237,62.403 96.5097,62.478 96.7157,62.658 C96.9107,62.812 97.0537,63.081 97.0537,63.415 C97.0537,63.733 96.9167,63.987 96.7307,64.156 C96.4987,64.373 96.1387,64.442 95.6157,64.442 L90.3137,64.442 L90.3137,66.899 L95.6367,66.899 C98.3857,66.899 99.9247,65.75 99.9247,63.282 C99.9247,62.112 99.6437,61.414 99.1047,60.858 C98.4867,60.238 97.4767,59.984 95.9907,59.941" id="Fill-19"></path>
            <path d="M12.8555,97.6709 L110.0045,97.6709 L110.0045,68.4139 C108.9055,68.9439 107.4725,69.1499 105.9975,69.1499 L98.9195,69.1499 L98.9195,68.1279 C98.1005,68.7849 96.6205,69.1499 95.2095,69.1499 L72.9015,69.1499 L72.9015,65.4539 C72.9015,65.0089 72.8595,64.9829 72.4055,64.9829 L72.0515,64.9829 L72.0515,69.1499 L64.7085,69.1499 L64.7085,64.8399 C63.4825,65.3689 62.0825,65.4119 60.9085,65.3959 L60.0255,65.3959 L60.0255,69.1549 L51.1315,69.1499 L48.9405,66.6669 L46.6175,69.1499 L32.1705,69.1499 L32.1705,53.1739 L46.8945,53.1739 L49.0035,55.6259 L51.2585,53.1739 L61.1145,53.1739 C62.2555,53.1739 64.1165,53.2959 64.9625,54.1109 L64.9625,53.1739 L73.7575,53.1739 C74.5935,53.1739 76.3795,53.3489 77.4425,54.1109 L77.4425,53.1739 L90.7945,53.1739 L90.7895,54.1109 C91.4605,53.4759 92.8615,53.1739 94.0505,53.1739 L101.5255,53.1739 L101.5255,54.1109 C102.3135,53.5389 103.4185,53.1739 104.9455,53.1739 L110.0045,53.1739 L110.0045,-0.0001 L12.8555,-0.0001 L12.8555,41.0689 L16.1625,33.4859 L23.2795,33.4859 L24.2045,35.3759 L24.2045,33.4859 L32.5535,33.4859 L34.3695,37.6109 L36.1565,33.4859 L62.6635,33.4859 C63.8635,33.4859 64.9475,33.7079 65.7505,34.4179 L65.7505,33.4859 L72.9975,33.4859 L72.9975,34.4179 C74.2455,33.7299 75.7985,33.4859 77.5595,33.4859 L88.0735,33.4859 L89.0455,35.3759 L89.0455,33.4859 L96.8325,33.4859 L97.8895,35.3759 L97.8895,33.4859 L105.4745,33.4859 L105.4745,49.4509 L97.8145,49.4509 L96.3665,47.0309 L96.3665,49.4509 L86.8045,49.4509 L85.7635,46.8989 L83.4055,46.8989 L82.3435,49.4509 L77.3745,49.4509 C75.4345,49.4509 73.9485,48.9909 72.9975,48.4769 L72.9975,49.4509 L61.2045,49.4509 L61.2045,45.8289 C61.2045,45.3209 61.1145,45.2839 60.8025,45.2779 L60.3615,45.2779 L60.3715,49.4509 L37.5575,49.4509 L37.5575,47.4819 L36.7405,49.4569 L31.9805,49.4569 L31.1585,47.5029 L31.1585,49.4509 L21.9765,49.4509 L20.9295,46.8989 L18.5745,46.8989 L17.5235,49.4509 L12.8555,49.4509 L12.8555,97.6709 Z" id="Fill-20"></path>
            <path d="M4.6274,89.4444 C6.8984,89.4444 8.5554,91.2084 8.5554,93.3794 C8.5554,95.5504 6.8874,97.3134 4.6274,97.3134 C2.3684,97.3134 0.7004,95.5504 0.7004,93.3794 C0.7004,91.2084 2.3624,89.4444 4.6274,89.4444 M4.6274,97.9864 C7.1834,97.9864 9.2524,95.9374 9.2524,93.3794 C9.2524,90.8214 7.1834,88.7724 4.6274,88.7724 C2.0724,88.7724 0.0004,90.8214 0.0004,93.3794 C0.0004,95.9374 2.0724,97.9864 4.6274,97.9864" id="Fill-24"></path>
            <path d="M3.7744,91.8438 L5.0644,91.8438 C5.3364,91.8438 5.7094,91.8918 5.7094,92.4368 C5.7094,92.9558 5.3654,93.0508 4.9684,93.0508 L3.7744,93.0508 L3.7744,91.8438 Z M3.7744,93.7238 L5.0264,93.7238 C5.6084,93.7238 5.6614,94.0408 5.6614,94.3588 C5.6614,94.5128 5.6764,95.1538 5.7854,95.4918 L6.6394,95.4918 L6.6394,95.2428 C6.4594,95.1428 6.4434,95.1008 6.4304,94.8828 L6.3984,94.1368 C6.3754,93.6498 6.2084,93.4638 6.0124,93.3528 C6.2484,93.1838 6.4784,92.9188 6.4784,92.3778 C6.4784,91.4198 5.7164,91.1708 5.0264,91.1708 L3.0234,91.1708 L3.0234,95.4918 L3.7764,95.4918 L3.7744,93.7238 Z" id="Fill-25"></path>
            <path d="M63.0137,38.5054 C63.2247,38.7004 63.3477,38.9914 63.3477,39.3554 C63.3477,39.8584 63.1357,40.2554 62.7817,40.4544 C62.4117,40.6694 61.9677,40.6874 61.4337,40.6874 L61.4307,40.6874 L58.1147,40.6874 L58.1117,40.6874 L58.1117,38.1454 L58.1147,38.1454 L61.4737,38.1454 L61.4757,38.1454 C61.5467,38.1454 61.6177,38.1474 61.6887,38.1484 C61.7377,38.1494 61.7867,38.1494 61.8347,38.1514 C61.8887,38.1524 61.9387,38.1584 61.9907,38.1624 C62.0557,38.1664 62.1217,38.1694 62.1847,38.1764 C62.1977,38.1774 62.2077,38.1814 62.2207,38.1824 C62.4307,38.2104 62.6237,38.2564 62.7767,38.3414 C62.8647,38.3854 62.9447,38.4404 63.0137,38.5054 L63.0137,38.5054 Z M55.3877,35.7554 L55.3877,47.1954 L58.1117,47.1954 L58.1117,43.0444 L58.1147,43.0444 L58.1147,43.0434 L61.0487,43.0434 C62.0367,43.0434 62.6347,43.1284 63.0357,43.5364 C63.5437,44.0814 63.4747,45.0774 63.4747,45.7574 L63.4847,47.1954 L66.2367,47.1954 L66.2367,44.9444 C66.2367,43.9384 66.1627,43.4144 65.7767,42.8584 C65.5977,42.6004 65.2687,42.3164 64.8627,42.0914 C64.7277,42.0164 64.5847,41.9494 64.4367,41.8924 C64.4367,41.8914 64.4377,41.8914 64.4377,41.8914 L64.4337,41.8894 C65.1397,41.6084 66.3547,40.6554 66.3547,38.8444 C66.3547,37.5634 65.8397,36.8164 64.9727,36.3084 C64.6887,36.1444 64.3797,36.0404 64.0577,35.9584 C63.3787,35.7874 62.6097,35.7554 61.6727,35.7554 L55.3877,35.7554 Z" id="Fill-26"></path>
            <polygon id="Fill-35" points="53.4912 47.1954 53.4912 44.8314 47.1092 44.8314 47.1092 44.8284 47.1062 44.8284 47.1062 42.5414 53.3362 42.5514 53.3362 40.2004 47.1092 40.2004 47.1062 40.2004 47.1062 38.1454 47.1092 38.1454 53.4912 38.1454 53.4912 35.7554 44.3702 35.7554 44.3702 47.1954"></polygon>
            <path d="M17.8853,42.2598 L19.7463,37.7058 L19.8423,37.9398 L21.6173,42.2628 L17.8853,42.2628 L17.8863,42.2598 L17.8853,42.2598 Z M16.9123,44.6428 L22.6003,44.6428 L22.9043,45.3858 L23.6473,47.1958 L29.1973,47.1958 L29.1973,38.2278 L29.1973,38.2248 L30.3813,40.8948 L33.1773,47.1958 L35.5693,47.1958 L39.3583,38.6268 L39.5263,38.2458 L39.5263,38.2468 L39.5263,38.2458 L39.5423,47.1958 L42.3383,47.1958 L42.3383,35.7548 L37.7923,35.7548 L34.5103,43.5228 L34.5083,43.5188 L34.5073,43.5208 L30.9403,35.7548 L26.4753,35.7548 L26.4753,46.5918 L26.4753,46.5918 L26.4753,46.5938 L21.8343,35.7548 L17.7743,35.7548 L12.8903,47.1958 L15.8583,47.1958 L16.9123,44.6428 Z" id="Fill-40"></path>
        </g>
    </g>
</svg>