<svg viewBox="0 0 216 62" version="1.1" xmlns="http://www.w3.org/2000/svg" xmlns:xlink="http://www.w3.org/1999/xlink">
    <!-- Generator: Sketch 42 (36781) - http://www.bohemiancoding.com/sketch -->
    <title>expedia</title>
    <desc>Created with Sketch.</desc>
    <defs></defs>
    <g id="Page-1" stroke="none" stroke-width="1" fill="none" fill-rule="evenodd">
        <g id="expedia" fill-rule="nonzero" fill="currentColor">
            <path d="M103.5,48.1037879 L96.8125,48.1037879 L96.75,48.1037879 L91,41.125 L85.25,48.1037879 L85.1875,48.1037879 L79.8125,48.1037879 C79.75,48.1037879 79.75,48.1037879 79.75,48.0414773 L79.75,47.9791667 L88.25,37.5732955 L79.875,27.2920455 L79.875,27.1674242 L79.9375,27.1051136 L86.625,27.1051136 C86.625,27.1051136 86.6875,27.1051136 86.6875,27.1674242 L91.75,33.3984848 L96.875,27.1674242 L96.9375,27.1051136 L102.375,27.1051136 C102.4375,27.1051136 102.4375,27.1051136 102.4375,27.1674242 L102.4375,27.2920455 L94.5,36.8255682 L103.5625,47.9791667 L103.5625,48.0414773 C103.5625,48.0414773 103.5,48.1037879 103.5,48.1037879 L103.5,48.1037879 Z" id="Shape"></path>
            <path d="M149.3125,38.9441288 L149.25,39.0064394 L133.9375,39.0064394 C134.25,42.5581439 136.5625,44.5520833 140.3125,44.5520833 C142.625,44.5520833 145.0625,43.7420455 148.5,41.9350379 C148.5625,41.8727273 148.625,41.9350379 148.625,41.9973485 L148.625,46.6706439 C148.625,46.7329545 148.625,46.7329545 148.5625,46.7329545 C145.375,48.1037879 142.125,48.9761364 139.5625,48.9761364 L139.5625,48.9761364 C133,48.9761364 128.1875,44.1782197 128.1875,37.6356061 C128.1875,31.0306818 132.9375,26.2950758 139.5625,26.2950758 C145.5625,26.2950758 149.4375,30.3452652 149.4375,35.8909091 C149.5,36.7632576 149.3125,38.8818182 149.3125,38.9441288 Z M139.625,30.84375 C136.6875,30.84375 134.625,32.6507576 134.0625,35.7662879 L144.125,35.7662879 L144.125,35.5170455 C144.125,33.0246212 142.3125,30.84375 139.625,30.84375 L139.625,30.84375 Z" id="Shape"></path>
            <path d="M177.625,48.1037879 C177.5625,48.1037879 177.5625,48.1037879 177.5625,48.0414773 L177.5625,27.2920455 C177.5625,27.2297348 177.625,27.2297348 177.625,27.2297348 L183.125,27.2297348 C183.1875,27.2297348 183.1875,27.2920455 183.1875,27.2920455 L183.1875,47.9791667 C183.1875,48.0414773 183.125,48.0414773 183.125,48.0414773 C183.125,48.1037879 177.625,48.1037879 177.625,48.1037879 Z M180.375,22.8056818 C178.5,22.8056818 177,21.3102273 177,19.4409091 C177,17.5715909 178.5,16.0138258 180.375,16.0138258 C182.25,16.0138258 183.75,17.5715909 183.75,19.4409091 C183.75,21.3102273 182.25,22.8056818 180.375,22.8056818 L180.375,22.8056818 Z" id="Shape"></path>
            <path d="M115.0625,26.2950758 C113.5,26.2950758 111.9375,26.6066288 110.3125,27.1674242 L104.8125,27.1674242 C104.75,27.1674242 104.75,27.2297348 104.75,27.2297348 L104.75,61.3136364 C106.375,61.0643939 108.4375,60.5035985 110.4375,59.0704545 L110.4375,48.7268939 C111.8125,48.9138258 112.9375,49.038447 114,49.038447 C121.5,49.038447 126.375,44.5520833 126.375,37.5732955 C126.3125,30.9060606 121.6875,26.2950758 115.0625,26.2950758 Z M113.5625,44.925947 C112.5625,44.925947 111.5625,44.8013258 110.375,44.4897727 L110.375,31.155303 C111.75,30.7191288 112.9375,30.532197 114.125,30.532197 C117.9375,30.532197 120.5,33.3361742 120.5,37.5109848 C120.5625,42.0596591 117.8125,44.925947 113.5625,44.925947 Z" id="Shape"></path>
            <path d="M167.5625,16.138447 L167.5625,26.9804924 C165.9375,26.5443182 164.5,26.2950758 163.125,26.2950758 C156.5625,26.2950758 151.625,31.2176136 151.625,37.7602273 C151.625,44.2405303 156,48.9761364 162,48.9761364 C164.0625,48.9761364 166,48.4776515 168.3125,47.29375 L168.3125,49.1630682 C169.8125,48.8515152 171.5625,48.2907197 173.25,47.0445076 L173.25,13.8329545 C171.5625,14.1445076 169.5625,14.705303 167.5625,16.138447 Z M167.5625,43.2435606 C165.8125,44.1159091 164.3125,44.5520833 162.875,44.5520833 C159.4375,44.5520833 157.4375,42.1219697 157.4375,38.1340909 C157.4375,33.4607955 160.0625,30.4698864 164.0625,30.4698864 C165.1875,30.4698864 166.25,30.7191288 167.5625,31.3422348 L167.5625,43.2435606 L167.5625,43.2435606 Z" id="Shape"></path>
            <path d="M208,26.9181818 C208,26.7935606 207.875,26.6689394 207.75,26.6689394 L203.3125,26.6689394 C203.1875,26.6689394 203.0625,26.7935606 203.0625,26.9181818 L203.0625,27.6659091 L202.9375,27.6659091 C200.875,26.7935606 199.125,26.3573864 197.375,26.3573864 C191.1875,26.3573864 186.375,31.4668561 186.375,38.0094697 C186.375,44.6143939 190.6875,49.038447 197.125,49.038447 C198.875,49.038447 201.0625,48.9138258 203.125,46.5460227 L203.125,49.2253788 C204.5625,48.9138258 206.3125,48.2907197 207.9375,47.1068182 L208,26.9181818 Z M202.3125,43.18125 C200.625,44.1159091 199.1875,44.6143939 197.9375,44.6143939 C194.3125,44.6143939 192.125,42.2465909 192.125,38.1964015 C192.125,33.5854167 194.6875,30.532197 198.5,30.532197 C199.5,30.532197 200.75,30.9060606 202.3125,31.7160985 L202.3125,43.18125 L202.3125,43.18125 Z" id="Shape"></path>
            <path d="M64.5625,42.869697 L78.4375,42.869697 C78.25,44.4274621 77.6875,46.2344697 76.5,48.0414773 L64.625,48.0414773 L62.25,48.0414773 L62.0625,48.0414773 C60.3125,48.0414773 58.875,46.6706439 58.6875,44.925947 L58.6875,44.8636364 L58.6875,30.7191288 L58.6875,17.6339015 L58.6875,17.5715909 C58.875,15.8268939 60.3125,14.4560606 62.0625,14.4560606 L62.25,14.4560606 L78.4375,14.4560606 C78.25,16.0138258 77.6875,17.8208333 76.5,19.6901515 L64.625,19.6901515 L64.625,27.1051136 L76.375,27.1051136 C76.4375,27.1051136 76.4375,27.1674242 76.4375,27.1674242 L76.4375,32.3392045 C76.4375,32.4015152 76.375,32.4015152 76.375,32.4015152 L64.625,32.4015152 L64.625,42.869697 L64.5625,42.869697 L64.5625,42.869697 Z" id="Shape"></path>
            <path d="M47.1875,43.492803 C45.8125,43.492803 44.5625,44.5520833 44.5625,46.1098485 C44.5625,47.605303 45.625,48.7268939 47.1875,48.7268939 C48.5625,48.7268939 49.75,47.6676136 49.75,46.1098485 C49.75,44.5520833 48.5625,43.492803 47.1875,43.492803 Z M47.1875,48.4776515 C45.8125,48.4776515 45,47.4183712 45,46.1098485 C45,44.7390152 46,43.7420455 47.1875,43.7420455 C48.4375,43.7420455 49.375,44.7390152 49.375,46.1098485 C49.375,47.5429924 48.4375,48.4776515 47.1875,48.4776515 Z" id="Shape"></path>
            <path d="M48.4375,45.4867424 C48.4375,44.8636364 48.0625,44.6143939 47.3125,44.6143939 L46.125,44.6143939 L46.125,47.7299242 L46.625,47.7299242 L46.625,46.4214015 L47.125,46.4214015 L47.9375,47.7299242 L48.5,47.7299242 L47.625,46.3590909 C48.0625,46.2344697 48.4375,46.0475379 48.4375,45.4867424 Z M46.5625,45.9229167 L46.5625,44.9882576 L47.1875,44.9882576 C47.5,44.9882576 47.875,45.0505682 47.875,45.4244318 C47.875,45.9229167 47.5,45.9229167 47.125,45.9229167 L46.5625,45.9229167 L46.5625,45.9229167 L46.5625,45.9229167 Z" id="Shape"></path>
            <path d="M212.5625,25.6096591 C211.1875,25.6096591 209.9375,26.6689394 209.9375,28.2267045 C209.9375,29.7221591 211,30.84375 212.5625,30.84375 C213.9375,30.84375 215.125,29.7844697 215.125,28.2267045 C215.125,26.6689394 213.9375,25.6096591 212.5625,25.6096591 Z M212.5625,30.5945076 C211.1875,30.5945076 210.375,29.5352273 210.375,28.2267045 C210.375,26.8558712 211.3125,25.8589015 212.5625,25.8589015 C213.8125,25.8589015 214.75,26.8558712 214.75,28.2267045 C214.75,29.5975379 213.8125,30.5945076 212.5625,30.5945076 Z" id="Shape"></path>
            <path d="M213.75,27.5412879 C213.75,26.9181818 213.375,26.6689394 212.625,26.6689394 L211.4375,26.6689394 L211.4375,29.7844697 L211.9375,29.7844697 L211.9375,28.475947 L212.4375,28.475947 L213.25,29.7844697 L213.8125,29.7844697 L212.9375,28.4136364 C213.4375,28.3513258 213.75,28.1020833 213.75,27.5412879 Z M211.9375,28.0397727 L211.9375,27.1051136 L212.5625,27.1051136 C212.875,27.1051136 213.25,27.1674242 213.25,27.5412879 C213.25,28.0397727 212.875,28.0397727 212.5,28.0397727 L211.9375,28.0397727 L211.9375,28.0397727 L211.9375,28.0397727 Z" id="Shape"></path>
            <path d="M29.3125,19.6901515 L28.3125,16.8238636 L19.8125,5.48333333 L21.375,5.1094697 L36.0625,17.7585227 L44.6875,15.2660985 C45.6875,15.0168561 46.875,14.9545455 47.75,14.9545455 C45.0625,9.09734848 40.0625,4.29943182 33.5,1.99393939 C20.5,-2.61704545 6.25,4.17481061 1.625,17.0731061 C0.1875,21.0609848 -0.125,25.2357955 0.4375,29.1613636 L21.1875,21.9956439 L29.3125,19.6901515 Z" id="Shape"></path>
            <path d="M48.625,17.2600379 C47.875,17.7585227 46.75,18.3816288 45.625,18.7554924 L36.9375,21.2479167 L31.125,39.7541667 L29.625,40.2526515 L30.875,26.1081439 L30.1875,23.1795455 L22.0625,25.4850379 L0.625,30.4698864 C2.3125,38.6948864 8.1875,45.8606061 16.6875,48.9138258 C29.6875,53.5248106 43.9375,46.7952652 48.5625,33.8346591 C50.5625,28.2890152 50.4375,22.4318182 48.625,17.2600379 Z" id="Shape"></path>
        </g>
    </g>
</svg>