<svg viewBox="0 0 168 69" version="1.1" xmlns="http://www.w3.org/2000/svg" xmlns:xlink="http://www.w3.org/1999/xlink">
    <!-- Generator: Sketch 42 (36781) - http://www.bohemiancoding.com/sketch -->
    <title>AT&amp;T_logo_2016</title>
    <desc>Created with Sketch.</desc>
    <defs></defs>
    <g id="Page-1" stroke="none" stroke-width="1" fill="none" fill-rule="evenodd">
        <g id="AT&amp;T_logo_2016" fill-rule="nonzero" fill="currentColor">
            <path d="M155.319689,48.351415 C154.871018,48.351415 154.562012,48.0407476 154.562012,47.5939223 L154.562012,25.3985316 L147.013581,25.3985316 C146.564743,25.3985316 146.255234,25.0892039 146.255234,24.6418762 L146.255234,21.5802524 C146.255234,21.1319199 146.56491,20.8217549 147.013581,20.8217549 L167.10618,20.8217549 C167.554515,20.8217549 167.863186,21.1322549 167.863186,21.5802524 L167.863186,24.6417087 C167.863186,25.0887015 167.554515,25.3985316 167.10618,25.3985316 L159.558251,25.3985316 L159.558251,47.5935874 C159.558251,48.0407476 159.247737,48.351415 158.800575,48.351415 L155.319689,48.351415 L155.319689,48.351415 Z M97.497509,37.270216 L93.5350898,25.9153617 L89.5371257,37.270216 L97.497509,37.270216 Z M106.28582,47.4545825 C106.459018,47.9030825 106.182707,48.351415 105.700168,48.351415 L102.116671,48.351415 C101.599425,48.351415 101.28891,48.1112549 101.116048,47.62725 L99.0836168,41.7793325 L87.9530299,41.7793325 L85.9170778,47.62725 C85.7460599,48.1114223 85.4347066,48.351415 84.9188024,48.351415 L81.5425389,48.351415 C81.0938683,48.351415 80.7831856,47.902915 80.9557126,47.4545825 L90.2949701,21.5114199 C90.4678323,21.028085 90.7778443,20.8229272 91.2937485,20.8229272 L95.9119042,20.8229272 C96.4293174,20.8229272 96.7740359,21.0282524 96.9462275,21.5114199 L106.28582,47.4545825 L106.28582,47.4545825 Z M133.055832,44.6342913 C135.260455,44.6342913 136.743114,43.5693131 137.949629,41.744665 L132.367569,35.7564029 C130.229844,36.9617257 128.850635,38.1645364 128.850635,40.5740097 C128.85097,42.9488155 130.779952,44.6342913 133.055832,44.6342913 L133.055832,44.6342913 Z M134.606395,24.4692087 C132.814898,24.4692087 131.781078,25.6058665 131.781078,27.1196796 C131.781078,28.2894976 132.400096,29.3219854 133.813677,30.8364684 C136.26024,29.4246481 137.294731,28.5648277 137.294731,27.051182 C137.294731,25.6391942 136.399066,24.4692087 134.606395,24.4692087 L134.606395,24.4692087 Z M149.874778,47.3877597 C150.322275,47.8699223 150.047138,48.351415 149.49418,48.351415 L145.117461,48.351415 C144.531808,48.351415 144.221629,48.2130801 143.842707,47.76525 L141.223617,44.8759587 C139.466323,47.2160971 137.017413,48.9705728 132.951713,48.9705728 C127.920431,48.9705728 123.956,45.9426117 123.956,40.7475146 C123.956,36.7545583 126.093892,34.6205825 129.333844,32.8316068 C127.747234,31.0079636 127.024934,29.0808204 127.024934,27.3955121 C127.024934,23.1273932 130.022946,20.202932 134.536814,20.202932 C139.15497,20.202932 141.981461,22.9224029 141.981461,26.947682 C141.981461,30.3888058 139.500695,32.3141068 136.880599,33.7604272 L140.741078,37.9255485 L142.911832,34.1389223 C143.187305,33.6922646 143.497653,33.5195971 144.048263,33.5195971 L147.390491,33.5195971 C147.942778,33.5195971 148.252958,33.8990971 147.909413,34.4837549 L144.048766,41.0896675 L149.874778,47.3877597 L149.874778,47.3877597 Z M115.481557,48.351415 C115.929557,48.351415 116.241246,48.0407476 116.241246,47.5939223 L116.241246,25.3985316 L123.787497,25.3985316 C124.235497,25.3985316 124.545341,25.0892039 124.545341,24.6418762 L124.545341,21.5802524 C124.545341,21.1319199 124.235497,20.8217549 123.787497,20.8217549 L103.694898,20.8217549 C103.246228,20.8217549 102.936719,21.1322549 102.936719,21.5802524 L102.936719,24.6417087 C102.936719,25.0887015 103.246395,25.3985316 103.694898,25.3985316 L111.24115,25.3985316 L111.24115,47.5935874 C111.24115,48.0407476 111.552335,48.351415 111.999832,48.351415 L115.481557,48.351415 L115.481557,48.351415 Z" id="path5"></path>
            <path d="M13.4879521,61.7394248 C19.3325749,66.2585898 26.6685749,68.9738738 34.6277844,68.9738738 C43.3377964,68.9738738 51.2782275,65.7437694 57.3382994,60.4414879 C57.4117365,60.3766748 57.375521,60.333801 57.3030898,60.3766748 C54.5837365,62.1907718 46.8332695,66.1507354 34.6281198,66.1507354 C24.0213174,66.1507354 17.3182515,63.7868155 13.5328862,61.6762864 C13.4604551,61.6406141 13.4336287,61.6948762 13.4879521,61.7394248 M36.9678802,63.4989248 C45.4513772,63.4989248 54.7737006,61.188932 60.3492216,56.6163422 C61.8749701,55.3704903 63.3282874,53.7123131 64.6298683,51.4838811 C65.3791617,50.2016869 66.112024,48.6783277 66.7089102,47.1809272 C66.7354012,47.1079078 66.6902994,47.0724029 66.6353054,47.154466 C61.4504431,54.7759515 46.4362395,59.52975 30.9332934,59.52975 C19.9752335,59.52975 8.1845509,56.0295073 3.56840719,49.3460534 C3.52297006,49.2842549 3.47753293,49.310716 3.5051976,49.3817257 C7.80546108,58.5114976 20.8514491,63.4989248 36.9678802,63.4989248 M27.6988743,48.3530898 C10.0548503,48.3530898 1.73532934,40.1447694 0.226179641,34.5432087 C0.207568862,34.4621505 0.154083832,34.4799029 0.154083832,34.5527549 C0.154083832,36.4385316 0.343041916,38.8721214 0.668143713,40.4874248 C0.823233533,41.2737233 1.46388024,42.5076845 2.40313772,43.4912694 C6.67556886,47.9395922 17.3273054,54.1727039 35.7744431,54.1727039 C60.9078802,54.1727039 66.6545868,45.8099709 67.8280719,43.0598519 C68.6672335,41.093017 69.101988,37.5386796 69.101988,34.5529223 C69.101988,33.830432 69.0838802,33.2533107 69.0565509,32.6867403 C69.0565509,32.5947961 69.0032335,32.5872597 68.9847904,32.6768592 C67.7288144,39.4062015 46.2551617,48.3530898 27.6988743,48.3530898 M3.47753293,19.786085 C2.46651497,21.790267 1.34584431,25.1714345 1.01269461,26.9213883 C0.866658683,27.6711772 0.928862275,28.03125 1.19209581,28.5907864 C3.3068503,33.0726044 14.0036886,40.2435801 38.9552096,40.2435801 C54.177485,40.2435801 66.0025389,36.508034 67.9182754,29.6912694 C68.2710419,28.4363738 68.289988,27.1114733 67.8367904,25.326182 C67.3304431,23.3312112 66.3821317,21.0048058 65.579521,19.3712476 C65.5530299,19.3179903 65.5062515,19.3258617 65.5158084,19.3888325 C65.8139162,28.3296917 40.852503,34.0920291 28.2580359,34.0920291 C14.616,34.0920291 3.23475449,28.662801 3.23475449,21.8073495 C3.23475449,21.1486675 3.37123353,20.489818 3.54158084,19.8041723 C3.55868263,19.7415364 3.50502994,19.7311529 3.47753293,19.786085 M57.3941317,8.8085534 C57.538994,9.03531553 57.6112575,9.27731796 57.6112575,9.60305825 C57.6112575,13.427534 45.893006,20.1932184 27.2391377,20.1932184 C13.5328862,20.1932184 10.9667784,15.1143495 10.9667784,11.8844126 C10.9667784,10.729835 11.4100838,9.54846117 12.3863952,8.34866505 C12.4397126,8.27732039 12.3944431,8.24985437 12.3329102,8.30294417 C10.5523114,9.81022573 8.91623952,11.5062524 7.48102994,13.3370971 C6.79528144,14.2029466 6.36958084,14.9699854 6.36958084,15.4295388 C6.36958084,22.1230413 23.1722635,26.9761529 38.8832814,26.9761529 C55.6235928,26.9761529 63.0947305,21.517449 63.0947305,16.7202743 C63.0947305,15.0058252 62.4265868,14.0049903 60.7174132,12.0646165 C59.607976,10.8023519 58.5585629,9.7745534 57.4477844,8.76283252 C57.3941317,8.71861893 57.3567425,8.75462621 57.3941317,8.8085534 M52.2620838,4.98491505 C47.0956647,1.89163835 41.0961198,0.131803398 34.6281198,0.131803398 C28.115018,0.131803398 21.9347305,1.95310194 16.7497006,5.12827427 C15.1944431,6.0843932 14.3190659,6.85059466 14.3190659,7.83551942 C14.3190659,10.7388786 21.112,13.8606262 33.1635689,13.8606262 C45.0900599,13.8606262 54.3404551,10.4412743 54.3404551,7.14987379 C54.3404551,6.36424515 53.6530299,5.81458981 52.2620838,4.98491505" id="path9"></path>
        </g>
    </g>
</svg>