<svg viewBox="0 0 50 50" version="1.1" xmlns="http://www.w3.org/2000/svg" xmlns:xlink="http://www.w3.org/1999/xlink">
    <g stroke="none" stroke-width="1" fill="none" fill-rule="evenodd">
        <g fill="currentColor">
            <path d="M46.6464179,12.4702886 C44.4108486,8.63401458 41.3784415,5.59683107 37.5483986,3.35805296 C33.7177856,1.11916067 29.5358982,-3.55271368e-15 24.999772,-3.55271368e-15 C20.4642158,-3.55271368e-15 16.2809603,1.11950324 12.4511454,3.35805296 C8.62076042,5.59671688 5.58846734,8.63401458 3.35289799,12.4702886 C1.11767067,16.3064485 0,20.4955648 0,25.0375232 C0,30.4934458 1.58934297,35.3995511 4.76882699,39.7570953 C7.94796897,44.114982 12.0549498,47.1304698 17.0894273,48.803901 C17.6754548,48.9128368 18.1092747,48.8362163 18.3913432,48.5759809 C18.6735257,48.315403 18.8144459,47.9890525 18.8144459,47.5982997 C18.8144459,47.5330981 18.8088593,46.9465122 18.798028,45.8378569 C18.7868547,44.7292015 18.7816101,43.7620256 18.7816101,42.936786 L18.0328859,43.066504 C17.555513,43.1540865 16.9532957,43.1911978 16.226234,43.1806924 C15.4995143,43.1705296 14.7450895,43.0942518 13.9639855,42.9524298 C13.1825396,42.8118638 12.4557059,42.4858559 11.7829144,41.9750911 C11.110465,41.4643263 10.6330921,40.7957531 10.3509096,39.9703993 L10.0254021,39.2201814 C9.80843515,38.7207212 9.46685182,38.1658797 9.0001961,37.5577122 C8.53354038,36.9489738 8.06164006,36.5362968 7.5842671,36.3189963 L7.35635486,36.1555926 C7.20448938,36.0469994 7.06356916,35.9160253 6.93325216,35.7640406 C6.80304917,35.6120558 6.70556794,35.4599568 6.64046645,35.3076294 C6.57525094,35.1551879 6.62929316,35.0301516 6.80316318,34.9320637 C6.9770332,34.8339759 7.29125337,34.7863593 7.74719186,34.7863593 L8.39797878,34.883762 C8.83202674,34.9708878 9.36891455,35.2311232 10.0093263,35.6660669 C10.649396,36.100668 11.1755665,36.6656723 11.587952,37.3608514 C12.0873295,38.2522062 12.6889768,38.9313989 13.394604,39.3987721 C14.0996612,39.8661452 14.810533,40.0994322 15.5265354,40.0994322 C16.2425378,40.0994322 16.860945,40.0450785 17.381985,39.9369421 C17.9024549,39.8282347 18.3907731,39.6648311 18.8467116,39.4476447 C19.0420161,37.9908289 19.5737733,36.8716682 20.4415272,36.0893634 C19.2047128,35.9591886 18.0927428,35.763127 17.1050471,35.5024349 C16.1179215,35.2414002 15.0978461,34.8177611 14.0455049,34.2303759 C12.9925937,33.64379 12.1191392,32.9153821 11.4249132,32.0464083 C10.7305733,31.1769777 10.1607357,30.0355502 9.71619853,28.6231537 C9.27143333,27.2101862 9.04899372,25.5802608 9.04899372,23.7329206 C9.04899372,21.1025904 9.90637242,18.864269 11.6207878,17.0167005 C10.8176793,15.0391854 10.8934981,12.8223315 11.848472,10.3663671 C12.4778244,10.1705339 13.4111359,10.3174944 14.6479503,10.806335 C15.8849927,11.295404 16.7907129,11.7143613 17.3660232,12.0617225 C17.9413334,12.4089695 18.4022885,12.703233 18.7495725,12.9418868 C20.7681748,12.3769967 22.8513086,12.0944946 24.9995439,12.0944946 C27.1477793,12.0944946 29.2313691,12.3769967 31.2500855,12.9418868 L32.4870139,12.1598103 C33.3328773,11.6379693 34.3317463,11.1597482 35.4812266,10.7250329 C36.631391,10.2905459 37.5108883,10.1708765 38.1188062,10.3667096 C39.0949866,12.8227883 39.1819786,15.039528 38.3786421,17.017043 C40.0929435,18.8646116 40.9506642,21.1035039 40.9506642,23.7332631 C40.9506642,25.5806033 40.7274265,27.2156673 40.2833454,28.6394827 C39.8386942,30.0635264 39.2639541,31.2038119 38.5588969,32.0627372 C37.8530416,32.9215483 36.9740004,33.6442468 35.9216593,34.2307185 C34.8690901,34.817647 33.8486727,35.241286 32.861547,35.5023207 C31.8739653,35.7633554 30.7619953,35.9595311 29.5251809,36.0899343 C30.6532268,37.0676155 31.2173637,38.610872 31.2173637,40.7190185 L31.2173637,47.5973862 C31.2173637,47.988139 31.3530394,48.3143753 31.6246186,48.5750674 C31.8958559,48.8353028 32.3242032,48.9119233 32.9102306,48.8028733 C37.9453923,47.1296704 42.0523731,44.1140685 45.231401,39.7561818 C48.410087,35.3986376 50,30.4925323 50,25.0366097 C49.9988599,20.4952222 48.8806191,16.3064485 46.6464179,12.4702886 L46.6464179,12.4702886 Z" id="Shape"></path>
        </g>
    </g>
</svg>