<?xml version="1.0" encoding="UTF-8" standalone="no"?>
<svg width="50px" height="50px" viewBox="0 0 50 50" version="1.1" xmlns="http://www.w3.org/2000/svg" xmlns:xlink="http://www.w3.org/1999/xlink" style="background: #FFFFFF;">
    <!-- Generator: Sketch 39.1 (31720) - http://www.bohemiancoding.com/sketch -->
    <title>summit-icon</title>
    <desc>Created with Sketch.</desc>
    <defs></defs>
    <g id="Page-1" stroke="none" stroke-width="1" fill="none" fill-rule="evenodd">
        <path d="M8.22990196,31.6444783 L42.3281373,31.6444783 C42.6335294,31.6444783 42.7865686,31.2475652 42.5710784,31.014 L27.7695098,14.9859565 C27.635,14.8403478 27.4160784,14.8403478 27.2822549,14.9866957 L20.2534314,22.6514783 L20.9005882,21.7016956 C21.0042157,21.5494348 20.9843137,21.3380435 20.8552941,21.2101739 L19.0298039,19.4111304 C18.8932353,19.2766087 18.682549,19.2825217 18.5528431,19.4244348 L7.98558824,31.0162174 C7.77215686,31.2497826 7.92588235,31.6444783 8.22990196,31.6444783" id="Fill-1" fill="#4C89BA"></path>
        <path d="M36.4193137,28.8416957 L32.4485294,23.7956522 L33.2734314,23.7956522 C33.3427451,23.7956522 33.4058824,23.7505652 33.4319608,23.6818261 C33.4587255,23.6123478 33.4436275,23.5325217 33.394902,23.4800435 L27.7777451,17.4435652 C27.7139216,17.3748261 27.6137255,17.3703913 27.5464706,17.4317391 C27.4778431,17.4938261 27.4648039,17.601 27.514902,17.6793478 L30.9208824,22.9663478 L30.2291176,22.9663478 C30.1604902,22.9663478 30.0987255,23.0099565 30.0712745,23.0779565 C30.0445098,23.1452174 30.0568627,23.2243044 30.1042157,23.2775217 L32.0703922,25.5207826 L31.5357843,25.5207826 C31.4596078,25.5207826 31.3923529,25.5754783 31.3710784,25.6545652 C31.3498039,25.732913 31.3793137,25.817913 31.4438235,25.8615217 L36.1962745,29.1166522 C36.2244118,29.1366087 36.2566667,29.1454783 36.2882353,29.1454783 C36.3362745,29.1454783 36.3843137,29.1240435 36.4179412,29.081913 C36.4735294,29.013913 36.4742157,28.9111739 36.4193137,28.8416957" id="Fill-2" fill="#FFFFFF"></path>
    </g>
</svg>