<svg width="149px" height="92px" viewBox="0 0 149 92" version="1.1" xmlns="http://www.w3.org/2000/svg" xmlns:xlink="http://www.w3.org/1999/xlink">
  <g id="ThunderPlains" transform="translate(0.000000, 0.000000)" fill="#4E4B48">
    <polygon id="Fill-1" points="21.7969266 -0.000412844037 19.8152752 2.97206422 17.8336239 -0.000412844037 13.8716972 -0.000412844037 19.8152752 8.91701835 25.7602294 -0.000412844037"></polygon>
    <polygon id="Fill-2" points="130.790229 -0.000412844037 128.807202 2.97206422 126.82555 -0.000412844037 122.863624 -0.000412844037 128.807202 8.91701835 134.75078 -0.000412844037"></polygon>
    <g id="Group-13" transform="translate(0.000000, 1.706009)">
      <path d="M94.4051835,28.9300459 L93.8519725,28.4428899 C93.8051835,28.3864679 93.7336239,28.3575688 93.6235321,28.3575688 L90.228578,28.3575688 L90.228578,39.9172018 L93.9483028,39.9172018 L94.4051835,39.5194954 C94.4726147,39.4438073 94.5015138,39.375 94.5015138,39.318578 L94.5015138,29.1295872 L94.5015138,29.0731651 C94.5015138,29.0538991 94.4932569,29.034633 94.4726147,29.015367 C94.447844,28.9974771 94.4272018,28.9672018 94.4051835,28.9300459" id="Fill-3"></path>
      <path d="M34.6025229,50.8864679 L34.0479358,50.4048165 C34.0052752,50.3869266 33.9667431,50.3676606 33.9350917,50.3470183 C33.9034404,50.3305046 33.8759174,50.3194954 33.8525229,50.3194954 L33.787844,50.3194954 L30.4286697,50.3194954 L30.4286697,54.515367 L33.787844,54.515367 L33.8525229,54.515367 C33.9172018,54.515367 33.984633,54.487844 34.0479358,54.4286697 L34.6025229,53.9772936 C34.6245413,53.9387615 34.6465596,53.915367 34.6699541,53.9071101 C34.6892202,53.8974771 34.7016055,53.8727064 34.7016055,53.8355505 L34.7016055,53.7502294 L34.7016055,51.0860092 L34.7016055,51.028211 C34.7016055,51.008945 34.6892202,50.9896789 34.6699541,50.971789 C34.6465596,50.9525229 34.6245413,50.9236239 34.6025229,50.8864679" id="Fill-5"></path>
      <polygon id="Fill-7" points="66.9009633 59.5089908 70.8491284 59.5089908 68.8922477 53.660367"></polygon>
      <path d="M134.256881,43.9842661 C134.13578,44.0695872 134.022936,44.1136239 133.915596,44.1136239 L130.790367,44.1136239 L129.542202,44.1136239 C129.41422,44.1136239 129.293119,44.0695872 129.18578,43.9842661 C129.074312,43.898945 129,43.8067431 128.955963,43.7145413 L126.825688,39.0879358 L125.76055,36.7787615 L124.257798,36.7787615 L124.257798,43.7145413 C124.257798,43.8067431 124.215138,43.898945 124.127064,43.9842661 C124.040367,44.0695872 123.933028,44.1136239 123.800917,44.1136239 L119.917431,44.1136239 C119.810092,44.1136239 119.708257,44.0695872 119.609174,43.9842661 C119.511468,43.898945 119.463303,43.8067431 119.463303,43.7145413 L119.463303,24.5627064 C119.463303,24.4484862 119.511468,24.352156 119.609174,24.277844 C119.708257,24.202156 119.810092,24.1636239 119.917431,24.1636239 L126.825688,24.1636239 L130.294954,24.1636239 C130.378899,24.1636239 130.466972,24.1732569 130.55367,24.1911468 C130.627982,24.2076606 130.707798,24.2296789 130.790367,24.2516972 C130.804128,24.2558257 130.81789,24.258578 130.833028,24.2627064 C130.929358,24.2916055 131.033945,24.352156 131.141284,24.4484862 L133.001835,26.0750917 C133.109174,26.1700459 133.18211,26.265 133.213761,26.3599541 C133.246789,26.4576606 133.272936,26.5416055 133.294954,26.6186697 C133.316972,26.7122477 133.326606,26.798945 133.326606,26.8732569 L133.326606,34.1241743 C133.326606,34.2191284 133.316972,34.3058257 133.294954,34.3815138 C133.272936,34.4558257 133.246789,34.5342661 133.213761,34.6099541 C133.18211,34.6842661 133.109174,34.7709633 133.001835,34.8659174 L131.141284,36.4938991 L131.044954,36.5503211 L134.372477,43.7145413 C134.415138,43.8067431 134.377982,43.898945 134.256881,43.9842661 L134.256881,43.9842661 Z M121.780734,48.8200459 L121.780734,51.7732569 C121.780734,51.8888532 121.731193,51.9824312 121.63211,52.0608716 C121.533028,52.1365596 121.420183,52.1737156 121.288073,52.1737156 L117.438991,52.1737156 C117.133486,52.1737156 116.98211,52.0429817 116.98211,51.7760092 L116.98211,50.3475688 L112.937615,50.3475688 C112.848165,50.3475688 112.773853,50.3764679 112.709174,50.4328899 L112.184862,50.8870183 C112.100917,50.9613303 112.055505,51.0191284 112.055505,51.0562844 C112.034862,51.0934404 112.034862,51.1127064 112.055505,51.1127064 L112.055505,53.4067431 L112.088532,53.377844 L112.088532,53.4631651 C112.088532,53.5016972 112.122936,53.5484862 112.184862,53.6035321 L112.644495,54.0012385 L118.743578,54.0012385 C118.828899,54.0012385 118.918349,54.0122477 119.006422,54.0287615 C119.221101,54.0686697 119.41789,54.1636239 119.592661,54.3163761 L121.420183,55.9140826 C121.592202,56.0654587 121.702294,56.2374771 121.744954,56.4273853 C121.766972,56.5044495 121.780734,56.5787615 121.780734,56.6544495 L121.780734,63.4195872 C121.780734,63.5145413 121.766972,63.5998624 121.744954,63.6783028 C121.702294,63.848945 121.592202,64.0099541 121.420183,64.1613303 L119.592661,65.7604128 C119.41789,65.9145413 119.221101,66.0081193 119.006422,66.0452752 C118.918349,66.0659174 118.828899,66.0755505 118.743578,66.0755505 L110.292661,66.0755505 C110.185321,66.0755505 110.086239,66.0659174 109.999541,66.0452752 C109.806881,66.0081193 109.618349,65.9145413 109.44633,65.7604128 L107.618807,64.1613303 C107.446789,64.0099541 107.336697,63.848945 107.292661,63.6783028 C107.272018,63.5998624 107.272018,63.5145413 107.292661,63.4195872 L107.261009,63.3631651 L107.261009,60.5943578 C107.261009,60.4787615 107.309174,60.3851835 107.405505,60.3081193 C107.505963,60.2324312 107.618807,60.1952752 107.749541,60.1952752 L111.598624,60.1952752 C111.902752,60.1952752 112.055505,60.3260092 112.055505,60.5874771 L112.055505,61.8494037 L116.166055,61.8494037 C116.211468,61.8494037 116.265138,61.8232569 116.329817,61.7654587 L116.88578,61.3127064 C116.907798,61.2755505 116.92844,61.2507798 116.950459,61.2425229 C116.972477,61.2315138 116.98211,61.2094954 116.98211,61.1695872 L116.98211,61.0856422 L116.98211,58.9622477 L116.98211,58.9058257 C116.98211,58.8865596 116.972477,58.8631651 116.950459,58.8342661 C116.92844,58.805367 116.907798,58.7723394 116.88578,58.7351835 L116.329817,58.281055 C116.265138,58.2260092 116.211468,58.1971101 116.166055,58.1971101 L110.292661,58.1971101 C110.185321,58.1971101 110.086239,58.1861009 109.999541,58.168211 C109.806881,58.1296789 109.618349,58.0347248 109.44633,57.8833486 L107.618807,56.2870183 C107.446789,56.1328899 107.336697,55.9705046 107.292661,55.7998624 C107.272018,55.7241743 107.272018,55.6388532 107.292661,55.5425229 L107.261009,55.5425229 L107.261009,48.7787615 L107.292661,48.7787615 C107.272018,48.7030734 107.272018,48.6260092 107.292661,48.548945 C107.336697,48.3604128 107.446789,48.1897706 107.618807,48.0356422 L109.44633,46.4379358 C109.618349,46.2851835 109.806881,46.1916055 109.999541,46.1530734 C110.086239,46.1338073 110.185321,46.1241743 110.292661,46.1241743 L118.743578,46.1241743 C118.828899,46.1241743 118.918349,46.1338073 119.006422,46.1530734 C119.221101,46.1916055 119.41789,46.2879358 119.592661,46.4393119 L121.420183,48.0452752 C121.592202,48.1994037 121.702294,48.371422 121.744954,48.5613303 C121.766972,48.6397706 121.780734,48.7154587 121.780734,48.7897706 L121.744954,48.7897706 L121.780734,48.8200459 Z M103.508257,65.6461927 C103.508257,65.7425229 103.462844,65.8305963 103.377523,65.9172936 C103.290826,66.0026147 103.180734,66.0452752 103.051376,66.0452752 L97.8963303,66.0452752 C97.7669725,66.0452752 97.6458716,66.0026147 97.537156,65.9172936 C97.4284404,65.8305963 97.3513761,65.7425229 97.3073394,65.6461927 L93.3275229,56.1136239 L93.3275229,65.6461927 C93.3275229,65.7425229 93.2793578,65.8305963 93.1788991,65.9172936 C93.0825688,66.0026147 92.9779817,66.0452752 92.8733945,66.0452752 L88.9899083,66.0452752 C88.8577982,66.0452752 88.7504587,66.0026147 88.6637615,65.9172936 C88.5756881,65.8305963 88.5316514,65.7425229 88.5316514,65.6461927 L88.5316514,46.4943578 C88.5316514,46.2287615 88.6830275,46.0952752 88.9899083,46.0952752 L93.8518349,46.0952752 C94.0885321,46.0952752 94.2412844,46.2287615 94.3087156,46.4943578 L94.340367,46.4943578 L98.6463303,57.511789 L98.7110092,57.8269266 L98.7110092,46.4943578 C98.7110092,46.3801376 98.7591743,46.2851835 98.8555046,46.2081193 C98.9559633,46.1338073 99.0577982,46.0952752 99.1706422,46.0952752 L103.051376,46.0952752 C103.355505,46.0952752 103.508257,46.2287615 103.508257,46.4943578 L103.508257,65.6461927 Z M85.4325688,43.7145413 L85.4325688,24.5627064 C85.4325688,24.2957339 85.5866972,24.1636239 85.8908257,24.1636239 L96.2655963,24.1636239 C96.3729358,24.1636239 96.4720183,24.1732569 96.5614679,24.1911468 C96.7114679,24.2104128 96.8972477,24.3039908 97.1146789,24.4760092 L98.9394495,26.0750917 C99.1389908,26.265 99.2463303,26.4273853 99.2669725,26.5594954 C99.2889908,26.6379358 99.3,26.7218807 99.3,26.8168349 L99.3,41.4590367 C99.3,41.5539908 99.2889908,41.6406881 99.2669725,41.7163761 C99.2243119,41.8883945 99.1142202,42.0494037 98.9394495,42.202156 L97.1146789,43.7998624 C96.9399083,43.9526147 96.7431193,44.0461927 96.5256881,44.0833486 C96.440367,44.105367 96.3509174,44.1136239 96.2655963,44.1136239 L85.8908257,44.1136239 C85.5866972,44.1136239 85.4325688,43.9787615 85.4325688,43.7145413 L85.4325688,43.7145413 Z M85.1724771,65.6750917 C85.1724771,65.9406881 85.0197248,66.0755505 84.7155963,66.0755505 L80.8348624,66.0755505 C80.5307339,66.0755505 80.3779817,65.9406881 80.3779817,65.6750917 L80.3779817,46.6099541 C80.3779817,46.3429817 80.5307339,46.2081193 80.8348624,46.2081193 L84.7155963,46.2081193 C85.0197248,46.2081193 85.1724771,46.3429817 85.1724771,46.6099541 L85.1724771,65.6750917 Z M77.6201835,65.9461927 C77.5018349,66.0328899 77.3752294,66.0755505 77.2458716,66.0755505 L73.5233945,66.0755505 C73.3940367,66.0755505 73.2743119,66.0328899 73.1669725,65.9461927 C73.0555046,65.8608716 72.9811927,65.7700459 72.9385321,65.6750917 L72.1555046,63.3631651 L65.5981651,63.3631651 L64.8151376,65.6750917 C64.7697248,65.7700459 64.6940367,65.8608716 64.5866972,65.9461927 C64.4766055,66.0328899 64.3555046,66.0755505 64.2261468,66.0755505 L60.506422,66.0755505 C60.3743119,66.0755505 60.2518349,66.0328899 60.1334862,65.9461927 C60.0123853,65.8608716 59.9738532,65.7700459 60.0178899,65.6750917 L66.4761468,46.5507798 L66.4761468,46.524633 C66.6082569,46.2562844 66.7610092,46.1241743 66.9330275,46.1241743 L68.3711009,46.1241743 L69.3825688,46.1241743 L70.8165138,46.1241743 C71.0133028,46.1241743 71.166055,46.2562844 71.2747706,46.524633 L71.2747706,46.5507798 C72.3591743,49.7503211 73.4380734,52.9361009 74.5018349,56.1136239 C75.5697248,59.2911468 76.6472477,62.4796789 77.7330275,65.6750917 C77.7784404,65.7700459 77.7385321,65.8608716 77.6201835,65.9461927 L77.6201835,65.9461927 Z M57.1472477,65.6750917 C57.1472477,65.7893119 57.0990826,65.8842661 57.0013761,65.9599541 C56.9022936,66.0356422 56.7894495,66.0755505 56.6573394,66.0755505 L43.6073394,66.0755505 C43.4779817,66.0755505 43.3623853,66.0356422 43.2646789,65.9599541 C43.1669725,65.8842661 43.1188073,65.7893119 43.1188073,65.6750917 L43.1188073,46.524633 L43.1504587,46.524633 C43.1958716,46.3140826 43.3472477,46.2081193 43.6073394,46.2081193 L47.456422,46.2081193 C47.7192661,46.2081193 47.8720183,46.3140826 47.9146789,46.524633 L47.9146789,61.8783028 L56.6573394,61.8783028 C56.7894495,61.8783028 56.9022936,61.9223394 57.0013761,62.0076606 C57.0990826,62.0916055 57.1472477,62.1838073 57.1472477,62.2787615 L57.1472477,65.6750917 Z M41.0807339,43.9994037 C40.9830275,43.9237156 40.9321101,43.8287615 40.9321101,43.7145413 L40.9321101,36.2351835 L36.0399083,36.2351835 L36.0399083,43.7145413 C36.0399083,43.8287615 35.9889908,43.9237156 35.8926606,43.9994037 C35.7963303,44.0750917 35.690367,44.1136239 35.5816514,44.1136239 L31.6995413,44.1136239 C31.3940367,44.1136239 31.2426606,43.9787615 31.2426606,43.7145413 L31.2426606,24.5627064 C31.2426606,24.2957339 31.3940367,24.1636239 31.6995413,24.1636239 L35.5816514,24.1636239 C35.690367,24.1636239 35.7963303,24.202156 35.8926606,24.277844 C35.9889908,24.352156 36.0399083,24.4484862 36.0399083,24.5627064 L36.0399083,32.0393119 L40.9321101,32.0393119 L40.9321101,24.5627064 C40.9321101,24.4484862 40.9830275,24.352156 41.0807339,24.277844 C41.1798165,24.202156 41.2816514,24.1636239 41.3889908,24.1636239 L45.2724771,24.1636239 C45.5766055,24.1636239 45.7307339,24.2957339 45.7307339,24.5627064 L45.7307339,43.7145413 C45.7307339,43.9787615 45.5766055,44.1136239 45.2724771,44.1136239 L41.3889908,44.1136239 C41.2816514,44.1136239 41.1798165,44.0750917 41.0807339,43.9994037 L41.0807339,43.9994037 Z M39.496789,56.0283028 L39.4651376,56.0572018 L39.496789,56.0572018 C39.496789,56.152156 39.4857798,56.2374771 39.4651376,56.3131651 C39.4211009,56.4838073 39.3110092,56.6461927 39.1389908,56.798945 L37.3114679,58.4255505 C37.1366972,58.5796789 36.9412844,58.6732569 36.7266055,58.7104128 C36.637156,58.7296789 36.5490826,58.7296789 36.4623853,58.7104128 L30.4279817,58.7104128 L30.4279817,65.6461927 C30.4279817,65.7425229 30.3798165,65.8305963 30.2807339,65.9172936 C30.1830275,66.0026147 30.0688073,66.0452752 29.9380734,66.0452752 L26.0876147,66.0452752 C25.9568807,66.0452752 25.8481651,66.0026147 25.762844,65.9172936 C25.6747706,65.8305963 25.6321101,65.7425229 25.6321101,65.6461927 L25.6321101,46.4943578 C25.6321101,46.2287615 25.7834862,46.0952752 26.0876147,46.0952752 L36.4623853,46.0952752 C36.5490826,46.0952752 36.637156,46.1049083 36.7266055,46.1241743 C36.8119266,46.1420642 36.9041284,46.1668349 37.003211,46.1957339 C37.0995413,46.224633 37.2013761,46.2851835 37.3114679,46.3801376 L39.1389908,48.0081193 C39.3110092,48.1608716 39.4211009,48.3315138 39.4651376,48.521422 C39.4857798,48.5984862 39.496789,48.6741743 39.496789,48.7498624 L39.496789,56.0283028 Z M23.1880734,43.7723394 C23.1412844,43.9994037 22.987156,44.1136239 22.7256881,44.1136239 L21.796789,44.1136239 L18.8477064,44.1136239 C18.5862385,44.1136239 18.4334862,43.9994037 18.3866972,43.7723394 L18.3866972,28.4159174 L17.8334862,28.4159174 L14.2458716,28.4159174 C14.1151376,28.4159174 14.0009174,28.3773853 13.903211,28.3016972 C13.8041284,28.2260092 13.7559633,28.1296789 13.7559633,28.0168349 L13.7559633,24.6480275 C13.7559633,24.5324312 13.8041284,24.4333486 13.903211,24.3480275 C14.0009174,24.2627064 14.1151376,24.2200459 14.2458716,24.2200459 L17.8334862,24.2200459 L21.796789,24.2200459 L27.3275229,24.2200459 C27.459633,24.2200459 27.5738532,24.2627064 27.6715596,24.3480275 C27.7706422,24.4333486 27.816055,24.5324312 27.816055,24.6480275 L27.816055,28.0168349 C27.816055,28.1296789 27.7706422,28.2260092 27.6715596,28.3016972 C27.5738532,28.3773853 27.459633,28.4159174 27.3275229,28.4159174 L23.1880734,28.4159174 L23.1880734,43.7723394 Z M49.237156,41.4315138 C49.2247706,41.4315138 49.2206422,41.4205046 49.2206422,41.4012385 L49.2206422,24.5627064 C49.2206422,24.4484862 49.2701835,24.352156 49.3665138,24.277844 C49.462844,24.202156 49.5688073,24.1636239 49.6775229,24.1636239 L53.5582569,24.1636239 C53.8623853,24.1636239 54.0165138,24.2957339 54.0165138,24.5627064 L54.0165138,39.2916055 C54.0165138,39.3480275 54.0481651,39.4154587 54.112844,39.4897706 L54.5697248,39.8888532 L58.3568807,39.8888532 L58.8110092,39.4897706 C58.856422,39.4526147 58.883945,39.4154587 58.893578,39.3755505 C58.9045872,39.3370183 58.9211009,39.3108716 58.9417431,39.2916055 L58.9417431,24.5627064 C58.9417431,24.2957339 59.0958716,24.1636239 59.4027523,24.1636239 L63.2779817,24.1636239 C63.5848624,24.1636239 63.7376147,24.2957339 63.7376147,24.5627064 L63.7376147,41.4590367 C63.7376147,41.5539908 63.7266055,41.6406881 63.7059633,41.7163761 C63.683945,41.7920642 63.656422,41.8677523 63.6247706,41.9448165 C63.5917431,42.0191284 63.5201835,42.1058257 63.412844,42.202156 L61.5784404,43.7998624 C61.4050459,43.9526147 61.2110092,44.0461927 60.9908257,44.0833486 C60.9041284,44.105367 60.8188073,44.1136239 60.7293578,44.1136239 L52.2605505,44.0833486 C52.1504587,44.105367 52.0541284,44.105367 51.9674312,44.0833486 C51.7720183,44.0461927 51.5862385,43.9526147 51.4114679,43.7998624 L49.5784404,42.202156 C49.4036697,42.0494037 49.2949541,41.8883945 49.2522936,41.7163761 C49.2316514,41.6406881 49.2206422,41.5539908 49.2206422,41.4590367 L49.2522936,41.4590367 C49.2522936,41.4397706 49.246789,41.4315138 49.237156,41.4315138 L49.237156,41.4315138 Z M67.0995413,24.5324312 C67.0995413,24.2668349 67.2509174,24.1347248 67.556422,24.1347248 L72.4155963,24.1347248 C72.6550459,24.1347248 72.8091743,24.2668349 72.8738532,24.5324312 L72.9055046,24.5324312 L77.2142202,35.5498624 L77.2761468,35.865 L77.2761468,24.5324312 C77.2761468,24.4195872 77.3270642,24.324633 77.4233945,24.248945 C77.5224771,24.1732569 77.6256881,24.1347248 77.7357798,24.1347248 L81.6165138,24.1347248 C81.9233945,24.1347248 82.0733945,24.2668349 82.0733945,24.5324312 L82.0733945,43.6856422 C82.0733945,43.7805963 82.0307339,43.871422 81.9440367,43.9567431 C81.8559633,44.0420642 81.7486239,44.0833486 81.6165138,44.0833486 L76.4614679,44.0833486 C76.3321101,44.0833486 76.2110092,44.0420642 76.1036697,43.9567431 C75.993578,43.871422 75.9192661,43.7805963 75.8724771,43.6856422 L71.8954128,34.1530734 L71.8954128,43.6856422 C71.8954128,43.7805963 71.8458716,43.871422 71.746789,43.9567431 C71.6504587,44.0420642 71.5458716,44.0833486 71.4385321,44.0833486 L67.556422,44.0833486 C67.4256881,44.0833486 67.3155963,44.0420642 67.2288991,43.9567431 C67.143578,43.871422 67.0995413,43.7805963 67.0995413,43.6856422 L67.0995413,24.5324312 Z M102.887615,24.5627064 C102.887615,24.2957339 103.038991,24.1636239 103.344495,24.1636239 L115.222018,24.1636239 C115.329358,24.1636239 115.433945,24.202156 115.531651,24.277844 C115.627982,24.352156 115.678899,24.4484862 115.678899,24.5627064 L115.678899,27.9590367 C115.678899,28.0718807 115.627982,28.1695872 115.531651,28.2438991 C115.433945,28.3195872 115.329358,28.3581193 115.222018,28.3581193 L107.686239,28.3581193 L107.686239,32.0393119 L113.459174,32.0393119 C113.763303,32.0393119 113.916055,32.1741743 113.916055,32.4397706 L113.916055,35.8374771 C113.916055,36.1044495 113.763303,36.2351835 113.459174,36.2351835 L107.686239,36.2351835 L107.686239,39.9177523 L115.222018,39.9177523 C115.329358,39.9177523 115.433945,39.9562844 115.531651,40.0319725 C115.627982,40.1090367 115.678899,40.2026147 115.678899,40.318211 L115.678899,43.7145413 C115.678899,43.8287615 115.627982,43.9237156 115.531651,43.9994037 C115.433945,44.0750917 115.329358,44.1136239 115.222018,44.1136239 L103.344495,44.1136239 C103.038991,44.1136239 102.887615,43.9787615 102.887615,43.7145413 L102.887615,24.5627064 Z M148.623853,26.2292202 C148.623853,23.1411468 146.563761,20.4315138 143.58578,19.6003211 L130.790367,16.0374771 L130.790367,12.1636239 L136.733945,3.24756881 L132.770642,3.24756881 L128.807339,9.19252294 L124.844037,3.24756881 L120.880734,3.24756881 L126.825688,12.1636239 L126.825688,14.9338073 L76.1600917,0.824174312 C75.5587156,0.65766055 74.9353211,0.57233945 74.3146789,0.57233945 C73.6926606,0.57233945 73.0720183,0.65766055 72.4706422,0.824174312 L21.796789,14.9351835 L21.796789,12.165 L27.7417431,3.24756881 L23.7784404,3.24756881 L19.8151376,9.19252294 L15.853211,3.24756881 L11.8899083,3.24756881 L17.8334862,12.1636239 L17.8334862,16.0402294 L5.03669725,19.6030734 C2.06146789,20.4342661 0.00275229358,23.1438991 0.00275229358,26.2319725 L0,63.7883945 C0,66.877844 2.0587156,69.5888532 5.03394495,70.4172936 L17.8334862,73.9815138 L17.8334862,81.1925229 L13.8715596,80.5319725 L19.9155963,89.4494037 L25.7600917,80.5319725 L21.796789,81.1925229 L21.796789,75.0865596 L72.4678899,89.198945 C73.0692661,89.3654587 73.6926606,89.4494037 74.3146789,89.4494037 C74.9353211,89.4494037 75.5559633,89.3654587 76.1573394,89.198945 L126.825688,75.0879358 L126.825688,81.1925229 L122.863761,80.5319725 L128.906422,89.4494037 L134.750917,80.5319725 L130.790367,81.1925229 L130.790367,73.9842661 L143.591284,70.4186697 C146.566514,69.5902294 148.626606,66.8792202 148.626606,63.7897706 L148.623853,26.2292202 Z" id="Fill-9"></path>
      <path d="M127.913807,28.4730275 C127.846376,28.4166055 127.781697,28.3877064 127.717018,28.3877064 L127.650963,28.3877064 L126.825275,28.3877064 L124.258761,28.3877064 L124.258761,32.6111009 L126.825275,32.6111009 L127.682615,32.6111009 C127.772064,32.6111009 127.846376,32.5822018 127.913807,32.5244037 L128.435367,32.0688991 C128.500046,32.0124771 128.531697,31.9643119 128.531697,31.927156 L128.531697,31.8404587 L128.531697,29.1583486 L128.531697,29.0991743 C128.531697,29.0427523 128.500046,28.9863303 128.435367,28.9299083 L127.913807,28.4730275 Z" id="Fill-11"></path>
    </g>
  </g>
</svg>
