<?xml version="1.0" encoding="UTF-8" standalone="no"?>
<svg width="50px" height="50px" viewBox="0 0 50 50" version="1.1" xmlns="http://www.w3.org/2000/svg" xmlns:xlink="http://www.w3.org/1999/xlink">
    <g id="Page-1" stroke="none" stroke-width="1" fill="none" fill-rule="evenodd">
        <g id="Artboard-1" transform="translate(-50.000000, 0.000000)" fill="#ea4c89">
            <path d="M50,25 C50,20.46665 51.1167,16.28335 53.35,12.45 C55.58335,8.61665 58.6167,5.58335 62.45,3.35 C66.28335,1.11665 70.4667,0 75,0 C79.53335,0 83.7167,1.11665 87.55,3.35 C91.38335,5.58335 94.4167,8.61665 96.65,12.45 C98.88335,16.28335 100,20.46665 100,25 C100,29.53335 98.88335,33.71665 96.65,37.55 C94.4167,41.38335 91.38335,44.41665 87.55,46.65 C83.7167,48.88335 79.53335,50 75,50 C70.4667,50 66.28335,48.88335 62.45,46.65 C58.6167,44.41665 55.58335,41.38335 53.35,37.55 C51.1167,33.71665 50,29.53335 50,25 L50,25 Z M54.15,25 C54.15,30.2 55.9,34.78335 59.4,38.75 C61,35.61665 63.53335,32.63335 67,29.8 C70.4667,26.96665 73.85,25.18335 77.15,24.45 C76.65,23.28335 76.1667,22.23335 75.7,21.3 C69.9667,23.13335 63.7667,24.05 57.1,24.05 C55.8,24.05 54.83335,24.03335 54.2,24 C54.2,24.13335 54.1917,24.3 54.175,24.5 C54.15835,24.7 54.15,24.86665 54.15,25 L54.15,25 Z M54.8,19.85 C55.53335,19.91665 56.6167,19.95 58.05,19.95 C63.6167,19.95 68.9,19.2 73.9,17.7 C71.3667,13.2 68.58335,9.45 65.55,6.45 C62.9167,7.78335 60.65835,9.63335 58.775,12 C56.8917,14.36665 55.5667,16.98335 54.8,19.85 L54.8,19.85 Z M62.25,41.45 C66.0167,44.38335 70.2667,45.85 75,45.85 C77.4667,45.85 79.9167,45.38335 82.35,44.45 C81.68335,38.75 80.38335,33.23335 78.45,27.9 C75.38335,28.56665 72.2917,30.25 69.175,32.95 C66.05835,35.65 63.75,38.48335 62.25,41.45 L62.25,41.45 Z M69.9,4.85 C72.83335,7.88335 75.55,11.66665 78.05,16.2 C82.58335,14.3 86,11.88335 88.3,8.95 C84.43335,5.75 80,4.15 75,4.15 C73.3,4.15 71.6,4.38335 69.9,4.85 L69.9,4.85 Z M79.85,19.75 C80.35,20.81665 80.9167,22.16665 81.55,23.8 C84.0167,23.56665 86.7,23.45 89.6,23.45 C91.6667,23.45 93.7167,23.5 95.75,23.6 C95.48335,19.06665 93.85,15.03335 90.85,11.5 C88.68335,14.73335 85.0167,17.48335 79.85,19.75 L79.85,19.75 Z M82.8,27.3 C84.5,32.23335 85.65,37.3 86.25,42.5 C88.88335,40.8 91.03335,38.61665 92.7,35.95 C94.3667,33.28335 95.3667,30.4 95.7,27.3 C93.2667,27.13335 91.05,27.05 89.05,27.05 C87.2167,27.05 85.13335,27.13335 82.8,27.3 L82.8,27.3 Z" id="Shape"></path>
        </g>
    </g>
</svg>
