<?xml version="1.0" encoding="UTF-8"?>
<svg width="256px" height="256px" viewBox="0 0 256 256" version="1.1" xmlns="http://www.w3.org/2000/svg" xmlns:xlink="http://www.w3.org/1999/xlink">
    <!-- Generator: Sketch 43.2 (39069) - http://www.bohemiancoding.com/sketch -->
    <title>kitmath-logo</title>
    <desc>Created with Sketch.</desc>
    <defs>
        <linearGradient x1="0%" y1="16.2484254%" x2="70.2512936%" y2="16.2484258%" id="linearGradient-1">
            <stop stop-color="#F4EFEA" stop-opacity="0.51" offset="0%"></stop>
            <stop stop-color="#F4EFEA" offset="100%"></stop>
        </linearGradient>
    </defs>
    <g id="Page-1" stroke="none" stroke-width="1" fill="none" fill-rule="evenodd">
        <g id="Artboard" transform="translate(-418.000000, -92.000000)">
            <g id="kitmath-logo" transform="translate(418.000000, 92.000000)">
                <path d="M128,256 C184.088889,256 215.269467,256 235.634756,235.634756 C256,215.269467 256,184.088889 256,128 C256,71.9111111 256,40.7305333 235.634756,20.3652444 C215.269467,0 184.088889,0 128,0 C71.9111111,0 40.7305333,0 20.3652444,20.3652444 C0,40.7305333 0,71.9111111 0,128 C0,184.088889 0,215.269467 20.3652444,235.634756 C40.7305333,256 71.9111111,256 128,256 Z" id="Shape" fill="#F76707"></path>
                <path d="M193.494306,125.701652 C188.141598,122.352449 183.45965,116.860076 179.861677,109.881928 C178.954713,108.123261 178.11861,106.268397 177.35593,104.331894 C173.15578,96.2741675 166.992582,89.409629 159.500669,84.3785456 C150.930759,78.6235572 140.626035,75.2652199 129.53814,75.2652199 L129.53814,53 C95.5741005,53 67.7914721,84.5364003 65.6454372,124.392857 C68.9286628,123.496253 72.4216256,122.769494 76.0759465,122.231703 C80.8475373,121.529778 85.895173,121.151554 91.1195343,121.151554 C105.665957,121.151554 118.850369,124.072295 128.47551,128.806223 C129.203756,129.164465 129.914074,129.531841 130.600486,129.910349 C140.225628,134.644563 153.410039,137.565018 167.956747,137.565018 C173.181108,137.565018 178.228459,137.186795 183.00005,136.484869 C186.654371,135.947364 190.147334,135.220319 193.430559,134.324001 C197.777838,133.137094 201.757152,131.654744 205.26662,129.9329 C205.335205,129.74022 205.402935,129.54754 205.469812,129.35429 C201.246611,129.316039 197.208958,128.025798 193.494306,125.701652" id="Fill-1" fill="#F4EFEA"></path>
                <path d="M183.000164,136.412502 C178.228573,137.114427 173.180937,137.49265 167.956576,137.49265 C153.410153,137.49265 140.225741,134.572196 130.6006,129.837982 C129.872354,129.47974 129.162037,129.112649 128.475624,128.734141 C118.850483,123.999927 105.666071,121.079187 91.1193635,121.079187 C85.8950023,121.079187 80.8476512,121.457696 76.0760603,122.159621 C72.4217394,122.697126 68.9287766,123.424171 65.645551,124.320489 C61.1562657,125.545933 56.2930394,127.49157 52.7007574,129.285919 C66.6452885,135.565852 74.613592,144.700302 82.8664778,156.403815 C91.6885281,170.39094 107.055971,183.236259 128.146078,183.361287 C128.609662,183.368709 129.072678,183.378985 129.53797,183.378985 C130.003546,183.378985 130.466562,183.369279 130.930146,183.361287 C154.11421,182.966222 174.906644,172.730215 189.33468,156.634745 C196.258282,148.911568 201.714009,139.840204 205.266734,129.860533 C201.757266,131.582662 197.777667,133.065011 193.430673,134.251633 C190.147447,135.147951 186.654485,135.874996 183.000164,136.412502 Z" id="Fill-4" fill="url(#linearGradient-1)"></path>
            </g>
        </g>
    </g>
</svg>