<svg viewBox="0 0 202 92" xmlns="http://www.w3.org/2000/svg">
  <g id="WifiGuru" transform="translate(0.000000, 21.000000)" fill="#4E4B48">
    <path d="M16.036 6.795l.045-.012c1.18-.318 2.38-.537 3.587-.66l.11-.01.04-.004c.285-.028.57-.048.857-.064.162-.01.325-.016.486-.022.253-.008.505-.014.758-.014s.505.006.758.014c.16.005.324.013.486.022.286.016.572.036.857.063.012 0 .025 0 .038.002l.11.012c1.21.122 2.408.34 3.587.66l.045.01c2.24.61 4.404 1.575 6.402 2.894l.024.016c1.23.814 2.396 1.762 3.478 2.845l-2.13 2.128c-.117-.117-.236-.233-.356-.347-6.67-6.338-16.794-6.99-24.175-1.956-.848.578-1.66 1.23-2.425 1.957-.12.115-.24.23-.357.348l-2.128-2.13c1.082-1.082 2.25-2.03 3.478-2.844l.024-.016c1.998-1.32 4.162-2.283 6.402-2.893z"/>
    <path d="M38.91 9.558c-.312-.283-.63-.556-.95-.82-4.515-3.71-10.124-5.726-16.042-5.726-6.327 0-12.3 2.305-16.96 6.516-.015.015-.03.03-.048.045-.305.277-.605.563-.898.856L1.882 8.3c.173-.173.348-.344.524-.51C11.57-.92 25.128-2.327 35.71 3.573c.61.34 1.21.705 1.8 1.095.392.258.78.528 1.162.81.573.42 1.134.866 1.682 1.336.365.313.724.637 1.076.973.176.166.35.337.524.51l-2.13 2.13c-.3-.3-.604-.59-.915-.872"/>
    <path d="M6.383 23.525c-.47 1.52-.723 3.135-.723 4.81 0 1.673.253 3.287.723 4.806-1.647-.6-2.945-2.03-3.285-3.877-.46-2.492.98-4.9 3.285-5.738m2.34 5.94h9.347c.832 0 1.506-.673 1.506-1.505 0-.83-.674-1.505-1.506-1.505H8.807c.137-.963.378-1.892.712-2.776h5.81c.833 0 1.507-.675 1.507-1.507 0-.832-.674-1.506-1.506-1.506h-4.203c2.403-3.373 6.343-5.578 10.79-5.578 4.45 0 8.388 2.204 10.792 5.577h-3.776c-.83 0-1.505.674-1.505 1.506s.673 1.506 1.504 1.506h5.383c.347.92.593 1.89.727 2.897H25.9c-.83 0-1.506.674-1.506 1.506V33.403H21.08c-.83 0-1.504.675-1.504 1.506 0 .83.674 1.505 1.505 1.505h4.82c.832 0 1.506-.674 1.506-1.506v-5.32h7.697c-.633 6.716-6.304 11.99-13.185 11.99-6.923 0-12.62-5.338-13.195-12.114m28.713 3.73c.48-1.536.74-3.168.74-4.86 0-1.692-.26-3.323-.738-4.856 1.717.57 3.083 2.026 3.434 3.926.47 2.545-1.04 5.003-3.436 5.79m-37.3-3.387c.705 3.818 3.973 6.514 7.7 6.646 2.81 4.863 8.062 8.137 14.082 8.137 6.02 0 11.27-3.273 14.08-8.134.435-.01.874-.05 1.315-.13 4.416-.816 7.334-5.055 6.52-9.47-.713-3.865-4.052-6.58-7.835-6.65-2.81-4.86-8.062-8.133-14.08-8.133-6.02 0-11.27 3.274-14.082 8.136-.39.014-.784.054-1.18.127-4.415.815-7.334 5.054-6.52 9.47"/>
    <path d="M70.445 20.262c-.99 3.16-1.993 6.082-3.006 8.77-1.015 2.687-2.03 5.304-3.042 7.85h-3.43c-1.25-3.607-2.352-7.414-3.307-11.422-.954-4.007-1.844-8.37-2.67-13.084H58.6c.33 1.84.672 3.678 1.026 5.517.353 1.84.72 3.624 1.096 5.357.377 1.733.754 3.39 1.132 4.97.377 1.578.766 3.04 1.166 4.383.943-2.475 1.945-5.192 3.006-8.15 1.06-2.96 2.05-6.018 2.97-9.177h2.97c.92 3.16 1.922 6.218 3.007 9.176 1.085 2.96 2.1 5.676 3.042 8.15.377-1.32.754-2.77 1.132-4.348.377-1.58.748-3.236 1.114-4.968.365-1.733.725-3.525 1.078-5.376.354-1.85.696-3.695 1.026-5.534h3.5c-.848 4.715-1.75 9.077-2.705 13.084-.954 4.008-2.045 7.815-3.27 11.422h-3.43c-1.038-2.546-2.052-5.163-3.042-7.85-.99-2.688-1.98-5.61-2.97-8.77zm22.525 16.62h-3.288V18.494h3.288v18.388zM91.308 15.17c-.59 0-1.09-.195-1.503-.584-.412-.39-.618-.913-.618-1.573 0-.66.206-1.185.618-1.574.413-.39.914-.584 1.503-.584.59 0 1.09.194 1.503.583.414.388.62.913.62 1.573 0 .66-.206 1.184-.62 1.573-.41.39-.912.584-1.502.584zm14.5-5.73c.824 0 1.53.054 2.12.16.59.106 1.014.207 1.274.3l-.46 2.83c-.26-.094-.613-.195-1.06-.3-.45-.107-.99-.16-1.628-.16-1.532 0-2.605.42-3.218 1.256-.613.836-.92 1.962-.92 3.377v1.59h7.073v2.76h-7.073v15.63h-3.29v-20.05c0-2.36.58-4.18 1.734-5.465 1.156-1.284 2.97-1.927 5.447-1.927zm9.9 27.442h-3.288V18.494h3.288v18.388zm-1.662-21.712c-.59 0-1.09-.195-1.503-.584-.412-.39-.618-.913-.618-1.573 0-.66.206-1.185.618-1.574.413-.39.914-.584 1.503-.584.59 0 1.09.194 1.503.583.412.388.618.913.618 1.573 0 .66-.206 1.184-.62 1.573-.41.39-.912.584-1.502.584zm30.66 9.654h3.43V36.28c-.283.095-.69.202-1.22.32-.53.117-1.144.235-1.84.353-.695.118-1.455.218-2.28.3-.825.083-1.662.124-2.51.124-1.722 0-3.29-.282-4.704-.848-1.415-.567-2.63-1.392-3.642-2.477-1.014-1.084-1.798-2.416-2.352-3.996-.554-1.58-.83-3.394-.83-5.445 0-2.05.31-3.873.936-5.464.625-1.59 1.468-2.93 2.53-4.013 1.06-1.085 2.303-1.91 3.73-2.476 1.426-.567 2.952-.85 4.58-.85 1.107 0 2.09.07 2.95.213.862.14 1.6.306 2.212.495.613.188 1.113.377 1.502.565.39.19.655.33.796.425l-1.096 2.864c-.684-.448-1.59-.82-2.723-1.114-1.132-.294-2.287-.442-3.466-.442-1.25 0-2.387.224-3.413.672-1.025.448-1.898 1.096-2.617 1.945-.72.85-1.28 1.88-1.68 3.094-.4 1.214-.6 2.576-.6 4.085 0 1.46.17 2.793.512 3.996.342 1.202.86 2.233 1.556 3.094.695.86 1.556 1.526 2.58 1.998 1.027.47 2.235.707 3.626.707.99 0 1.833-.053 2.53-.16.694-.105 1.195-.205 1.5-.3v-9.123zm23.232 11.528c-.754.188-1.75.39-2.988.6-1.237.213-2.67.32-4.296.32-1.415 0-2.605-.207-3.572-.62-.966-.412-1.744-.996-2.334-1.75-.59-.754-1.013-1.644-1.273-2.67-.26-1.025-.39-2.163-.39-3.412V18.494h3.29v9.618c0 2.24.354 3.843 1.06 4.81.708.966 1.9 1.45 3.572 1.45.354 0 .72-.012 1.097-.036.377-.023.73-.053 1.06-.088.33-.036.63-.07.902-.106.27-.036.466-.077.584-.124V18.494h3.288v17.858zm12.448-18.247c.283 0 .607.018.972.053.366.035.725.082 1.08.14.353.06.677.12.97.178.296.06.514.112.656.16l-.566 2.864c-.26-.095-.69-.207-1.29-.336-.602-.13-1.374-.195-2.317-.195-.612 0-1.22.064-1.82.194-.6.13-.996.218-1.185.265V36.88h-3.29v-17.61c.78-.283 1.746-.548 2.9-.796 1.156-.247 2.453-.37 3.89-.37zm21.5 18.247c-.754.188-1.75.39-2.988.6-1.238.213-2.67.32-4.296.32-1.415 0-2.605-.207-3.572-.62-.967-.412-1.744-.996-2.334-1.75-.59-.754-1.014-1.644-1.273-2.67-.26-1.025-.39-2.163-.39-3.412V18.494h3.29v9.618c0 2.24.353 3.843 1.06 4.81.708.966 1.898 1.45 3.572 1.45.354 0 .72-.012 1.097-.036.377-.023.73-.053 1.06-.088.33-.036.63-.07.902-.106.27-.036.466-.077.584-.124V18.494h3.288v17.858z"/>
  </g>
</svg>
