<svg viewBox="0 0 200 92" version="1.1" xmlns="http://www.w3.org/2000/svg" xmlns:xlink="http://www.w3.org/1999/xlink">
  <g id="Armada" transform="translate(0.000000, 26.500000)" fill="#4E4B48">
    <path d="M55.4082209,18.0896933 L48.6523926,18.0896933 L48.6523926,9.98417178 L55.4082209,9.98417178 C57.9321472,9.98417178 59.8683436,11.5154601 59.8683436,13.9939877 C59.8683436,16.5608589 57.9321472,18.0921472 55.4082209,18.0896933 L55.4082209,18.0896933 Z M59.8241718,22.9584049 C61.7984049,22.4921472 63.8168098,21.2381595 65.0990184,19.142454 C65.9235583,17.7952147 66.4462577,16.1019632 66.4462577,14.0393865 C66.4462577,12.0995092 65.970184,10.346135 65.0990184,8.87619632 C63.4597546,6.10809816 60.3996319,4.35472393 56.3125153,4.35472393 L42.7542331,4.35472393 L42.2573006,4.35472393 L42.2573006,34.4001227 L42.7542331,34.4001227 L48.6536196,34.4001227 L48.6536196,23.7228221 L53.3382822,23.7228221 L59.2376687,34.4001227 L59.2376687,34.3976687 L65.0990184,34.3976687 L66.6266258,34.3976687 L65.0990184,31.8283436 L59.8241718,22.9584049 Z" id="Fill-1"></path>
    <polygon id="Fill-3" points="94.7919018 4.35435583 87.4949693 23.1396319 80.1980368 4.35435583 72.761227 4.35435583 71.2336196 4.35435583 71.2336196 34.3997546 72.761227 34.3997546 77.6299387 34.3997546 77.6299387 12.7322699 86.0998773 34.3997546 88.8925153 34.3997546 97.358773 12.7322699 97.358773 34.3973006 100.481472 34.3973006 103.802945 34.3973006 103.802945 4.35435583 100.481472 4.35435583"></polygon>
    <path d="M117.517055,23.6782822 L122.199264,10.7519018 L126.883926,23.6782822 L117.517055,23.6782822 Z M126.210307,4.35558282 L118.193129,4.35558282 L109.937914,25.7801227 L106.616442,34.3997546 L109.937914,34.3997546 L113.866748,34.3997546 L115.76,29.3089571 L128.643436,29.3089571 L130.531779,34.3997546 L134.456933,34.3997546 L137.785767,34.3997546 L134.456933,25.7592638 L126.210307,4.35558282 Z" id="Fill-5"></path>
    <path d="M152.440245,28.7684663 L146.988712,28.7684663 L146.988712,9.98441718 L152.488098,9.98441718 C158.613252,9.98441718 161.85865,14.0850307 161.85865,19.3549693 C161.85865,24.4887117 158.391166,28.7684663 152.440245,28.7684663 M162.133497,7.06907975 C159.52,5.33165644 156.219387,4.35374233 152.440245,4.35374233 L143.921227,4.35374233 L140.592393,4.35374233 L140.592393,34.3979141 L143.921227,34.3979141 L152.488098,34.3979141 C156.242699,34.3979141 159.528589,33.429816 162.133497,31.7009816 C166.029202,29.1132515 168.386258,24.8065031 168.386258,19.3525153 C168.386258,13.9586503 166.03411,9.6604908 162.133497,7.06907975" id="Fill-7"></path>
    <path d="M179.171656,23.6782822 L183.852638,10.7519018 L188.539755,23.6782822 L179.171656,23.6782822 Z M187.866135,4.35558282 L179.84773,4.35558282 L174.52135,18.1764417 L168.268589,34.3997546 L174.52135,34.3997546 L175.520123,34.3997546 L177.413374,29.3089571 L190.294356,29.3089571 L192.187607,34.3997546 L199.441595,34.3997546 L187.866135,4.35558282 Z" id="Fill-9"></path>
    <path d="M36.1220859,21.9180368 C34.9907975,16.6689571 31.6496933,6.13644172 17.8803681,0.000245398773 C19.9134969,19.6358282 8.99693252,31.4296933 0.000613496933,36.6456442 C14.8472393,30.9180368 24.8349693,31.5339877 28.6239264,33.5364417 C32.5858896,35.6321472 18.5171779,36.6076074 34.695092,38.1646626 C35.2631902,37.076319 35.7711656,35.2370552 36.1220859,33.0971779 C36.690184,29.6346012 36.8484663,25.3769325 36.1834356,22.1928834 C36.1650307,22.1057669 36.1417178,22.0063804 36.1220859,21.9180368" id="Fill-12"></path>
  </g>
</svg>
