<svg viewBox="0 0 200 92" version="1.1" xmlns="http://www.w3.org/2000/svg" xmlns:xlink="http://www.w3.org/1999/xlink">
  <defs>
    <polygon id="path-1" points="8.32193146e-05 23.9564428 30.6132123 23.9564428 30.6132123 0.196043557 8.32193146e-05 0.196043557 8.32193146e-05 23.9564428"></polygon>
    <polygon id="path-3" points="19.2022142 0.0983666062 0.145952813 0.0983666062 0.145952813 35.3068966 19.2022142 35.3068966 19.2022142 0.0983666062"></polygon>
    <polygon id="path-5" points="0 52.8961887 199.872232 52.8961887 199.872232 0.362976407 0 0.362976407"></polygon>
  </defs>
  <g id="Sheriff" transform="translate(0.000000, 18.000000)">
    <g id="Page-1">
        <path d="M17.1989474,11.8944102 C17.5386933,12.4729946 17.9553902,12.9993103 18.4370599,13.4595644 C19.6635572,14.6330672 21.3049365,15.3768058 23.1187296,15.4497641 C23.2167332,15.4533938 23.3147368,15.4562976 23.4131034,15.4562976 C23.527804,15.4562976 23.6414156,15.4533938 23.7543013,15.4483122 C25.0566606,15.3873321 26.2682759,14.9811615 27.2994918,14.3183666 C28.0621053,13.9622868 28.9067514,13.9325227 29.7408711,14.1611978 C30.0323412,14.2414156 30.3190926,14.358657 30.5927768,14.5176407 C30.8715426,14.6784392 31.1205445,14.8708167 31.3372414,15.0882396 C31.9974955,15.7463158 32.3666425,16.6298004 32.3913249,17.5386933 L32.4254446,17.4802541 C32.4033031,18.6149183 32.6486751,19.7673684 33.1880581,20.8417786 C33.2515789,20.9673684 33.3183666,21.0929583 33.38951,21.2167332 C33.4650091,21.3466788 33.543775,21.4729946 33.6261706,21.5964065 C34.3597459,22.7056624 35.3568421,23.5506715 36.4853358,24.0958621 C36.8464973,24.2708167 37.220726,24.4149183 37.604392,24.5267151 C38.250853,24.7158258 38.9230853,24.8145554 39.6003993,24.8170962 C39.6254446,24.8167332 39.650127,24.8167332 39.6744465,24.8170962 C39.6940472,24.8178221 39.7140109,24.8189111 39.7336116,24.82 L39.7336116,24.8163702 C40.9216334,24.7993103 42.1227223,24.4878766 43.2247187,23.851216 C46.6686388,21.8635572 47.8486751,17.4602904 45.8602904,14.0167332 C43.8719056,10.5720871 39.4686388,9.39313975 36.0254446,11.3807985 C35.9851543,11.404029 35.9455898,11.4279855 35.9063884,11.4515789 L35.9336116,11.4036661 C35.1484936,11.8392377 34.2149183,11.9713612 33.3241742,11.7510345 C33.0029401,11.6726316 32.6867877,11.5484936 32.3862432,11.373902 C32.096951,11.2072958 31.8406897,11.0062069 31.6178221,10.7793466 C31.035245,10.1862432 30.6842468,9.41600726 30.604392,8.60983666 C30.604755,8.60439201 30.604755,8.59858439 30.604755,8.59313975 C30.6105626,8.48170599 30.6131034,8.36954628 30.6131034,8.25629764 C30.6131034,8.1368784 30.6098367,8.01782214 30.604392,7.89876588 C30.4178221,4.08896552 27.2697278,1.05666062 23.4131034,1.05666062 C19.4366969,1.05666062 16.2134664,4.27952813 16.2134664,8.25629764 C16.2134664,9.54558984 16.5521234,10.7550272 17.1455898,11.8014882 C17.1637387,11.8319782 17.1822505,11.8631942 17.1989474,11.8944102 L17.1989474,11.8944102 Z" id="Fill-1" fill="#4E4B48"></path>
        <g id="Group-5" transform="translate(0.000000, 28.939746)">
          <mask id="mask-2" fill="white">
            <use xlink:href="#path-1"></use>
          </mask>
          <g id="Clip-4"></g>
          <path d="M29.6400726,13.1412341 C29.2992377,12.5543013 28.8770962,12.019637 28.3892559,11.5532123 C27.1736479,10.3905989 25.5504174,9.64903811 23.756951,9.56446461 C23.6426134,9.55938294 23.5282759,9.55684211 23.4132123,9.55684211 C23.3152087,9.55684211 23.218657,9.55938294 23.1221053,9.56264973 C21.8712886,9.61274047 20.7028675,9.9815245 19.695608,10.589147 L19.7228312,10.542323 C18.9279129,10.9724501 17.9859891,11.0951361 17.0916152,10.8599274 C16.788167,10.7797096 16.4912523,10.6599274 16.2063158,10.4954991 C15.9271869,10.3347005 15.6778221,10.1401452 15.4600363,9.92272232 C14.8527768,9.31582577 14.4930672,8.51836661 14.4201089,7.68642468 L14.3939746,7.73215971 C14.4556806,6.43597096 14.1678403,5.10965517 13.4923412,3.89622505 C13.4741924,3.86283122 13.4556806,3.82943739 13.4368058,3.79640653 C13.4222868,3.77172414 13.4070417,3.74704174 13.3921597,3.72272232 C12.6447913,2.46174229 11.5711071,1.51110708 10.3406171,0.916914701 C9.97945554,0.741960073 9.60486388,0.597858439 9.2215608,0.486061706 C8.57800363,0.298039927 7.90831216,0.199673321 7.233902,0.196043557 L7.2015971,0.196043557 L7.14969147,0.196043557 C5.94279492,0.203303085 4.72101633,0.514736842 3.60087114,1.16083485 C0.157313975,3.14958258 -1.02199637,7.55284936 0.965662432,10.9967695 C2.95404719,14.4406897 7.35731397,15.620363 10.8012341,13.6323412 C10.8988748,13.5749909 10.9947005,13.5161887 11.0890744,13.4562976 L11.0574955,13.5100181 C11.8110345,13.1499456 12.6785481,13.0570236 13.5068603,13.2697278 C13.8175681,13.3492196 14.1221053,13.4708167 14.4132123,13.6388748 C14.7014156,13.8054809 14.956951,14.0062069 15.1794555,14.2323412 C15.8175681,14.8795281 16.1776407,15.7394192 16.2103085,16.6261706 L16.2150272,16.6185481 C16.2139383,16.6639201 16.2132123,16.7103811 16.2132123,16.7564791 C16.2132123,20.7328857 19.4368058,23.9564791 23.4132123,23.9564791 C27.3896189,23.9564791 30.6132123,20.7328857 30.6132123,16.7564791 C30.6132123,15.4588385 30.2698367,14.2414156 29.6687477,13.1902359 C29.6589474,13.173902 29.64951,13.157931 29.6400726,13.1412341" id="Fill-3" fill="#4E4B48" mask="url(#mask-2)"></path>
        </g>
        <path d="M43.2245735,30.1006534 C42.1225771,29.4647187 40.9218512,29.1536479 39.7334664,29.136588 L39.7334664,29.1333212 C39.7145917,29.1336842 39.6960799,29.1351361 39.6772051,29.1358621 C39.6463521,29.136588 39.6154991,29.136225 39.5846461,29.136225 C37.9596007,29.136225 36.9458076,29.5761525 36.3465336,29.8567332 C35.7461706,30.136225 34.9966243,30.5765154 34.186461,30.5765154 C33.90951,30.5765154 33.6405445,30.5438475 33.3813793,30.4850454 C32.8826497,30.3707078 32.4227586,30.1536479 32.0263884,29.8567332 C31.8866425,29.7514701 31.755245,29.6371325 31.632922,29.5140835 C30.986098,28.8629038 30.586461,27.9663521 30.586461,26.9765154 L30.5853721,26.9765154 C30.5842831,25.983775 30.3781125,25.0026497 29.9839201,24.0959347 C29.9429038,24.0022868 29.8989837,23.9086388 29.8539746,23.8168058 C29.6960799,23.4926679 29.5145917,23.1790563 29.3080581,22.8799637 C28.7508893,22.0730672 28.0191289,21.3685299 27.1305626,20.8276951 C27.0819238,20.797931 27.0340109,20.7696189 26.9850091,20.7409437 C26.9410889,20.7151724 26.8964428,20.690853 26.8525227,20.6668966 C25.9835572,20.1888566 25.0579673,19.9090018 24.1272958,19.813176 C22.724029,19.6687114 21.3113249,19.9416697 20.0695826,20.583775 C19.8819238,20.6817786 19.6989837,20.7874047 19.5193103,20.9006534 C18.7519782,21.2574592 17.9120508,21.3202541 17.1367332,21.1271506 C16.4870054,20.9652632 15.8830127,20.6237024 15.4049728,20.1231579 C15.2107804,19.9195281 15.0361887,19.690127 14.8891833,19.4345917 L14.3207623,16.5445735 C14.2884574,16.3315064 14.247078,16.121706 14.1966243,15.9126316 C14.0369147,15.2567332 13.7853721,14.6247913 13.4485299,14.0353176 C13.4350998,14.013539 13.4223956,13.9913975 13.4100544,13.9696189 C12.8006171,12.9286025 11.9203993,12.0269691 10.80098,11.3808711 C7.35778584,9.39321234 2.95451906,10.5721597 0.965408348,14.0164428 C-1.02188748,17.460363 0.157422868,21.8636298 3.60098004,23.8512886 C4.72221416,24.4984755 5.94508167,24.8099093 7.15306715,24.8168058 L7.20134301,24.8168058 L7.23473684,24.8168058 C7.90914701,24.813539 8.57811252,24.7148094 9.22130672,24.5264247 C9.60497278,24.4149909 9.97956443,24.2705263 10.340726,24.0959347 C10.4427223,24.0469328 10.5429038,23.9946642 10.6423593,23.9402178 C11.2957169,23.6124501 11.909873,23.3765154 12.6136842,23.3765154 C12.9280218,23.3765154 13.2332849,23.4175318 13.524029,23.4930309 C13.9821053,23.6124501 14.4053358,23.8193466 14.7733938,24.0959347 C14.9105989,24.2001089 15.0409074,24.3129946 15.1621416,24.4342287 C15.7283848,25.0019238 16.1058802,25.7576407 16.1937205,26.5993829 C16.1802904,26.8494737 16.1810163,27.0995644 16.1944465,27.3478403 C16.2401815,28.2128131 16.4409074,29.0636298 16.786098,29.8567332 C16.8615971,30.02951 16.9439927,30.2004719 17.0332849,30.367078 C17.1149546,30.521706 17.2027949,30.6730672 17.2964428,30.8207985 C17.3777495,30.9500181 17.462686,31.0763339 17.5523412,31.2004719 C18.0739383,31.921706 18.7378221,32.5550998 19.5309256,33.0570962 C19.6140472,33.1100907 19.6989837,33.1619964 19.7850091,33.2117241 C19.8764791,33.2647187 19.9683122,33.3144465 20.0612341,33.3623593 C20.9367332,33.8193466 21.8670417,34.0781488 22.7991652,34.1536479 C24.201343,34.2672595 25.6064247,33.9656261 26.8340109,33.2973866 C26.9421779,33.2385844 27.0496189,33.1768784 27.154882,33.1119056 C27.9904537,32.6839564 28.9233031,32.6153539 29.770127,32.8538294 C30.3766606,33.0247913 30.9381851,33.3540109 31.3886388,33.8229764 C31.585735,34.0280581 31.6612341,34.0857713 31.9109619,34.5173503 C32.1596007,34.9492922 32.5015245,37.3870417 32.5298367,37.5511071 C32.5577858,37.7155354 32.5904537,37.8785118 32.6296552,38.0400363 C32.7886388,38.690853 33.0372777,39.3184392 33.370127,39.9039201 C33.3853721,39.9286025 33.3991652,39.952922 33.4129583,39.9783303 C34.0231216,41.0211615 34.9040653,41.9242468 36.0252995,42.5717967 C39.4684936,44.5601815 43.8721234,43.3805082 45.8601452,39.936588 C47.8485299,36.4923049 46.6684936,32.0894011 43.2245735,30.1006534" id="Fill-6" fill="#4E4B48"></path>
        <path d="M71.0626497,32.4408348 C75.6601089,32.4408348 77.9592015,30.8684211 77.9592015,27.7221416 C77.9592015,26.7544465 77.7548457,25.930127 77.3464973,25.2495463 C76.9381488,24.5689655 76.3860617,23.9791289 75.6905989,23.4800363 C74.9944102,22.9809437 74.2005808,22.5497278 73.3083848,22.1867514 C72.4161887,21.823775 71.4709982,21.4607985 70.4728131,21.0978221 C69.3229038,20.7050817 68.2339746,20.2582577 67.2060254,19.7591652 C66.1773503,19.2600726 65.2847913,18.6702359 64.5290744,17.9896552 C63.7726316,17.3090744 63.1751724,16.500363 62.7370599,15.5624319 C62.2982214,14.6252269 62.0789837,13.4909256 62.0789837,12.1595281 C62.0789837,9.40744102 63.0161887,7.25934664 64.8920508,5.71669691 C66.7671869,4.17404719 69.3533938,3.40272232 72.6506715,3.40272232 C74.5562976,3.40272232 76.2876951,3.60671506 77.8455898,4.01506352 C79.4034846,4.42341198 80.5454083,4.87023593 81.2713612,5.35372051 L79.8648276,8.93811252 C79.2296189,8.54537205 78.2840653,8.15952813 77.0288929,7.78094374 C75.7737205,7.4030853 74.3138294,7.21397459 72.6506715,7.21397459 C71.8034846,7.21397459 71.0172777,7.30471869 70.2913249,7.4862069 C69.5653721,7.6676951 68.9301633,7.9399274 68.3856987,8.30290381 C67.8412341,8.66588022 67.4100181,9.12722323 67.0924138,9.68656987 C66.7748094,10.2466425 66.6161887,10.9047187 66.6161887,11.6604356 C66.6161887,12.5076225 66.782069,13.2186933 67.1152813,13.792922 C67.4477677,14.3678766 67.9163702,14.8745917 68.5218149,15.3127042 C69.1265336,15.7515426 69.8299819,16.1522686 70.6317967,16.515245 C71.4328857,16.8782214 72.3174592,17.2411978 73.2858802,17.6041742 C74.6470417,18.1486388 75.8949546,18.6931034 77.0288929,19.2375681 C78.1631942,19.7820327 79.1461343,20.4328494 79.9780762,21.1885662 C80.8100181,21.9450091 81.4528494,22.8448276 81.9065699,23.8883848 C82.3602904,24.9319419 82.5871506,26.1950998 82.5871506,27.6767695 C82.5871506,30.4295826 81.581343,32.5471869 79.5697278,34.0288566 C77.5581125,35.5112523 74.7221779,36.2520871 71.0626497,36.2520871 C69.8219964,36.2520871 68.6807985,36.1686025 67.6368784,36.0027223 C66.5933212,35.8361162 65.6633757,35.6397459 64.8466788,35.4128857 C64.0299819,35.1856624 63.3268966,34.9439201 62.7370599,34.6865699 C62.1472232,34.4299456 61.6855172,34.2103448 61.3530309,34.0288566 L62.6688203,30.3990926 C63.3642831,30.792559 64.4227223,31.2313975 65.8448639,31.714882 C67.2662795,32.1990926 69.0052995,32.4408348 71.0626497,32.4408348" id="Fill-8" fill="#4E4B48"></path>
        <g id="Group-12" transform="translate(87.477314, 0.264610)">
          <mask id="mask-4" fill="white">
            <use xlink:href="#path-3"></use>
          </mask>
          <g id="Clip-11"></g>
          <path d="M0.145952813,35.3068966 L0.145952813,0.824137931 L4.36555354,0.098185118 L4.36555354,12.1671506 C5.15176044,11.8651543 5.99132486,11.6303085 6.88352087,11.4637024 C7.77571688,11.2978221 8.66029038,11.2143376 9.53796733,11.2143376 C11.4131034,11.2143376 12.9706352,11.4793103 14.2112886,12.008167 C15.451216,12.5377495 16.4417786,13.2785844 17.1833394,14.2313975 C17.9241742,15.1842105 18.4457713,16.3264973 18.7484936,17.6571688 C19.05049,18.9885662 19.2022142,20.4553539 19.2022142,22.0582577 L19.2022142,35.3068966 L14.9826134,35.3068966 L14.9826134,22.9656987 C14.9826134,21.5137931 14.8842468,20.2738657 14.6878766,19.2451906 C14.4907804,18.2172414 14.1659165,17.3849365 13.712196,16.7497278 C13.2584755,16.1145191 12.6530309,15.653539 11.897314,15.3656987 C11.1408711,15.0785844 10.2029401,14.9348457 9.08424682,14.9348457 C8.63052632,14.9348457 8.16119782,14.9653358 7.67771325,15.0255898 C7.19350272,15.0865699 6.73215971,15.1544465 6.29368421,15.2295826 C5.85520871,15.3054446 5.46174229,15.3885662 5.11437387,15.4793103 C4.76627949,15.5700544 4.51655172,15.6459165 4.36555354,15.7061706 L4.36555354,35.3068966 L0.145952813,35.3068966 Z" id="Fill-10" fill="#4E4B48" mask="url(#mask-4)"></path>
        </g>
        <path d="M128.41274,21.5061706 C128.442505,19.6005445 127.966279,18.0350272 126.983339,16.8099819 C126.000399,15.5852995 124.64686,14.9725953 122.922722,14.9725953 C121.954301,14.9725953 121.100218,15.161706 120.359383,15.5399274 C119.617822,15.9181488 118.990236,16.4096189 118.476261,17.0143376 C117.961561,17.6197822 117.561198,18.315245 117.274083,19.1014519 C116.986243,19.8883848 116.797495,20.6894737 116.706751,21.5061706 L128.41274,21.5061706 Z M112.214918,23.8201452 C112.214918,21.7330309 112.516915,19.9108893 113.122359,18.3526316 C113.727078,16.7950998 114.528893,15.5021779 115.527078,14.4735027 C116.525263,13.4455535 117.674446,12.6742287 118.975354,12.1595281 C120.275535,11.6455535 121.606933,11.3882033 122.968094,11.3882033 C126.144138,11.3882033 128.578621,12.3791289 130.272995,14.3602541 C131.966642,16.3413793 132.813829,19.3588022 132.813829,23.4117967 L132.813829,24.114882 C132.813829,24.4027223 132.798221,24.6673321 132.768457,24.9090744 L116.616007,24.9090744 C116.797495,27.3591652 117.50784,29.2194192 118.748494,30.4898367 C119.988421,31.7602541 121.924537,32.3954628 124.556116,32.3954628 C126.037786,32.3954628 127.285699,32.2669691 128.299492,32.0096189 C129.312559,31.7529946 130.075898,31.5036298 130.590599,31.2611615 L131.180436,34.8001815 C130.665735,35.0724138 129.766279,35.3602541 128.480617,35.6622505 C127.194955,35.9642468 125.735789,36.115971 124.102396,36.115971 C122.045045,36.115971 120.268639,35.8056261 118.771361,35.1860254 C117.274083,34.5660617 116.041053,33.7112523 115.073358,32.622323 C114.104936,31.5333938 113.386969,30.2401089 112.918004,28.7428312 C112.449038,27.2459165 112.214918,25.6052632 112.214918,23.8201452 L112.214918,23.8201452 Z" id="Fill-13" fill="#4E4B48"></path>
        <path d="M147.604936,11.4789474 C147.967913,11.4789474 148.383158,11.5014519 148.852486,11.546824 C149.321089,11.592196 149.782795,11.653176 150.236515,11.7283122 C150.690236,11.8041742 151.105481,11.8800363 151.484065,11.9551724 C151.861924,12.0310345 152.142142,12.099274 152.32363,12.1595281 L151.597677,15.8346642 C151.264465,15.7141561 150.71274,15.5700544 149.941416,15.4038113 C149.170091,15.2375681 148.179165,15.1540835 146.969728,15.1540835 C146.182795,15.1540835 145.404211,15.2375681 144.632886,15.4038113 C143.861561,15.5700544 143.354846,15.6836661 143.113103,15.7439201 L143.113103,35.5715064 L138.89314,35.5715064 L138.89314,12.976225 C139.891325,12.6132486 141.131252,12.2731397 142.614011,11.9551724 C144.095681,11.6375681 145.759564,11.4789474 147.604936,11.4789474" id="Fill-15" fill="#4E4B48"></path>
        <mask id="mask-6" fill="white">
          <use xlink:href="#path-5"></use>
        </mask>
        <g id="Clip-18"></g>
        <path d="M156.406534,35.5713249 L160.626134,35.5713249 L160.626134,11.9778584 L156.406534,11.9778584 L156.406534,35.5713249 Z M158.493648,7.71288566 C157.737205,7.71288566 157.094011,7.46352087 156.565154,6.96442831 C156.035572,6.46533575 155.771325,5.79274047 155.771325,4.94519056 C155.771325,4.09909256 156.035572,3.42540835 156.565154,2.92631579 C157.094011,2.42722323 157.737205,2.17749546 158.493648,2.17749546 C159.249365,2.17749546 159.892196,2.42722323 160.421779,2.92631579 C160.950635,3.42540835 161.215971,4.09909256 161.215971,4.94519056 C161.215971,5.79274047 160.950635,6.46533575 160.421779,6.96442831 C159.892196,7.46352087 159.249365,7.71288566 158.493648,7.71288566 L158.493648,7.71288566 Z" id="Fill-17" fill="#4E4B48" mask="url(#mask-6)"></path>
        <path d="M194.790417,0.362794918 C196.030345,0.362794918 197.09677,0.45353902 197.989328,0.635027223 C198.881162,0.816515426 199.509111,0.983121597 199.872087,1.13411978 L199.100762,4.76388385 C198.737786,4.58239564 198.223085,4.40889292 197.558113,4.24228675 C196.892414,4.07640653 196.075717,3.99255898 195.108022,3.99255898 C193.141416,3.99255898 191.765372,4.53012704 190.979165,5.60344828 C190.192232,6.67713249 189.799492,8.12141561 189.799492,9.93629764 L189.799492,11.9780399 L198.873902,11.9780399 L198.873902,15.5170599 L189.799492,15.5170599 L189.799492,35.5715064 L185.579891,35.5715064 L185.579891,9.84555354 C185.579891,6.82123412 186.320726,4.48475499 187.803122,2.8353902 C189.284791,1.18747731 191.614374,0.362794918 194.790417,0.362794918 M177.095318,0.362794918 C178.335245,0.362794918 179.40167,0.45353902 180.294229,0.635027223 C181.186062,0.816515426 181.814011,0.983121597 182.176987,1.13411978 L181.405662,4.76388385 C181.042686,4.58239564 180.527985,4.40889292 179.863013,4.24228675 C179.197314,4.07640653 178.380617,3.99255898 177.412922,3.99255898 C175.446316,3.99255898 174.070272,4.53012704 173.284065,5.60344828 C172.497132,6.67713249 172.104392,8.12141561 172.104392,9.93629764 L172.104392,11.9780399 L181.178802,11.9780399 L181.178802,15.5170599 L172.104392,15.5170599 L172.104392,35.5715064 L167.884791,35.5715064 L167.884791,9.84555354 C167.884791,6.82123412 168.625626,4.48475499 170.108022,2.8353902 C171.589691,1.18747731 173.919274,0.362794918 177.095318,0.362794918" id="Fill-19" fill="#4E4B48" mask="url(#mask-6)"></path>
        <path d="M64.418294,50.4500181 C64.4763702,50.4594555 64.6237387,50.4790563 64.8611252,50.5077314 C65.0985118,50.5367695 65.4781851,50.5512886 66.0008711,50.5512886 C66.726824,50.5512886 67.3609437,50.452196 67.9028675,50.2536479 C68.4447913,50.0554628 68.8996007,49.7723412 69.2676588,49.4042831 C69.6357169,49.036588 69.911216,48.5890381 70.095245,48.0616334 C70.2789111,47.5342287 70.3711071,46.9411252 70.3711071,46.283049 C70.3711071,45.6246098 70.2789111,45.0344102 70.095245,44.5117241 C69.911216,43.9886751 69.6357169,43.5436661 69.2676588,43.175608 C68.8996007,42.8079129 68.4447913,42.5247913 67.9028675,42.3262432 C67.3609437,42.1280581 66.726824,42.0286025 66.0008711,42.0286025 C65.4781851,42.0286025 65.0985118,42.0434846 64.8611252,42.0725227 C64.6237387,42.1015608 64.4763702,42.1207985 64.418294,42.1305989 L64.418294,50.4500181 Z M71.4164791,46.283049 C71.4164791,47.144392 71.280726,47.8943013 71.0099456,48.5331397 C70.7388022,49.1719782 70.3587659,49.7044646 69.8701996,50.1302359 C69.3812704,50.5563702 68.7979673,50.8761525 68.1206534,51.0888566 C67.4433394,51.3015608 66.6977858,51.4082759 65.8847187,51.4082759 C65.4781851,51.4082759 65.0524138,51.3864973 64.6070417,51.3425771 C64.1620327,51.2993829 63.7696552,51.2336842 63.4309982,51.1469328 L63.4309982,41.4478403 C63.7696552,41.3516515 64.1620327,41.2808711 64.6070417,41.237314 C65.0524138,41.1941198 65.4781851,41.1719782 65.8847187,41.1719782 C66.6977858,41.1719782 67.4433394,41.2786933 68.1206534,41.4913975 C68.7979673,41.7044646 69.3812704,42.0238838 69.8701996,42.4496552 C70.3587659,42.8757895 70.7388022,43.4082759 71.0099456,44.0467514 C71.280726,44.6855898 71.4164791,45.4315064 71.4164791,46.283049 L71.4164791,46.283049 Z" id="Fill-20" fill="#4E4B48" mask="url(#mask-6)"></path>
        <polygon id="Fill-21" fill="#4E4B48" mask="url(#mask-6)" points="75.0754991 51.3208711 76.0627949 51.3208711 76.0627949 41.2591652 75.0754991 41.2591652"></polygon>
        <path d="M86.3998185,46.558657 L87.3871143,46.558657 L87.3871143,51.0450454 C87.2030853,51.1227223 86.8426497,51.2221779 86.3054446,51.342686 C85.7682396,51.4639201 85.1076225,51.5241742 84.3235935,51.5241742 C83.6651543,51.5241742 83.0553539,51.4080218 82.4941924,51.1760799 C81.9326679,50.943412 81.4462795,50.6072958 81.0350272,50.1662795 C80.623412,49.7263521 80.3018149,49.1797096 80.06951,48.5259891 C79.8372051,47.8726316 79.7210526,47.1252632 79.7210526,46.2827949 C79.7210526,45.4406897 79.8466425,44.6929583 80.0985481,44.0399637 C80.3500907,43.3862432 80.6912886,42.8396007 81.1221416,42.3989474 C81.5526316,41.958657 82.053539,41.6221779 82.6248639,41.389873 C83.1958258,41.1575681 83.8056261,41.0417786 84.454265,41.0417786 C85.1994555,41.0417786 85.8139746,41.1212704 86.2981851,41.28098 C86.7820327,41.4406897 87.1352087,41.5931397 87.3580762,41.7386933 L87.0241379,42.5804356 C86.7529946,42.3869691 86.3852995,42.2298004 85.9206897,42.1085662 C85.4560799,41.9876951 84.9526316,41.927078 84.4107078,41.927078 C83.9072595,41.927078 83.4328494,42.019274 82.9878403,42.2029401 C82.5424682,42.3869691 82.1551724,42.6631942 81.8263158,43.0305263 C81.4970962,43.3985844 81.238294,43.8533938 81.0495463,44.3953176 C80.8607985,44.9372414 80.7664247,45.5670054 80.7664247,46.2827949 C80.7664247,46.9506715 80.8437387,47.5532123 80.9987296,48.0907804 C81.1533575,48.6276225 81.3882033,49.0875136 81.7029038,49.4697278 C82.0172414,49.8523049 82.407078,50.1448639 82.8716878,50.3477677 C83.3362976,50.5513975 83.8735027,50.6530309 84.4833031,50.6530309 C84.976951,50.6530309 85.3907441,50.6265336 85.7246824,50.573539 C86.0586207,50.5201815 86.2836661,50.4690018 86.3998185,50.4210889 L86.3998185,46.558657 Z" id="Fill-22" fill="#4E4B48" mask="url(#mask-6)"></path>
        <polygon id="Fill-23" fill="#4E4B48" mask="url(#mask-6)" points="91.1328494 51.3208711 92.1201452 51.3208711 92.1201452 41.2591652 91.1328494 41.2591652"></polygon>
        <polygon id="Fill-24" fill="#4E4B48" mask="url(#mask-6)" points="102.573902 41.2593466 102.573902 42.115608 99.3506715 42.115608 99.3506715 51.3210526 98.3633757 51.3210526 98.3633757 42.115608 95.1401452 42.115608 95.1401452 41.2593466"></polygon>
        <path d="M108.156407,42.3915064 C107.791978,43.227441 107.43735,44.0760799 107.09216,44.935971 C106.747332,45.796588 106.390163,46.7247187 106.021016,47.720363 L110.315753,47.720363 C109.944065,46.7232668 109.582178,45.7936842 109.230454,44.9323412 C108.878004,44.0702722 108.520472,43.2238113 108.156407,42.3915064 L108.156407,42.3915064 Z M111.618838,51.3210889 C111.426824,50.8267151 111.250054,50.3515789 111.088893,49.8953176 C110.927731,49.4390563 110.773829,48.9944102 110.626461,48.5621053 L105.711397,48.5621053 C105.543339,48.996951 105.378911,49.442686 105.218113,49.8993103 C105.057677,50.3552087 104.887441,50.8296189 104.708131,51.3210889 L103.677278,51.3210889 C104.059129,50.273539 104.42029,49.2974955 104.760036,48.3925953 C105.099782,47.4884211 105.433358,46.6325227 105.760036,45.8252632 C106.086715,45.0180036 106.411216,44.242686 106.733539,43.4982214 C107.055499,42.7537568 107.394156,42.0074773 107.74951,41.2593829 L108.619927,41.2593829 C108.974555,42.0045735 109.311397,42.7494011 109.630091,43.4953176 C109.948421,44.2408711 110.271833,45.0172777 110.599601,45.8238113 C110.927368,46.6307078 111.259855,47.4869691 111.596334,48.3925953 C111.933176,49.2985844 112.303775,50.2749909 112.708131,51.3210889 L111.618838,51.3210889 Z" id="Fill-25" fill="#4E4B48" mask="url(#mask-6)"></path>
        <polygon id="Fill-26" fill="#4E4B48" mask="url(#mask-6)" points="121.317677 50.4641742 121.317677 51.3207985 115.597169 51.3207985 115.597169 41.2594555 116.584465 41.2594555 116.584465 50.4641742"></polygon>
        <path d="M131.263376,50.6821779 C132.047405,50.6821779 132.657205,50.5391652 133.092777,50.2527768 C133.528348,49.9663884 133.746134,49.5035935 133.746134,48.8629401 C133.746134,48.4945191 133.675717,48.1863521 133.535608,47.9388022 C133.395136,47.6919782 133.208929,47.4829038 132.976624,47.3137568 C132.744319,47.1435209 132.477895,46.9986933 132.178076,46.8781851 C131.877895,46.757677 131.563194,46.6306352 131.234338,46.495971 C130.818004,46.3326316 130.445227,46.1642105 130.11637,45.9907078 C129.787151,45.817931 129.50657,45.6222868 129.274265,45.4045009 C129.04196,45.1867151 128.865191,44.9373503 128.744319,44.6564065 C128.623085,44.3758258 128.562831,44.0469691 128.562831,43.6694737 C128.562831,42.8081307 128.848131,42.1547731 129.419456,41.7094011 C129.990417,41.264392 130.784247,41.0415245 131.800581,41.0415245 C132.071361,41.0415245 132.337786,41.0607623 132.599129,41.0996007 C132.860472,41.1380762 133.104755,41.1892559 133.332341,41.2520508 C133.559564,41.3148457 133.767913,41.3852632 133.956661,41.4625771 C134.145408,41.5398911 134.302577,41.6222868 134.42853,41.7094011 L134.080073,42.5369873 C133.799129,42.3431579 133.457931,42.1885299 133.056479,42.0723775 C132.654664,41.956225 132.221633,41.8981488 131.757024,41.8981488 C131.437604,41.8981488 131.144682,41.9297278 130.878621,41.9925227 C130.612196,42.0553176 130.382432,42.157314 130.188966,42.2970599 C129.995136,42.4375318 129.842686,42.6143013 129.731615,42.8273684 C129.620181,43.0400726 129.564646,43.2966969 129.564646,43.5965154 C129.564646,43.9064973 129.622722,44.1682033 129.738875,44.3809074 C129.855027,44.5939746 130.016915,44.7776407 130.225263,44.9322686 C130.433249,45.0876225 130.677532,45.2280944 130.958475,45.3533212 C131.239056,45.479637 131.543956,45.6099456 131.873176,45.7453358 C132.269909,45.91049 132.644864,46.0749183 132.998403,46.2393466 C133.351579,46.4041379 133.65902,46.5976044 133.920363,46.8201089 C134.181706,47.0429764 134.389691,47.3137568 134.544682,47.633176 C134.69931,47.9522323 134.776987,48.3446098 134.776987,48.8092196 C134.776987,49.7192015 134.459746,50.4015971 133.825989,50.8560436 C133.191869,51.311216 132.332704,51.5388022 131.248857,51.5388022 C130.861561,51.5388022 130.508385,51.5144828 130.188966,51.4658439 C129.869546,51.4175681 129.583884,51.357314 129.332341,51.2843557 C129.080436,51.2121234 128.867731,51.1369873 128.693503,51.0596733 C128.519274,50.9823593 128.383521,50.9144828 128.286969,50.8560436 L128.606388,49.9997822 C128.70294,50.0578584 128.833612,50.125735 128.998403,50.203049 C129.162831,50.280726 129.356298,50.3554991 129.579165,50.4280944 C129.80167,50.5006897 130.053212,50.5613067 130.334156,50.6095826 C130.614737,50.6582214 130.924356,50.6821779 131.263376,50.6821779" id="Fill-27" fill="#4E4B48" mask="url(#mask-6)"></path>
        <polygon id="Fill-28" fill="#4E4B48" mask="url(#mask-6)" points="138.058076 51.3208711 139.045372 51.3208711 139.045372 41.2591652 138.058076 41.2591652"></polygon>
        <path d="M149.382795,46.558657 L150.370091,46.558657 L150.370091,51.0450454 C150.186062,51.1227223 149.825626,51.2221779 149.288421,51.342686 C148.751216,51.4639201 148.090599,51.5241742 147.30657,51.5241742 C146.648131,51.5241742 146.03833,51.4080218 145.477169,51.1760799 C144.915644,50.943412 144.429256,50.6072958 144.018004,50.1662795 C143.606388,49.7263521 143.284791,49.1797096 143.052486,48.5259891 C142.820181,47.8726316 142.704029,47.1252632 142.704029,46.2827949 C142.704029,45.4406897 142.829619,44.6929583 143.081525,44.0399637 C143.333067,43.3862432 143.674265,42.8396007 144.105118,42.3989474 C144.535608,41.958657 145.036515,41.6221779 145.60784,41.389873 C146.178802,41.1575681 146.788603,41.0417786 147.437241,41.0417786 C148.182432,41.0417786 148.796951,41.1212704 149.281162,41.28098 C149.765009,41.4406897 150.118185,41.5931397 150.341053,41.7386933 L150.007114,42.5804356 C149.735971,42.3869691 149.368276,42.2298004 148.903666,42.1085662 C148.439056,41.9876951 147.935608,41.927078 147.393684,41.927078 C146.890236,41.927078 146.415826,42.019274 145.970817,42.2029401 C145.525445,42.3869691 145.138149,42.6631942 144.809292,43.0305263 C144.480073,43.3985844 144.22127,43.8533938 144.032523,44.3953176 C143.843775,44.9372414 143.749401,45.5670054 143.749401,46.2827949 C143.749401,46.9506715 143.826715,47.5532123 143.981706,48.0907804 C144.136334,48.6276225 144.37118,49.0875136 144.68588,49.4697278 C145.000218,49.8523049 145.390054,50.1448639 145.854664,50.3477677 C146.319274,50.5513975 146.856479,50.6530309 147.466279,50.6530309 C147.959927,50.6530309 148.373721,50.6265336 148.707659,50.573539 C149.041597,50.5201815 149.266642,50.4690018 149.382795,50.4210889 L149.382795,46.558657 Z" id="Fill-29" fill="#4E4B48" mask="url(#mask-6)"></path>
        <path d="M160.968784,51.3209437 C160.782214,50.9841016 160.547731,50.5866425 160.266062,50.1296552 C159.984029,49.6723049 159.67078,49.1866425 159.326316,48.6726679 C158.981125,48.1594192 158.621416,47.6276588 158.246461,47.0788385 C157.871869,46.5307441 157.498367,45.9971688 157.127042,45.4781125 C156.755354,44.9601452 156.391652,44.4737568 156.035935,44.0207623 C155.680218,43.5674047 155.364428,43.1757532 155.088929,42.8454446 L155.088929,51.3209437 L154.116152,51.3209437 L154.116152,41.2592377 L154.899819,41.2592377 C155.394192,41.8105989 155.923775,42.4476225 156.48784,43.1699456 C157.052632,43.8922686 157.605445,44.6287477 158.148094,45.378294 C158.690744,46.1282033 159.197096,46.8610526 159.667151,47.5768421 C160.137205,48.2926316 160.522686,48.916588 160.823956,49.4479855 L160.823956,41.2592377 L161.79637,41.2592377 L161.79637,51.3209437 L160.968784,51.3209437 Z" id="Fill-30" fill="#4E4B48" mask="url(#mask-6)"></path>
        <path d="M168.025191,50.6821779 C168.80922,50.6821779 169.41902,50.5391652 169.854592,50.2527768 C170.2898,49.9663884 170.507949,49.5035935 170.507949,48.8629401 C170.507949,48.4945191 170.437532,48.1863521 170.297423,47.9388022 C170.156951,47.6919782 169.970744,47.4829038 169.738439,47.3137568 C169.506134,47.1435209 169.240073,46.9986933 168.940254,46.8781851 C168.639347,46.757677 168.325009,46.6306352 167.996152,46.495971 C167.579456,46.3326316 167.207042,46.1642105 166.878185,45.9907078 C166.548966,45.817931 166.268385,45.6222868 166.036443,45.4045009 C165.803775,45.1867151 165.627368,44.9373503 165.506134,44.6564065 C165.3849,44.3758258 165.324646,44.0469691 165.324646,43.6694737 C165.324646,42.8081307 165.610309,42.1547731 166.18127,41.7094011 C166.752232,41.264392 167.546425,41.0415245 168.562033,41.0415245 C168.833176,41.0415245 169.099601,41.0607623 169.361307,41.0996007 C169.621924,41.1380762 169.86657,41.1892559 170.094156,41.2520508 C170.321379,41.3148457 170.529365,41.3852632 170.718475,41.4625771 C170.907223,41.5398911 171.064392,41.6222868 171.190345,41.7094011 L170.841887,42.5369873 C170.560944,42.3431579 170.219746,42.1885299 169.818294,42.0723775 C169.416479,41.956225 168.983448,41.8981488 168.518838,41.8981488 C168.199056,41.8981488 167.906497,41.9297278 167.640436,41.9925227 C167.374011,42.0553176 167.144247,42.157314 166.95078,42.2970599 C166.757314,42.4375318 166.604864,42.6143013 166.49343,42.8273684 C166.382359,43.0400726 166.326098,43.2966969 166.326098,43.5965154 C166.326098,43.9064973 166.384174,44.1682033 166.50069,44.3809074 C166.616842,44.5939746 166.77873,44.7776407 166.987078,44.9322686 C167.195064,45.0876225 167.439347,45.2280944 167.72029,45.3533212 C168.000871,45.479637 168.305408,45.6099456 168.635354,45.7453358 C169.031361,45.91049 169.406679,46.0749183 169.760218,46.2393466 C170.113394,46.4041379 170.421198,46.5976044 170.681815,46.8201089 C170.943521,47.0429764 171.151506,47.3137568 171.306497,47.633176 C171.461125,47.9522323 171.539165,48.3446098 171.539165,48.8092196 C171.539165,49.7192015 171.221561,50.4015971 170.587804,50.8560436 C169.954047,51.311216 169.094519,51.5388022 168.010672,51.5388022 C167.623739,51.5388022 167.2702,51.5144828 166.95078,51.4658439 C166.631361,51.4175681 166.345699,51.357314 166.094519,51.2843557 C165.84225,51.2121234 165.629183,51.1369873 165.455318,51.0596733 C165.281089,50.9823593 165.145336,50.9144828 165.048784,50.8560436 L165.368566,49.9997822 C165.464755,50.0578584 165.595426,50.125735 165.760218,50.203049 C165.924646,50.280726 166.118113,50.3554991 166.34098,50.4280944 C166.563848,50.5006897 166.815027,50.5613067 167.095971,50.6095826 C167.376552,50.6582214 167.686171,50.6821779 168.025191,50.6821779" id="Fill-31" fill="#4E4B48" mask="url(#mask-6)"></path>
      </g>
    </g>
  </g>
</svg>
