<svg viewBox="0 0 200 92" version="1.1" xmlns="http://www.w3.org/2000/svg" xmlns:xlink="http://www.w3.org/1999/xlink">
  <g id="Husk" transform="translate(0.000000, 19.000000)" fill="#62605E">
    <path d="M31.3953488,42.5242983 C31.727506,42.5242983 31.9967923,42.7935846 31.9967923,43.1257418 C31.9967923,43.457899 31.727506,43.7271852 31.3953488,43.7271852 C31.0631917,43.7271852 30.7939054,43.457899 30.7939054,43.1257418 C30.7939054,42.7935846 31.0631917,42.5242983 31.3953488,42.5242983 L31.3953488,42.5242983 Z" id="Fill-1"></path>
    <path d="M34.9671852,42.2118043 C35.2942903,42.154146 35.606239,42.37251 35.6638974,42.6996953 C35.7216359,43.0268003 35.5031917,43.338749 35.1760866,43.3964074 C34.8489816,43.4540658 34.5370329,43.2357017 34.4792943,42.9085164 C34.4216359,42.5814114 34.6400802,42.2694627 34.9671852,42.2118043" id="Fill-3"></path>
    <path d="M38.4304892,41.2838172 C38.7425982,41.1701844 39.0877466,41.3311307 39.2013793,41.64332 C39.315012,41.955429 39.1540658,42.3005774 38.8418765,42.4141299 C38.5297674,42.5277626 38.1846191,42.3668164 38.0709864,42.0547073 C37.9574338,41.7425982 38.1183801,41.3974499 38.4304892,41.2838172" id="Fill-5"></path>
    <path d="M41.6800321,39.7685245 C41.9676824,39.6024459 42.3355253,39.7010024 42.5016038,39.9886528 C42.6676824,40.2763031 42.5691259,40.644146 42.2814755,40.8102245 C41.9938252,40.9763031 41.6259824,40.8777466 41.4599038,40.5900962 C41.2938252,40.3024459 41.3923817,39.934603 41.6800321,39.7685245" id="Fill-7"></path>
    <path d="M44.617089,37.7119808 C44.8715397,37.4984282 45.2509302,37.5316279 45.4644026,37.7860786 C45.6779551,38.0405293 45.6447554,38.4199198 45.3903047,38.6334723 C45.135854,38.8469447 44.7564635,38.813745 44.5429912,38.5592943 C44.3294387,38.3048436 44.3626383,37.9255333 44.617089,37.7119808" id="Fill-9"></path>
    <path d="M17.400417,5.2764154 C17.6548677,5.06286287 18.0342582,5.09606255 18.2477306,5.35051323 C18.4612831,5.60496391 18.4280834,5.98435445 18.1736327,6.19790698 C17.919182,6.41137931 17.5397915,6.37817963 17.3263192,6.12372895 C17.1127666,5.86927827 17.1459663,5.48996792 17.400417,5.2764154" id="Fill-11"></path>
    <path d="M47.1523978,35.176664 C47.3659503,34.9222133 47.7452606,34.8890136 47.9997113,35.1025662 C48.254162,35.3160385 48.2873617,35.695429 48.0738893,35.9498797 C47.8603368,36.2043304 47.4809463,36.2375301 47.2264956,36.0239775 C46.9720449,35.8105052 46.9389254,35.4311147 47.1523978,35.176664" id="Fill-13"></path>
    <path d="M14.7168404,7.96 C14.9303929,7.70554932 15.3097033,7.67234964 15.564154,7.88590217 C15.8186047,8.0993745 15.8518043,8.47876504 15.638332,8.73321572 C15.4247795,8.9876664 15.0453889,9.02086608 14.7909383,8.80731355 C14.5364876,8.59384122 14.5032879,8.21445068 14.7168404,7.96" id="Fill-15"></path>
    <path d="M49.2089495,32.2396151 C49.3750281,31.9519647 49.7428709,31.8534082 50.0305213,32.0194868 C50.3181716,32.1855654 50.4167281,32.5534082 50.2506496,32.8410585 C50.084571,33.1287089 49.7167281,33.2272654 49.4290778,33.0611868 C49.1414274,32.8951083 49.0428709,32.5272654 49.2089495,32.2396151" id="Fill-17"></path>
    <path d="M12.5400241,11.0688051 C12.7061026,10.7811548 13.0739455,10.6825982 13.3615958,10.8486768 C13.6492462,11.0147554 13.7478027,11.3825982 13.5817241,11.6702486 C13.4156455,11.957899 13.0478027,12.0564555 12.7601524,11.8903769 C12.472502,11.7242983 12.3739455,11.3564555 12.5400241,11.0688051" id="Fill-19"></path>
    <path d="M50.7242342,28.9900642 C50.8378669,28.6779551 51.1830152,28.5170088 51.4951243,28.6305613 C51.8072334,28.7441941 51.9681796,29.0893424 51.8545469,29.4014515 C51.7409944,29.7136407 51.395846,29.874587 51.083737,29.7609543 C50.7715477,29.6473216 50.6106014,29.3021732 50.7242342,28.9900642" id="Fill-21"></path>
    <path d="M10.9361267,14.5083801 C11.0497594,14.1962711 11.3949078,14.0353248 11.7070168,14.1488773 C12.0191259,14.26251 12.1800722,14.6076584 12.0664395,14.9197674 C11.9528869,15.2319567 11.6077386,15.392903 11.2956295,15.2792702 C10.9834403,15.1656375 10.822494,14.8204892 10.9361267,14.5083801" id="Fill-23"></path>
    <path d="M51.6522213,25.5267602 C51.7098797,25.1996552 52.0218284,24.9812109 52.3489334,25.0388693 C52.6761187,25.0966079 52.8944828,25.4085565 52.8368244,25.7356616 C52.779166,26.0627666 52.4672173,26.2812109 52.1401123,26.2234723 C51.8130072,26.165814 51.594563,25.8538653 51.6522213,25.5267602" id="Fill-25"></path>
    <path d="M9.95386528,18.1742181 C10.0115237,17.8471131 10.3234723,17.6286688 10.6505774,17.6863272 C10.9777626,17.7440658 11.1961267,18.0560144 11.1384683,18.3831195 C11.0808099,18.7102245 10.7688613,18.9286688 10.4417562,18.8709302 C10.114571,18.8132719 9.8962069,18.5013232 9.95386528,18.1742181" id="Fill-27"></path>
    <path d="M10.8259824,21.9549318 C10.8259824,22.287089 10.5566961,22.5563753 10.2245389,22.5563753 C9.89238172,22.5563753 9.62309543,22.287089 9.62309543,21.9549318 C9.62309543,21.6227747 9.89238172,21.3534884 10.2245389,21.3534884 C10.5566961,21.3534884 10.8259824,21.6227747 10.8259824,21.9549318" id="Fill-29"></path>
    <path d="M53.1676022,21.9549318 C53.1676022,22.287089 52.898316,22.5563753 52.5661588,22.5563753 C52.2340016,22.5563753 51.9647153,22.287089 51.9647153,21.9549318 C51.9647153,21.6227747 52.2340016,21.3534884 52.5661588,21.3534884 C52.898316,21.3534884 53.1676022,21.6227747 53.1676022,21.9549318" id="Fill-31"></path>
    <path d="M11.1384763,25.5267602 C11.1961347,25.8538653 10.9777706,26.165814 10.6505854,26.2234723 C10.3234804,26.2812109 10.0115317,26.0627666 9.9538733,25.7356616 C9.89621492,25.4085565 10.114579,25.0966079 10.4417642,25.0388693 C10.7688693,24.9812109 11.080818,25.1996552 11.1384763,25.5267602" id="Fill-33"></path>
    <path d="M52.8368324,18.1742181 C52.8944908,18.5013232 52.6761267,18.8132719 52.3489415,18.8709302 C52.0218364,18.9286688 51.7098877,18.7102245 51.6522294,18.3831195 C51.594571,18.0560144 51.812935,17.7440658 52.1401203,17.6863272 C52.4672253,17.6286688 52.779174,17.8471131 52.8368324,18.1742181" id="Fill-35"></path>
    <path d="M12.0664715,28.9900642 C12.1801043,29.3021732 12.019158,29.6473216 11.7069687,29.7609543 C11.3948597,29.874587 11.0497113,29.7136407 10.9361588,29.4014515 C10.8225261,29.0893424 10.9834723,28.7441941 11.2955814,28.6305613 C11.6076905,28.5170088 11.9528388,28.6779551 12.0664715,28.9900642" id="Fill-37"></path>
    <path d="M51.854579,14.5083801 C51.9682117,14.8204892 51.8072654,15.1656375 51.4950762,15.2792702 C51.1829671,15.392903 50.8378188,15.2319567 50.7242662,14.9197674 C50.6106335,14.6076584 50.7715798,14.26251 51.0836889,14.1488773 C51.3957979,14.0353248 51.7409463,14.1962711 51.854579,14.5083801" id="Fill-39"></path>
    <path d="M13.5817562,32.2396151 C13.7478348,32.5272654 13.6492783,32.8951083 13.3616279,33.0611868 C13.0739775,33.2272654 12.7061347,33.1287089 12.5400561,32.8410585 C12.3739775,32.5534082 12.4725341,32.1855654 12.7601844,32.0194868 C13.0478348,31.8534082 13.4156776,31.9519647 13.5817562,32.2396151" id="Fill-41"></path>
    <path d="M15.6382999,35.176664 C15.8518524,35.4311147 15.8186528,35.8105052 15.5642021,36.0239775 C15.3097514,36.2375301 14.9303609,36.2043304 14.7168083,35.9498797 C14.503336,35.695429 14.5365357,35.3160385 14.7909864,35.1025662 C15.045437,34.8890136 15.4247474,34.9222133 15.6382999,35.176664" id="Fill-43"></path>
    <path d="M18.1736167,37.7119808 C18.4280674,37.9255333 18.461267,38.3048436 18.2477145,38.5592943 C18.0342422,38.813745 17.6548516,38.8469447 17.400401,38.6334723 C17.1459503,38.4199198 17.1127506,38.0405293 17.3263031,37.7860786 C17.5397755,37.5316279 17.919166,37.4984282 18.1736167,37.7119808" id="Fill-45"></path>
    <path d="M21.1106656,39.7685245 C21.398316,39.934603 21.4968725,40.3024459 21.3307939,40.5900962 C21.1647153,40.8777466 20.7968725,40.9763031 20.5092221,40.8102245 C20.2215718,40.644146 20.1230152,40.2763031 20.2890938,39.9886528 C20.4551724,39.7010024 20.8230152,39.6024459 21.1106656,39.7685245" id="Fill-47"></path>
    <path d="M24.3602165,41.2838172 C24.6723256,41.3974499 24.8332719,41.7425982 24.7197193,42.0547073 C24.6060866,42.3668164 24.2609383,42.5277626 23.9488292,42.4141299 C23.6366399,42.3005774 23.4756937,41.955429 23.5893264,41.64332 C23.7029591,41.3311307 24.0481075,41.1701844 24.3602165,41.2838172" id="Fill-49"></path>
    <path d="M27.8235204,42.2118043 C28.1506255,42.2694627 28.3690698,42.5814114 28.3114114,42.9085164 C28.2536728,43.2357017 27.9417241,43.4540658 27.6146191,43.3964074 C27.287514,43.338749 27.0690698,43.0268003 27.1268083,42.6996953 C27.1844667,42.37251 27.4964154,42.154146 27.8235204,42.2118043" id="Fill-51"></path>
    <path d="M6.89705694,19.8121732 C6.9453328,19.2606897 7.4314595,18.8527506 7.98294306,18.9010265 C8.53442662,18.9492221 8.94236568,19.435429 8.89408982,19.9869126 C8.84589415,20.5383962 8.35968725,20.9463352 7.80820369,20.8980593 C7.25672013,20.8497835 6.84878107,20.3636568 6.89705694,19.8121732" id="Fill-53"></path>
    <path d="M53.8836648,23.9229671 C53.9319407,23.3714836 54.4180674,22.9635445 54.9695509,23.0118204 C55.5210345,23.060016 55.9289735,23.5462229 55.8806977,24.0977065 C55.832502,24.6491901 55.3462951,25.0571291 54.7948115,25.0088532 C54.243328,24.9605774 53.8353889,24.4744507 53.8836648,23.9229671" id="Fill-55"></path>
    <path d="M55.8807217,19.8121732 C55.9289976,20.3636568 55.5210585,20.8497835 54.969575,20.8980593 C54.4180914,20.9463352 53.9318845,20.5383962 53.8836889,19.9869126 C53.835413,19.435429 54.243352,18.9492221 54.7948356,18.9010265 C55.3463192,18.8527506 55.8324459,19.2606897 55.8807217,19.8121732" id="Fill-57"></path>
    <path d="M8.89412189,23.9229671 C8.94239775,24.4744507 8.5344587,24.9605774 7.98297514,25.0088532 C7.43149158,25.0571291 6.94528468,24.6491901 6.89708901,24.0977065 C6.84881315,23.5462229 7.25675221,23.060016 7.80823577,23.0118204 C8.35971933,22.9635445 8.84584603,23.3714836 8.89412189,23.9229671" id="Fill-59"></path>
    <path d="M55.1365517,15.5917642 C55.2798557,16.1264876 54.9625341,16.6761267 54.4278107,16.8193504 C53.8930874,16.9626544 53.3434483,16.6453328 53.2001443,16.1106095 C53.0569206,15.5758861 53.3742422,15.026247 53.9089655,14.8830233 C54.4436889,14.7397193 54.9932478,15.0570409 55.1365517,15.5917642" id="Fill-61"></path>
    <path d="M9.57761026,27.7992462 C9.72091419,28.3339695 9.40359262,28.8836087 8.86886929,29.0268324 C8.33414595,29.1701363 7.78450682,28.8528148 7.64120289,28.3180914 C7.49797915,27.7833681 7.81530072,27.2337289 8.35002406,27.0905052 C8.88474739,26.9472013 9.43430634,27.2645229 9.57761026,27.7992462" id="Fill-63"></path>
    <path d="M53.670818,11.5646993 C53.9047394,12.0663833 53.6877386,12.6627747 53.1859743,12.8967763 C52.6842903,13.1306977 52.087899,12.9136167 51.8539775,12.4119326 C51.6199759,11.9101684 51.8370569,11.3138573 52.338741,11.0798557 C52.8405052,10.8459342 53.4368966,11.0630152 53.670818,11.5646993" id="Fill-65"></path>
    <path d="M10.9238332,31.4979471 C11.1577546,31.9996311 10.9407538,32.5960225 10.4389896,32.8300241 C9.93730553,33.0639455 9.34091419,32.8468645 9.10699278,32.3451804 C8.87299118,31.8434162 9.09007217,31.2471051 9.59175621,31.0131034 C10.0935204,30.779182 10.6899118,30.996263 10.9238332,31.4979471" id="Fill-67"></path>
    <path d="M51.1996231,8.08331195 C51.3901604,8.35540497 51.3240016,8.73038492 51.0519086,8.92092221 C50.7798957,9.11137931 50.4048356,9.04530072 50.2143785,8.7732077 C50.0238412,8.50111468 50.09,8.12613472 50.3620128,7.93559743 C50.6341059,7.74514034 51.0090858,7.81121893 51.1996231,8.08331195" id="Fill-69"></path>
    <path d="M12.8918685,34.9066881 C13.2093504,35.3601764 13.099166,35.9851965 12.6456776,36.3026784 C12.1922694,36.6202406 11.5672494,36.5099759 11.2496872,36.0565678 C10.9322053,35.6030794 11.0423897,34.9780593 11.4958781,34.6604972 C11.9493665,34.3430152 12.5743865,34.4531997 12.8918685,34.9066881" id="Fill-71"></path>
    <path d="M15.4219246,37.9218925 C15.813344,38.3133119 15.813344,38.9479551 15.4219246,39.3394547 C15.0305052,39.7308741 14.3958621,39.7308741 14.0043625,39.3394547 C13.6129431,38.9479551 13.6129431,38.3133119 14.0043625,37.9218925 C14.3958621,37.5304731 15.0305052,37.5304731 15.4219246,37.9218925" id="Fill-73"></path>
    <path d="M18.4371371,40.4519567 C18.8906255,40.7694387 19.0008099,41.3944587 18.683328,41.8479471 C18.3657658,42.3014354 17.7407458,42.4116199 17.2872574,42.0941379 C16.8338492,41.7765758 16.7235846,41.1515557 17.0411468,40.6981476 C17.3586287,40.2446592 17.9836488,40.1344747 18.4371371,40.4519567" id="Fill-75"></path>
    <path d="M21.8458781,42.419992 C22.3475621,42.6539134 22.5646431,43.2503047 22.3307217,43.752069 C22.0967201,44.253753 21.500409,44.470834 20.9986447,44.2368324 C20.4969607,44.002911 20.2798797,43.4065196 20.5138011,42.9048356 C20.7478027,42.4030714 21.3441941,42.1860706 21.8458781,42.419992" id="Fill-77"></path>
    <path d="M25.544579,43.7662069 C26.0793023,43.9095108 26.3966239,44.4590698 26.25332,44.9937931 C26.1100962,45.5285164 25.5604571,45.845838 25.0257338,45.7026143 C24.4910104,45.5593103 24.1736889,45.0096712 24.3169928,44.4749479 C24.4602165,43.9402245 25.0098557,43.622903 25.544579,43.7662069" id="Fill-79"></path>
    <path d="M29.4208581,44.4497033 C29.9723416,44.4979791 30.3802807,44.9841059 30.3320048,45.5355894 C30.2838091,46.087073 29.7976022,46.495012 29.2461187,46.4467362 C28.6946351,46.3985405 28.2866961,45.9123336 28.3349719,45.36085 C28.3832478,44.8093665 28.8693745,44.4014274 29.4208581,44.4497033" id="Fill-81"></path>
    <path d="M33.3569286,44.4497033 C33.9084122,44.4014274 34.3945389,44.8093665 34.4428148,45.36085 C34.4910906,45.9123336 34.0831516,46.3985405 33.531668,46.4467362 C32.9801844,46.495012 32.4939775,46.087073 32.4457819,45.5355894 C32.397506,44.9841059 32.8054451,44.4979791 33.3569286,44.4497033" id="Fill-83"></path>
    <path d="M37.2332077,43.7662069 C37.767931,43.622903 38.3175702,43.9402245 38.4607939,44.4749479 C38.6040978,45.0096712 38.2867763,45.5593103 37.7520529,45.7026143 C37.2173296,45.845838 36.6676905,45.5285164 36.5244667,44.9937931 C36.3811628,44.4590698 36.6984844,43.9095108 37.2332077,43.7662069" id="Fill-85"></path>
    <path d="M40.9319086,42.419992 C41.4335926,42.1860706 42.029984,42.4030714 42.2639856,42.9048356 C42.497907,43.4065196 42.280826,44.002911 41.7791419,44.2368324 C41.2773777,44.470834 40.6810666,44.253753 40.447065,43.752069 C40.2131435,43.2503047 40.4302245,42.6539134 40.9319086,42.419992" id="Fill-87"></path>
    <path d="M17.2872895,1.81576584 C17.7407779,1.49828388 18.3657979,1.60846832 18.6832799,2.0619567 C19.000842,2.51536488 18.8905774,3.14038492 18.4371692,3.45794707 C17.9836808,3.77542903 17.3586608,3.66524459 17.0410986,3.21175621 C16.7236167,2.75826784 16.8338011,2.13324779 17.2872895,1.81576584" id="Fill-89"></path>
    <path d="M44.3406496,40.4519567 C44.7941379,40.1344747 45.419158,40.2446592 45.7366399,40.6981476 C46.0542021,41.1515557 45.9439374,41.7765758 45.4905293,42.0941379 C45.0370409,42.4116199 44.4120209,42.3014354 44.0944587,41.8479471 C43.7769767,41.3944587 43.8871612,40.7694387 44.3406496,40.4519567" id="Fill-91"></path>
    <path d="M14.0043945,4.57043304 C14.395814,4.17901363 15.0304571,4.17901363 15.4219567,4.57043304 C15.8133761,4.96185245 15.8133761,5.59649559 15.4219567,5.98799519 C15.0304571,6.3794146 14.395814,6.3794146 14.0043945,5.98799519 C13.6129751,5.59649559 13.6129751,4.96185245 14.0043945,4.57043304" id="Fill-93"></path>
    <path d="M47.355854,37.9218925 C47.7472735,37.5304731 48.3819166,37.5304731 48.7734162,37.9218925 C49.1648356,38.3133119 49.1648356,38.9479551 48.7734162,39.3394547 C48.3819166,39.7308741 47.7472735,39.7308741 47.355854,39.3394547 C46.9644346,38.9479551 46.9644346,38.3133119 47.355854,37.9218925" id="Fill-95"></path>
    <path d="M11.2497193,7.85333601 C11.5672013,7.39984763 12.1922213,7.28966319 12.6457097,7.60714515 C13.0991981,7.9247073 13.2093825,8.54972735 12.8919006,9.00321572 C12.5743384,9.4566239 11.9493184,9.56680834 11.4959102,9.24932638 C11.0424218,8.93184443 10.9322374,8.30682438 11.2497193,7.85333601" id="Fill-97"></path>
    <path d="M49.8859182,34.9066881 C50.2034002,34.4531997 50.8284202,34.3430152 51.2819086,34.6604972 C51.735397,34.9780593 51.8455814,35.6030794 51.5280994,36.0565678 C51.2105373,36.5099759 50.5855172,36.6202406 50.1320289,36.3026784 C49.6786207,35.9851965 49.5683561,35.3601764 49.8859182,34.9066881" id="Fill-99"></path>
    <path d="M9.10696071,11.5646993 C9.34088212,11.0630152 9.93727346,10.8459342 10.4390377,11.0798557 C10.9407217,11.3138573 11.1578027,11.9101684 10.9238011,12.4119326 C10.6898797,12.9136167 10.0934884,13.1306977 9.59180433,12.8967763 C9.0900401,12.6627747 8.87303929,12.0663833 9.10696071,11.5646993" id="Fill-101"></path>
    <path d="M51.8539535,31.4979471 C52.0878749,30.996263 52.6842662,30.779182 53.1860305,31.0131034 C53.6877145,31.2471051 53.9047955,31.8434162 53.6707939,32.3451804 C53.4368725,32.8468645 52.8404812,33.0639455 52.3387971,32.8300241 C51.8370329,32.5960225 51.6200321,31.9996311 51.8539535,31.4979471" id="Fill-103"></path>
    <path d="M7.64122694,15.5917642 C7.78453087,15.0570409 8.33408982,14.7397193 8.86881315,14.8830233 C9.40353649,15.026247 9.72085806,15.5758861 9.57763432,16.1106095 C9.43433039,16.6453328 8.88469126,16.9626544 8.34996792,16.8193504 C7.81524459,16.6761267 7.49792302,16.1264876 7.64122694,15.5917642" id="Fill-105"></path>
    <path d="M53.2001684,27.7992462 C53.3434723,27.2645229 53.8930313,26.9472013 54.4277546,27.0905052 C54.9624779,27.2337289 55.2797995,27.7833681 55.1365758,28.3180914 C54.9932719,28.8528148 54.4436327,29.1701363 53.9089094,29.0268324 C53.374186,28.8836087 53.0568645,28.3339695 53.2001684,27.7992462" id="Fill-107"></path>
    <path d="M10.0305694,9.64433841 C9.64307939,10.3155493 8.78477947,10.5455413 8.11356856,10.1579711 C7.44227747,9.77048115 7.21236568,8.91218123 7.59985565,8.24097033" id="Fill-109"></path>
    <path d="M58.7810826,21.9549318 C58.7810826,22.729992 58.1527747,23.3582999 57.3777145,23.3582999 C56.6026544,23.3582999 55.9743464,22.729992 55.9743464,21.9549318 C55.9743464,21.1798717 56.6026544,20.5515638 57.3777145,20.5515638 C58.1527747,20.5515638 58.7810826,21.1798717 58.7810826,21.9549318" id="Fill-111"></path>
    <path d="M6.7319567,21.9549318 C6.7319567,22.729992 6.10364876,23.3582999 5.32858861,23.3582999 C4.55352847,23.3582999 3.92522053,22.729992 3.92522053,21.9549318 C3.92522053,21.1798717 4.55352847,20.5515638 5.32858861,20.5515638 C6.10364876,20.5515638 6.7319567,21.1798717 6.7319567,21.9549318" id="Fill-113"></path>
    <path d="M58.3643865,17.1921251 C58.4989495,17.955397 57.9893264,18.6833039 57.2260545,18.8178669 C56.4627827,18.9524298 55.7348757,18.4428067 55.6003128,17.6795349 C55.4656696,16.916263 55.9753729,16.1883561 56.7386447,16.0537931 C57.5019166,15.91915 58.2298236,16.4288532 58.3643865,17.1921251" id="Fill-115"></path>
    <path d="M7.10600642,26.2303528 C7.24056937,26.9936247 6.73094627,27.7215317 5.96767442,27.8560946 C5.20440257,27.9906576 4.47649559,27.4810345 4.34193264,26.7177626 C4.20728949,25.9544908 4.71699278,25.2265838 5.48026464,25.0920209 C6.24353649,24.9573777 6.97144346,25.467081 7.10600642,26.2303528" id="Fill-117"></path>
    <path d="M57.1269767,12.5740257 C57.392093,13.3023336 57.0165517,14.1076263 56.2882438,14.3727426 C55.5599358,14.6378589 54.754563,14.2623176 54.4895269,13.5340096 C54.2244106,12.8057017 54.5999519,12.0003288 55.3282598,11.7352927 C56.0565678,11.4701764 56.8618605,11.8457177 57.1269767,12.5740257" id="Fill-119"></path>
    <path d="M8.2167923,30.3758781 C8.48190858,31.104186 8.10636728,31.9094787 7.37805934,32.174595 C6.6497514,32.4397113 5.84437851,32.06417 5.57934242,31.3358621 C5.31422614,30.6075541 5.68976744,29.8021812 6.41807538,29.5371451 C7.14638332,29.2720289 7.95167602,29.6475702 8.2167923,30.3758781" id="Fill-121"></path>
    <path d="M54.7590457,8.44153168 C55.0357899,8.92092221 54.8715557,9.5338332 54.3921652,9.81057739 C53.9128549,10.0874018 53.2998637,9.9231676 53.0231195,9.44377706 C52.7463753,8.96438653 52.9106095,8.35147554 53.39,8.07465116 C53.8693103,7.79790698 54.4823015,7.96214114 54.7590457,8.44153168" id="Fill-123"></path>
    <path d="M10.0305694,34.2655253 C10.4180593,34.9367362 10.1881476,35.7950361 9.51693665,36.1825261 C8.84564555,36.5700962 7.98742582,36.3401043 7.59985565,35.6688933 C7.21236568,34.9976824 7.44227747,34.1393825 8.11356856,33.7518925 C8.78477947,33.3643224 9.64307939,33.5943144 10.0305694,34.2655253" id="Fill-125"></path>
    <path d="M12.4922213,37.7811307 C12.9904571,38.3748757 12.9129912,39.2600401 12.3192462,39.7582759 C11.7255012,40.2564314 10.8403368,40.1789655 10.342101,39.5853007 C9.84394547,38.9915557 9.92141139,38.1063913 10.5150762,37.6081556 C11.1088212,37.1099198 11.9939856,37.1873857 12.4922213,37.7811307" id="Fill-127"></path>
    <path d="M48.4680032,1.55824379 C48.7224539,1.77171612 48.7556536,2.15110666 48.542101,2.40555734 C48.3286287,2.66000802 47.9492382,2.6932077 47.6947875,2.47965517 C47.4403368,2.26618284 47.4072173,1.8867923 47.6206897,1.63234162 C47.834162,1.37789094 48.2135525,1.34477145 48.4680032,1.55824379" id="Fill-129"></path>
    <path d="M15.5269527,40.8158621 C16.1206977,41.3140978 16.1981636,42.1992622 15.6999278,42.7930072 C15.2016921,43.386672 14.3165277,43.4641379 13.7227827,42.9659824 C13.1291179,42.4677466 13.051652,41.5825822 13.5498075,40.9888372 C14.0480433,40.3950922 14.9332077,40.3176263 15.5269527,40.8158621" id="Fill-131"></path>
    <path d="M19.0425501,43.277506 C19.713761,43.664996 19.943753,44.5232959 19.5561828,45.1945068 C19.1686929,45.8657979 18.3103929,46.0957097 17.639182,45.7082197 C16.9679711,45.3206496 16.7379791,44.4624298 17.1255493,43.7911387 C17.5130393,43.1199278 18.3713392,42.890016 19.0425501,43.277506" id="Fill-133"></path>
    <path d="M22.9322053,45.0912831 C23.6605132,45.3563994 24.0360545,46.1616921 23.7709383,46.89 C23.5059022,47.6183079 22.7005293,47.9938492 21.9722213,47.728733 C21.2439134,47.4636969 20.8683721,46.658324 21.1334884,45.930016 C21.3986047,45.2017081 22.2038974,44.8261668 22.9322053,45.0912831" id="Fill-135"></path>
    <path d="M27.0777225,46.202069 C27.8409944,46.3366319 28.3506977,47.0645389 28.2160545,47.8278107 C28.0814916,48.5910826 27.3535846,49.1007859 26.5903128,48.9661427 C25.8270409,48.8315798 25.3174178,48.1036728 25.4519808,47.340401 C25.5865437,46.5771291 26.3144507,46.067506 27.0777225,46.202069" id="Fill-137"></path>
    <path d="M31.3531516,46.5761267 C32.1282117,46.5761267 32.7565196,47.2044346 32.7565196,47.9794948 C32.7565196,48.7545549 32.1282117,49.3828629 31.3531516,49.3828629 C30.5780914,49.3828629 29.9497835,48.7545549 29.9497835,47.9794948 C29.9497835,47.2044346 30.5780914,46.5761267 31.3531516,46.5761267" id="Fill-139"></path>
    <path d="M35.6285726,46.202069 C36.3918444,46.067506 37.1197514,46.5771291 37.2543144,47.340401 C37.3888773,48.1036728 36.8792542,48.8315798 36.1159824,48.9661427 C35.3527105,49.1007859 34.6248035,48.5910826 34.4902406,47.8278107 C34.3555974,47.0645389 34.8653007,46.3366319 35.6285726,46.202069" id="Fill-141"></path>
    <path d="M39.7740898,45.0912831 C40.5023978,44.8261668 41.3076905,45.2017081 41.5728067,45.930016 C41.837923,46.658324 41.4623817,47.4636969 40.7340738,47.728733 C40.0057658,47.9938492 39.2003929,47.6183079 38.9353569,46.89 C38.6702406,46.1616921 39.0457819,45.3563994 39.7740898,45.0912831" id="Fill-143"></path>
    <path d="M43.663745,43.277506 C44.3349559,42.890016 45.1932558,43.1199278 45.5807458,43.7911387 C45.968316,44.4624298 45.738324,45.3206496 45.0671131,45.7082197 C44.3959022,46.0957097 43.5376022,45.8657979 43.1501123,45.1945068 C42.7625421,44.5232959 42.9925341,43.664996 43.663745,43.277506" id="Fill-145"></path>
    <path d="M13.7228148,0.943921411 C14.3165597,0.445685646 15.2017241,0.523151564 15.6999599,1.11689655 C16.1981155,1.71064154 16.1206496,2.59580593 15.5269848,3.0940417 C14.9332398,3.59219727 14.0480754,3.51473136 13.5498396,2.92106656 C13.0516038,2.32732157 13.1290698,1.44215718 13.7228148,0.943921411" id="Fill-147"></path>
    <path d="M47.1793424,40.8158621 C47.7730874,40.3176263 48.6582518,40.3950922 49.1564876,40.9888372 C49.6546431,41.5825822 49.5771772,42.4677466 48.9835124,42.9659824 C48.3897674,43.4641379 47.504603,43.386672 47.0063673,42.7930072 C46.5081315,42.1992622 46.5855974,41.3140978 47.1793424,40.8158621" id="Fill-149"></path>
    <path d="M10.3421331,4.32459503 C10.8403689,3.73085004 11.7255333,3.65338412 12.3192783,4.15161989 C12.9129431,4.64985565 12.990409,5.53502005 12.4922534,6.12876504 C11.9940176,6.72242983 11.1088532,6.79989575 10.5151083,6.30174018 C9.92136327,5.80350441 9.84389735,4.91834002 10.3421331,4.32459503" id="Fill-151"></path>
    <path d="M50.2140818,37.7811307 C50.7123176,37.1873857 51.597482,37.1099198 52.1912269,37.6081556 C52.7848917,38.1063913 52.8623577,38.9915557 52.3642021,39.5853007 C51.8659663,40.1789655 50.9808019,40.2564314 50.3870569,39.7582759 C49.7933119,39.2600401 49.715846,38.3748757 50.2140818,37.7811307" id="Fill-153"></path>
    <path d="M7.59986367,8.24097033 C7.98735365,7.56975942 8.84565357,7.33976744 9.51686447,7.72733761 C10.1881556,8.11482759 10.4180674,8.97312751 10.0305774,9.64433841" id="Fill-155"></path>
    <path d="M52.6757257,34.2655253 C53.0632157,33.5943144 53.9215156,33.3643224 54.5927265,33.7518925 C55.2640176,34.1393825 55.4939294,34.9976824 55.1064395,35.6688933 C54.7188693,36.3401043 53.8606496,36.5700962 53.1893585,36.1825261 C52.5181476,35.7950361 52.2881556,34.9367362 52.6757257,34.2655253" id="Fill-157"></path>
    <path d="M5.57932638,12.5740257 C5.84444266,11.8457177 6.64973536,11.4701764 7.3780433,11.7352927 C8.10635124,12.0003288 8.48189254,12.8057017 8.21677626,13.5340096 C7.95174018,14.2623176 7.14636728,14.6378589 6.41805934,14.3727426 C5.6897514,14.1076263 5.3142101,13.3023336 5.57932638,12.5740257" id="Fill-159"></path>
    <path d="M54.4895028,30.3758781 C54.7546191,29.6475702 55.5599118,29.2720289 56.2882197,29.5371451 C57.0165277,29.8021812 57.392069,30.6075541 57.1269527,31.3358621 C56.8619166,32.06417 56.0565437,32.4397113 55.3282358,32.174595 C54.5999278,31.9094787 54.2243865,31.104186 54.4895028,30.3758781" id="Fill-161"></path>
    <path d="M4.34190858,17.1921251 C4.47647153,16.4288532 5.20437851,15.91915 5.96765036,16.0537931 C6.73092221,16.1883561 7.2406255,16.916263 7.10598236,17.6795349 C6.97141941,18.4428067 6.24351243,18.9524298 5.48024058,18.8178669 C4.71696872,18.6833039 4.20734563,17.955397 4.34190858,17.1921251" id="Fill-163"></path>
    <path d="M55.6002887,26.2303528 C55.7348516,25.467081 56.4627586,24.9573777 57.2260305,25.0920209 C57.9893023,25.2265838 58.4990056,25.9544908 58.3643625,26.7177626 C58.2297995,27.4810345 57.5018925,27.9906576 56.7386207,27.8560946 C55.9753488,27.7215317 55.4657257,26.9936247 55.6002887,26.2303528" id="Fill-165"></path>
    <path d="M60.6625742,19.3066881 C60.7587249,19.8518364 60.3946512,20.3717241 59.8495028,20.4678749 C59.3043545,20.5640257 58.7844667,20.1999519 58.688316,19.6548035 C58.5922454,19.1096552 58.956239,18.5897674 59.5013873,18.4936167 C60.0465357,18.3974659 60.5664234,18.7615397 60.6625742,19.3066881" id="Fill-167"></path>
    <path d="M4.10236568,24.2550601 C4.19851644,24.8002085 3.83444266,25.3200962 3.28929431,25.416247 C2.74414595,25.5123978 2.22425822,25.148324 2.12810746,24.6031756 C2.03203689,24.0580273 2.39603047,23.5381395 2.94117883,23.4419888 C3.48632719,23.345838 4.00621492,23.7099118 4.10236568,24.2550601" id="Fill-169"></path>
    <path d="M59.7580754,14.2647233 C59.9474098,14.7849318 59.679166,15.3600722 59.1590377,15.5494066 C58.6388292,15.738741 58.0636087,15.4705774 57.8742743,14.9503689 C57.6849399,14.4301604 57.9531836,13.85502 58.4733921,13.6656856 C58.9935204,13.4763512 59.568741,13.7445148 59.7580754,14.2647233" id="Fill-171"></path>
    <path d="M4.9164154,28.9595028 C5.1057498,29.4797113 4.83750601,30.0548516 4.31737771,30.244186 C3.79716921,30.4335204 3.22194868,30.1653569 3.03261427,29.6451484 C2.84327987,29.1249399 3.11152366,28.5497995 3.63173216,28.3604651 C4.15186047,28.1711307 4.72708099,28.4392943 4.9164154,28.9595028" id="Fill-173"></path>
    <path d="M6.53502005,33.4510986 C6.81184443,33.9304892 6.64753007,34.5435605 6.16813953,34.8203047 C5.688749,35.0971291 5.07567763,34.9328949 4.79893344,34.4534242 C4.52210906,33.9740337 4.68634322,33.3610425 5.16581395,33.0842181 C5.64520449,32.8073937 6.25819567,32.9717081 6.53502005,33.4510986" id="Fill-175"></path>
    <path d="M55.1102646,5.28557338 C55.323737,5.54002406 55.2906175,5.9194146 55.0361668,6.13288693 C54.7817161,6.34635926 54.4023256,6.31323978 54.1888532,6.05878909 C53.9753007,5.80433841 54.0085004,5.42494787 54.2629511,5.21147554 C54.5174018,4.99792302 54.8967923,5.03112269 55.1102646,5.28557338" id="Fill-177"></path>
    <path d="M8.90899759,37.5934002 C9.26481155,38.0174579 9.20947875,38.6496953 8.78542101,39.0055092 C8.36136327,39.3614034 7.7291259,39.3060706 7.37331195,38.8820128 C7.017498,38.4579551 7.07283079,37.8257177 7.49688853,37.4698236 C7.92094627,37.1140096 8.55318364,37.1693424 8.90899759,37.5934002" id="Fill-179"></path>
    <path d="M11.9662069,41.2605293 C12.3902646,41.6163432 12.4455974,42.2485806 12.0897835,42.6726383 C11.7338893,43.0966961 11.101652,43.1520289 10.6775942,42.7962149 C10.2535365,42.440401 10.1982037,41.8081636 10.5540978,41.3841059 C10.9099118,40.9600481 11.5421492,40.9047153 11.9662069,41.2605293" id="Fill-181"></path>
    <path d="M15.613761,44.3410746 C16.0931516,44.617899 16.2574659,45.2308901 15.9806415,45.7102807 C15.7038172,46.1897514 15.090826,46.3539856 14.6114354,46.0771612 C14.1319647,45.800417 13.9677306,45.1873456 14.2445549,44.7079551 C14.5212991,44.2285646 15.1343705,44.0642502 15.613761,44.3410746" id="Fill-183"></path>
    <path d="M19.740834,46.7414194 C20.2610425,46.9307538 20.5292061,47.5059743 20.3398717,48.0261026 C20.1505373,48.5463111 19.575397,48.8145549 19.0551885,48.6252205 C18.53498,48.4358861 18.2668164,47.8606656 18.4561508,47.3404571 C18.6454852,46.8203288 19.2206255,46.552085 19.740834,46.7414194" id="Fill-185"></path>
    <path d="M24.2220209,48.3886447 C24.7671692,48.4847955 25.131243,49.0046832 25.0350922,49.5498316 C24.9389415,50.09498 24.4190537,50.4589735 23.8739054,50.362903 C23.328757,50.2667522 22.9646832,49.7468645 23.060834,49.2017161 C23.1569848,48.6565678 23.6768725,48.292494 24.2220209,48.3886447" id="Fill-187"></path>
    <path d="M28.9211628,49.2326945 C29.4747314,49.2326945 29.9234884,49.6814515 29.9234884,50.23502 C29.9234884,50.7885886 29.4747314,51.2373456 28.9211628,51.2373456 C28.3675942,51.2373456 27.9188372,50.7885886 27.9188372,50.23502 C27.9188372,49.6814515 28.3675942,49.2326945 28.9211628,49.2326945" id="Fill-189"></path>
    <path d="M33.6954852,49.247923 C34.2406335,49.1517723 34.7605213,49.515846 34.856672,50.0609944 C34.9528228,50.6061427 34.588749,51.1260305 34.0436006,51.2221812 C33.4984523,51.3182518 32.9785646,50.9542582 32.8824138,50.4091099 C32.786263,49.8639615 33.1503368,49.3440738 33.6954852,49.247923" id="Fill-191"></path>
    <path d="M38.3999198,48.4338653 C38.9201283,48.2445309 39.4952686,48.5127747 39.684603,49.032903 C39.8739374,49.5531115 39.6057739,50.128332 39.0855654,50.3176664 C38.5653569,50.5070008 37.9902165,50.238757 37.8008821,49.7185485 C37.6115477,49.1984202 37.8797113,48.6231997 38.3999198,48.4338653" id="Fill-193"></path>
    <path d="M42.8915156,46.8152606 C43.3709062,46.5384362 43.9839775,46.7027506 44.2607217,47.1821411 C44.5375461,47.6615317 44.3733119,48.274603 43.8938412,48.5513472 C43.4144507,48.8281716 42.8014595,48.6639374 42.5246351,48.1844667 C42.2478107,47.7050762 42.4121251,47.092085 42.8915156,46.8152606" id="Fill-195"></path>
    <path d="M47.0338172,44.4412831 C47.4578749,44.0854691 48.0901123,44.1408019 48.4459262,44.5648597 C48.8018204,44.9889174 48.7464876,45.6211548 48.3224298,45.9769687 C47.8983721,46.3327827 47.2661347,46.2774499 46.9102406,45.8533921 C46.5544266,45.4293344 46.6097594,44.797097 47.0338172,44.4412831" id="Fill-197"></path>
    <path d="M10.5540738,1.23719326 C10.9098877,0.813135525 11.5421251,0.757802727 11.9661828,1.11361668 C12.3902406,1.46951083 12.4455734,2.1017482 12.0897594,2.52580593 C11.7339455,2.94986367 11.1017081,3.00519647 10.6776504,2.64930233 C10.2535926,2.29348837 10.1982598,1.661251 10.5540738,1.23719326" id="Fill-199"></path>
    <path d="M50.7009463,41.3840738 C51.0567602,40.960016 51.6889976,40.9046832 52.1130553,41.2604972 C52.5371131,41.6163913 52.5924459,42.2486287 52.2366319,42.6726864 C51.880818,43.0967442 51.2485806,43.152077 50.8245229,42.7961828 C50.4004651,42.4403689 50.3451323,41.8081315 50.7009463,41.3840738" id="Fill-201"></path>
    <path d="M7.27309543,5.17099439 C7.54991981,4.69160385 8.16291099,4.52728949 8.64230152,4.80411387 C9.12177225,5.08093825 9.28600642,5.69392943 9.00918204,6.17331997 C8.73243785,6.6527907 8.11936648,6.81702486 7.63997594,6.54020048 C7.1605854,6.2634563 6.99627105,5.65038492 7.27309543,5.17099439" id="Fill-203"></path>
    <path d="M53.7814916,37.7365196 C54.058316,37.2571291 54.6713071,37.0928148 55.1506977,37.3696391 C55.6301684,37.6464635 55.7944026,38.2594547 55.5175782,38.7388452 C55.240834,39.218316 54.6277626,39.3825501 54.1483721,39.1057257 C53.6689816,38.8289816 53.5046672,38.2159102 53.7814916,37.7365196" id="Fill-205"></path>
    <path d="M4.72506816,9.61477145 C4.91440257,9.09456295 5.4896231,8.82639936 6.0097514,9.01573376 C6.5299599,9.20506816 6.79820369,9.7802085 6.60886929,10.300417 C6.41953488,10.8206255 5.84431435,11.0887891 5.32410585,10.8994547 C4.80397755,10.7101203 4.53573376,10.13498 4.72506816,9.61477145" id="Fill-207"></path>
    <path d="M56.1818364,33.6094547 C56.3711708,33.0892462 56.9463913,32.8210826 57.4665196,33.010417 C57.9867281,33.1997514 58.2549719,33.7748917 58.0656375,34.2951002 C57.8763031,34.8153087 57.3010826,35.0834723 56.7808741,34.8941379 C56.2607458,34.7048035 55.992502,34.1296632 56.1818364,33.6094547" id="Fill-209"></path>
    <path d="M2.98740176,14.4334884 C3.08355253,13.88834 3.60344026,13.5242662 4.14858861,13.620417 C4.69373697,13.7165678 5.05773055,14.2364555 4.96165998,14.7816038 C4.86550922,15.3267522 4.34562149,15.690826 3.80047314,15.5946752 C3.25532478,15.4985245 2.891251,14.9786367 2.98740176,14.4334884" id="Fill-211"></path>
    <path d="M57.8290617,29.1282678 C57.9252125,28.5831195 58.4451002,28.2190457 58.9902486,28.3151965 C59.535397,28.4113472 59.8993905,28.931235 59.80332,29.4763833 C59.7071692,30.0215317 59.1872815,30.3856055 58.6421331,30.2894547 C58.0969848,30.1933039 57.732911,29.6734162 57.8290617,29.1282678" id="Fill-213"></path>
    <path d="M2.11290297,19.4807458 C2.11290297,18.9271772 2.56165998,18.4784202 3.11522855,18.4784202 C3.66879711,18.4784202 4.11763432,18.9271772 4.11763432,19.4807458 C4.11763432,20.0343144 3.66879711,20.4830714 3.11522855,20.4830714 C2.56165998,20.4830714 2.11290297,20.0343144 2.11290297,19.4807458" id="Fill-215"></path>
    <path d="M58.6731115,24.4291179 C58.6731115,23.8755493 59.1218685,23.4267923 59.675437,23.4267923 C60.2290056,23.4267923 60.6778428,23.8755493 60.6778428,24.4291179 C60.6778428,24.9826864 60.2290056,25.4314435 59.675437,25.4314435 C59.1218685,25.4314435 58.6731115,24.9826864 58.6731115,24.4291179" id="Fill-217"></path>
    <path d="M0.476968725,16.5031836 C0.534627105,16.1760786 0.846575782,15.9576343 1.17368083,16.0152927 C1.50086608,16.0730313 1.71923015,16.38498 1.66157177,16.712085 C1.60391339,17.0391901 1.29196472,17.2576343 0.964859663,17.1998957 C0.637674419,17.1422374 0.419310345,16.8302887 0.476968725,16.5031836" id="Fill-219"></path>
    <path d="M61.1291179,27.1977947 C61.1867763,26.8706897 61.4987249,26.6522454 61.82583,26.7099038 C62.1530152,26.7676423 62.3713793,27.079591 62.3137209,27.4066961 C62.2560626,27.7338011 61.9441139,27.9522454 61.6170088,27.8945068 C61.2899038,27.8368484 61.0714595,27.5248998 61.1291179,27.1977947" id="Fill-221"></path>
    <path d="M62.7906977,21.9549318 C62.7906977,22.287089 62.5214114,22.5563753 62.1892542,22.5563753 C61.857097,22.5563753 61.5878107,22.287089 61.5878107,21.9549318 C61.5878107,21.6227747 61.857097,21.3534884 62.1892542,21.3534884 C62.5214114,21.3534884 62.7906977,21.6227747 62.7906977,21.9549318" id="Fill-223"></path>
    <path d="M1.20288693,21.9549318 C1.20288693,22.287089 0.933600642,22.5563753 0.601443464,22.5563753 C0.269286287,22.5563753 0,22.287089 0,21.9549318 C0,21.6227747 0.269286287,21.3534884 0.601443464,21.3534884 C0.933600642,21.3534884 1.20288693,21.6227747 1.20288693,21.9549318" id="Fill-225"></path>
    <path d="M1.66157979,27.1977947 C1.71923817,27.5248998 1.5008741,27.8368484 1.17368885,27.8945068 C0.846583801,27.9522454 0.534635124,27.7338011 0.476976744,27.4066961 C0.419318364,27.079591 0.637682438,26.7676423 0.964867682,26.7099038 C1.29197273,26.6522454 1.60392141,26.8706897 1.66157979,27.1977947" id="Fill-227"></path>
    <path d="M60.8973216,11.217089 C61.0109543,11.5291981 60.850008,11.8743464 60.5378188,11.9879791 C60.2257097,12.1016119 59.8805613,11.9406656 59.7670088,11.6284763 C59.6533761,11.3163673 59.8143224,10.9712189 60.1264314,10.8575862 C60.4385405,10.7440337 60.7836889,10.90498 60.8973216,11.217089" id="Fill-229"></path>
    <path d="M3.02371291,32.2813633 C3.13734563,32.5934723 2.97639936,32.9386207 2.6642101,33.0522534 C2.35210104,33.1658861 2.00695269,33.0049399 1.89340016,32.6927506 C1.77976744,32.3806415 1.94071371,32.0354932 2.25282277,31.9218605 C2.56493184,31.8083079 2.91008019,31.9692542 3.02371291,32.2813633" id="Fill-231"></path>
    <path d="M5.24790698,37.0511628 C5.41398557,37.3388132 5.31542903,37.706656 5.02777867,37.8727346 C4.74012831,38.0388132 4.37228549,37.9402566 4.2062069,37.6526063 C4.04012831,37.3649559 4.13868484,36.9971131 4.4263352,36.8310345 C4.71398557,36.6649559 5.08182839,36.7635124 5.24790698,37.0511628" id="Fill-233"></path>
    <path d="M8.2665838,41.3622694 C8.48013633,41.6167201 8.44693665,41.9961107 8.19248597,42.209583 C7.93803528,42.4231355 7.55864475,42.3899358 7.34509222,42.1354852 C7.13161989,41.8810345 7.16481957,41.5016439 7.41927025,41.2881716 C7.67372093,41.0746191 8.05303128,41.1078188 8.2665838,41.3622694" id="Fill-235"></path>
    <path d="M11.9880112,45.0836969 C12.2424619,45.2972494 12.2756616,45.6765597 12.0621091,45.9310104 C11.8486367,46.1854611 11.4692462,46.2186608 11.2147955,46.0051885 C10.9603448,45.7916359 10.9271451,45.4122454 11.1406977,45.1577947 C11.35417,44.903344 11.7335605,44.8701443 11.9880112,45.0836969" id="Fill-237"></path>
    <path d="M16.2991179,48.1023737 C16.5867682,48.2684523 16.6853248,48.6362951 16.5192462,48.9239455 C16.3531676,49.2115958 15.9853248,49.3101524 15.6976744,49.1440738 C15.4100241,48.9779952 15.3114675,48.6101524 15.4775461,48.322502 C15.6436247,48.0348516 16.0114675,47.9362951 16.2991179,48.1023737" id="Fill-239"></path>
    <path d="M21.0689174,50.3265678 C21.3810265,50.4402005 21.5419727,50.7853488 21.4284202,51.0974579 C21.3147875,51.409567 20.9696391,51.5705132 20.6575301,51.4568805 C20.3453408,51.343328 20.1843945,50.9981796 20.2980273,50.6860706 C20.41166,50.3738813 20.7568083,50.212935 21.0689174,50.3265678" id="Fill-241"></path>
    <path d="M26.152486,51.6887009 C26.479591,51.7463593 26.6980353,52.0583079 26.6403769,52.385413 C26.5826383,52.7125982 26.2706897,52.9309623 25.9435846,52.8733039 C25.6164796,52.8156455 25.3980353,52.5036969 25.4557739,52.1765918 C25.5134322,51.8494066 25.8253809,51.6310425 26.152486,51.6887009" id="Fill-243"></path>
    <path d="M31.3953488,52.1473937 C31.727506,52.1473937 31.9967923,52.41668 31.9967923,52.7488372 C31.9967923,53.0809944 31.727506,53.3502807 31.3953488,53.3502807 C31.0631917,53.3502807 30.7939054,53.0809944 30.7939054,52.7488372 C30.7939054,52.41668 31.0631917,52.1473937 31.3953488,52.1473937" id="Fill-245"></path>
    <path d="M36.6382117,51.6887009 C36.9653168,51.6310425 37.2772654,51.8494066 37.3349238,52.1765918 C37.3926624,52.5036969 37.1742181,52.8156455 36.8471131,52.8733039 C36.520008,52.9309623 36.2080593,52.7125982 36.1503208,52.385413 C36.0926624,52.0583079 36.3111067,51.7463593 36.6382117,51.6887009" id="Fill-247"></path>
    <path d="M41.7217803,50.3265678 C42.0338893,50.212935 42.3790377,50.3738813 42.4926704,50.6860706 C42.6063031,50.9981796 42.4453569,51.343328 42.1331676,51.4568805 C41.8210585,51.5705132 41.4759102,51.409567 41.3622775,51.0974579 C41.2487249,50.7853488 41.4096712,50.4402005 41.7217803,50.3265678" id="Fill-249"></path>
    <path d="M46.4915798,48.1023737 C46.7792302,47.9362951 47.147073,48.0348516 47.3131516,48.322502 C47.4792302,48.6101524 47.3806736,48.9779952 47.0930233,49.1440738 C46.8053729,49.3101524 46.4375301,49.2115958 46.2714515,48.9239455 C46.1053729,48.6362951 46.2039294,48.2684523 46.4915798,48.1023737" id="Fill-251"></path>
    <path d="M50.8026864,45.0836969 C51.0571371,44.8701443 51.4365277,44.903344 51.65,45.1577947 C51.8635525,45.4122454 51.8303528,45.7916359 51.5759022,46.0051885 C51.3214515,46.2186608 50.9420609,46.1854611 50.7285886,45.9310104 C50.5150361,45.6765597 50.5482358,45.2972494 50.8026864,45.0836969" id="Fill-253"></path>
    <path d="M7.34511628,1.77438653 C7.55866881,1.51993585 7.93797915,1.48673617 8.19242983,1.70028869 C8.44688051,1.91376103 8.48008019,2.29315156 8.26660786,2.54760225 C8.05305533,2.80205293 7.6736648,2.83525261 7.41921411,2.62170008 C7.16476343,2.40822775 7.13156375,2.02883721 7.34511628,1.77438653" id="Fill-255"></path>
    <path d="M54.5241139,41.3622694 C54.7376664,41.1078188 55.1169767,41.0746191 55.3714274,41.2881716 C55.6258781,41.5016439 55.6590778,41.8810345 55.4456055,42.1354852 C55.2320529,42.3899358 54.8527426,42.4231355 54.5982117,42.209583 C54.343761,41.9961107 54.3106415,41.6167201 54.5241139,41.3622694" id="Fill-257"></path>
    <path d="M4.20617482,6.25725742 C4.37225341,5.96960706 4.74009623,5.87105052 5.02774659,6.03712911 C5.31539695,6.2032077 5.41395349,6.57105052 5.2478749,6.85870088 C5.08179631,7.14635124 4.71395349,7.24490778 4.42630313,7.07882919 C4.13865277,6.9127506 4.04009623,6.54490778 4.20617482,6.25725742" id="Fill-259"></path>
    <path d="M57.5427907,37.0511628 C57.7088693,36.7635124 58.0767121,36.6649559 58.3643625,36.8310345 C58.6520128,36.9971131 58.7505694,37.3649559 58.5844908,37.6526063 C58.4184122,37.9402566 58.0505694,38.0388132 57.762919,37.8727346 C57.4752686,37.706656 57.3767121,37.3388132 57.5427907,37.0511628" id="Fill-261"></path>
    <path d="M1.89336808,11.217089 C2.0070008,10.90498 2.35214916,10.7440337 2.66425822,10.8575862 C2.97636728,10.9712189 3.13731355,11.3163673 3.02368083,11.6284763 C2.91012831,11.9406656 2.56497995,12.1016119 2.25287089,11.9879791 C1.94068164,11.8743464 1.77973536,11.5291981 1.89336808,11.217089" id="Fill-263"></path>
    <path d="M59.7669848,32.2813633 C59.8806175,31.9692542 60.2257658,31.8083079 60.5378749,31.9218605 C60.849984,32.0354932 61.0109302,32.3806415 60.8972975,32.6927506 C60.783745,33.0049399 60.4385966,33.1658861 60.1264876,33.0522534 C59.8142983,32.9386207 59.653352,32.5934723 59.7669848,32.2813633" id="Fill-265"></path>
    <path d="M108.495589,4.83789102 C107.709703,4.83789102 106.979952,4.95016046 106.137931,5.11856463 L106.137931,20.667883 L86.5469126,20.667883 L86.5469126,5.11856463 C85.7610265,4.89402574 84.9190056,4.83789102 84.1331195,4.83789102 C83.4033681,4.83789102 82.7858861,4.89402574 82,5.11856463 L82,41.157057 C82.8420209,41.3254612 83.4595028,41.4377306 84.1331195,41.4377306 C84.9190056,41.4377306 85.7048917,41.3254612 86.5469126,41.157057 L86.5469126,24.8779872 L106.137931,24.8779872 L106.137931,41.157057 C106.979952,41.3254612 107.821973,41.4377306 108.607859,41.4377306 C109.33761,41.4377306 109.955092,41.3254612 110.684844,41.157057 L110.684844,5.11856463 C109.955092,4.95016046 109.225341,4.83789102 108.495589,4.83789102 L108.495589,4.83789102 Z M140.82919,14.5491982 C140.099439,14.5491982 139.313553,14.6053329 138.527666,14.773737 L138.527666,36.5540097 C136.562951,37.2837611 134.429832,37.7328389 131.959904,37.7328389 C125.392141,37.7328389 124.213312,34.7576986 124.213312,29.7055735 L124.213312,14.773737 C123.483561,14.6053329 122.697674,14.5491982 121.967923,14.5491982 C121.238172,14.5491982 120.452285,14.6053329 119.666399,14.773737 L119.666399,31.5580193 C119.666399,37.9012431 123.371291,41.9429431 130.893344,41.9429431 C136.282277,41.9429431 139.8749,40.764114 143.074579,39.3607459 L143.074579,14.773737 C142.344828,14.6053329 141.558941,14.5491982 140.82919,14.5491982 L140.82919,14.5491982 Z M159.578188,41.9429431 C166.426624,41.9429431 170.636728,38.6871292 170.636728,33.242061 C170.636728,28.3583401 166.707298,26.1690859 160.420209,25.327065 C155.592622,24.6534484 154.413793,23.4746192 154.413793,21.3976344 C154.413793,19.3206496 156.15397,17.9172816 160.139535,17.9172816 C163.507618,17.9172816 166.033681,18.8154371 167.942261,19.9942663 C169.008821,19.039976 169.626303,17.8611468 169.906977,16.5700482 C168.27907,15.2228148 164.854852,13.9317162 160.644747,13.9317162 C153.908581,13.9317162 149.97915,17.412069 149.97915,21.9028469 C149.97915,27.2356456 154.357658,29.0880915 159.465918,29.7055735 C164.574178,30.3230554 166.202085,31.6702888 166.202085,33.859543 C166.202085,36.1610666 164.349639,37.9573778 159.578188,37.9573778 C155.199679,37.9573778 153.234964,36.4417403 151.943865,35.3751805 C150.821171,36.0487972 149.923015,37.1714917 149.361668,38.6309945 C150.596632,39.8098237 153.740176,41.9429431 159.578188,41.9429431 L159.578188,41.9429431 Z M187.870088,27.2356456 C191.687249,24.1482358 195.279872,20.1626705 198.255012,14.9421412 C197.469126,14.6614676 196.402566,14.5491982 195.728949,14.5491982 C194.999198,14.5491982 194.269447,14.5491982 193.427426,14.7176023 C190.452285,19.9942663 186.410585,23.8114275 181.695269,26.7865678 L181.695269,4.27654378 C180.965517,4.10813961 180.179631,4.05200489 179.44988,4.05200489 C178.720128,4.05200489 177.990377,4.10813961 177.204491,4.27654378 L177.204491,41.157057 C177.990377,41.3254612 178.720128,41.3815959 179.44988,41.3815959 C180.179631,41.3815959 180.965517,41.3254612 181.695269,41.157057 L181.695269,31.5580193 C182.593424,30.9966721 183.49158,30.4353249 184.333601,29.8739776 L194.325581,41.2693265 C195.167602,41.3815959 195.841219,41.4377306 196.57097,41.4377306 C197.525261,41.4377306 198.760225,41.2693265 199.714515,41.0447876 L187.870088,27.2356456 Z" id="Husk"></path>
  </g>
</svg>
