<svg viewBox="0 0 200 92" version="1.1" xmlns="http://www.w3.org/2000/svg" xmlns:xlink="http://www.w3.org/1999/xlink">
  <defs>
    <polygon id="path-1" points="7.44454545 9.54369697 7.44454545 0.147333333 0.0976060606 0.147333333 0.0976060606 9.54369697 7.44454545 9.54369697"></polygon>
    <polygon id="path-3" points="16.2569697 0.123333333 0.0451515152 0.123333333 0.0451515152 29.5171818 16.2569697 29.5171818 16.2569697 0.123333333"></polygon>
    <polygon id="path-5" points="6.55854545 0.123333333 0.0812727273 0.123333333 0.0812727273 29.8959697 6.55854545 29.8959697 6.55854545 0.123333333"></polygon>
  </defs>
  <g id="Skyhelm" stroke="none" stroke-width="1" fill="none" fill-rule="evenodd">
    <g transform="translate(0.000000, 23.000000)">
      <polygon id="Fill-1" fill="#4E4B48" points="117.946909 34.5695455 117.946909 35.6010606 120.804788 35.6010606 120.804788 43.9659091 122.031758 43.9659091 122.031758 35.6010606 124.903576 35.6010606 124.903576 34.5695455"></polygon>
      <polygon id="Fill-2" fill="#4E4B48" points="125.948182 34.5695455 125.948182 43.9659091 131.232121 43.9659091 131.232121 42.9480303 127.161212 42.9480303 127.161212 39.5604545 130.813636 39.5604545 130.813636 38.5568182 127.161212 38.5568182 127.161212 35.5871212 131.022727 35.5871212 131.022727 34.5695455"></polygon>
      <path d="M139.372636,43.6592424 C138.926273,43.8819697 138.034152,44.105303 136.890818,44.105303 C134.24203,44.105303 132.248697,42.4322727 132.248697,39.3513636 C132.248697,36.4098485 134.24203,34.4162121 137.15597,34.4162121 C138.326879,34.4162121 139.065667,34.6671212 139.386576,34.8343939 L139.093545,35.8243939 C138.633545,35.6010606 137.978394,35.4337879 137.197788,35.4337879 C134.995061,35.4337879 133.531424,36.8419697 133.531424,39.3095455 C133.531424,41.6098485 134.855667,43.0874242 137.14203,43.0874242 C137.880818,43.0874242 138.633545,42.9340909 139.121727,42.6971212 L139.372636,43.6592424 Z" id="Fill-3" fill="#4E4B48"></path>
      <polygon id="Fill-5" fill="#4E4B48" points="142.104061 34.5695152 142.104061 38.5010303 146.648606 38.5010303 146.648606 34.5695152 147.875576 34.5695152 147.875576 43.9658788 146.648606 43.9658788 146.648606 39.5604242 142.104061 39.5604242 142.104061 43.9658788 140.89103 43.9658788 140.89103 34.5695152"></polygon>
      <path d="M149.979273,43.9658182 L149.979273,34.5694545 L151.303515,34.5694545 L154.31503,39.323697 C155.012,40.4246061 155.555636,41.4146061 156.001697,42.3767273 L156.029879,42.3624848 C155.918364,41.1079394 155.890182,39.9649091 155.890182,38.5009697 L155.890182,34.5694545 L157.033212,34.5694545 L157.033212,43.9658182 L155.806848,43.9658182 L152.823212,39.1982424 C152.168061,38.1521818 151.540485,37.0788485 151.066848,36.0612727 L151.024727,36.0752121 C151.094727,37.2600606 151.122303,38.3894545 151.122303,39.9506667 L151.122303,43.9658182 L149.979273,43.9658182 Z" id="Fill-7" fill="#4E4B48"></path>
      <path d="M159.890212,39.3235758 C159.890212,41.3308485 160.977485,43.1293333 162.887485,43.1293333 C164.811121,43.1293333 165.898697,41.3590303 165.898697,39.226 C165.898697,37.3578182 164.922636,35.406 162.901121,35.406 C160.894152,35.406 159.890212,37.2599394 159.890212,39.3235758 M167.181121,39.1699394 C167.181121,42.4044848 165.215667,44.1190303 162.817788,44.1190303 C160.336273,44.1190303 158.593848,42.1953939 158.593848,39.3514545 C158.593848,36.3678182 160.447788,34.416303 162.957182,34.416303 C165.522333,34.416303 167.181121,36.3817576 167.181121,39.1699394" id="Fill-9" fill="#4E4B48"></path>
      <polygon id="Fill-11" fill="#4E4B48" points="168.755636 34.5695152 169.968364 34.5695152 169.968364 42.948 173.983515 42.948 173.983515 43.9658788 168.755636 43.9658788"></polygon>
      <path d="M175.53,39.3235758 C175.53,41.3308485 176.617576,43.1293333 178.527576,43.1293333 C180.451212,43.1293333 181.538788,41.3590303 181.538788,39.226 C181.538788,37.3578182 180.562727,35.406 178.541515,35.406 C176.533939,35.406 175.53,37.2599394 175.53,39.3235758 M182.821515,39.1699394 C182.821515,42.4044848 180.855455,44.1190303 178.457576,44.1190303 C175.976364,44.1190303 174.233636,42.1953939 174.233636,39.3514545 C174.233636,36.3678182 176.087879,34.416303 178.59697,34.416303 C181.162424,34.416303 182.821515,36.3817576 182.821515,39.1699394" id="Fill-13" fill="#4E4B48"></path>
      <path d="M191.547121,43.5476667 C191.003485,43.7425152 189.930152,44.0634242 188.661667,44.0634242 C187.239242,44.0634242 186.068333,43.701 185.148333,42.8225152 C184.339848,42.0419091 183.83803,40.7873636 183.83803,39.3237273 C183.851667,36.521303 185.775606,34.4722121 188.926515,34.4722121 C190.013485,34.4722121 190.864091,34.7088788 191.268333,34.9043333 L190.975606,35.8940303 C190.473788,35.671 189.846515,35.4897879 188.898636,35.4897879 C186.61197,35.4897879 185.120455,36.9119091 185.120455,39.2676667 C185.120455,41.6516061 186.556212,43.0597879 188.745,43.0597879 C189.539848,43.0597879 190.083485,42.9479697 190.362273,42.8085758 L190.362273,40.0064545 L188.452273,40.0064545 L188.452273,39.030697 L191.547121,39.030697 L191.547121,43.5476667 Z" id="Fill-15" fill="#4E4B48"></path>
      <g id="Group-19" transform="translate(192.424242, 34.422121)">
        <mask id="mask-2" fill="white">
          <use xlink:href="#path-1"></use>
        </mask>
        <g id="Clip-18"></g>
        <path d="M3.06730303,9.54369697 L3.06730303,5.55672727 L0.0976060606,0.147333333 L1.47790909,0.147333333 L2.80245455,2.74066667 C3.16457576,3.45127273 3.44366667,4.02309091 3.73639394,4.67824242 L3.76427273,4.67824242 C4.02912121,4.06490909 4.34972727,3.45127273 4.71245455,2.74066667 L6.06457576,0.147333333 L7.44457576,0.147333333 L4.2939697,5.54278788 L4.2939697,9.54369697 L3.06730303,9.54369697 Z" id="Fill-17" fill="#4E4B48" mask="url(#mask-2)"></path>
      </g>
      <polygon id="Fill-21" fill="#4E4B48" points="4.28590909 17.8655455 0.000151515152 22.1516061 9.17742424 22.1516061 10.735 17.8655455 8.57136364 13.580697"></polygon>
      <polygon id="Fill-22" fill="#4E4B48" opacity="0.5" points="41.0372424 22.1514848 50.2136061 22.1514848 45.9284545 17.8657273 41.643303 13.5802727 39.4790606 17.8657273"></polygon>
      <polygon id="Fill-24" fill="#4E4B48" opacity="0.5" points="8.5709697 30.7224545 10.7352121 26.437 9.17733333 22.1515455 6.06060606e-05 22.1515455 4.28551515 26.437303"></polygon>
      <polygon id="Fill-27" fill="#4E4B48" points="39.4790303 26.4371212 41.6429697 30.7222727 45.9284242 26.4371212 50.2135758 22.1513636 41.0372121 22.1513636"></polygon>
      <polygon id="Fill-28" fill="#4E4B48" points="10.9843636 38.0397273 12.5537576 43.8948788 17.1419394 35.9463939 14.2092121 32.4551818 9.41618182 32.1863939"></polygon>
      <g id="Group-33" transform="translate(12.424242, 0.179697)" fill="#4E4B48" opacity="0.5">
        <polygon id="Fill-29" points="13.5277576 3.36530303 13.5277576 3.36530303 16.1574545 7.38227273 20.6477576 8.17560606 25.2365455 0.228333333 19.381697 1.79681818"></polygon>
        <polygon id="Fill-31" points="4.71784848 35.7667576 0.129363636 43.7149394 5.983 42.1464545 11.8372424 40.5779697 9.20845455 36.560697"></polygon>
      </g>
      <polygon id="Fill-34" fill="#4E4B48" points="33.072 8.35527273 36.0041212 11.8473939 40.7974545 12.1161818 39.2289697 6.26193939 37.6607879 0.40830303"></polygon>
      <polygon id="Fill-35" fill="#4E4B48" points="28.581 36.7407273 25.9522121 40.7570909 31.8052424 42.3261818 37.6597879 43.8943636 33.071303 35.9464848"></polygon>
      <polygon id="Fill-36" fill="#4E4B48" opacity="0.5" points="9.41554545 12.1159697 9.41554545 12.1159697 14.2091818 11.8471818 17.141303 8.35536364 12.5534242 0.407484848 10.9846364 6.2620303"></polygon>
      <polygon id="Fill-38" fill="#4E4B48" opacity="0.5" points="33.071303 35.9464545 37.6600909 43.8946364 39.2282727 38.0403939 40.7973636 32.1864545 36.0037273 32.4546364"></polygon>
      <polygon id="Fill-41" fill="#4E4B48" points="17.1411818 8.35527273 21.6317879 7.56193939 24.2608788 3.54527273 18.4072424 1.97618182 12.553303 0.407393939"></polygon>
      <path d="M65.310303,27.0832424 C69.1484848,27.0832424 71.0678788,25.7705152 71.0678788,23.1438485 C71.0678788,22.3359697 70.8972727,21.6477879 70.5563636,21.0796061 C70.2154545,20.5114242 69.7545455,20.019 69.1739394,19.6023333 C68.5927273,19.1856667 67.93,18.8256667 67.1851515,18.5226364 C66.440303,18.2196061 65.6512121,17.9165758 64.8178788,17.6135455 C63.8578788,17.2856667 62.9487879,16.9126364 62.0906061,16.4959697 C61.2318182,16.079303 60.4866667,15.5868788 59.8557576,15.018697 C59.2242424,14.4505152 58.7254545,13.7753636 58.359697,12.9923333 C57.9933333,12.2099091 57.810303,11.2629394 57.810303,10.1514242 C57.810303,7.85384848 58.5927273,6.06051515 60.1587879,4.77263636 C61.7242424,3.48475758 63.8833333,2.84081818 66.6360606,2.84081818 C68.2269697,2.84081818 69.6724242,3.01112121 70.9730303,3.3520303 C72.2736364,3.69293939 73.2269697,4.0659697 73.8330303,4.46960606 L72.6587879,7.4620303 C72.1284848,7.13415152 71.3390909,6.8120303 70.2912121,6.4959697 C69.2433333,6.18051515 68.0245455,6.02263636 66.6360606,6.02263636 C65.9287879,6.02263636 65.2724242,6.09839394 64.6663636,6.24990909 C64.060303,6.40142424 63.53,6.62869697 63.0754545,6.93172727 C62.6209091,7.23475758 62.2609091,7.61990909 61.9957576,8.08687879 C61.7306061,8.55445455 61.5981818,9.10384848 61.5981818,9.73475758 C61.5981818,10.4420303 61.7366667,11.0356667 62.0148485,11.5150606 C62.2924242,11.9950606 62.6836364,12.4180909 63.1890909,12.7838485 C63.6939394,13.1502121 64.2812121,13.4847576 64.9506061,13.7877879 C65.6193939,14.0908182 66.3578788,14.3938485 67.1663636,14.6968788 C68.3027273,15.1514242 69.3445455,15.6059697 70.2912121,16.0605152 C71.2381818,16.5150606 72.0587879,17.0583939 72.7533333,17.689303 C73.4478788,18.3208182 73.9845455,19.0720303 74.3633333,19.9432424 C74.7421212,20.8144545 74.9315152,21.869 74.9315152,23.1059697 C74.9315152,25.4041515 74.0918182,27.1720303 72.4124242,28.409 C70.7330303,29.6465758 68.3654545,30.2650606 65.310303,30.2650606 C64.2745455,30.2650606 63.3218182,30.1953636 62.450303,30.0568788 C61.5790909,29.9177879 60.8027273,29.7538485 60.1209091,29.5644545 C59.4390909,29.3747576 58.8521212,29.1729394 58.359697,28.9580909 C57.8672727,28.7438485 57.4818182,28.5605152 57.2042424,28.409 L58.3027273,25.378697 C58.8833333,25.7071818 59.7669697,26.0735455 60.9542424,26.4771818 C62.1409091,26.8814242 63.5927273,27.0832424 65.310303,27.0832424" id="Fill-42" fill="#4E4B48"></path>
      <g id="Group-46" transform="translate(79.090909, 0.179697)">
        <mask id="mask-4" fill="white">
          <use xlink:href="#path-3"></use>
        </mask>
        <g id="Clip-45"></g>
        <path d="M7.16636364,18.6838485 C7.92393939,19.2650606 8.72545455,19.9847576 9.57151515,20.8429394 C10.4172727,21.7017273 11.2506061,22.6296061 12.0712121,23.6268788 C12.8918182,24.6247576 13.6681818,25.6344545 14.4009091,26.6571818 C15.1330303,27.6799091 15.7515152,28.6335455 16.2569697,29.5171818 L12.1281818,29.5171818 C11.5978788,28.6335455 10.9854545,27.7308182 10.2909091,26.808697 C9.59666667,25.8871818 8.87090909,25.0035455 8.11333333,24.1571818 C7.35575758,23.3114242 6.58515152,22.5350606 5.80272727,21.8277879 C5.01969697,21.1211212 4.27454545,20.5274848 3.56787879,20.0474848 L3.56787879,29.5171818 L0.0451515152,29.5171818 L0.0451515152,0.72930303 L3.56787879,0.123242424 L3.56787879,18.0777879 C4.17393939,17.4717273 4.84272727,16.8029394 5.57545455,16.0702121 C6.30757576,15.3380909 7.02727273,14.5929394 7.73454545,13.8353636 C8.44121212,13.0777879 9.11060606,12.3520303 9.74212121,11.6574848 C10.3727273,10.9629394 10.9160606,10.3505152 11.3706061,9.82021212 L15.4993939,9.82021212 C14.9181818,10.4517273 14.2872727,11.1459697 13.6054545,11.9035455 C12.9236364,12.6611212 12.2163636,13.4250606 11.4842424,14.1950606 C10.7515152,14.9656667 10.0130303,15.7356667 9.26848485,16.5059697 C8.52363636,17.2762727 7.82272727,18.0020303 7.16636364,18.6838485" id="Fill-44" fill="#4E4B48" mask="url(#mask-4)"></path>
      </g>
      <path d="M96.5976061,33.3711212 C96.8751818,33.4971818 97.2348788,33.6171818 97.677303,33.7308182 C98.1188182,33.8444545 98.5542727,33.9014242 98.9839697,33.9014242 C100.372455,33.9014242 101.458515,33.5920303 102.241545,32.9735455 C103.02397,32.3544545 103.731242,31.3505152 104.362758,29.9620303 C102.771848,26.9317273 101.287909,23.7183939 99.9121515,20.3217273 C98.5354848,16.9256667 97.3930606,13.4847576 96.4839697,9.99990909 L100.271848,9.99990909 C100.549424,11.1362727 100.88397,12.3614242 101.275788,13.6741515 C101.666697,14.9874848 102.102455,16.338697 102.582455,17.7271818 C103.061848,19.1162727 103.579727,20.5053636 104.135485,21.8938485 C104.690636,23.2829394 105.271848,24.6211212 105.877909,25.909 C106.837303,23.2574848 107.670636,20.6314242 108.377909,18.0302121 C109.084576,15.4296061 109.75397,12.7526364 110.385485,9.99990909 L114.021848,9.99990909 C113.112758,13.7120303 112.102455,17.279 110.991545,20.7005152 C109.88003,24.1226364 108.680939,27.3235455 107.393061,30.3029394 C106.887606,31.439303 106.363667,32.4177879 105.820939,33.238697 C105.277909,34.059 104.678212,34.7347576 104.021848,35.2650606 C103.364879,35.7953636 102.626394,36.1865758 101.805788,36.439303 C100.984879,36.6914242 100.057,36.8180909 99.0218485,36.8180909 C98.7436667,36.8180909 98.4536667,36.799303 98.1506364,36.7614242 C97.8476061,36.7235455 97.5506364,36.6726364 97.2606364,36.6099091 C96.9697273,36.5465758 96.7045758,36.4771818 96.4651818,36.4014242 C96.2248788,36.3256667 96.0542727,36.2623333 95.9536667,36.2120303 L96.5976061,33.3711212 Z" id="Fill-47" fill="#4E4B48"></path>
      <polygon id="Fill-49" fill="#4E4B48" points="134.476091 3.44687879 138.150333 3.44687879 138.150333 29.6968788 134.476091 29.6968788 134.476091 17.5756667 121.635182 17.5756667 121.635182 29.6968788 117.960939 29.6968788 117.960939 3.44687879 121.635182 3.44687879 121.635182 14.3938485 134.476091 14.3938485"></polygon>
      <path d="M155.347,17.9544545 C155.371848,16.3635455 154.974273,15.0565758 154.153667,14.0338485 C153.333061,13.0114242 152.203061,12.4999091 150.763667,12.4999091 C149.955182,12.4999091 149.242152,12.6577879 148.623667,12.9735455 C148.004576,13.289303 147.480636,13.6996061 147.051545,14.2044545 C146.621848,14.7099091 146.287606,15.2905152 146.047909,15.9468788 C145.807606,16.6038485 145.65003,17.2726364 145.574273,17.9544545 L155.347,17.9544545 Z M141.824273,19.8862727 C141.824273,18.1438485 142.076394,16.6226364 142.581848,15.3217273 C143.086697,14.0214242 143.756091,12.9420303 144.589424,12.0832424 C145.422758,11.2250606 146.382152,10.5811212 147.468212,10.1514242 C148.553667,9.72233333 149.665182,9.50748485 150.801545,9.50748485 C153.453061,9.50748485 155.485485,10.3347576 156.90003,11.988697 C158.31397,13.6426364 159.021242,16.1617273 159.021242,19.5453636 L159.021242,20.1323333 C159.021242,20.3726364 159.008212,20.5935455 158.983364,20.7953636 L145.498515,20.7953636 C145.65003,22.8408182 146.243061,24.3938485 147.278818,25.4544545 C148.31397,26.5150606 149.930333,27.0453636 152.127303,27.0453636 C153.364273,27.0453636 154.406091,26.9380909 155.252455,26.7232424 C156.098212,26.509 156.735485,26.3008182 157.165182,26.0983939 L157.657606,29.0529394 C157.227909,29.2802121 156.477,29.5205152 155.403667,29.7726364 C154.330333,30.0247576 153.112152,30.1514242 151.748515,30.1514242 C150.030939,30.1514242 148.547909,29.8923333 147.297909,29.3750606 C146.047909,28.8574848 145.018515,28.1438485 144.210636,27.2347576 C143.402152,26.3256667 142.802758,25.2459697 142.411242,23.9959697 C142.019727,22.7462727 141.824273,21.3765758 141.824273,19.8862727 L141.824273,19.8862727 Z" id="Fill-51" fill="#4E4B48"></path>
      <g id="Group-55" transform="translate(162.424242, 0.179697)">
        <mask id="mask-6" fill="white">
          <use xlink:href="#path-5"></use>
        </mask>
        <g id="Clip-54"></g>
        <path d="M6.06612121,29.8959697 C3.894,29.8450606 2.354,29.378697 1.44490909,28.4944545 C0.535818182,27.6108182 0.0812727273,26.2347576 0.0812727273,24.3656667 L0.0812727273,0.72930303 L3.604,0.123242424 L3.604,23.7974848 C3.604,24.378697 3.65430303,24.8580909 3.75551515,25.2368788 C3.85612121,25.6156667 4.02066667,25.918697 4.24793939,26.1459697 C4.47521212,26.3732424 4.77824242,26.5435455 5.1570303,26.6571818 C5.53581818,26.7708182 6.00278788,26.8656667 6.55854545,26.9414242 L6.06612121,29.8959697 Z" id="Fill-53" fill="#4E4B48" mask="url(#mask-6)"></path>
      </g>
      <path d="M172.922182,10.5680909 C173.730061,10.3662727 174.79703,10.1514242 176.123091,9.92415152 C177.448848,9.69687879 178.982788,9.58324242 180.725212,9.58324242 C181.987636,9.58324242 183.048242,9.75354545 183.90703,10.0947576 C184.765212,10.4356667 185.484909,10.9344545 186.066121,11.5908182 C186.242485,11.4647576 186.520667,11.2877879 186.899455,11.0605152 C187.278242,10.8332424 187.745212,10.6123333 188.30097,10.3977879 C188.856121,10.1832424 189.475212,9.99384848 190.15703,9.82930303 C190.838848,9.66536364 191.57097,9.58324242 192.354,9.58324242 C193.869152,9.58324242 195.106121,9.80445455 196.066121,10.2462727 C197.025515,10.6880909 197.776424,11.3132424 198.320061,12.1211212 C198.862788,12.9296061 199.229152,13.889 199.418545,14.9999091 C199.607939,16.1114242 199.702485,17.3235455 199.702485,18.6362727 L199.702485,29.6968788 L196.179758,29.6968788 L196.179758,19.3938485 C196.179758,18.2326364 196.123091,17.2347576 196.009455,16.4014242 C195.895818,15.5680909 195.68097,14.8738485 195.365515,14.3180909 C195.049152,13.7629394 194.620364,13.3523333 194.077636,13.0871818 C193.534,12.8217273 192.833394,12.689303 191.975212,12.689303 C190.787939,12.689303 189.809758,12.8471818 189.039758,13.1629394 C188.268848,13.478697 187.745212,13.7629394 187.467636,14.0150606 C187.669455,14.6720303 187.82097,15.3917273 187.922182,16.1741515 C188.022788,16.9571818 188.073697,17.7780909 188.073697,18.6362727 L188.073697,29.6968788 L184.55097,29.6968788 L184.55097,19.3938485 C184.55097,18.2326364 184.487636,17.2347576 184.361576,16.4014242 C184.234909,15.5680909 184.014303,14.8738485 183.698848,14.3180909 C183.382485,13.7629394 182.953697,13.3523333 182.410667,13.0871818 C181.867333,12.8217273 181.179758,12.689303 180.346424,12.689303 C179.992485,12.689303 179.613697,12.7023333 179.210061,12.7271818 C178.805818,12.7526364 178.420364,12.7838485 178.054606,12.8217273 C177.688545,12.8596061 177.354,12.9041515 177.05097,12.9544545 C176.747939,13.0053636 176.545515,13.0432424 176.444909,13.0680909 L176.444909,29.6968788 L172.922182,29.6968788 L172.922182,10.5680909 Z" id="Fill-56" fill="#4E4B48"></path>
    </g>
  </g>
</svg>
