<?xml version="1.0" encoding="UTF-8"?>
<svg width="229px" height="88px" viewBox="0 0 229 88" version="1.1" xmlns="http://www.w3.org/2000/svg" xmlns:xlink="http://www.w3.org/1999/xlink">
    <!-- Generator: Sketch 42 (36781) - http://www.bohemiancoding.com/sketch -->
    <title>Shape</title>
    <desc>Created with Sketch.</desc>
    <defs></defs>
    <g id="Welcome" stroke="none" stroke-width="1" fill="none" fill-rule="evenodd">
        <g id="Work" transform="translate(-911.000000, -1267.000000)" fill-rule="nonzero" fill="#FFFFFF">
            <g transform="translate(117.000000, 250.000000)" id="Group">
                <g transform="translate(623.000000, 838.000000)">
                    <path d="M261.521944,265.903689 C258.764757,265.367569 257.998872,264.908038 257.194693,263.184797 C255.969277,260.657376 255.509746,256.713068 255.662923,249.513749 C255.739511,245.952383 255.624629,243.156902 255.471451,243.310079 C254.935332,243.846199 251.450555,252.807054 250.186845,256.827951 C248.693369,261.653027 247.467953,264.180448 246.204242,265.022921 C245.400063,265.559041 244.634178,265.635629 242.106757,265.444158 C239.272982,265.252687 238.89004,265.137804 237.817801,264.065565 L236.630679,262.878443 L236.515796,257.785307 C236.439208,254.30053 236.630679,251.23699 237.128504,247.943684 C237.549741,245.301381 237.817801,243.080314 237.741212,243.003725 C237.588035,242.812254 235.175497,247.713919 233.375667,251.964581 C231.346072,256.713068 228.588886,262.265735 227.516646,263.759211 C226.329525,265.329275 224.950931,265.941983 222.538394,265.941983 C219.704619,265.941983 217.943083,265.137804 217.138904,263.491151 C216.794256,262.76356 216.526196,261.921087 216.526196,261.576438 C216.526196,260.772259 216.56449,260.772259 213.922186,262.265735 C208.943934,265.09951 200.863846,266.478103 194.77506,265.597335 C191.022223,265.061215 190.600986,264.869744 188.265037,262.76356 C186.005676,260.657376 184.397317,258.206544 183.363372,255.411064 L182.520899,253.113408 L179.802007,252.653877 C176.087464,252.041169 172.832453,251.083813 172.028273,250.356222 C171.070917,249.513749 171.147505,246.603385 172.104862,244.382319 C173.215395,241.893192 174.5174,241.548544 177.197997,243.118608 C178.921239,244.152553 181.601837,244.726967 182.291133,244.229142 C182.520899,244.075965 182.903841,242.697371 183.133607,241.165601 C184.167552,234.961932 187.805506,227.762613 191.405165,224.775661 C192.285933,224.04807 194.047469,222.975831 195.311179,222.401417 C197.340775,221.444061 197.991777,221.329178 201.782908,221.329178 C206.761161,221.329178 208.63758,221.98018 211.279883,224.699072 C213.309478,226.805256 213.845598,228.490203 213.845598,232.894043 C213.845598,236.072466 213.730715,236.570291 212.505299,239.059417 C210.16935,243.731316 205.114508,248.020273 198.413014,251.007224 C195.081414,252.5007 194.928237,252.960231 196.996126,254.377119 C199.868195,256.330126 205.497451,254.913238 213.462655,250.203045 C216.487901,248.403215 216.909138,248.020273 216.909138,247.101211 C216.909138,244.535496 220.930035,225.962783 222.040568,223.243891 C222.768159,221.520649 224.4914,220.754764 227.593235,220.754764 C232.188545,220.754764 232.839548,222.631183 231.499249,231.668626 C231.039718,234.617284 230.69507,237.182999 230.69507,237.37447 C230.69507,237.604236 231.920486,235.612935 233.413962,232.970631 C236.745562,227.149905 238.200743,225.235192 240.68987,223.397068 C243.600233,221.176001 247.582835,220.639881 249.1529,222.209946 C249.957079,223.014125 250.033668,223.397068 249.995373,227.571141 C249.995373,230.481505 249.765608,232.855748 249.344371,234.349224 C248.999723,235.57464 248.769957,236.646879 248.808251,236.723468 C248.88484,236.761762 250.799553,233.851399 253.135502,230.213445 C256.658573,224.699072 257.61593,223.435362 259.224288,222.363123 C260.985824,221.176001 261.330472,221.061118 263.551539,221.214295 C265.54284,221.329178 266.117254,221.558944 266.998022,222.401417 C268.031967,223.435362 268.031967,223.550245 267.993672,228.145555 C267.955378,231.362272 267.572436,235.153403 266.768256,240.361422 C266.07896,244.535496 265.54284,248.90104 265.54284,250.049868 C265.54284,252.653877 266.385314,254.83665 267.380964,254.83665 C268.300026,254.83665 271.593332,253.151703 272.857043,252.041169 C273.929282,251.045519 273.776105,252.156052 276.839645,225.924488 C277.797001,217.920989 278.907535,209.611136 279.328771,207.466658 C281.090307,198.544097 285.877089,187.323881 289.40016,183.877398 C294.914533,178.516203 303.147797,177.8652 305.943278,182.575393 C309.006818,187.86 309.236583,197.203798 306.479397,205.628534 C305.445452,208.768663 301.577733,216.580691 299.471549,219.720819 C298.514192,221.176001 297.710013,222.401417 297.710013,222.401417 C297.710013,222.439711 298.552487,222.401417 299.624726,222.363123 C302.075558,222.171652 303.798799,222.78436 306.05816,224.58419 C311.113002,228.566792 312.759655,235.651229 310.576882,244.229142 C310.079057,246.220443 309.38976,248.364921 309.045112,249.015923 C307.781402,251.50505 308.12605,251.390167 314.291425,247.828801 C316.550786,246.488503 317.623025,245.646029 317.623025,245.148204 C317.623025,243.578139 318.925029,238.370121 319.997269,235.57464 C322.25663,229.677325 327.38806,223.550245 331.906781,221.329178 C336.272326,219.222994 342.131347,219.108111 345.30977,221.137707 C347.952074,222.78436 349.139195,225.57984 349.330667,230.44321 C349.522138,235.076815 348.794547,238.17865 346.764952,241.357073 C344.160943,245.377969 338.838041,249.43716 333.591729,251.428461 C332.366312,251.887992 331.44725,252.462406 331.523839,252.692172 C331.600427,252.883643 332.404607,253.496351 333.361963,253.994176 C334.817145,254.760061 335.391558,254.874944 337.574331,254.721767 C341.556933,254.377119 347.262777,251.734815 352.049559,247.943684 C353.696212,246.64168 354.002566,246.182148 354.002566,245.109909 C354.002566,242.659077 357.563931,226.920139 358.90423,223.435362 C359.555232,221.712121 360.665766,221.061118 363.269775,220.869647 C367.060906,220.601587 367.175789,220.754764 367.405554,226.958433 L367.597026,232.051569 L368.89903,229.753914 C372.345513,223.588539 375.217582,221.137707 378.970419,221.137707 C381.191486,221.137707 381.22978,221.137707 381.880782,222.592888 C382.416902,223.78001 382.531784,225.388369 382.531784,232.051569 C382.531784,238.982829 382.608373,240.246539 383.221081,241.318778 C384.676263,243.999376 387.050506,243.922788 392.603173,241.012424 C396.547481,238.944535 397.658015,238.753063 398.806842,239.901891 C399.41955,240.514599 399.572727,241.165601 399.572727,243.156902 C399.572727,246.450208 398.921725,247.63733 396.126244,249.43716 C389.845987,253.534645 382.340313,254.645178 378.281122,252.156052 C375.945173,250.662576 373.7624,246.37362 372.958221,241.51025 C372.805044,240.591187 372.536984,239.978479 372.383807,240.169951 C372.192336,240.323128 370.392506,245.148204 368.362911,250.815753 C363.499541,264.371919 362.312419,266.324926 358.827642,266.324926 C356.529986,266.324926 354.883333,265.214392 353.7728,262.993326 C353.198386,261.882792 352.700561,260.96373 352.623973,260.96373 C352.547384,260.96373 351.628322,261.576438 350.632671,262.265735 C347.952074,264.218742 345.884184,264.984627 341.212285,265.750512 C335.04691,266.746163 328.804947,266.018572 325.166993,263.912388 C323.558634,262.955031 320.686565,260.121257 319.499443,258.283133 L318.886735,257.36407 L315.095604,259.125606 C310.959825,261.040319 307.513342,262.265735 301.998969,263.835799 C291.927581,266.63128 283.081608,266.516397 277.528941,263.452857 L275.116404,262.112558 L272.818748,263.491151 C269.372266,265.482452 264.623778,266.516397 261.521944,265.903689 Z M292.655172,255.755712 C295.7953,254.185647 297.939779,250.96893 299.280077,245.760912 C300.160845,242.23784 300.19914,240.667776 299.433254,238.063767 C297.365365,231.170801 290.395811,231.668626 287.179093,238.944535 C285.8005,242.008075 284.26873,248.594686 284.038965,252.385818 L283.809199,255.870595 L284.919732,256.291831 C287.064211,257.057716 290.510693,256.827951 292.655172,255.755712 Z M198.336425,242.161252 C201.897791,240.169951 204.616683,236.685174 204.654977,234.157753 C204.654977,233.621633 204.310329,232.625983 203.889092,231.97498 C202.816853,230.175151 201.43826,230.290033 199.178899,232.24304 C197.225892,234.004576 195.349474,237.336176 194.660177,240.43801 C193.855998,244.075965 194.468706,244.344024 198.336425,242.161252 Z M333.24708,242.582489 C337.191388,240.591187 339.680515,236.991528 339.374161,233.698222 C339.144395,231.592038 337.918979,229.945385 336.540386,229.945385 C334.663968,229.945385 331.026014,235.727817 329.877186,240.591187 C329.379361,242.735666 329.532538,243.731316 330.375011,243.731316 C330.681365,243.731316 331.945076,243.195197 333.24708,242.582489 Z M290.051162,214.819155 C295.297475,204.977532 298.475898,196.629384 298.475898,192.608488 C298.475898,189.851302 298.016367,189.315182 296.752657,190.502304 C295.450652,191.72772 291.812698,199.080217 290.817047,202.564994 C289.783103,206.126359 286.221737,220.371822 286.221737,220.907941 C286.260031,221.635532 287.179093,220.142056 290.051162,214.819155 Z" id="Shape"></path>
                </g>
            </g>
        </g>
    </g>
</svg>