<?xml version="1.0" encoding="UTF-8"?>
<svg width="164px" height="94px" viewBox="0 0 164 94" version="1.1" xmlns="http://www.w3.org/2000/svg" xmlns:xlink="http://www.w3.org/1999/xlink">
    <!-- Generator: Sketch 42 (36781) - http://www.bohemiancoding.com/sketch -->
    <title>SK</title>
    <desc>Created with Sketch.</desc>
    <defs></defs>
    <g id="Welcome" stroke="none" stroke-width="1" fill="none" fill-rule="evenodd">
        <g id="Work" transform="translate(-957.000000, -1288.000000)" fill="#FFFFFF">
            <path d="M984.614198,1308.11245 C982.674081,1309.70766 981.704037,1311.8202 981.704037,1314.45013 C981.704037,1317.08007 982.889646,1319.17105 985.260901,1320.72315 C987.632155,1322.27524 993.107515,1324.10755 1001.68715,1326.22012 C1010.26678,1328.33269 1016.92774,1331.5015 1021.67025,1335.72665 C1026.41276,1339.95179 1028.78398,1346.11696 1028.78398,1354.22234 C1028.78398,1362.32772 1025.74451,1368.90246 1019.66548,1373.94677 C1013.58644,1378.99107 1005.58897,1381.51319 995.672812,1381.51319 C981.359057,1381.51319 968.468249,1376.21028 957,1365.6043 L969.028667,1350.85949 C978.772367,1359.396 987.782999,1363.6642 996.060833,1363.6642 C999.768613,1363.6642 1002.67875,1362.8666 1004.79132,1361.2714 C1006.90389,1359.67619 1007.96016,1357.52054 1007.96016,1354.80437 C1007.96016,1352.08821 1006.83922,1349.93255 1004.59731,1348.33735 C1002.35539,1346.74214 997.914747,1345.1254 991.275234,1343.48708 C980.755487,1340.98648 973.059804,1337.73145 968.187954,1333.72187 C963.316104,1329.71229 960.880215,1323.41779 960.880215,1314.83816 C960.880215,1306.25853 963.9628,1299.64067 970.128061,1294.98439 C976.293323,1290.32811 983.989006,1288 993.215342,1288 C999.251263,1288 1005.28709,1289.03471 1011.32301,1291.10417 C1017.35893,1293.17363 1022.61873,1296.10532 1027.10255,1299.89933 L1016.88465,1314.64414 C1009.03796,1308.69445 1000.9327,1305.71965 992.56864,1305.71965 C989.20577,1305.71965 986.554316,1306.51724 984.614198,1308.11245 Z M1040.98627,1290.06945 L1061.16339,1290.06945 L1061.16339,1327.19017 L1095.30928,1290.06945 L1120.272,1290.06945 L1084.31534,1330.03566 C1087.41953,1334.34704 1093.15357,1342.38762 1101.51763,1354.15767 C1109.88169,1365.92771 1116.13308,1374.70122 1120.272,1380.47846 L1096.73203,1380.47846 L1070.21722,1344.78048 L1061.16339,1354.86904 L1061.16339,1380.47846 L1040.98627,1380.47846 L1040.98627,1290.06945 Z" id="SK"></path>
        </g>
    </g>
</svg>