<?xml version="1.0" encoding="UTF-8"?>
<svg width="119px" height="118px" viewBox="0 0 119 118" version="1.1" xmlns="http://www.w3.org/2000/svg" xmlns:xlink="http://www.w3.org/1999/xlink">
    <!-- Generator: Sketch 42 (36781) - http://www.bohemiancoding.com/sketch -->
    <title>ooo-icon</title>
    <desc>Created with Sketch.</desc>
    <defs></defs>
    <g id="Welcome" stroke="none" stroke-width="1" fill="none" fill-rule="evenodd">
        <g id="Work" transform="translate(-971.000000, -1272.000000)" fill-rule="nonzero" fill="#FFFFFF">
            <g transform="translate(117.000000, 250.000000)" id="Group">
                <g transform="translate(623.000000, 838.000000)">
                    <g id="ooo-icon" transform="translate(231.000000, 184.000000)">
                        <path d="M87.2666666,59.0201614 C87.2666666,43.8335807 74.8054861,31.573387 59.5,31.573387 C44.1945139,31.573387 31.7333334,43.8335807 31.7333334,59.0201614 C31.7333334,74.2067417 44.1945139,86.4669354 59.5,86.4669354 C74.8054861,86.4669354 87.2666666,74.2067417 87.2666666,59.0201614 Z M23.8,59.0201614 C23.8,39.6216048 39.7834344,23.8959677 59.5,23.8959677 C79.2165656,23.8959677 95.2,39.6216048 95.2,59.0201614 C95.2,78.4187179 79.2165656,94.1443549 59.5,94.1443549 C39.7834344,94.1443549 23.8,78.4187179 23.8,59.0201614 Z" id="Inner" opacity="0.329999983"></path>
                        <path d="M99.0427084,59.0201614 C99.0427084,37.4347514 81.3092145,19.9872816 59.5,19.9872816 C37.6907855,19.9872816 19.9572917,37.4347514 19.9572917,59.0201614 C19.9572917,80.6055711 37.6907855,98.0530411 59.5,98.0530411 C81.3092145,98.0530411 99.0427084,80.6055711 99.0427084,59.0201614 Z M12.0239583,59.0201614 C12.0239583,33.2227755 33.2797063,12.3098622 59.5,12.3098622 C85.7202937,12.3098622 106.976042,33.2227755 106.976042,59.0201614 C106.976042,84.8175472 85.7202937,105.73046 59.5,105.73046 C33.2797063,105.73046 12.0239583,84.8175472 12.0239583,59.0201614 Z" id="Middle" opacity="0.659999967"></path>
                        <path d="M111.066667,59.0201614 C111.066667,30.9012099 87.9498631,8.15725805 59.5,8.15725805 C31.0501369,8.15725805 7.93333334,30.9012099 7.93333334,59.0201614 C7.93333334,87.1391128 31.0501369,109.883065 59.5,109.883065 C87.9498631,109.883065 111.066667,87.1391128 111.066667,59.0201614 Z M0,59.0201614 C0,26.6892339 26.6390574,0.479838711 59.5,0.479838711 C92.3609426,0.479838711 119,26.6892339 119,59.0201614 C119,91.3510887 92.3609426,117.560484 59.5,117.560484 C26.6390574,117.560484 0,91.3510887 0,59.0201614 Z" id="Outer"></path>
                    </g>
                </g>
            </g>
        </g>
    </g>
</svg>