<?xml version="1.0" encoding="UTF-8"?>
<svg width="150px" height="93px" viewBox="0 0 150 93" version="1.1" xmlns="http://www.w3.org/2000/svg" xmlns:xlink="http://www.w3.org/1999/xlink">
    <!-- Generator: Sketch 42 (36781) - http://www.bohemiancoding.com/sketch -->
    <title>Page 1</title>
    <desc>Created with Sketch.</desc>
    <defs>
        <linearGradient x1="50%" y1="0%" x2="50%" y2="100%" id="linearGradient-1">
            <stop stop-color="#FFFFFF" offset="0%"></stop>
            <stop stop-color="#FFFFFF" stop-opacity="0.493857563" offset="100%"></stop>
        </linearGradient>
        <linearGradient x1="50%" y1="0%" x2="50%" y2="100%" id="linearGradient-2">
            <stop stop-color="#FFFFFF" stop-opacity="0.504217618" offset="0%"></stop>
            <stop stop-color="#FFFFFF" offset="100%"></stop>
        </linearGradient>
        <linearGradient x1="50%" y1="0%" x2="50%" y2="100%" id="linearGradient-3">
            <stop stop-color="#FFFFFF" offset="0%"></stop>
            <stop stop-color="#FFFFFF" stop-opacity="0.502604167" offset="100%"></stop>
        </linearGradient>
    </defs>
    <g id="Welcome" stroke="none" stroke-width="1" fill="none" fill-rule="evenodd">
        <g id="Work" transform="translate(-955.000000, -691.000000)">
            <g transform="translate(117.000000, 250.000000)" id="Group">
                <g transform="translate(623.000000, 245.000000)">
                    <g id="Page-1" transform="translate(215.000000, 196.000000)">
                        <polygon id="Fill-1" fill="#FFFFFF" points="71.450145 76.6459391 79.4458847 76.6459391 79.4458847 16.0961874 71.450145 16.0961874"></polygon>
                        <path d="M0,92.7691335 L149.253807,92.7691335 L149.253807,0 L0,0 L0,92.7691335 Z M8.07650471,84.6670258 L141.258067,84.6670258 L141.258067,8.02378735 L8.07650471,8.02378735 L8.07650471,84.6670258 Z" id="Fill-2" fill="#FFFFFF"></path>
                        <path d="M33.0054442,26.4663451 C32.698537,26.6175844 32.4023985,26.7904294 32.1170286,26.9794786 C23.6366987,32.9750383 33.0862092,38.4034505 37.5013651,40.4829915 C35.643769,39.5647526 34.459215,38.4304575 34.459215,36.6479938 C34.4322933,36.3779236 34.4322933,36.1078533 34.459215,35.837783 C34.8361186,33.5961999 36.8014014,31.9757784 40.13969,31.9757784 C43.1629949,31.8677503 46.0140011,33.3801437 47.6239177,35.9458111 L54.2197299,30.9225044 C50.733372,26.9335667 45.6694036,24.6919835 40.3819851,24.7919095 C37.8621157,24.7622018 35.3691679,25.3374514 33.1131309,26.4663451" id="Fill-3" fill="url(#linearGradient-1)"></path>
                        <path d="M45.1202012,51.6377033 L45.4432614,51.8807666 C46.363983,52.5775478 46.9024166,53.6686317 46.8970323,54.8245324 C46.9078009,54.9325605 46.9078009,55.0405886 46.8970323,55.1486167 C46.6466606,58.2868331 43.9087255,60.6229408 40.780426,60.3717755 C40.7373513,60.3690748 40.6942766,60.3636733 40.651202,60.3582719 C36.8256309,60.2826523 33.3473495,58.1166888 31.578595,54.7165043 L24.2289757,60.4690007 C28.2753046,65.3761773 34.3326831,68.1606017 40.6781236,68.030968 C44.6598405,68.1903094 48.5392549,66.7400321 51.4467966,64.0069211 L51.8237001,63.6018157 C57.8810787,56.3072181 45.7393999,51.5296752 41.7549909,50.0983029 C42.9180076,50.4764012 44.0217966,51.013841 45.0394362,51.6917174" id="Fill-8" fill="url(#linearGradient-2)"></path>
                        <path d="M26.3024837,36.9461514 C26.3024837,45.0482591 32.548314,47.2088212 38.2018673,48.9372708 L40.597897,49.6637598 L41.8362944,50.0715659 C45.8476251,51.3949102 57.9893038,56.1751537 51.9050036,63.5750788 C54.0345087,61.2470732 55.2136784,58.2006807 55.2163706,55.0408586 C55.2163706,46.9387509 48.7820885,44.4270975 43.0746918,42.5906198 C41.701686,42.1315003 40.3825236,41.6993879 39.1710479,41.2402685 L37.6903553,40.4300577 C33.1675127,38.3775237 23.7180022,32.9761186 32.3060189,26.9265448 C28.6365935,28.9196633 26.3374819,32.7600624 26.3024837,36.9461514" id="Fill-13" fill="#FFFFFF"></path>
                        <path d="M110.378898,48.3158392 L109.436639,48.3158392 L95.7335025,48.3158392 L95.7335025,68.2443235 L103.621555,68.2443235 L103.621555,55.9858345 L109.948151,55.9858345 C118.199646,56.0344471 124.927375,49.3610111 124.975834,41.0860584 C124.978526,40.9024106 124.975834,40.7187628 124.97045,40.5378157 C124.97045,47.2355581 114.524837,48.12679 110.378898,48.3158392" id="Fill-18" fill="#FFFFFF"></path>
                        <path d="M95.7337718,25.1159938 L95.7337718,25.1159938 L95.7337718,32.7589821 L109.436908,32.7589821 C113.569386,32.7130702 116.958826,36.0322336 117.007285,40.1805128 C117.007285,40.3074458 117.007285,40.4370795 117.001901,40.5640126 C117.034207,42.3518777 116.474236,44.0992322 115.413522,45.5333053 C114.018978,47.2779592 111.932548,48.3231311 109.706125,48.39605 L110.379167,48.39605 C114.498184,48.2070008 124.889954,47.315769 124.970719,40.6180266 L124.970719,40.0778861 C124.954566,31.8299404 118.277989,25.1565044 110.056107,25.1700079 L110.029185,25.1700079 L95.7337718,25.1159938 Z" id="Fill-23" fill="url(#linearGradient-3)"></path>
                    </g>
                </g>
            </g>
        </g>
    </g>
</svg>