<?xml version="1.0" encoding="UTF-8"?>
<svg width="123px" height="76px" viewBox="0 0 123 76" version="1.1" xmlns="http://www.w3.org/2000/svg" xmlns:xlink="http://www.w3.org/1999/xlink">
    <!-- Generator: Sketch 43.2 (39069) - http://www.bohemiancoding.com/sketch -->
    <title>case-study-logo-sharespost</title>
    <desc>Created with Sketch.</desc>
    <defs>
        <linearGradient x1="50%" y1="0%" x2="50%" y2="100%" id="linearGradient-sharespost-logo-1">
            <stop stop-color="#93908E" offset="0%"></stop>
            <stop stop-color="#FFFFFF" stop-opacity="0.493857563" offset="100%"></stop>
        </linearGradient>
        <linearGradient x1="50%" y1="0%" x2="50%" y2="100%" id="linearGradient-sharespost-logo-2">
            <stop stop-color="#FFFFFF" stop-opacity="0.504217618" offset="0%"></stop>
            <stop stop-color="#93908E" offset="100%"></stop>
        </linearGradient>
        <linearGradient x1="50%" y1="0%" x2="50%" y2="100%" id="linearGradient-sharespost-logo-3">
            <stop stop-color="#93908E" offset="0%"></stop>
            <stop stop-color="#FFFFFF" stop-opacity="0.502604167" offset="100%"></stop>
        </linearGradient>
    </defs>
    <g id="Page-1" stroke="none" stroke-width="1" fill="none" fill-rule="evenodd">
        <g id="case-study-logo-sharespost" fill-rule="nonzero">
            <polygon id="Fill-1" fill="#93908E" points="58.5891189 62.6353911 65.1456255 62.6353911 65.1456255 13.1538736 58.5891189 13.1538736"></polygon>
            <path d="M0,75.8113349 L0,0 L122.388122,0 L122.388122,75.8113349 L0,75.8113349 Z M6.62273386,69.1902576 L115.831615,69.1902576 L115.831615,6.55707353 L6.62273386,6.55707353 L6.62273386,69.1902576 Z" id="Fill-2" fill="#93908E"></path>
            <path d="M27.0644642,21.628411 C26.8128003,21.7520045 26.5699668,21.8932541 26.3359635,22.047746 C19.3820929,26.9473431 27.1306915,31.3834649 30.7511194,33.0828748 C29.2278906,32.332486 28.2565563,31.4055352 28.2565563,29.9488982 C28.2344805,29.7281956 28.2344805,29.507493 28.2565563,29.2867904 C28.5656173,27.4549591 30.1771491,26.1307436 32.9145458,26.1307436 C35.3936558,26.0424626 37.7314809,27.278397 39.0516125,29.3750714 L44.4601785,25.2700036 C41.601365,22.0102266 37.448911,20.1783951 33.1132278,20.2600551 C31.0469349,20.2357778 29.0027177,20.7058743 27.1527673,21.628411" id="Fill-3" fill="url(#linearGradient-sharespost-logo-1)"></path>
            <path d="M36.998565,42.1985532 L37.2634743,42.3971856 C38.0184661,42.9665982 38.4599816,43.8582367 38.4555665,44.8028437 C38.4643967,44.8911247 38.4643967,44.9794057 38.4555665,45.0676868 C38.2502617,47.6322507 36.0051549,49.541328 33.4399493,49.3360746 C33.4046281,49.3338676 33.3693068,49.3294534 33.3339856,49.3250394 C30.1970173,49.2632427 27.3448266,47.4932081 25.8944479,44.7145627 L19.8677601,49.4155275 C23.1857498,53.4256933 28.1528001,55.7011369 33.3560614,55.5951997 C36.6210692,55.7254141 39.802189,54.5402413 42.1863732,52.3067312 L42.4954341,51.9756773 C47.4624845,46.0145008 37.5063079,42.1102722 34.2390925,40.9405486 C35.1927662,41.2495322 36.0978732,41.6887303 36.9323377,42.2426938" id="Fill-8" fill="url(#linearGradient-sharespost-logo-2)"></path>
            <path d="M21.5680366,30.1925538 C21.5680366,36.8136311 26.6896175,38.5792517 31.3255312,39.9917482 L33.2902755,40.5854381 L34.3057614,40.918699 C37.5950526,42.0001417 47.5512291,45.9065772 42.562103,51.9538278 C44.3082971,50.0513716 45.2752163,47.5618466 45.2774239,44.9796264 C45.2774239,38.3585491 40.0013126,36.3060152 35.3212473,34.8052377 C34.1953825,34.4300433 33.1136694,34.0769191 32.1202593,33.7017248 L30.9060913,33.039617 C27.1973604,31.3622774 19.4487618,26.948226 26.4909355,22.0044882 C23.4820067,23.6332732 21.5967352,26.7716639 21.5680366,30.1925538" id="Fill-13" fill="#93908E"></path>
            <path d="M90.5106964,39.4839116 L89.738044,39.4839116 L78.5014721,39.4839116 L78.5014721,55.7695547 L84.9696751,55.7695547 L84.9696751,45.7518648 L90.1574838,45.7518648 C96.9237097,45.7915912 102.440447,40.3380306 102.480184,33.5757036 C102.482391,33.4256259 102.480184,33.2755481 102.475769,33.1276773 C102.475769,38.6011012 93.9103663,39.3294198 90.5106964,39.4839116" id="Fill-18" fill="#93908E"></path>
            <path d="M78.5016929,20.5248982 L78.5016929,20.5248982 L78.5016929,26.7707811 L89.7382646,26.7707811 C93.1268965,26.7332617 95.9062373,29.4456963 95.9459737,32.8356879 C95.9459737,32.9394181 95.9459737,33.0453553 95.9415588,33.1490856 C95.9680497,34.6101366 95.5088735,36.0380822 94.639088,37.2100129 C93.495562,38.6357516 91.7846894,39.4898706 89.9590225,39.5494602 L90.5109169,39.5494602 C93.8885109,39.3949684 102.409762,38.6666499 102.47599,33.193226 L102.47599,32.7518209 C102.462744,26.0115642 96.987951,20.5580036 90.2460077,20.5690387 L90.2239317,20.5690387 L78.5016929,20.5248982 Z" id="Fill-23" fill="url(#linearGradient-sharespost-logo-3)"></path>
        </g>
    </g>
</svg>
