<?xml version="1.0" encoding="UTF-8"?>
<svg width="111px" height="98px" viewBox="0 0 111 98" version="1.1" xmlns="http://www.w3.org/2000/svg" xmlns:xlink="http://www.w3.org/1999/xlink">
    <!-- Generator: Sketch 42 (36781) - http://www.bohemiancoding.com/sketch -->
    <title>Page 1</title>
    <desc>Created with Sketch.</desc>
    <defs>
        <polygon id="path-1" points="0 98 110.581 98 110.581 0.014 0 0.014"></polygon>
    </defs>
    <g id="Page-1" stroke="none" stroke-width="1" fill="none" fill-rule="evenodd">
        <g transform="translate(0.000000, -1.000000)">
            <polygon id="Fill-1" fill="#93908E" points="47.109 45.8305 53.492 45.8305 53.492 45.8275 47.109 45.8275"></polygon>
            <g id="Group-48" transform="translate(0.000000, 0.986500)">
                <path d="M55.3867,47.2089 L58.1117,47.2089 L55.3867,47.2089 L55.3867,35.7689 L61.6727,35.7689 C62.6097,35.7689 63.3787,35.8009 64.0577,35.9719 C63.3787,35.7999 62.6097,35.7659 61.6687,35.7659 L55.3867,35.7659 L55.3867,47.2089 Z" id="Fill-2" fill="#93908E"></path>
                <path d="M64.8628,42.1049 C64.7288,42.0299 64.5858,41.9629 64.4378,41.9049 C64.4378,41.9049 64.4368,41.9049 64.4368,41.9059 C64.5848,41.9629 64.7278,42.0299 64.8628,42.1049" id="Fill-4" fill="#93908E"></path>
                <polygon id="Fill-6" fill="#93908E" points="23.644 47.2089 23.647 47.2089 22.904 45.3989"></polygon>
                <mask id="mask-2" fill="white">
                    <use xlink:href="#path-1"></use>
                </mask>
                <g id="Clip-9"></g>
                <polygon id="Fill-8" fill="#93908E" mask="url(#mask-2)" points="44.37 35.769 53.491 35.769 53.491 35.766 44.37 35.766"></polygon>
                <path d="M100.6479,58.8695 C100.6479,62.4915 103.8459,62.3275 106.4099,62.4115 C106.8799,62.4175 107.1659,62.4915 107.3719,62.6715 C107.5629,62.8255 107.7049,63.0945 107.7049,63.4285 C107.7049,63.7465 107.5629,64.0005 107.3769,64.1705 C107.1549,64.3875 106.7909,64.4555 106.2729,64.4555 L101.0189,64.4555 L101.0189,66.9125 L106.2939,66.9125 C108.0429,66.9125 109.3339,66.4265 110.0039,65.4465 C110.3909,64.8905 110.5809,64.1705 110.5809,63.2965 C110.5809,62.3005 110.3909,61.6815 110.0039,61.1615 C109.9249,61.0665 109.8519,60.9605 109.7509,60.8705 C109.1369,60.2505 108.1389,59.9965 106.6479,59.9545 L105.1729,59.9175 C104.7129,59.9125 104.4009,59.8855 104.1209,59.7855 C103.7619,59.6585 103.5179,59.3615 103.5179,58.9325 C103.5179,58.5735 103.6349,58.2915 103.9199,58.1065 C104.1899,57.9215 104.5229,57.9005 105.0199,57.9005 L110.0039,57.9005 L110.0039,55.4645 L104.5599,55.4645 C101.6999,55.4645 100.6479,57.2115 100.6479,58.8695" id="Fill-10" fill="#93908E" mask="url(#mask-2)"></path>
                <polygon id="Fill-11" fill="#93908E" mask="url(#mask-2)" points="33.1753 47.2089 33.1773 47.2089 30.3813 40.9079"></polygon>
                <path d="M63.4746,45.7709 C63.4746,45.0909 63.5436,44.0949 63.0366,43.5499 C62.6346,43.1419 62.0366,43.0569 61.0486,43.0569 L58.1146,43.0569 L58.1146,43.0579 L61.0476,43.0579 C62.0336,43.0579 62.6336,43.1419 63.0336,43.5499 C63.5396,44.0959 63.4716,45.0909 63.4716,45.7689 L63.4816,47.2089 L66.2366,47.2089 L63.4846,47.2089 L63.4746,45.7709 Z" id="Fill-12" fill="#93908E" mask="url(#mask-2)"></path>
                <path d="M74.4673,60.1718 C74.1073,60.3838 73.6533,60.4048 73.1243,60.4048 L69.8043,60.4048 L69.8043,57.8368 L73.1693,57.8368 C73.6533,57.8368 74.1443,57.8468 74.4673,58.0378 C74.8213,58.2288 75.0323,58.5778 75.0323,59.0698 C75.0323,59.5578 74.8213,59.9548 74.4673,60.1718 M78.0503,58.5518 C78.0503,57.2488 77.5113,56.5238 76.6523,56.0098 C75.7593,55.5228 74.7523,55.4638 73.3643,55.4638 L67.0663,55.4638 L67.0663,66.9128 L69.8043,66.9128 L69.8043,62.7298 L72.7273,62.7298 C73.7213,62.7298 74.3293,62.8248 74.7263,63.2428 C75.2333,63.7728 75.1703,64.7898 75.1703,65.4788 L75.1703,66.9128 L77.9073,66.9128 L77.9073,64.6468 C77.9033,63.6348 77.8393,63.1158 77.4533,62.5548 C77.2203,62.2158 76.7233,61.8138 76.1153,61.5908 C76.8383,61.3048 78.0503,60.3738 78.0503,58.5518" id="Fill-13" fill="#93908E" mask="url(#mask-2)"></path>
                <polygon id="Fill-14" fill="#93908E" mask="url(#mask-2)" points="39.3579 38.6405 39.5259 38.2605 39.5259 38.2595"></polygon>
                <path d="M61.1509,60.744 L57.6149,60.744 L57.6149,57.837 L61.1779,57.837 C62.1659,57.837 62.8479,58.234 62.8479,59.24 C62.8479,60.23 62.1979,60.744 61.1509,60.744 L61.1509,60.744 Z M54.8949,65.875 L50.7089,61.21 L54.8949,56.698 L54.8949,65.875 Z M44.0719,64.525 L37.3589,64.525 L37.3589,62.248 L43.3529,62.248 L43.3529,59.912 L37.3589,59.912 L37.3589,57.837 L44.2019,57.837 L47.1879,61.168 L44.0719,64.525 Z M61.1779,55.464 L52.4559,55.464 L48.9829,59.214 L45.6259,55.464 L34.6449,55.464 L34.6449,66.913 L45.4569,66.913 L48.9509,63.127 L52.3159,66.913 L57.6149,66.913 L57.6149,63.074 L61.0219,63.074 C63.4139,63.074 65.7769,62.412 65.7769,59.24 C65.7769,56.068 63.3449,55.464 61.1779,55.464 L61.1779,55.464 Z" id="Fill-15" fill="#93908E" mask="url(#mask-2)"></path>
                <polygon id="Fill-16" fill="#93908E" mask="url(#mask-2)" points="67.941 47.209 70.727 47.209 70.727 35.766 67.941 35.766"></polygon>
                <polygon id="Fill-17" fill="#93908E" mask="url(#mask-2)" points="79.5674 66.913 88.6864 66.913 88.6864 64.536 82.2904 64.525 82.2904 62.248 88.5274 62.248 88.5274 59.913 82.2904 59.913 82.2904 57.837 88.6864 57.837 88.6864 55.464 79.5674 55.464"></polygon>
                <path d="M84.5527,37.7191 L86.4447,42.2731 L82.6807,42.2731 L84.5527,37.7191 Z M77.4797,47.2091 L80.6777,47.2091 L81.6977,44.6561 L87.3807,44.6561 L88.4427,47.2091 L94.0037,47.2091 L93.9977,38.6301 L99.1737,47.2091 L103.0417,47.2091 L103.0417,35.7651 L100.2507,35.7651 L100.2507,43.7351 L95.4517,35.7651 L91.2857,35.7651 L91.2857,46.5891 L86.6667,35.7651 L82.5747,35.7651 L78.7287,44.7671 L77.4997,44.7671 C76.7817,44.7671 76.0147,44.6301 75.6027,44.1801 C75.0847,43.5971 74.8467,42.7231 74.8467,41.4951 C74.8467,40.2931 75.1697,39.3821 75.6267,38.9001 C76.1707,38.3711 76.7417,38.2181 77.7387,38.2181 L80.3177,38.2181 L80.3177,35.7651 L77.6807,35.7651 C75.7987,35.7651 74.4187,36.1891 73.5337,37.1051 C72.3627,38.3281 72.0617,39.8741 72.0617,41.5741 C72.0617,43.6611 72.5527,44.9691 73.5227,45.9481 C74.4667,46.9121 76.1477,47.2091 77.4797,47.2091 L77.4797,47.2091 Z" id="Fill-18" fill="#93908E" mask="url(#mask-2)"></path>
                <path d="M95.9907,59.9545 L94.5157,59.9175 C94.0507,59.9125 93.7447,59.8855 93.4587,59.7855 C93.1157,59.6585 92.8617,59.3615 92.8617,58.9325 C92.8617,58.5725 92.9727,58.2915 93.2687,58.1065 C93.5437,57.9215 93.8657,57.9005 94.3677,57.9005 L99.3737,57.9005 L99.3737,55.4645 L93.8977,55.4645 C91.0377,55.4645 89.9967,57.2115 89.9967,58.8695 C89.9967,62.4915 93.1947,62.3275 95.7477,62.4125 C96.2237,62.4165 96.5097,62.4915 96.7157,62.6715 C96.9107,62.8255 97.0537,63.0945 97.0537,63.4285 C97.0537,63.7465 96.9167,64.0005 96.7307,64.1695 C96.4987,64.3865 96.1387,64.4555 95.6157,64.4555 L90.3137,64.4555 L90.3137,66.9125 L95.6367,66.9125 C98.3857,66.9125 99.9247,65.7635 99.9247,63.2955 C99.9247,62.1255 99.6437,61.4275 99.1047,60.8715 C98.4867,60.2515 97.4767,59.9975 95.9907,59.9545" id="Fill-19" fill="#93908E" mask="url(#mask-2)"></path>
                <path d="M12.8555,97.6844 L110.0045,97.6844 L110.0045,68.4274 C108.9055,68.9574 107.4725,69.1634 105.9975,69.1634 L98.9195,69.1634 L98.9195,68.1414 C98.1005,68.7984 96.6205,69.1634 95.2095,69.1634 L72.9015,69.1634 L72.9015,65.4674 C72.9015,65.0224 72.8595,64.9964 72.4055,64.9964 L72.0515,64.9964 L72.0515,69.1634 L64.7085,69.1634 L64.7085,64.8534 C63.4825,65.3824 62.0825,65.4254 60.9085,65.4094 L60.0255,65.4094 L60.0255,69.1684 L51.1315,69.1634 L48.9405,66.6804 L46.6175,69.1634 L32.1705,69.1634 L32.1705,53.1874 L46.8945,53.1874 L49.0035,55.6394 L51.2585,53.1874 L61.1145,53.1874 C62.2555,53.1874 64.1165,53.3094 64.9625,54.1244 L64.9625,53.1874 L73.7575,53.1874 C74.5935,53.1874 76.3795,53.3624 77.4425,54.1244 L77.4425,53.1874 L90.7945,53.1874 L90.7895,54.1244 C91.4605,53.4894 92.8615,53.1874 94.0505,53.1874 L101.5255,53.1874 L101.5255,54.1244 C102.3135,53.5524 103.4185,53.1874 104.9455,53.1874 L110.0045,53.1874 L110.0045,0.0134 L12.8555,0.0134 L12.8555,41.0824 L16.1625,33.4994 L23.2795,33.4994 L24.2045,35.3894 L24.2045,33.4994 L32.5535,33.4994 L34.3695,37.6244 L36.1565,33.4994 L62.6635,33.4994 C63.8635,33.4994 64.9475,33.7214 65.7505,34.4314 L65.7505,33.4994 L72.9975,33.4994 L72.9975,34.4314 C74.2455,33.7434 75.7985,33.4994 77.5595,33.4994 L88.0735,33.4994 L89.0455,35.3894 L89.0455,33.4994 L96.8325,33.4994 L97.8895,35.3894 L97.8895,33.4994 L105.4745,33.4994 L105.4745,49.4644 L97.8145,49.4644 L96.3665,47.0444 L96.3665,49.4644 L86.8045,49.4644 L85.7635,46.9124 L83.4055,46.9124 L82.3435,49.4644 L77.3745,49.4644 C75.4345,49.4644 73.9485,49.0044 72.9975,48.4904 L72.9975,49.4644 L61.2045,49.4644 L61.2045,45.8424 C61.2045,45.3344 61.1145,45.2974 60.8025,45.2914 L60.3615,45.2914 L60.3715,49.4644 L37.5575,49.4644 L37.5575,47.4954 L36.7405,49.4704 L31.9805,49.4704 L31.1585,47.5164 L31.1585,49.4644 L21.9765,49.4644 L20.9295,46.9124 L18.5745,46.9124 L17.5235,49.4644 L12.8555,49.4644 L12.8555,97.6844 Z" id="Fill-20" fill="#93908E" mask="url(#mask-2)"></path>
                <polygon id="Fill-21" fill="#93908E" mask="url(#mask-2)" points="37.7925 35.7684 42.3375 35.7684 42.3375 47.2084 42.3385 47.2084 42.3385 35.7654 37.7925 35.7654 34.5075 43.5324 34.5095 43.5364"></polygon>
                <polygon id="Fill-22" fill="#93908E" mask="url(#mask-2)" points="21.834 35.7684 26.475 46.6074 26.475 46.6044 21.834 35.7654 17.772 35.7654 12.89 47.2084 17.774 35.7684"></polygon>
                <polygon id="Fill-23" fill="#93908E" mask="url(#mask-2)" points="30.9404 35.7684 30.9394 35.7654 26.4754 35.7654 26.4754 35.7684"></polygon>
                <path d="M4.6274,89.4579 C6.8984,89.4579 8.5554,91.2219 8.5554,93.3929 C8.5554,95.5639 6.8874,97.3269 4.6274,97.3269 C2.3684,97.3269 0.7004,95.5639 0.7004,93.3929 C0.7004,91.2219 2.3624,89.4579 4.6274,89.4579 M4.6274,97.9999 C7.1834,97.9999 9.2524,95.9509 9.2524,93.3929 C9.2524,90.8349 7.1834,88.7859 4.6274,88.7859 C2.0724,88.7859 0.0004,90.8349 0.0004,93.3929 C0.0004,95.9509 2.0724,97.9999 4.6274,97.9999" id="Fill-24" fill="#93908E" mask="url(#mask-2)"></path>
                <path d="M3.7744,91.8573 L5.0644,91.8573 C5.3364,91.8573 5.7094,91.9053 5.7094,92.4503 C5.7094,92.9693 5.3654,93.0643 4.9684,93.0643 L3.7744,93.0643 L3.7744,91.8573 Z M3.7744,93.7373 L5.0264,93.7373 C5.6084,93.7373 5.6614,94.0543 5.6614,94.3723 C5.6614,94.5263 5.6764,95.1673 5.7854,95.5053 L6.6394,95.5053 L6.6394,95.2563 C6.4594,95.1563 6.4434,95.1143 6.4304,94.8963 L6.3984,94.1503 C6.3754,93.6633 6.2084,93.4773 6.0124,93.3663 C6.2484,93.1973 6.4784,92.9323 6.4784,92.3913 C6.4784,91.4333 5.7164,91.1843 5.0264,91.1843 L3.0234,91.1843 L3.0234,95.5053 L3.7764,95.5053 L3.7744,93.7373 Z" id="Fill-25" fill="#93908E" mask="url(#mask-2)"></path>
                <path d="M63.0137,38.5189 C63.2247,38.7139 63.3477,39.0049 63.3477,39.3689 C63.3477,39.8719 63.1357,40.2689 62.7817,40.4679 C62.4117,40.6829 61.9677,40.7009 61.4337,40.7009 L61.4307,40.7009 L58.1147,40.7009 L58.1117,40.7009 L58.1117,38.1589 L58.1147,38.1589 L61.4737,38.1589 L61.4757,38.1589 C61.5467,38.1589 61.6177,38.1609 61.6887,38.1619 C61.7377,38.1629 61.7867,38.1629 61.8347,38.1649 C61.8887,38.1659 61.9387,38.1719 61.9907,38.1759 C62.0557,38.1799 62.1217,38.1829 62.1847,38.1899 C62.1977,38.1909 62.2077,38.1949 62.2207,38.1959 C62.4307,38.2239 62.6237,38.2699 62.7767,38.3549 C62.8647,38.3989 62.9447,38.4539 63.0137,38.5189 L63.0137,38.5189 Z M55.3877,35.7689 L55.3877,47.2089 L58.1117,47.2089 L58.1117,43.0579 L58.1147,43.0579 L58.1147,43.0569 L61.0487,43.0569 C62.0367,43.0569 62.6347,43.1419 63.0357,43.5499 C63.5437,44.0949 63.4747,45.0909 63.4747,45.7709 L63.4847,47.2089 L66.2367,47.2089 L66.2367,44.9579 C66.2367,43.9519 66.1627,43.4279 65.7767,42.8719 C65.5977,42.6139 65.2687,42.3299 64.8627,42.1049 C64.7277,42.0299 64.5847,41.9629 64.4367,41.9059 C64.4367,41.9049 64.4377,41.9049 64.4377,41.9049 L64.4337,41.9029 C65.1397,41.6219 66.3547,40.6689 66.3547,38.8579 C66.3547,37.5769 65.8397,36.8299 64.9727,36.3219 C64.6887,36.1579 64.3797,36.0539 64.0577,35.9719 C63.3787,35.8009 62.6097,35.7689 61.6727,35.7689 L55.3877,35.7689 Z" id="Fill-26" fill="#93908E" mask="url(#mask-2)"></path>
                <polygon id="Fill-27" fill="#93908E" mask="url(#mask-2)" points="58.111 40.701 58.114 40.701 58.114 38.159 58.111 38.159"></polygon>
                <path d="M65.7769,42.8719 C66.1629,43.4279 66.2359,43.9519 66.2359,44.9579 L66.2359,47.2089 L66.2389,47.2089 L66.2389,44.9609 C66.2389,43.9519 66.1659,43.4309 65.7789,42.8719 C65.6009,42.6149 65.2699,42.3289 64.8629,42.1049 C65.2689,42.3299 65.5979,42.6139 65.7769,42.8719" id="Fill-28" fill="#93908E" mask="url(#mask-2)"></path>
                <path d="M64.4336,41.9032 L64.4376,41.9042 C65.1416,41.6212 66.3546,40.6712 66.3546,38.8582 C66.3546,40.6692 65.1396,41.6222 64.4336,41.9032" id="Fill-29" fill="#93908E" mask="url(#mask-2)"></path>
                <polygon id="Fill-30" fill="#93908E" mask="url(#mask-2)" points="58.111 47.209 58.114 47.209 58.114 43.058 58.111 43.058"></polygon>
                <path d="M66.355,38.8583 C66.355,37.5763 65.842,36.8303 64.976,36.3213 C64.691,36.1573 64.381,36.0533 64.058,35.9723 C64.38,36.0543 64.688,36.1583 64.973,36.3213 C65.84,36.8303 66.355,37.5763 66.355,38.8583" id="Fill-31" fill="#93908E" mask="url(#mask-2)"></path>
                <path d="M61.6885,38.162 C61.7375,38.163 61.7865,38.162 61.8345,38.164 C61.7865,38.162 61.7375,38.163 61.6885,38.162" id="Fill-32" fill="#93908E" mask="url(#mask-2)"></path>
                <path d="M62.7769,38.3573 C62.8649,38.4003 62.9439,38.4543 63.0139,38.5193 C62.9439,38.4533 62.8649,38.3993 62.7769,38.3553 C62.6239,38.2703 62.4299,38.2233 62.2199,38.1963 C62.4309,38.2243 62.6239,38.2713 62.7769,38.3573" id="Fill-33" fill="#93908E" mask="url(#mask-2)"></path>
                <path d="M61.9902,38.1757 C62.0552,38.1797 62.1222,38.1827 62.1842,38.1897 C62.1222,38.1827 62.0552,38.1797 61.9902,38.1757" id="Fill-34" fill="#93908E" mask="url(#mask-2)"></path>
                <polygon id="Fill-35" fill="#93908E" mask="url(#mask-2)" points="53.4912 47.2089 53.4912 44.8449 47.1092 44.8449 47.1092 44.8419 47.1062 44.8419 47.1062 42.5549 53.3362 42.5649 53.3362 40.2139 47.1092 40.2139 47.1062 40.2139 47.1062 38.1589 47.1092 38.1589 53.4912 38.1589 53.4912 35.7689 44.3702 35.7689 44.3702 47.2089"></polygon>
                <polygon id="Fill-36" fill="#93908E" mask="url(#mask-2)" points="47.1064 42.5546 47.1064 44.8416 47.1084 44.8416 47.1084 42.5566 53.3354 42.5646"></polygon>
                <polygon id="Fill-37" fill="#93908E" mask="url(#mask-2)" points="47.106 40.214 47.108 40.214 47.108 38.159 47.106 38.159"></polygon>
                <polygon id="Fill-38" fill="#93908E" mask="url(#mask-2)" points="53.491 38.159 53.494 38.159 53.494 35.768 53.491 35.768"></polygon>
                <polygon id="Fill-39" fill="#93908E" mask="url(#mask-2)" points="53.491 47.209 53.494 47.209 53.494 44.845 53.491 44.845"></polygon>
                <path d="M17.8853,42.2733 L19.7463,37.7193 L19.8423,37.9533 L21.6173,42.2763 L17.8853,42.2763 L17.8863,42.2733 L17.8853,42.2733 Z M16.9123,44.6563 L22.6003,44.6563 L22.9043,45.3993 L23.6473,47.2093 L29.1973,47.2093 L29.1973,38.2413 L29.1973,38.2383 L30.3813,40.9083 L33.1773,47.2093 L35.5693,47.2093 L39.3583,38.6403 L39.5263,38.2593 L39.5263,38.2603 L39.5263,38.2593 L39.5423,47.2093 L42.3383,47.2093 L42.3383,35.7683 L37.7923,35.7683 L34.5103,43.5363 L34.5083,43.5323 L34.5073,43.5343 L30.9403,35.7683 L26.4753,35.7683 L26.4753,46.6053 L26.4753,46.6053 L26.4753,46.6073 L21.8343,35.7683 L17.7743,35.7683 L12.8903,47.2093 L15.8583,47.2093 L16.9123,44.6563 Z" id="Fill-40" fill="#93908E" mask="url(#mask-2)"></path>
                <polygon id="Fill-41" fill="#93908E" mask="url(#mask-2)" points="34.5078 43.5321 30.9418 35.7681 30.9408 35.7681 34.5068 43.5341"></polygon>
                <polygon id="Fill-42" fill="#93908E" mask="url(#mask-2)" points="29.1973 38.2411 30.3813 40.9081 29.1973 38.2381"></polygon>
                <polygon id="Fill-43" fill="#93908E" mask="url(#mask-2)" points="35.5723 47.2089 39.3583 38.6409 35.5693 47.2089"></polygon>
                <polygon id="Fill-44" fill="#93908E" mask="url(#mask-2)" points="26.4751 35.7684 26.4751 35.7684 26.4751 46.6044 26.4751 46.6054"></polygon>
                <path d="M39.5259,38.2601 L39.5419,47.2091 L39.5259,38.2601 Z" id="Fill-45" fill="#93908E" mask="url(#mask-2)"></path>
                <polygon id="Fill-46" fill="#93908E" mask="url(#mask-2)" points="16.9126 44.6561 15.8576 47.2091 15.8606 47.2091 16.9126 44.6591 22.6006 44.6591 22.9046 45.3991 22.6006 44.6561"></polygon>
                <polygon id="Fill-47" fill="#93908E" mask="url(#mask-2)" points="19.8418 37.953 19.7458 37.719 17.8848 42.273 17.8858 42.273 19.7458 37.72"></polygon>
            </g>
        </g>
    </g>
</svg>