<?xml version="1.0" encoding="UTF-8" standalone="no"?>
<svg width="50px" height="50px" viewBox="0 0 50 50" version="1.1" xmlns="http://www.w3.org/2000/svg" xmlns:xlink="http://www.w3.org/1999/xlink">
    <!-- Generator: Sketch 3.8.3 (29802) - http://www.bohemiancoding.com/sketch -->
    <title>icon-twitter</title>
    <desc>Created with Sketch.</desc>
    <defs></defs>
    <g id="Page-1" stroke="none" stroke-width="1" fill="none" fill-rule="evenodd">
        <g id="Artboard-1" transform="translate(-100.000000, 0.000000)" fill="#FFFFFF">
            <path d="M150,9.9935 C148.1605,10.8095 146.18325,11.36075 144.1085,11.60875 C146.22625,10.33925 147.853,8.329 148.61875,5.9335 C146.6365,7.10925 144.44125,7.96275 142.1045,8.42275 C140.2335,6.429 137.5675,5.1835 134.617,5.1835 C128.952,5.1835 124.35875,9.77625 124.35875,15.44125 C124.35875,16.24525 124.4495,17.02825 124.62425,17.779 C116.09875,17.35125 108.54025,13.26725 103.48075,7.061 C102.59775,8.576 102.09175,10.338 102.09175,12.218 C102.09175,15.777 103.90275,18.91675 106.65525,20.75625 C104.97375,20.703 103.392,20.2415 102.009,19.47325 C102.008,19.516 102.008,19.559 102.008,19.60225 C102.008,24.57225 105.544,28.71825 110.23675,29.66075 C109.376,29.89525 108.46975,30.0205 107.53425,30.0205 C106.87325,30.0205 106.23075,29.956 105.60425,29.8365 C106.90975,33.91175 110.698,36.87775 115.187,36.96025 C111.67625,39.71175 107.25325,41.3515 102.447,41.3515 C101.619,41.3515 100.8025,41.303 100,41.208 C104.53975,44.11875 109.93175,45.81725 115.72475,45.81725 C134.593,45.81725 144.91125,30.18625 144.91125,16.6305 C144.91125,16.18575 144.90125,15.7435 144.8815,15.30325 C146.88575,13.85725 148.62475,12.0505 150,9.9935 L150,9.9935 Z" id="Shape"></path>
        </g>
    </g>
</svg>