<?xml version="1.0" encoding="UTF-8" standalone="no"?>
<svg width="32px" height="32px" viewBox="0 0 32 32" version="1.1" xmlns="http://www.w3.org/2000/svg" xmlns:xlink="http://www.w3.org/1999/xlink">
    <!-- Generator: Sketch 39.1 (31720) - http://www.bohemiancoding.com/sketch -->
    <title>Slice 1</title>
    <desc>Created with Sketch.</desc>
    <defs></defs>
    <g id="Page-1" stroke="none" stroke-width="1" fill="none" fill-rule="evenodd">
        <g id="icon-linkedin" fill="#007BB5">
            <path d="M30,0 L2,0 C0.9,0 0,0.9 0,2 L0,30 C0,31.1 0.9,32 2,32 L30,32 C31.1,32 32,31.1 32,30 L32,2 C32,0.9 31.1,0 30,0 L30,0 Z M11,25 L7,25 L7,11 L11,11 L11,25 L11,25 Z M9,10 C7.9,10 7,9.1 7,8 C7,6.9 7.9,6 9,6 C10.1,6 11,6.9 11,8 C11,9.1 10.1,10 9,10 L9,10 Z M25,25 L21,25 L21,17 C21,15.7 20.3,15 19,15 C17.7,15 17,15.7 17,17 L17,25 L13,25 L13,11 L17,11 L17,13 C17.2,12 17.7,11 20.5,11 C24.5,11 25,14 25,18 L25,25 L25,25 Z" id="Shape"></path>
        </g>
    </g>
</svg>