<?xml version="1.0" encoding="UTF-8"?>
<svg width="512px" height="512px" viewBox="0 0 512 512" version="1.1" xmlns="http://www.w3.org/2000/svg" xmlns:xlink="http://www.w3.org/1999/xlink" style="background: #FFFFFF;">
    <!-- Generator: Sketch 43.2 (39069) - http://www.bohemiancoding.com/sketch -->
    <title>Artboard 5</title>
    <desc>Created with Sketch.</desc>
    <defs>
        <linearGradient x1="0%" y1="16.2484258%" x2="64.0629638%" y2="16.2484258%" id="linearGradient-1">
            <stop stop-color="#F76707" offset="0%"></stop>
            <stop stop-color="#FBB281" offset="100%"></stop>
        </linearGradient>
    </defs>
    <g id="Elements" stroke="none" stroke-width="1" fill="none" fill-rule="evenodd">
        <g id="Artboard-5">
            <g id="kitmath-logo" transform="translate(81.300003, 90.000000)">
                <path d="M321.426099,165.940875 C309.232329,158.307197 298.566589,145.788694 290.370203,129.883734 C288.304089,125.875289 286.3994,121.647586 284.661971,117.233807 C275.093793,98.8682176 261.053681,83.2222033 243.986682,71.7550958 C224.463943,58.6380261 200.989202,50.9835285 175.730355,50.9835285 L175.730355,0.235478292 C98.3583601,0.235478292 35.0679685,72.1148865 30.1791803,162.9578 C37.658553,160.914215 45.6157188,159.257747 53.9404675,158.031986 C64.8104202,156.432121 76.3092184,155.570055 88.2106075,155.570055 C121.348177,155.570055 151.383009,162.227158 173.309624,173.016974 C174.968609,173.833498 176.586752,174.67084 178.150438,175.533557 C200.077052,186.324024 230.111885,192.980477 263.250102,192.980477 C275.151491,192.980477 286.649641,192.11841 297.519594,190.518546 C305.844343,189.293436 313.801508,187.636317 321.280881,185.593382 C331.184227,182.888121 340.249328,179.509472 348.244095,175.584956 C348.400334,175.14579 348.554628,174.706624 348.706977,174.266157 C339.086288,174.178975 329.888286,171.23819 321.426099,165.940875" id="Fill-1" fill="#F76707"></path>
                <path d="M297.519853,190.353602 C286.649901,191.953467 275.151102,192.815533 263.249713,192.815533 C230.112144,192.815533 200.077311,186.15908 178.150697,175.368613 C176.491712,174.55209 174.873569,173.715398 173.309883,172.852681 C151.383269,162.062214 121.348436,155.405111 88.2102185,155.405111 C76.3088294,155.405111 64.8106795,156.267828 53.9407269,157.867693 C45.6159781,159.092803 37.6588124,160.749922 30.1794396,162.792856 C19.952595,165.585951 8.87389158,170.02055 0.690471043,174.110322 C32.4568979,188.423875 50.6091418,209.243587 69.4096801,235.918845 C89.5068073,267.79903 124.514706,297.076751 172.559158,297.361721 C173.61523,297.378637 174.670005,297.402059 175.729966,297.402059 C176.790576,297.402059 177.845351,297.379938 178.901422,297.361721 C231.716024,296.461269 279.08236,273.130828 311.950239,236.445193 C327.722594,218.842126 340.151046,198.166199 348.244354,175.420012 C340.249587,179.345179 331.183838,182.723828 321.281141,185.428438 C313.801768,187.471373 305.844602,189.128492 297.519853,190.353602 Z" id="Fill-4" fill="url(#linearGradient-1)"></path>
            </g>
        </g>
    </g>
</svg>