<?xml version="1.0" encoding="UTF-8"?>
<svg width="200px" height="200px" viewBox="0 0 200 200" version="1.1" xmlns="http://www.w3.org/2000/svg" xmlns:xlink="http://www.w3.org/1999/xlink">
    <!-- Generator: Sketch 43.2 (39069) - http://www.bohemiancoding.com/sketch -->
    <title>Artboard</title>
    <desc>Created with Sketch.</desc>
    <defs>
        <linearGradient x1="0%" y1="12.7659917%" x2="73.7410109%" y2="20.6504685%" id="linearGradient-1">
            <stop stop-color="#F76707" stop-opacity="0.597005208" offset="0%"></stop>
            <stop stop-color="#F76707" offset="100%"></stop>
        </linearGradient>
    </defs>
    <g id="Page-1" stroke="none" stroke-width="1" fill="none" fill-rule="evenodd">
        <g id="Artboard" fill-rule="nonzero">
            <g id="case-study-logo-kit" transform="translate(10.000000, 26.000000)">
                <path d="M165.701264,79.6898401 C159.367228,76.0206215 153.826926,70.0034532 149.569326,62.3585441 C148.496086,60.4318369 147.506699,58.3997408 146.604194,56.2782051 C141.634018,47.4505648 134.340904,39.9301208 125.475477,34.4183184 C115.334421,28.1134418 103.140503,24.434216 90.0198342,24.434216 L90.0198342,0.0415582883 C49.8290712,0.0415582883 16.9529751,34.5912561 14.4135017,78.2559896 C18.2986502,77.2737161 22.4319877,76.4775147 26.7562656,75.8883382 C32.4026457,75.119344 38.3756786,74.7049816 44.5578367,74.7049816 C61.771096,74.7049816 77.3726432,77.9047979 88.762389,83.0910522 C89.6241464,83.4835238 90.4646882,83.8860027 91.2769425,84.3006778 C102.666688,89.4872449 118.268236,92.6867485 135.481832,92.6867485 C141.66399,92.6867485 147.636686,92.272386 153.283066,91.5033918 C157.607344,90.9145281 161.740681,90.118014 165.62583,89.1360531 C170.770107,87.8357368 175.478961,86.2117488 179.63183,84.3253832 C179.712987,84.1142929 179.793136,83.9032026 179.872273,83.6914869 C174.87482,83.6495815 170.096934,82.2360583 165.701264,79.6898401" id="Fill-1" fill="#F76707"></path>
                <path d="M153.445472,91.5032667 C147.830442,92.2722609 142.024984,92.5562957 135.877151,92.5562957 C118.759464,92.5562957 103.110129,89.4871198 91.7836221,84.3005528 C90.9266494,83.9080811 90.0907745,83.505915 89.28303,83.0912398 C77.956523,77.9046728 62.2088078,74 45.090786,74 C38.9429528,74 32.1895529,75.0040383 26.5745229,75.7730325 C22.2742546,76.3618962 18.2429856,77.3123891 14.3794083,78.29435 C9.09658501,79.6368843 4.34126002,81.7299419 0.11399676,83.6957399 C16.5234002,90.5757203 25.9002022,100.582964 35.6118899,113.404746 C45.9933492,128.728339 64.0771816,142.801026 88.8952322,142.938 C89.4407612,142.946131 89.9856203,142.957389 90.5331586,142.957389 C91.0810318,142.957389 91.6258909,142.946756 92.1714199,142.938 C119.45356,142.505187 143.92132,131.291131 160.899695,113.657742 C169.047131,105.196617 175.53679,94.6289669 179.717505,83.6957399 C175.587693,85.5824182 170.835086,87.8359245 165.719706,89.135928 C161.856128,90.1178889 157.745741,90.914403 153.445472,91.5032667 Z" id="Fill-4" fill="url(#linearGradient-1)"></path>
            </g>
        </g>
    </g>
</svg>