<?xml version="1.0" encoding="utf-8"?>
<!-- Generator: Adobe Illustrator 16.0.0, SVG Export Plug-In . SVG Version: 6.00 Build 0)  -->
<!DOCTYPE svg PUBLIC "-//W3C//DTD SVG 1.1 Tiny//EN" "http://www.w3.org/Graphics/SVG/1.1/DTD/svg11-tiny.dtd">
<svg version="1.1" baseProfile="tiny" id="Layer_1" xmlns="http://www.w3.org/2000/svg" xmlns:xlink="http://www.w3.org/1999/xlink"
	 x="0px" y="0px" width="50px" height="50px" viewBox="0 0 50 50" xml:space="preserve">
<path fill-rule="evenodd" fill="#7F7974" d="M24.45-0.066c3.86-0.079,7.544,0.682,11.051,2.299c0.581,0.268,1.157,0.555,1.621,0.994
	c1.135,1.071,2.438,1.863,3.881,2.434c1.318,0.522,2.3,1.41,3.008,2.635c1.295,2.237,2.934,4.269,3.921,6.692
	c0.612,1.506,1.117,3.042,1.477,4.625c0.088,0.384,0.135,0.773,0.059,1.175c-0.146,0.772-0.055,1.522,0.244,2.254
	c0.413,1.014,0.276,2.083,0.23,3.13c-0.442,9.995-7.093,19.004-16.571,22.259c-7.949,2.731-15.469,1.696-22.522-2.894
	c-3.253-2.116-5.539-5.013-7.179-8.475c-0.302-0.64-0.676-1.224-1.159-1.747c-0.965-1.045-1.225-2.415-1.598-3.711
	c-0.801-2.79-1.06-5.647-0.833-8.542c0.029-0.369,0.09-0.747,0.211-1.095c0.521-1.5,0.809-3.039,1.042-4.61
	c0.348-2.35,1.548-4.378,2.86-6.302c4.165-6.108,9.932-9.733,17.237-10.89C22.426,0.009,23.438-0.056,24.45-0.066z M4.375,27.166
	c-0.02,1.051-0.153,2.146,0.337,3.106c0.925,1.812,1.798,3.684,3.076,5.266c1.657,2.053,3.563,3.899,5.696,5.461
	c4.113,3.012,8.704,4.276,13.792,3.461c2.689-0.431,5.134-1.483,7.326-3.09c0.383-0.28,0.891-0.268,1.199-0.737
	c0.562-0.858,1.162-1.708,1.959-2.381c1.925-1.625,3.169-3.623,3.729-6.118c0.396-1.765,0.742-3.463,0.114-5.235
	c-0.172-0.486-0.202-1.034-0.229-1.558c-0.032-0.642,0.514-1.407,1.14-1.523c0.704-0.13,1.01-0.928,1.765-0.957
	c0.162-0.006,0.185-0.285,0.15-0.461c-0.055-0.279-0.09-0.574-0.212-0.823c-0.307-0.625-0.268-1.223-0.146-1.902
	c0.32-1.77,0.091-3.483-1.391-4.684c-0.983-0.795-1.854-1.658-2.66-2.622c-0.979-1.169-2.224-1.914-3.812-1.627
	c-1.68,0.303-3.002-0.212-3.988-1.553c-1.148-1.561-2.653-2.423-4.573-2.669c-1.501-0.192-2.986-0.578-4.463,0.107
	c-0.347,0.161-0.75,0.161-1.106,0.076c-0.953-0.228-1.829,0.018-2.7,0.339c-0.866,0.319-1.711,0.683-2.524,1.121
	c-3.963,2.133-7.127,5.175-9.841,8.712c-1.155,1.505-1.869,3.231-2.136,5.111C4.632,23.704,4.438,25.429,4.375,27.166z
	 M46.953,26.57c0.06-1.085,0.025-1.143-0.92-1.464c-0.245-0.083-0.424-0.218-0.524-0.456c-0.196-0.464-0.584-0.391-0.953-0.322
	c-0.582,0.11-1.167,0.232-1.556,0.748c-0.019,0.024-0.006,0.088,0.014,0.12c0.193,0.317,0.185,0.486-0.263,0.421
	c-0.212-0.03-0.211,0.196-0.254,0.325c-0.405,1.228,0.367,2.679,1.604,3.032c0.705,0.201,2.132-0.108,2.293-0.578
	C46.612,27.771,47.137,27.224,46.953,26.57z M46.599,24.196c-0.04-0.17-0.145-0.282-0.319-0.25
	c-0.155,0.028-0.288,0.133-0.262,0.316c0.024,0.169,0.148,0.273,0.319,0.254C46.51,24.497,46.587,24.364,46.599,24.196z"/>
</svg>
