<svg viewBox="0 0 295 615" xmlns="http://www.w3.org/2000/svg"><title>phone</title><desc>Created with Sketch.</desc><g fill="none" fill-rule="evenodd"><g><path class="device-outer" d="M247.89 3.8H43.782c-19.85 0-38.74 18.908-38.74 42.232v525.186c0 23.323 18.89 42.23 42.196 42.23h204.108c23.305 0 42.197-18.907 42.197-42.23V46.032c0-23.324-18.892-42.23-45.653-42.23"/><path d="M5.764 113.453H4.11c-.847 0-1.535-.688-1.535-1.536V90.162c0-.848.688-1.536 1.535-1.536h1.654v24.827z" stroke="#fff"/><path d="M5.764 165.54H4.11c-.847 0-1.535-.69-1.535-1.537V146.47c0-.85.688-1.536 1.535-1.536h1.654v20.605z" stroke="#fff"/><path d="M5.764 216.472H4.11c-.847 0-1.535-.688-1.535-1.536v-17.534c0-.848.688-1.535 1.535-1.535h1.654v20.605z" stroke="#fff"/><path d="M246.04 3.778h-46.034V1.734c0-.848.687-1.536 1.534-1.536h42.964c.847 0 1.535.688 1.535 1.536v2.044z" stroke="#fff"/><path d="M248.238 3.046H44.128c-19.848 0-38.74 18.908-38.74 42.23v525.187c0 23.324 18.892 42.23 42.197 42.23h204.108c23.305 0 42.197-18.906 42.197-42.23V45.277c0-23.323-18.892-42.23-45.652-42.23m0 1.535c12.376 0 23.672 4.244 31.806 11.95 7.94 7.52 12.312 17.728 12.312 28.745v525.186c0 22.44-18.242 40.695-40.663 40.695H47.585c-22.42 0-40.663-18.256-40.663-40.695V45.277c0-10.704 4.088-20.935 11.51-28.808C25.55 8.914 34.918 4.58 44.128 4.58h204.108" fill="#fff"/><path d="M176.512 561.932c0 14.535-11.774 26.318-26.297 26.318-14.523 0-26.297-11.783-26.297-26.318 0-14.535 11.774-26.318 26.297-26.318 14.523 0 26.297 11.783 26.297 26.318z" stroke="#fff"/><path d="M170.374 61.8H129.71c-3.178 0-5.754-2.58-5.754-5.76 0-3.18 2.576-5.757 5.754-5.757h40.664c3.178 0 5.754 2.578 5.754 5.758s-2.576 5.76-5.754 5.76z" stroke="#fff"/><path d="M160.878 566.898c0 3.18-2.576 5.76-5.754 5.76h-9.462c-3.178 0-5.754-2.58-5.754-5.76v-9.47c0-3.18 2.576-5.76 5.754-5.76h9.462c3.178 0 5.754 2.58 5.754 5.76v9.47z" stroke="#fff"/><path d="M155.38 33.088c0 2.968-2.405 5.374-5.37 5.374-2.967 0-5.37-2.406-5.37-5.374 0-2.97 2.403-5.375 5.37-5.375 2.965 0 5.37 2.406 5.37 5.375z" stroke="#fff"/></g></g></svg>
