<svg xmlns="http://www.w3.org/2000/svg" width="257.6px" height="257.6px" viewBox="0 0 257.6 257.6" role="img" aria-labelledby="cb4m9hxguevrazc7fa7ulqbnpyn8y8d" class="logo nav-logo"><title id="cb4m9hxguevrazc7fa7ulqbnpyn8y8d">Blog home</title>
  <path fill="#ed3e44" d="M128.8,0C57.7,0,0,57.7,0,128.8c0,71.1,57.7,128.8,128.8,128.8c71.1,0,128.8-57.7,128.8-128.8     C257.6,57.7,199.9,0,128.8,0z"></path>
  <g fill="#fff">
    <path d="M95.6,137.3h-5.2v36.6h0c1.7,2.1,2.8,4.7,2.8,7.6c0,3.6-1.6,6.8-4.2,9l-3.2-3.2c1.8-1.3,2.9-3.4,2.9-5.8       c0-4-3.3-7.3-7.3-7.3c-4,0-7.3,3.3-7.3,7.3c0,2.4,1.1,4.5,2.9,5.8l-3.2,3.2c-2.5-2.2-4.2-5.4-4.2-9c0-2.9,1.1-5.6,2.8-7.6v-57       c0.1-2.2,1.9-4,4.1-4l104.5,0c2.2,0,4,1.8,4.1,4v57c1.8,2.1,2.8,4.7,2.8,7.6c0,3.6-1.6,6.8-4.2,9l-3.2-3.2       c1.7-1.3,2.9-3.4,2.9-5.8c0-4-3.3-7.3-7.3-7.3c-4,0-7.3,3.3-7.3,7.3c0,2.4,1.1,4.5,2.9,5.8l-3.2,3.2c-2.6-2.2-4.2-5.4-4.2-9       c0-2.9,1.1-5.6,2.8-7.6h0v-36.6H162v77.2l3.5,2v6.3h-35v-6.3l3.5-2h0V191h-10.4v23.4l3.5,2v6.3l-34.9,0.1v-6.3l3.4-2L95.6,137.3z"></path>
    <path d="M128.8,53.6c7.3,0,13.8,2.6,17.9,6.5l3.2-4.6c-5.1-4.5-12.6-7.4-21.1-7.4l0,0c-8.5,0-16.1,2.9-21.1,7.4       l3.2,4.6C114.9,56.2,121.5,53.6,128.8,53.6"></path>
    <g>
      <path d="M129,42c7.9,0,15.3,2.3,20.8,6.5c1.1,0.8,2.1,1.7,3,2.7l3.2-4.6c-6.2-6.1-16-10.1-27-10.1l0,0         c-11.3,0-21.3,4.1-27.5,10.5l3.2,4.6c1-1.1,2.1-2.2,3.4-3.2C113.7,44.3,121.1,42,129,42"></path>
    </g>
    <g>
      <path d="M128.8,30.8c12.6,0,23.7,4.6,30.3,11.6l3.2-4.5c-7.7-7.6-19.9-12.5-33.5-12.5l0,0         c-13.7,0-25.8,4.9-33.5,12.6l3.2,4.5C105,35.4,116.2,30.8,128.8,30.8"></path>
    </g>
    <g>
      <path d="M118.7,84.7c0,1.9-1.5,3.5-3.5,3.5c-1.9,0-3.5-1.6-3.5-3.5c0-1.9,1.6-3.5,3.5-3.5         C117.2,81.2,118.7,82.7,118.7,84.7z"></path>
      <path d="M155.3,66h-53.1c-2.2,0-4,1.8-4,4v34.6c0,2.2,1.8,4,4,4h53.1c2.2,0,4-1.8,4-4V70         C159.3,67.8,157.5,66,155.3,66z M115.3,91.4c-3.7,0-6.8-3-6.8-6.8c0-3.7,3-6.8,6.8-6.8c3.7,0,6.8,3,6.8,6.8         C122,88.4,119,91.4,115.3,91.4z M142.4,91.4c-3.7,0-6.8-3-6.8-6.8c0-3.7,3-6.8,6.8-6.8c3.7,0,6.8,3,6.8,6.8         C149.2,88.4,146.1,91.4,142.4,91.4z"></path>
      <path d="M145.9,84.7c0,1.9-1.6,3.5-3.5,3.5c-1.9,0-3.5-1.6-3.5-3.5c0-1.9,1.5-3.5,3.5-3.5         C144.3,81.2,145.9,82.7,145.9,84.7z"></path>
    </g>
  </g>
</svg>
