<?xml version="1.0" encoding="UTF-8"?>
<svg width="256px" height="169px" viewBox="0 0 256 169" version="1.1" xmlns="http://www.w3.org/2000/svg" xmlns:xlink="http://www.w3.org/1999/xlink">
    <!-- Generator: Sketch 43.2 (39069) - http://www.bohemiancoding.com/sketch -->
    <title>Untitled 3</title>
    <desc>Created with Sketch.</desc>
    <defs></defs>
    <g id="Page-1" stroke="none" stroke-width="1" fill="none" fill-rule="evenodd">
        <path d="M239.960637,0.712877994 C240.429852,3.94532368 240.899066,7.17705627 241.447434,10.9485994 L236.834442,10.9485994 C215.490888,10.9485994 194.145908,10.8623153 172.803066,11.0355967 C169.393774,11.0634072 167.5433,10.1242652 166.828782,6.80268301 C166.385239,4.74256045 165.675713,2.74091142 165.085986,0.712877994 L239.960637,0.712877994 Z" id="Fill-1" fill="#000000"></path>
        <polygon id="Fill-4" fill="#000000" points="0.303064067 96.0356546 81.3288468 96.0356546 81.3288468 13.7769359 0.303064067 13.7769359"></polygon>
        <path d="M0.00313760446,168.97198 L0.00313760446,159.206899 L4.5854663,159.206899 C72.4325972,159.206899 140.279015,159.238988 208.125433,159.118476 C211.77789,159.111345 213.937845,159.872214 214.661633,163.640905 C214.988943,165.345908 215.80472,166.957495 216.529221,168.97198 L0.00313760446,168.97198 Z" id="Fill-6" fill="#000000"></path>
        <path d="M0,144.687135 L0,134.961275 L4.59659053,134.961275 C70.190351,134.961275 135.783398,134.994077 201.376446,134.871425 C204.864178,134.865007 206.576312,135.873319 207.293682,139.18991 C207.684457,140.998311 208.536602,142.706879 209.263242,144.687135 L0,144.687135 Z" id="Fill-7" fill="#000000"></path>
        <path d="M0.00242451253,120.317362 L0.00242451253,110.716292 L4.58118774,110.716292 C67.6427588,110.716292 130.703617,110.751947 193.764475,110.62359 C197.327082,110.616459 199.281667,111.456481 199.991906,115.00554 C200.334191,116.712682 201.118592,118.331401 201.818848,120.317362 L0.00242451253,120.317362 Z" id="Fill-8" fill="#000000"></path>
        <path d="M96.1006173,86.3354652 L100.122456,86.3354652 C128.966311,86.3354652 157.810166,86.3910864 186.652595,86.2577382 C189.864361,86.2427632 191.762612,86.8895376 192.43577,90.2460613 C192.821553,92.1699833 193.74572,93.9848022 194.5344,96.139766 L96.1006173,96.139766 L96.1006173,86.3354652 Z" id="Fill-9" fill="#000000"></path>
        <path d="M187.051855,71.8897916 L96.0755877,71.8897916 L96.0755877,62.3443432 L183.524189,62.3443432 C184.636613,65.3543042 185.809649,68.5289894 187.051855,71.8897916" id="Fill-10" fill="#000000"></path>
        <path d="M179.647964,47.7027833 L96.134917,47.7027833 L96.134917,37.8450006 L100.029112,37.8450006 C124.006828,37.8450006 147.984544,37.9141705 171.961547,37.7615688 C175.118404,37.7416022 176.761368,38.554527 177.438092,41.6636078 C177.855964,43.5832513 178.780845,45.3923655 179.647964,47.7027833" id="Fill-11" fill="#000000"></path>
        <path d="M172.090188,23.4215042 L96.0981214,23.4215042 L96.0981214,13.6000891 L99.7890852,13.6000891 C121.53411,13.6000891 143.278422,13.6592758 165.022021,13.5259276 C167.749598,13.5088134 169.134422,14.2475766 169.797598,16.8696156 C170.341687,19.0195877 171.253731,21.0768579 172.090188,23.4215042" id="Fill-12" fill="#000000"></path>
        <path d="M172.307824,25.4190173 L176.572114,25.4190173 C197.119144,25.4190173 217.666175,25.4924657 238.211779,25.3448557 C241.492715,25.3213237 243.082197,26.0643655 242.904637,29.567073 C242.822632,31.1943487 243.272593,32.8480089 243.571378,35.1933682 L239.314933,35.1933682 C219.718453,35.1933682 200.120548,35.0999532 180.526208,35.2803655 C177.017083,35.3124546 174.918453,34.5658474 174.227467,30.9141036 C173.90515,29.2076747 173.087947,27.5953738 172.307824,25.4190173" id="Fill-13" fill="#000000"></path>
        <path d="M244.820715,49.9475967 C245.19081,53.1044546 245.520258,55.923307 245.931713,59.438137 L241.556894,59.438137 C223.616214,59.438137 205.673395,59.3390173 187.734142,59.5258474 C184.323423,59.5607889 182.463679,58.6266384 181.736325,55.2850897 C181.366231,53.5843655 180.613206,51.9677861 179.906531,49.9475967 L244.820715,49.9475967 Z" id="Fill-14" fill="#000000"></path>
        <path d="M248.317932,83.6836903 L243.715637,83.6836903 C227.593342,83.6836903 211.468194,83.5631777 195.348038,83.7763922 C191.761899,83.8241694 189.832272,82.8729047 189.143425,79.3088713 C188.816116,77.6159911 187.983225,76.0215175 187.205241,73.9093393 L191.175024,73.9093393 C208.483191,73.9093393 225.792784,74.0013281 243.099525,73.8301861 C246.459614,73.7966708 247.882946,74.7650496 247.789531,78.1237125 C247.743893,79.7602585 248.08689,81.4075008 248.317932,83.6836903" id="Fill-15" fill="#000000"></path>
        <path d="M194.660546,98.1543933 L204.602474,98.1543933 C218.370139,98.1543933 232.137805,98.2164323 245.904045,98.1023376 C248.633047,98.0795187 250.156212,98.586527 250.042117,101.704165 C249.974373,103.561769 250.448579,105.440053 250.755922,107.928744 L246.366841,107.928744 C231.768423,107.928744 217.168579,107.810371 202.573727,108.017168 C199.164435,108.064945 197.301838,107.115106 196.565928,103.784254 C196.190841,102.087808 195.459209,100.46909 194.660546,98.1543933" id="Fill-16" fill="#000000"></path>
        <path d="M201.984357,122.577079 L251.910774,122.577079 C252.290139,125.589179 252.667365,128.585591 253.110195,132.101134 C251.646217,132.232343 250.443231,132.431296 249.240958,132.433435 C235.847666,132.455541 222.45366,132.362126 209.062507,132.51758 C206.310685,132.549669 204.968646,131.673992 204.309749,129.083329 C203.792045,127.048165 202.906384,125.106416 201.984357,122.577079" id="Fill-17" fill="#000000"></path>
        <path d="M209.210687,146.644644 L215.981495,146.644644 C227.713997,146.645357 239.447211,146.70597 251.178999,146.596154 C253.557161,146.574048 254.670297,147.300689 254.777261,149.698104 C254.876381,151.911541 255.159479,154.116421 255.394086,156.692822 L241.319077,156.692822 C232.905306,156.692822 224.488682,156.589424 216.077763,156.757001 C213.636849,156.805491 212.391791,156.095964 211.757139,153.743474 C211.149584,151.489391 210.191189,149.329435 209.210687,146.644644" id="Fill-18" fill="#000000"></path>
    </g>
</svg>