<?xml version="1.0" encoding="UTF-8"?>
<svg width="246px" height="258px" viewBox="0 0 246 258" version="1.1" xmlns="http://www.w3.org/2000/svg" xmlns:xlink="http://www.w3.org/1999/xlink">
    <!-- Generator: Sketch 43.2 (39069) - http://www.bohemiancoding.com/sketch -->
    <title>Combined Shape</title>
    <desc>Created with Sketch.</desc>
    <defs></defs>
    <g id="Page-1" stroke="none" stroke-width="1" fill="none" fill-rule="evenodd">
        <path d="M222.558863,44.7853818 L245.216139,173.785358 L145.275028,258 L22.6637277,213.214571 L0,84.2145948 L99.9475677,0 L222.558863,44.7853818 Z M176.353763,114.996494 L176.347311,114.996494 C184.389927,106.807846 188.080765,95.2949043 186.298183,83.9564667 C184.663735,75.4744808 176.63849,69.7848477 168.093632,71.050017 C165.532303,71.4718338 163.078789,72.392723 160.872475,73.760385 C151.525983,80.685877 144.85456,90.6235029 141.983879,101.896437 C139.393356,109.850414 137.487029,118.011157 136.285682,126.289655 C132.381482,128.096552 128.077177,129.903448 123.476027,131.581257 L122.67583,131.839432 L122.67583,131.903952 C117.071806,134.001752 111.363973,135.811036 105.574778,137.324642 C104.224595,132.941147 102.6413,128.632848 100.83166,124.418192 C92.6876845,105.639317 83.1304569,99.8314125 76.5546201,98.2826441 C71.4681863,97.0577883 66.1031588,97.9174816 61.654123,100.670317 C58.244529,102.805199 55.3736327,105.698219 53.2649283,109.124069 C46.6575571,119.56634 47.2101983,133.009694 54.6523725,142.874418 C61.4152105,150.476905 71.1630587,154.743814 81.3364599,154.554748 C85.9884116,154.743018 90.6479204,154.527076 95.2625224,153.909451 L95.5141985,154.877443 C98.2249598,165.103491 99.9770514,175.559901 100.747765,186.111032 C100.801975,188.213233 101.761867,190.189483 103.38068,191.531768 C104.824081,192.618078 106.679691,192.997287 108.433557,192.56428 C109.562915,192.347074 110.65152,191.955176 111.660172,191.40268 C113.960471,190.024624 115.226955,187.415672 114.886786,184.755871 C114.021662,173.403762 112.142735,162.151804 109.272475,151.134563 C115.739091,149.422106 122.112663,147.375857 128.367575,145.00401 C130.413248,144.229626 132.43956,143.455195 134.414247,142.68081 C134.317447,143.713323 134.220648,144.681315 134.130306,145.649307 C132.926042,155.844264 132.729344,166.1331 133.543058,176.366686 C133.622885,178.309365 134.467193,180.141779 135.892033,181.464727 C137.322642,182.680827 139.186123,183.263148 141.054618,183.078015 C142.255402,183.01593 143.422846,182.661489 144.455465,182.045503 C146.676149,180.683319 147.943238,178.189033 147.733706,175.592302 C146.699648,164.150294 147.026745,152.626021 148.70814,141.26113 C148.934004,139.518753 149.172776,137.711857 149.430904,135.646833 C151.244261,134.678841 152.999537,133.710849 154.696735,132.678337 C162.829496,128.001644 170.144624,122.029255 176.353763,114.996494 Z M170.526498,85.1825867 L170.520046,85.1825867 C171.66168,85.3201488 172.519079,86.2913246 172.514093,87.4412189 C172.823847,88.7318592 174.024149,95.5722761 165.473626,105.703837 C161.687946,110.097961 157.327164,113.961688 152.509094,117.190606 C153.386729,113.318639 154.380529,109.704846 155.458215,106.478222 C160.349763,91.9584833 165.964069,87.3121314 168.15171,86.0214912 C168.875649,85.5782769 169.684793,85.2924304 170.526498,85.1825867 Z M73.2763844,112.221606 L73.2699277,112.221606 C79.5489196,113.705854 86.2538205,124.031023 91.4486652,139.970489 C74.1991934,141.777386 67.6878862,136.35665 65.6357611,133.839889 C61.9899189,128.758845 61.8615197,121.953872 65.3131034,116.73887 C66.2370642,115.209065 67.4944236,113.907609 68.9914399,112.93147 C70.2417807,112.066064 71.8137773,111.805642 73.2763844,112.221606 Z" id="Combined-Shape" fill="#F7931E"></path>
    </g>
</svg>