<?xml version="1.0" encoding="UTF-8" standalone="no"?>
<svg width="800px" height="600px" viewBox="0 0 800 600" version="1.1" xmlns="http://www.w3.org/2000/svg" xmlns:xlink="http://www.w3.org/1999/xlink">
    <!-- Generator: Sketch 39.1 (31720) - http://www.bohemiancoding.com/sketch -->
    <title>armada-intro</title>
    <desc>Created with Sketch.</desc>
    <defs>
        <polygon id="path-1" points="49.8733521 6.93395892 74.8100281 0 74.8100281 52.6980878 49.8733521 59.6320467"></polygon>
        <mask id="mask-2" maskContentUnits="userSpaceOnUse" maskUnits="objectBoundingBox" x="0" y="0" width="24.936676" height="59.6320467" fill="white">
            <use xlink:href="#path-1"></use>
        </mask>
        <polygon id="path-3" points="0 6.93395892 24.936676 0 24.936676 52.6980878 0 59.6320467"></polygon>
        <mask id="mask-4" maskContentUnits="userSpaceOnUse" maskUnits="objectBoundingBox" x="0" y="0" width="24.936676" height="59.6320467" fill="white">
            <use xlink:href="#path-3"></use>
        </mask>
        <polygon id="path-5" points="24.936676 6.93395892 49.8733521 0 49.8733521 52.6980878 24.936676 59.6320467"></polygon>
        <mask id="mask-6" maskContentUnits="userSpaceOnUse" maskUnits="objectBoundingBox" x="0" y="0" width="24.936676" height="59.6320467" fill="white">
            <use xlink:href="#path-5"></use>
        </mask>
    </defs>
    <g id="Page-1" stroke="none" stroke-width="1" fill="none" fill-rule="evenodd" opacity="0.149999991">
        <g id="armada-intro">
            <g id="Group" transform="translate(38.000000, 31.000000)">
                <g id="crates" transform="translate(598.000000, 426.000000)" stroke="#262F33" stroke-width="2">
                    <path d="M8.65869141,70.017937 L43.5660587,35.1105697" id="Line" stroke-linecap="square" opacity="0.5"></path>
                    <path d="M15.9676025,77.326848 L51.6132813,41.6811692" id="Line-2" stroke-linecap="square" opacity="0.5"></path>
                    <rect id="Rectangle-1" x="0" y="26" width="60" height="60"></rect>
                    <rect id="Rectangle-2" opacity="0.5" x="8" y="34" width="44" height="44"></rect>
                    <rect id="Rectangle-1" transform="translate(85.500000, 57.000000) rotate(-30.000000) translate(-85.500000, -57.000000) " x="73" y="31" width="25" height="52"></rect>
                    <rect id="Rectangle-2" opacity="0.5" transform="translate(85.500000, 57.000000) rotate(-30.000000) translate(-85.500000, -57.000000) " x="79" y="38" width="13" height="38"></rect>
                    <rect id="Rectangle-1" x="30" y="0" width="26" height="26"></rect>
                    <rect id="Rectangle-2" opacity="0.5" x="36" y="6" width="14" height="14"></rect>
                </g>
                <g id="map" transform="translate(302.000000, 50.000000)" stroke="#262F33" stroke-width="4">
                    <use id="Rectangle-9" mask="url(#mask-2)" xlink:href="#path-1"></use>
                    <use id="Rectangle-11" mask="url(#mask-4)" xlink:href="#path-3"></use>
                    <use id="Rectangle-10" mask="url(#mask-6)" opacity="0.5" xlink:href="#path-5"></use>
                </g>
                <g id="chart" transform="translate(598.000000, 61.000000)" fill="#262F33">
                    <ellipse id="Oval-25" opacity="0.25" cx="33.3695652" cy="17.6551724" rx="6.65217391" ry="6.62068966"></ellipse>
                    <ellipse id="Oval-26" opacity="0.25" cx="6.76086957" cy="37.5172414" rx="6.65217391" ry="6.62068966"></ellipse>
                    <ellipse id="Oval-28" opacity="0.25" cx="93.2391304" cy="6.62068966" rx="6.65217391" ry="6.62068966"></ellipse>
                    <ellipse id="Oval-27" opacity="0.25" cx="66.6304348" cy="27.5862069" rx="6.65217391" ry="6.62068966"></ellipse>
                    <path d="M68.0156281,28.2060553 L67.0736501,28.9560711 L65.9292341,28.5764045 L32.6683645,17.5419218 L34.7547586,17.1715725 L7.03736728,39.2405381 L7.86956522,37.5172414 L7.86956522,64 L5.65217391,61.7931034 L94.3478261,61.7931034 L92.1304348,64 L92.1304348,6.17931034 L93.5156281,5.07640047 L94.3478261,5.47448242 L94.3478261,7.23999966 L68.0156281,28.2060553 Z M33.3695652,15.4482759 L66.6304348,26.4827586 L94.3478261,4.4137931 L94.3478261,64 L5.65217391,64 L5.65217391,37.5172414 L33.3695652,15.4482759 Z" id="Rectangle-11"></path>
                </g>
                <g id="truck" transform="translate(83.500000, 61.000000) rotate(-15.000000) translate(-83.500000, -61.000000) translate(9.000000, 18.000000)" fill="#262F33">
                    <path d="M146.1231,71.0221 L135.9501,71.0221 C135.4441,64.3051 129.8461,59.0091 123.0001,59.0091 C116.1541,59.0091 110.5561,64.3051 110.0501,71.0221 L33.9501,71.0221 C33.4441,64.3051 27.8461,59.0091 21.0001,59.0091 C14.1541,59.0091 8.5561,64.3051 8.0501,71.0221 L2.2281,71.0221 L2.2281,52.6771 L3.6101,52.6771 L88.4311,52.6771 C89.0471,52.6771 89.5471,52.1701 89.5471,51.5441 L89.5471,42.4791 L99.7991,42.4791 L121.5401,42.4791 C122.8931,42.4111 124.0331,42.3721 125.0061,42.3401 C130.1241,42.1701 131.1531,42.0311 133.6661,38.6761 C133.7851,38.8821 133.8911,39.0031 134.0191,39.0931 L137.3671,41.5261 C137.4891,41.6161 137.6311,41.6801 137.7791,41.7111 L138.9441,41.9641 C143.6601,42.9781 146.1231,43.6521 146.1231,46.7671 L146.1231,71.0221 Z M132.0261,78.2871 C130.0381,81.1391 126.7401,83.0091 123.0001,83.0091 C119.2601,83.0091 115.9621,81.1391 113.9741,78.2871 C112.9631,76.8361 112.2941,75.1321 112.0801,73.2871 C112.0311,72.8671 112.0001,72.4421 112.0001,72.0091 C112.0001,71.6761 112.0211,71.3481 112.0501,71.0221 C112.5501,65.4101 117.2581,61.0091 123.0001,61.0091 C128.7421,61.0091 133.4501,65.4101 133.9501,71.0221 C133.9791,71.3481 134.0001,71.6761 134.0001,72.0091 C134.0001,72.4421 133.9681,72.8671 133.9201,73.2871 C133.7061,75.1321 133.0371,76.8371 132.0261,78.2871 L132.0261,78.2871 Z M30.0261,78.2871 C28.0381,81.1391 24.7401,83.0091 21.0001,83.0091 C17.2601,83.0091 13.9611,81.1391 11.9741,78.2871 C10.9631,76.8361 10.2931,75.1311 10.0801,73.2861 C10.0311,72.8661 10.0001,72.4421 10.0001,72.0091 C10.0001,71.6761 10.0211,71.3481 10.0501,71.0221 C10.5501,65.4101 15.2581,61.0091 21.0001,61.0091 C26.7421,61.0091 31.4501,65.4101 31.9501,71.0221 C31.9791,71.3481 32.0001,71.6761 32.0001,72.0091 C32.0001,72.4421 31.9691,72.8671 31.9201,73.2861 C31.7061,75.1321 31.0371,76.8361 30.0261,78.2871 L30.0261,78.2871 Z M4.7261,50.5091 L87.0001,50.5091 L87.0001,2.5091 L4.7261,2.5091 L4.7261,50.5091 Z M89.5471,16.4431 L99.2221,16.4431 C98.9091,16.6441 98.6881,16.9821 98.6881,17.3851 L98.6881,40.2191 L89.5471,40.2191 L89.5471,16.4431 Z M120.8721,16.4431 L122.5201,19.3071 L125.2191,23.9991 L132.5451,36.7321 C132.3611,36.8061 132.1901,36.9131 132.0611,37.0851 C129.9741,39.9131 129.8801,39.9151 124.9301,40.0801 C123.9941,40.1121 122.8931,40.1491 121.6571,40.2111 L127.2911,33.5701 C127.6931,33.0971 127.6421,32.3841 127.1751,31.9761 C126.7091,31.5681 126.0061,31.6231 125.6041,32.0951 L119.3111,39.5111 C119.1381,39.7171 119.0641,39.9681 119.0571,40.2191 L100.9171,40.2191 L100.9171,17.3851 C100.9171,16.9821 100.6961,16.6441 100.3831,16.4431 L120.8721,16.4431 Z M139.4081,39.7541 L138.4761,39.5511 L135.5091,37.3951 L125.2191,19.5141 L125.2191,19.3071 L125.1001,19.3071 L122.4721,14.7411 C122.2731,14.3931 121.9071,14.1811 121.5111,14.1811 L89.5471,14.1811 L89.5471,1.1311 C89.5471,0.5071 89.0471,0.0001 88.4311,0.0001 L3.6101,0.0001 C2.9951,0.0001 2.4951,0.5071 2.4951,1.1311 L2.4951,50.4161 L1.1141,50.4161 C0.4991,50.4161 0.0001,50.9221 0.0001,51.5461 L0.0001,72.1531 C0.0001,72.7791 0.4991,73.2861 1.1141,73.2861 L8.0641,73.2861 C8.2401,75.0861 8.7841,76.7781 9.6181,78.2871 C11.8331,82.2941 16.0981,85.0091 21.0001,85.0091 C25.9021,85.0091 30.1671,82.2941 32.3811,78.2871 C33.2161,76.7781 33.7601,75.0871 33.9351,73.2861 C57.0111,73.2861 87.6391,73.2871 110.0641,73.2871 C110.2401,75.0871 110.7841,76.7781 111.6181,78.2871 C113.8331,82.2941 118.0981,85.0091 123.0001,85.0091 C127.9021,85.0091 132.1671,82.2941 134.3811,78.2871 C135.2161,76.7781 135.7601,75.0871 135.9351,73.2871 L140.0651,73.2871 C140.0691,73.2871 147.2391,73.2841 147.2391,73.2841 C147.8541,73.2841 148.3531,72.7771 148.3531,72.1531 L148.3531,46.7691 C148.3521,41.6761 144.0061,40.7431 139.4081,39.7541 L139.4081,39.7541 Z" id="Fill-1"></path>
                    <path d="M21,74.0095 C20.383,74.0095 19.839,73.7245 19.472,73.2855 C19.182,72.9385 19,72.4975 19,72.0095 C19,71.6485 19.103,71.3145 19.271,71.0225 C19.615,70.4195 20.256,70.0095 21,70.0095 C21.744,70.0095 22.385,70.4195 22.729,71.0225 C22.897,71.3145 23,71.6485 23,72.0095 C23,72.4975 22.818,72.9385 22.528,73.2855 C22.161,73.7245 21.617,74.0095 21,74.0095 M21,68.0095 C19.134,68.0095 17.579,69.2935 17.138,71.0225 C17.056,71.3395 17,71.6665 17,72.0095 C17,72.4585 17.091,72.8825 17.227,73.2855 C17.762,74.8655 19.24,76.0095 21,76.0095 C22.76,76.0095 24.238,74.8655 24.773,73.2865 C24.909,72.8835 25,72.4585 25,72.0095 C25,71.6665 24.944,71.3395 24.862,71.0225 C24.421,69.2935 22.866,68.0095 21,68.0095" id="Fill-4" opacity="0.5"></path>
                    <path d="M123,74.0095 C122.384,74.0095 121.84,73.7255 121.473,73.2875 C121.182,72.9395 121,72.4985 121,72.0095 C121,71.6485 121.103,71.3145 121.271,71.0225 C121.615,70.4195 122.256,70.0095 123,70.0095 C123.744,70.0095 124.385,70.4195 124.729,71.0225 C124.897,71.3145 125,71.6485 125,72.0095 C125,72.4985 124.818,72.9395 124.527,73.2875 C124.16,73.7255 123.616,74.0095 123,74.0095 M123,68.0095 C121.134,68.0095 119.579,69.2935 119.138,71.0225 C119.056,71.3395 119,71.6665 119,72.0095 C119,72.4595 119.091,72.8835 119.228,73.2875 C119.763,74.8655 121.24,76.0095 123,76.0095 C124.76,76.0095 126.237,74.8655 126.772,73.2875 C126.909,72.8835 127,72.4595 127,72.0095 C127,71.6665 126.944,71.3395 126.862,71.0225 C126.421,69.2935 124.866,68.0095 123,68.0095" id="Fill-6" opacity="0.5"></path>
                    <path d="M110.4297,26.5691 L118.6557,26.5691 L119.1037,26.5691 C119.7197,26.5691 120.2187,26.0621 120.2187,25.4381 C120.2187,24.8141 119.7197,24.3071 119.1037,24.3071 L118.6557,24.3071 L110.4297,24.3071 C109.8147,24.3071 109.3157,24.8141 109.3157,25.4381 C109.3157,26.0641 109.8147,26.5691 110.4297,26.5691" id="Fill-8" opacity="0.5"></path>
                    <path d="M107.4297,31.1911 L112.5397,31.1911 C113.1557,31.1911 113.6557,30.6841 113.6557,30.0601 C113.6557,29.4341 113.1557,28.9291 112.5397,28.9291 L107.4297,28.9291 C106.8147,28.9291 106.3157,29.4361 106.3157,30.0601 C106.3157,30.6861 106.8147,31.1911 107.4297,31.1911" id="Fill-10" opacity="0.5"></path>
                    <path d="M105.0106,67.0095 L42.9996,67.0095 C42.4476,67.0095 41.9996,67.4575 41.9996,68.0095 C41.9996,68.5615 42.4476,69.0095 42.9996,69.0095 L105.0106,69.0095 C105.5626,69.0095 106.0106,68.5615 106.0106,68.0095 C106.0106,67.4575 105.5626,67.0095 105.0106,67.0095" id="Fill-12"></path>
                </g>
                <g id="trailer" transform="translate(98.000000, 478.000000) rotate(-345.000000) translate(-98.000000, -478.000000) translate(38.000000, 444.000000)" fill="#262F33">
                    <path d="M54.7226,56 C54.3766,56.595 53.7386,57 52.9996,57 C52.2616,57 51.6236,56.595 51.2776,56 C51.1056,55.705 50.9996,55.366 50.9996,55 C50.9996,53.895 51.8956,53 52.9996,53 C54.1046,53 54.9996,53.895 54.9996,55 C54.9996,55.366 54.8946,55.705 54.7226,56 M52.9996,51 C50.7906,51 48.9996,52.791 48.9996,55 C48.9996,55.347 49.0586,55.679 49.1416,56 C49.3456,56.79 49.7836,57.479 50.3796,58 C51.0826,58.615 51.9926,59 52.9996,59 C54.0076,59 54.9176,58.615 55.6206,58 C56.2166,57.479 56.6536,56.79 56.8586,56 C56.9416,55.679 56.9996,55.347 56.9996,55 C56.9996,52.791 55.2096,51 52.9996,51" id="Fill-1"></path>
                    <path d="M6,54 L35,54 C35.552,54 36,53.552 36,53 C36,52.448 35.552,52 35,52 L6,52 C5.448,52 5,52.448 5,53 C5,53.552 5.448,54 6,54" id="Fill-3"></path>
                    <path d="M71,54 L99,54 C99.552,54 100,53.552 100,53 C100,52.448 99.552,52 99,52 L71,52 C70.448,52 70,52.448 70,53 C70,53.552 70.448,54 71,54" id="Fill-5"></path>
                    <path d="M104,56 L65.949,56 C65.975,55.669 66,55.338 66,55 C66,47.82 60.18,42 53,42 C45.82,42 40,47.82 40,55 C40,55.338 40.025,55.669 40.051,56 L2,56 L2,2 L104,2 L104,56 Z M63.95,56 C63.887,56.688 63.758,57.355 63.575,58 C62.268,62.615 58.034,66 53,66 C47.966,66 43.732,62.615 42.425,58 C42.242,57.355 42.113,56.688 42.05,56 C42.021,55.67 42,55.338 42,55 C42,48.925 46.925,44 53,44 C59.075,44 64,48.925 64,55 C64,55.338 63.979,55.67 63.95,56 L63.95,56 Z M117.949,50 L117.949,51 L117.949,52 L106,52 L106,2 L106,0 L104,0 L2,0 L0,0 L0,2 L0,47 L0,56 L0,58 L2,58 L40.362,58 C41.718,63.731 46.855,68 53,68 C59.145,68 64.282,63.731 65.638,58 L104,58 L106,58 L106,56 L106,54 L117.949,54 L117.949,55 L117.949,56 L119.949,56 L119.949,55 L119.949,51 L119.949,50 L117.949,50 Z" id="Fill-7"></path>
                </g>
                <g id="clock" transform="translate(189.500000, 285.500000) rotate(-30.000000) translate(-189.500000, -285.500000) translate(167.000000, 259.000000)" fill="#262F33">
                    <path d="M33.0882353,39.8797333 L32.7613235,39.5024 L25.9491176,31.6597333 C25.5057353,32.4544 24.8135294,33.0850667 23.9651471,33.4250667 L30.0057353,40.3810667 L30.7680882,41.2584 L31.6402941,42.2624 L33.6322059,40.5064 L33.0882353,39.8797333 Z" id="Fill-1" opacity="0.5"></path>
                    <path d="M22.5,49.714 C11.5358824,49.714 2.64705882,40.7593333 2.64705882,29.714 C2.64705882,18.6686667 11.5358824,9.714 22.5,9.714 C33.4641176,9.714 42.3529412,18.6686667 42.3529412,29.714 C42.3529412,40.7593333 33.4641176,49.714 22.5,49.714 M23.8235294,7.114 L23.8235294,4.38066667 L23.8235294,3.666 L27.18,3.666 L28.5035294,3.666 L28.5035294,0.999333333 L27.18,0.999333333 L18.5002941,0.999333333 L17.1767647,0.999333333 L17.1767647,3.666 L18.5002941,3.666 L21.1764706,3.666 L21.1764706,4.38066667 L21.1764706,7.114 C9.36926471,7.80866667 0,17.646 0,29.714 C0,42.2326667 10.0733824,52.3806667 22.5,52.3806667 C34.9266176,52.3806667 45,42.2326667 45,29.714 C45,17.646 35.6307353,7.80866667 23.8235294,7.114" id="Fill-3"></path>
                    <path d="M23.8235294,25.9589333 L23.8235294,19.0469333 L23.8235294,16.3802667 L23.8235294,15.0469333 L21.1764706,15.0469333 L21.1764706,16.3802667 L21.1764706,19.0469333 L21.1764706,25.9589333 C19.6372059,26.5096 18.5294118,27.9749333 18.5294118,29.7136 C18.5294118,31.9229333 20.3069118,33.7136 22.5,33.7136 C23.0188235,33.7136 23.5111765,33.6069333 23.9651471,33.4242667 C24.8135294,33.0842667 25.5057353,32.4549333 25.9491176,31.6602667 C26.2707353,31.0816 26.4705882,30.4242667 26.4705882,29.7136 C26.4705882,27.9749333 25.3627941,26.5096 23.8235294,25.9589333" id="Fill-5" opacity="0.899999976"></path>
                </g>
                <g id="cart" transform="translate(345.000000, 473.000000)" fill="#262F33">
                    <path d="M48.5986755,61.9047813 C47.3230528,61.9047813 46.2858453,60.86275 46.2858453,59.5850938 C46.2858453,58.3043906 47.3230528,57.2623594 48.5986755,57.2623594 C49.875317,57.2623594 50.9145623,58.3043906 50.9145623,59.5850938 C50.9145623,60.86275 49.875317,61.9047813 48.5986755,61.9047813 L48.5986755,61.9047813 Z M39.3819962,57.6970469 L40.6525245,54.6024375 L41.0091283,53.7310312 L42.9144113,49.0886094 L43.3036189,48.1400156 L46.0107509,49.0886094 L46.7514679,49.3475937 L49.4107132,50.2799375 L49.4107132,53.7310312 L49.4107132,54.249 C49.1437698,54.208375 48.8768264,54.1667344 48.5986755,54.1667344 C47.9466,54.1667344 47.3301849,54.3007969 46.7514679,54.5140781 C46.6628264,54.5465781 46.5690906,54.5648594 46.4824868,54.6024375 C45.1294302,55.1823594 44.0749019,56.3086875 43.557317,57.6970469 C43.4248642,58.0525156 43.3341849,58.4242344 43.2781472,58.8091562 L38.9255434,58.8091562 L39.3819962,57.6970469 Z M30.3915057,58.8091563 L29.3145623,58.8091563 L29.3145623,57.6970469 L29.3145623,53.7310313 L29.3145623,50.6394688 C29.3145623,50.4028281 29.2738075,50.1773594 29.2157321,49.959 C29.0598453,49.3679063 28.7113925,48.8600938 28.2376189,48.5056406 C27.7974679,48.1775938 27.2595057,47.9765 26.6726377,47.9765 L24.2202226,47.9765 L22.0041849,47.9765 L21.1340717,47.2686094 L17.4376189,44.2623594 L15.7585245,42.898375 L14.8578453,42.1650938 C14.551166,41.91525 14.1426,41.7994688 13.7442226,41.78525 L10.509317,41.8411094 L11.0177321,36.707125 L11.697317,29.8404844 L12.1996189,24.7623594 L17.4376189,24.7623594 L31.9340717,24.7623594 L37.4919962,24.7623594 L39.3870906,29.8404844 L41.3728642,35.1603281 L43.1059585,39.80275 L45.2272415,45.4841563 L43.9027132,45.0200156 C42.6107887,44.5731406 41.1864113,45.2343125 40.6545623,46.5282188 L39.8567887,48.4700938 L39.0376189,47.6738438 L34.4089019,43.1756406 L34.1236189,42.898375 L32.2937321,41.1200156 L33.4695057,39.9317344 C33.5092415,39.892125 33.5387887,39.8464219 33.5734302,39.80275 C34.0971283,39.1537656 34.0594302,38.2092344 33.4491283,37.6130625 C33.0354679,37.2098594 32.4618453,37.0686875 31.9340717,37.1844688 C31.6335057,37.2504844 31.3482226,37.3987656 31.1159208,37.633375 L28.2376189,40.5411094 L26.7021849,42.0909531 C26.4739585,42.3225156 26.3323358,42.6038438 26.269166,42.898375 C26.1550528,43.4275156 26.3038075,44.0013438 26.7225623,44.409625 C27.0435057,44.7234531 27.4612415,44.880875 27.8789774,44.880875 C27.9992038,44.880875 28.1194302,44.864625 28.2376189,44.8382188 C28.537166,44.7722031 28.8234679,44.6259531 29.0557698,44.3903281 L30.0664868,43.3686094 L30.3915057,43.6844688 L31.9340717,45.1845469 L34.4089019,47.5885313 L36.8470528,49.959 L38.1053547,51.1818125 L38.5628264,51.6256406 L38.1053547,52.7387656 L37.6978075,53.7310313 L37.3412038,54.6024375 L36.0706755,57.6970469 L35.6142226,58.8091563 L34.4089019,58.8091563 L30.3915057,58.8091563 Z M16.8935434,58.8091562 C16.7478453,57.8047031 16.3301094,56.89775 15.7126755,56.1492344 C14.721317,54.9487656 13.2429396,54.1667344 11.5709774,54.1667344 C10.5510906,54.1667344 9.60558113,54.468375 8.79150566,54.964 C8.27086415,55.2798594 7.81644906,55.6820469 7.43029811,56.1492344 C6.83324151,56.8723594 6.4175434,57.74275 6.25961887,58.7086094 L3.17041132,58.7086094 L3.17041132,56.1492344 L3.17041132,51.1726719 L17.4376189,51.1726719 L22.065317,51.1726719 L24.2202226,51.1726719 L26.1438453,51.1726719 L26.1438453,53.7310312 L26.1438453,56.1492344 L26.1438453,57.6970469 L26.1438453,58.8091562 L22.065317,58.8091562 L16.8935434,58.8091562 Z M11.5709774,61.9047813 C10.2953547,61.9047813 9.2571283,60.86275 9.2571283,59.5850938 C9.2571283,58.3043906 10.2953547,57.2623594 11.5709774,57.2623594 C12.8476189,57.2623594 13.8858453,58.3043906 13.8858453,59.5850938 C13.8858453,60.86275 12.8466,61.9047813 11.5709774,61.9047813 L11.5709774,61.9047813 Z M17.4376189,47.9765 L9.90309057,47.9765 L10.2179208,44.7904844 L13.1522604,44.7904844 L17.4376189,47.6626719 L17.4376189,47.9765 Z M52.4571283,55.8049375 L52.4571283,54.6024375 L52.4571283,53.7310313 L52.4571283,53.038375 L52.4571283,50.1997031 C52.4571283,49.8198594 52.3695057,49.4430625 52.2258453,49.0886094 C51.8987887,48.2801719 51.2507887,47.5936094 50.4591283,47.318375 L49.0561472,46.8268125 L46.7514679,40.6528281 L46.4346,39.80275 L44.7015057,35.1603281 L42.7157321,29.8404844 L40.8206377,24.7623594 L44.6984491,24.7623594 C45.5746755,24.7623594 46.2858453,24.0686875 46.2858453,23.2145469 C46.2858453,22.3604063 45.5746755,21.6667344 44.6984491,21.6667344 L33.6376189,21.6667344 L31.9340717,21.6667344 L18.8202226,21.6667344 L17.4376189,21.6667344 L6.21580755,21.6667344 C5.33958113,21.6667344 4.62841132,22.3604063 4.62841132,23.2145469 C4.62841132,24.0686875 5.33958113,24.7623594 6.21580755,24.7623594 L8.61116604,24.7623594 L8.10886415,29.8404844 L7.42927925,36.707125 L6.81693962,42.898375 L6.31463774,47.9765 L2.64161887,47.9765 C2.05475094,47.9765 1.51678868,48.1775938 1.07663774,48.5056406 C0.427618868,48.9911094 -0.000305660377,49.7629844 -0.000305660377,50.6394688 L-0.000305660377,59.2407969 C-0.000305660377,60.4311094 0.222826415,61.4284531 1.07663774,61.7697031 C1.27735472,61.8499375 1.50252453,61.9047813 1.7796566,61.9047813 L6.63558113,61.9047813 L6.63558113,61.7625938 C7.08592075,62.7843125 7.84599623,63.6293125 8.79150566,64.2031406 C9.60558113,64.6987656 10.5510906,65.0004063 11.5709774,65.0004063 C13.7177321,65.0004063 15.5598453,63.7278281 16.4299585,61.9047813 L22.065317,61.9047813 L30.3915057,61.9047813 L34.4089019,61.9047813 L38.1053547,61.9047813 L43.7407132,61.9047813 C44.6108264,63.7278281 46.4519208,65.0004063 48.5986755,65.0004063 C51.5758075,65.0004063 53.9996943,62.5700156 53.9996943,59.5850938 C53.9996943,58.1144688 53.4087509,56.7819688 52.4571283,55.8049375 L52.4571283,55.8049375 Z" id="Fill-1"></path>
                    <path d="M24.5921094,15.3564531 C24.2589396,15.6702813 24.0388642,16.1141094 23.955317,16.5884063 C23.9308642,16.7275469 23.9145623,16.8677031 23.9145623,17.008875 C23.9145623,17.5999688 24.1611283,18.1920781 24.5921094,18.6602813 C24.7276189,18.7973906 24.8824868,18.9080938 25.0455057,19.0066094 C25.4000717,19.2209063 25.8045623,19.3448125 26.2284113,19.3448125 C26.6420717,19.3448125 27.0394302,19.2229375 27.3889019,19.0066094 C27.5590528,18.9009844 27.7210528,18.7811406 27.8616566,18.6277813 C28.2956943,18.1920781 28.5432792,17.5989531 28.5432792,17.008875 C28.5432792,16.8677031 28.5259585,16.7275469 28.5015057,16.5884063 C28.4179585,16.1141094 28.197883,15.6702813 27.8616566,15.3564531 C26.9996943,14.4840313 25.4245245,14.4840313 24.5921094,15.3564531" id="Fill-4" opacity="0.5"></path>
                    <path d="M33.6372113,13.9277734 C34.1109849,13.9298047 34.5847585,13.7652734 34.9464566,13.4331641 C35.6657774,12.7730078 35.6657774,11.7045703 34.9464566,11.0444141 C34.5338151,10.6645703 34.0916264,10.3304297 33.6372113,10.0166016 C33.4446453,9.88355469 33.254117,9.74542969 33.0554377,9.62457031 C28.9381925,7.11191406 23.5239283,7.11292969 19.4046453,9.62457031 C19.2049472,9.74644531 19.0134,9.88355469 18.8198151,10.0176172 C18.3664189,10.3304297 17.9252491,10.6635547 17.5126075,11.0413672 C16.7922679,11.7015234 16.7922679,12.7709766 17.5075132,13.4311328 C17.8671736,13.7632422 18.3389094,13.9287891 18.8106453,13.9287891 C18.8137019,13.9287891 18.8167585,13.9277734 18.8198151,13.9277734 C19.2864566,13.9257422 19.7520792,13.7612109 20.1076642,13.4362109 C23.4903057,10.3385547 28.9789472,10.3405859 32.3452868,13.4331641 C32.7029094,13.7612109 33.1695509,13.9257422 33.6372113,13.9277734" id="Fill-6" opacity="0.5"></path>
                    <path d="M14.2688377,9.28575781 C14.7629887,9.28575781 15.254083,9.09380469 15.6310642,8.71192969 C21.8991396,2.33482031 32.1000453,2.32669531 38.3691396,8.70380469 C38.968234,9.31317969 39.8607623,9.42896094 40.580083,9.06841406 C40.7644981,8.97599219 40.9397434,8.86021094 41.0925736,8.70380469 C41.845517,7.93903906 41.845517,6.69896094 41.0925736,5.93317969 C40.9285358,5.76661719 40.7492151,5.62036719 40.580083,5.45989844 C39.4338566,4.37114844 38.1867623,3.43372656 36.854083,2.65982031 C33.884083,0.935289063 30.5187623,-0.0001015625 27.0046868,-0.0001015625 C23.4916302,-0.0001015625 20.1263094,0.935289063 17.1563094,2.65982031 C15.6229132,3.54950781 14.189366,4.63724219 12.9066113,5.94130469 C12.1546868,6.70708594 12.1546868,7.94614844 12.9066113,8.71192969 C13.2835925,9.09380469 13.7746868,9.28575781 14.2688377,9.28575781" id="Fill-8" opacity="0.5"></path>
                </g>
                <g id="van" transform="translate(427.000000, 237.000000)" fill="#262F33">
                    <path d="M144.1973,52.7578 L132.9093,52.6088 C132.9193,52.4058 132.9403,52.2058 132.9403,51.9998 C132.9403,44.8208 127.1203,38.9998 119.9403,38.9998 C112.7603,38.9998 106.9403,44.8208 106.9403,51.9998 C106.9403,52.0898 106.9523,52.1768 106.9543,52.2668 L65.9403,51.7248 L65.9403,25.2248 L66.4173,25.2378 L90.8503,25.5258 C90.8523,25.5258 101.5193,25.6208 101.5193,25.6208 C109.0253,25.2518 111.7963,26.3578 116.6303,22.9998 C118.3123,24.1878 120.0103,25.3228 121.7453,26.2978 C121.8483,26.3558 121.9573,26.3968 122.0713,26.4218 L133.6343,28.9108 C138.9583,30.0298 145.6663,31.1018 146.2443,36.3488 C146.2443,36.3488 147.8333,43.2038 144.1973,52.7578 L144.1973,52.7578 Z M127.4233,60.0468 C125.4593,61.8738 122.8343,62.9998 119.9403,62.9998 C117.0463,62.9998 114.4223,61.8738 112.4583,60.0468 C110.8743,58.5738 109.7273,56.6448 109.2273,54.4628 C109.0663,53.7618 108.9753,53.0368 108.9553,52.2928 C108.9523,52.1948 108.9403,52.0988 108.9403,51.9998 C108.9403,45.9248 113.8653,40.9998 119.9403,40.9998 C126.0153,40.9998 130.9403,45.9248 130.9403,51.9998 C130.9403,52.1968 130.9213,52.3888 130.9113,52.5828 C130.8713,53.3488 130.7533,54.0928 130.5643,54.8098 C130.0263,56.8488 128.9213,58.6528 127.4233,60.0468 L127.4233,60.0468 Z M30.4233,60.0468 C28.4593,61.8738 25.8343,62.9998 22.9403,62.9998 C20.0463,62.9998 17.4223,61.8738 15.4583,60.0468 C13.5003,58.2258 12.2083,55.7058 11.9843,52.8778 C11.9613,52.5878 11.9403,52.2968 11.9403,51.9998 C11.9403,51.6668 11.9613,51.3388 11.9903,51.0138 C12.4903,45.4008 17.1983,40.9998 22.9403,40.9998 C28.7803,40.9998 33.5433,45.5538 33.9053,51.3028 C33.9203,51.5338 33.9403,51.7648 33.9403,51.9998 C33.9403,52.4178 33.9123,52.8288 33.8673,53.2348 C33.5673,55.9178 32.2983,58.3028 30.4233,60.0468 L30.4233,60.0468 Z M1.9433,25.6208 L63.9403,25.1778 L63.9403,51.6988 L35.9063,51.3288 C35.5553,44.4628 29.8933,38.9998 22.9403,38.9998 C16.1023,38.9998 10.5103,44.2818 9.9913,50.9868 L1.9433,50.8808 L1.9433,25.6208 Z M6.2103,2.8788 L62.0243,2.0098 C62.0243,2.0098 64.1013,21.5888 63.8023,22.9708 L2.0003,22.9708 C2.0003,22.9708 2.8353,2.8788 6.2103,2.8788 L6.2103,2.8788 Z M80.3443,1.9998 C89.6143,1.9998 97.5253,7.5758 105.0793,13.6508 L95.1943,22.9998 L65.9133,22.9998 C65.9133,22.9998 65.7093,20.3828 65.4353,16.9998 C65.2843,15.1418 65.1123,13.0568 64.9403,11.0408 C64.5423,6.3648 64.1463,2.0818 64.0253,1.9998 L80.3443,1.9998 Z M108.5323,15.9448 C110.6813,17.7108 112.8663,19.5018 115.0923,21.1918 C112.4013,22.8868 110.3833,22.9038 106.7453,22.9038 C105.3293,22.9038 103.7213,22.9038 101.8373,22.9998 L98.6273,22.9998 L107.3783,14.9998 C107.7633,15.3148 108.1483,15.6298 108.5323,15.9448 L108.5323,15.9448 Z M148.7333,37.8398 C148.4863,30.0398 140.3563,27.9688 134.6253,26.7528 L123.2313,24.2738 C118.7153,21.6828 114.3113,18.0928 110.0503,14.6178 C101.2403,7.4318 92.1293,-0.0002 80.7673,-0.0002 L55.1103,-0.0002 L5.1253,1.1298 C-1.0307,1.2498 0.0773,52.6838 0.0773,52.6838 L9.9833,52.8458 C10.1583,55.5578 11.1573,58.0408 12.7433,60.0468 C15.1233,63.0598 18.8023,64.9998 22.9403,64.9998 C27.0783,64.9998 30.7573,63.0598 33.1383,60.0468 C34.6413,58.1438 35.6293,55.8168 35.8763,53.2678 L107.1753,54.4288 C107.5723,56.5238 108.4713,58.4378 109.7433,60.0468 C112.1233,63.0598 115.8023,64.9998 119.9403,64.9998 C124.0783,64.9998 127.7573,63.0598 130.1383,60.0468 C131.3253,58.5448 132.1873,56.7768 132.6193,54.8438 L145.0933,55.0468 C145.6173,55.0468 146.0783,54.6948 146.2123,54.1898 C146.2123,54.1898 147.3033,50.6468 148.3493,46.2248 C149.3963,41.8028 148.7333,37.8398 148.7333,37.8398 L148.7333,37.8398 Z" id="Fill-1"></path>
                    <path d="M22.9405,54 C22.2135,54 21.5835,53.609 21.2335,53.029 C21.0515,52.727 20.9405,52.378 20.9405,52 C20.9405,51.688 21.0175,51.397 21.1455,51.134 C21.4685,50.465 22.1475,50 22.9405,50 C23.7525,50 24.4485,50.486 24.7615,51.182 C24.8745,51.432 24.9405,51.708 24.9405,52 C24.9405,52.4 24.8205,52.771 24.6175,53.084 C24.2615,53.634 23.6445,54 22.9405,54 M22.9405,48 C21.0395,48 19.4555,49.329 19.0485,51.107 C18.9825,51.395 18.9405,51.692 18.9405,52 C18.9405,52.345 18.9975,52.674 19.0805,52.994 C19.5235,54.719 21.0765,56 22.9405,56 C24.7585,56 26.2755,54.78 26.7625,53.119 C26.8665,52.762 26.9405,52.391 26.9405,52 C26.9405,51.729 26.9125,51.465 26.8605,51.21 C26.4935,49.379 24.8785,48 22.9405,48" id="Fill-4"></path>
                    <path d="M119.9405,54 C118.9775,54 118.1735,53.319 117.9835,52.412 C117.9565,52.279 117.9405,52.141 117.9405,52 C117.9405,50.895 118.8355,50 119.9405,50 C121.0455,50 121.9405,50.895 121.9405,52 C121.9405,52.16 121.9165,52.314 121.8815,52.463 C121.6715,53.344 120.8845,54 119.9405,54 M119.9405,48 C117.7315,48 115.9405,49.791 115.9405,52 C115.9405,52.132 115.9665,52.257 115.9795,52.385 C116.0605,53.224 116.3945,53.982 116.9135,54.588 C117.6475,55.445 118.7235,56 119.9405,56 C121.1115,56 122.1555,55.488 122.8875,54.685 C123.4305,54.089 123.7875,53.332 123.8915,52.49 C123.9115,52.328 123.9405,52.168 123.9405,52 C123.9405,49.791 122.1495,48 119.9405,48" id="Fill-6"></path>
                    <path d="M71.0695,12 L83.8115,12 C84.4355,12 84.9405,11.552 84.9405,11 C84.9405,10.447 84.4335,10 83.8115,10 L71.0695,10 C70.4455,10 69.9405,10.449 69.9405,11 C69.9405,11.552 70.4475,12 71.0695,12" id="Fill-8" opacity="0.5"></path>
                    <path d="M74.9405,15 C74.9405,15.552 75.4455,16 76.0675,16 L88.8115,16 C89.4355,16 89.9405,15.551 89.9405,15 C89.9405,14.447 89.4335,14 88.8115,14 L76.0675,14 C75.4455,14 74.9405,14.447 74.9405,15" id="Fill-10" opacity="0.5"></path>
                </g>
            </g>
        </g>
    </g>
</svg>