<?xml version="1.0" encoding="UTF-8" standalone="no"?>
<svg width="800px" height="600px" viewBox="0 0 800 600" version="1.1" xmlns="http://www.w3.org/2000/svg" xmlns:xlink="http://www.w3.org/1999/xlink">
    <!-- Generator: Sketch 39.1 (31720) - http://www.bohemiancoding.com/sketch -->
    <title>ember-intro</title>
    <desc>Created with Sketch.</desc>
    <defs></defs>
    <g id="Page-1" stroke="none" stroke-width="1" fill="none" fill-rule="evenodd" opacity="0.200000003">
        <g id="ember-intro" fill="#8F3D30">
            <g id="Group" transform="translate(62.000000, 43.000000)">
                <path d="M18.3912666,59.0405333 L18.3912666,53 L11.5417333,53 C10.9304858,53 10.2383483,53.1528096 9.46529997,53.4584333 C8.69225167,53.7640571 7.97314775,54.213497 7.30796665,54.8067667 C6.64278554,55.4000363 6.07649121,56.1550954 5.60906665,57.0719667 C5.14164209,57.9888379 4.90793332,59.058505 4.90793332,60.281 L4.90793332,70.4204666 C4.90793332,71.31936 4.72815734,72.0834079 4.36859999,72.7126333 C4.00904264,73.3418586 3.57758028,73.8452314 3.07419999,74.2227666 C2.5708197,74.6003018 2.03149176,74.8699658 1.4562,75.0317666 C0.880908232,75.1935674 0.395513088,75.2744666 1.13686838e-13,75.2744666 L1.13686838e-13,79.9666666 C0.395513088,79.9666666 0.880908232,80.0475658 1.4562,80.2093666 C2.03149176,80.3711674 2.5708197,80.6228538 3.07419999,80.9644333 C3.57758028,81.3060127 4.00904264,81.7644415 4.36859999,82.3397333 C4.72815734,82.915025 4.90793332,83.6161513 4.90793332,84.4431332 L4.90793332,94.9061999 C4.90793332,96.1286949 5.14164209,97.198362 5.60906665,98.1152332 C6.07649121,99.0321045 6.64278554,99.7871636 7.30796665,100.380433 C7.97314775,100.973703 8.69225167,101.423143 9.46529997,101.728767 C10.2383483,102.03439 10.9304858,102.1872 11.5417333,102.1872 L18.3912666,102.1872 L18.3912666,96.1466665 L15.4788666,96.1466665 C14.8316634,96.1466665 14.3193018,96.0208234 13.9417666,95.7691332 C13.5642314,95.5174431 13.267601,95.2028351 13.0518666,94.8252999 C12.8361322,94.4477647 12.7013002,94.0252911 12.6473666,93.5578666 C12.593433,93.090442 12.5664666,92.6589796 12.5664666,92.2634666 L12.5664666,83.6341332 C12.5664666,82.4835497 12.3597243,81.5397258 11.9462333,80.8026333 C11.5327423,80.0655407 11.0473472,79.4722799 10.4900333,79.0228333 C9.93271941,78.5733866 9.34844747,78.2497898 8.73719998,78.0520333 C8.12595248,77.8542767 7.62257973,77.7374223 7.22706665,77.7014666 L7.22706665,77.5396666 C7.62257973,77.5037109 8.12595248,77.3958453 8.73719998,77.2160666 C9.34844747,77.0362879 9.93271941,76.72168 10.4900333,76.2722333 C11.0473472,75.8227866 11.5327423,75.1935706 11.9462333,74.3845666 C12.3597243,73.5755626 12.5664666,72.5058955 12.5664666,71.1755333 L12.5664666,62.9776666 C12.5664666,62.5461978 12.593433,62.0967579 12.6473666,61.6293333 C12.7013002,61.1619088 12.8361322,60.7394352 13.0518666,60.3619 C13.267601,59.9843648 13.5642314,59.6697568 13.9417666,59.4180666 C14.3193018,59.1663765 14.8316634,59.0405333 15.4788666,59.0405333 L18.3912666,59.0405333 Z" id="{"></path>
                <path d="M366.391267,179.040533 L366.391267,173 L359.541733,173 C358.930486,173 358.238348,173.15281 357.4653,173.458433 C356.692252,173.764057 355.973148,174.213497 355.307967,174.806767 C354.642786,175.400036 354.076491,176.155095 353.609067,177.071967 C353.141642,177.988838 352.907933,179.058505 352.907933,180.281 L352.907933,190.420467 C352.907933,191.31936 352.728157,192.083408 352.3686,192.712633 C352.009043,193.341859 351.57758,193.845231 351.0742,194.222767 C350.57082,194.600302 350.031492,194.869966 349.4562,195.031767 C348.880908,195.193567 348.395513,195.274467 348,195.274467 L348,199.966667 C348.395513,199.966667 348.880908,200.047566 349.4562,200.209367 C350.031492,200.371167 350.57082,200.622854 351.0742,200.964433 C351.57758,201.306013 352.009043,201.764441 352.3686,202.339733 C352.728157,202.915025 352.907933,203.616151 352.907933,204.443133 L352.907933,214.9062 C352.907933,216.128695 353.141642,217.198362 353.609067,218.115233 C354.076491,219.032104 354.642786,219.787164 355.307967,220.380433 C355.973148,220.973703 356.692252,221.423143 357.4653,221.728767 C358.238348,222.03439 358.930486,222.1872 359.541733,222.1872 L366.391267,222.1872 L366.391267,216.146667 L363.478867,216.146667 C362.831663,216.146667 362.319302,216.020823 361.941767,215.769133 C361.564231,215.517443 361.267601,215.202835 361.051867,214.8253 C360.836132,214.447765 360.7013,214.025291 360.647367,213.557867 C360.593433,213.090442 360.566467,212.65898 360.566467,212.263467 L360.566467,203.634133 C360.566467,202.48355 360.359724,201.539726 359.946233,200.802633 C359.532742,200.065541 359.047347,199.47228 358.490033,199.022833 C357.932719,198.573387 357.348447,198.24979 356.7372,198.052033 C356.125952,197.854277 355.62258,197.737422 355.227067,197.701467 L355.227067,197.539667 C355.62258,197.503711 356.125952,197.395845 356.7372,197.216067 C357.348447,197.036288 357.932719,196.72168 358.490033,196.272233 C359.047347,195.822787 359.532742,195.193571 359.946233,194.384567 C360.359724,193.575563 360.566467,192.505895 360.566467,191.175533 L360.566467,182.977667 C360.566467,182.546198 360.593433,182.096758 360.647367,181.629333 C360.7013,181.161909 360.836132,180.739435 361.051867,180.3619 C361.267601,179.984365 361.564231,179.669757 361.941767,179.418067 C362.319302,179.166377 362.831663,179.040533 363.478867,179.040533 L366.391267,179.040533 Z" id="{"></path>
                <polygon id="&gt;" points="240 479.457045 240 491.7568 268.3336 470.918372 268.3336 460.14338 240 439 240 451.604707 258.926397 465.530876"></polygon>
                <polygon id="&gt;" points="583 40.457045 583 52.7567999 611.3336 31.9183722 611.3336 21.1433803 583 0 583 12.6047075 601.926397 26.5308763"></polygon>
                <path d="M580,386 L570,386 L570,397.818182 L580,397.818182 L580,386 Z M580,413.651515 L570,413.651515 L570,425.469697 L573.939394,425.469697 L573.939394,426.454545 C573.939394,427.868694 573.611114,429.15656 572.954545,430.318182 C572.297977,431.479804 571.313138,432.186867 570,432.439394 L570,437.742424 C572.020212,437.540403 573.674236,437.047984 574.962121,436.265152 C576.250006,435.482319 577.272723,434.472228 578.030303,433.234848 C578.787883,431.997469 579.305554,430.532837 579.583333,428.840909 C579.861113,427.148981 580,425.368696 580,423.5 L580,413.651515 Z" id=";"></path>
                <path d="M112.89019,222 L104,222 L104,232.506589 L112.89019,232.506589 L112.89019,222 Z M112.89019,246.582723 L104,246.582723 L104,257.089312 L107.502196,257.089312 L107.502196,257.964861 C107.502196,259.222066 107.210349,260.367003 106.626647,261.399707 C106.042945,262.432411 105.167405,263.061004 104,263.285505 L104,268 C105.796007,267.820399 107.266466,267.382629 108.41142,266.686676 C109.556375,265.990724 110.46559,265.092734 111.139092,263.992679 C111.812595,262.892625 112.272815,261.590539 112.519766,260.086384 C112.766717,258.582228 112.89019,256.99952 112.89019,255.338214 L112.89019,246.582723 Z" id=";"></path>
                <path d="M628.462937,223.84913 C628.462937,223.84913 627.857123,221.671017 630.111316,217.481037 C632.365508,213.291057 634.126596,215.58188 634.126596,215.58188 C634.126596,215.58188 636.048295,217.705047 633.850457,220.889094 C631.65262,224.073141 628.464346,223.847721 628.464346,223.847721 L628.462937,223.84913 Z M611.15074,226.864113 C608.568281,233.735173 602.303035,230.942792 602.303035,230.942792 C602.303035,230.942792 601.588737,228.485722 603.621737,221.616071 C605.654737,214.743602 610.436443,217.424682 610.436443,217.424682 C610.436443,217.424682 613.733199,219.994461 611.15074,226.864113 L611.15074,226.864113 Z M606.480335,198.099209 C606.480335,198.099209 610.382906,187.766554 611.315578,192.793403 C612.249659,197.82307 603.125815,212.792317 603.125815,212.792317 C603.235707,209.439205 606.478926,198.100618 606.478926,198.100618 L606.480335,198.099209 Z M550.6933,223.84913 C550.859546,217.20208 555.14533,214.29699 556.630279,215.748126 C558.115228,217.20208 557.565769,220.329772 554.762117,222.285284 C551.958465,224.239387 550.694708,223.84913 550.694708,223.84913 L550.6933,223.84913 Z M668.91442,222.745985 C668.694636,220.511517 666.716583,221.34275 666.716583,221.34275 C666.716583,221.34275 663.529718,223.853357 660.726066,223.574401 C657.922414,223.292627 658.801549,216.924533 658.801549,216.924533 C658.801549,216.924533 659.407364,211.087584 657.758986,210.598706 C656.110607,210.108419 654.07479,212.120285 654.07479,212.120285 C654.07479,212.120285 651.545868,214.966203 650.337057,218.598271 L650.007381,218.71098 C650.007381,218.71098 650.392003,212.342887 649.951027,210.891751 C649.621351,210.163365 646.597915,210.219719 646.104811,211.504609 C645.611706,212.789499 643.191267,221.725963 643.026429,225.469331 C643.026429,225.469331 638.29967,229.546602 634.178724,230.217224 C630.05637,230.886437 629.067343,228.261712 629.067343,228.261712 C629.067343,228.261712 640.279132,225.077665 639.894511,215.973546 C639.509889,206.868017 630.85379,210.233808 629.873217,210.983327 C628.925047,211.706078 623.865794,214.80841 622.392116,223.395474 C622.339987,223.691337 622.251229,224.966364 622.251229,224.966364 C622.251229,224.966364 617.911908,227.924992 615.491469,228.708324 C615.491469,228.708324 622.251229,217.145726 614.007929,211.894866 C610.271605,209.605452 607.304524,214.408291 607.304524,214.408291 C607.304524,214.408291 618.462776,201.784813 615.987391,191.115439 C614.809576,186.036462 612.31024,185.491229 610.016599,186.311191 C606.53669,187.710199 605.215169,189.777012 605.215169,189.777012 C605.215169,189.777012 600.706785,196.424062 599.664221,206.311513 C598.618839,216.197556 597.080353,228.15182 597.080353,228.15182 C597.080353,228.15182 594.936052,230.273579 592.957998,230.386288 C590.979944,230.498998 591.859079,224.408452 591.859079,224.408452 C591.859079,224.408452 593.397566,215.138086 593.287674,213.57424 C593.177782,212.010394 593.06789,211.172116 591.254674,210.612794 C589.441458,210.054882 587.464813,212.402059 587.464813,212.402059 C587.464813,212.402059 582.242131,220.443891 581.801155,221.672426 L581.527834,222.175392 L581.253104,221.84149 C581.253104,221.84149 584.9373,210.894568 581.419351,210.725504 C577.901402,210.556439 575.593672,214.635119 575.593672,214.635119 C575.593672,214.635119 571.58121,221.449824 571.416372,222.231747 L571.141642,221.896436 C571.141642,221.896436 572.790021,213.964497 572.460345,212.010394 C572.12926,210.054882 570.316044,210.446548 570.316044,210.446548 C570.316044,210.446548 568.008315,210.164774 567.402501,211.675082 C566.796686,213.182574 564.598849,223.181326 564.325528,226.365373 C564.325528,226.365373 558.554796,230.553944 554.762117,230.60889 C550.969438,230.665245 551.352651,228.1645 551.352651,228.1645 C551.352651,228.1645 565.2582,223.326439 561.468339,213.774299 C559.763606,211.317229 557.785552,210.545168 554.981901,210.601523 C552.178249,210.657878 548.698339,212.395015 546.446965,217.533165 C545.371997,219.987417 544.978922,222.312053 544.759138,224.073141 C544.759138,224.073141 542.32461,224.577516 541.005908,223.460282 C539.687205,222.343048 539.00813,223.460282 539.00813,223.460282 C539.00813,223.460282 536.745484,226.392141 538.999676,227.285365 C541.251051,228.178589 544.769,228.595614 544.769,228.595614 L544.766182,228.595614 C545.090223,230.15946 546.029939,232.816589 548.773009,234.93553 C552.895364,238.119577 560.808988,234.642485 560.808988,234.642485 L564.04939,232.792639 C564.04939,232.792639 564.162099,235.816074 566.523366,236.258459 C568.88745,236.699436 569.876477,236.251415 573.998831,226.086416 C576.416453,220.890503 576.58129,221.169459 576.58129,221.169459 L576.85602,221.113104 C576.85602,221.113104 574.987858,231.055502 575.700746,233.736582 C576.416453,236.417662 579.54978,236.137297 579.54978,236.137297 C579.54978,236.137297 581.254513,236.472608 582.626753,231.558468 C583.998992,226.640102 586.639215,221.221587 586.639215,221.221587 L586.968891,221.221587 C586.968891,221.221587 585.813617,231.389404 587.574705,234.629805 C589.331566,237.870207 593.893488,235.718862 593.893488,235.718862 C593.893488,235.718862 597.081761,234.084573 597.576275,233.581606 C597.576275,233.581606 601.3605,236.854412 606.695892,236.261277 C618.626205,233.87606 622.869723,230.653974 622.869723,230.653974 C622.869723,230.653974 624.91822,235.930193 631.266589,236.419071 C638.522271,236.976983 642.478379,232.340391 642.478379,232.340391 C642.478379,232.340391 642.422024,235.355374 644.952355,236.417662 C647.479868,237.478541 649.183192,231.514793 649.183192,231.514793 L653.415439,219.65915 L653.801469,219.65915 C653.801469,219.65915 654.021253,227.369897 658.197144,228.598432 C662.375853,229.826967 667.81691,225.721519 667.81691,225.721519 C667.81691,225.721519 669.135613,224.981862 668.915829,222.748803 L668.91442,222.745985 Z" id="Shape"></path>
                <path d="M89.8131473,404.271548 C89.8131473,404.271548 89.2116846,402.10908 91.4496853,397.949196 C93.687686,393.789313 95.436124,396.063681 95.436124,396.063681 C95.436124,396.063681 97.3440196,398.171598 95.1619689,401.332774 C92.9799183,404.49395 89.8145461,404.270149 89.8145461,404.270149 L89.8131473,404.271548 Z M72.6253022,407.264874 C70.0613927,414.08658 63.8411496,411.314257 63.8411496,411.314257 C63.8411496,411.314257 63.1319831,408.874836 65.15038,402.054529 C67.1687768,395.231424 71.9161357,397.893246 71.9161357,397.893246 C71.9161357,397.893246 75.1892117,400.444567 72.6253022,407.264874 L72.6253022,407.264874 Z M67.9884445,378.706587 C67.9884445,378.706587 71.8629832,368.448151 72.788956,373.438893 C73.7163275,378.432432 64.6580198,393.294155 64.6580198,393.294155 C64.7671223,389.965129 67.9870458,378.707986 67.9870458,378.707986 L67.9884445,378.706587 Z M12.6021243,404.271548 C12.7671768,397.672244 17.0221756,394.78802 18.4964585,396.228733 C19.9707415,397.672244 19.4252288,400.77747 16.6417155,402.718935 C13.8582021,404.659002 12.603523,404.271548 12.603523,404.271548 L12.6021243,404.271548 Z M129.974069,403.176327 C129.755864,400.957909 127.792019,401.783171 127.792019,401.783171 C127.792019,401.783171 124.628045,404.275744 121.844532,403.998792 C119.061019,403.719042 119.933839,397.39669 119.933839,397.39669 C119.933839,397.39669 120.535301,391.601667 118.898764,391.116301 C117.262226,390.629535 115.241031,392.626951 115.241031,392.626951 C115.241031,392.626951 112.730274,395.452427 111.530146,399.058405 L111.202839,399.170305 C111.202839,399.170305 111.584698,392.847954 111.146889,391.407241 C110.819581,390.684087 107.817863,390.740037 107.3283,392.015697 C106.838737,393.291357 104.435684,402.163631 104.27203,405.880111 C104.27203,405.880111 99.5792227,409.928095 95.4878778,410.5939 C91.395134,411.258307 90.4132112,408.652435 90.4132112,408.652435 C90.4132112,408.652435 101.544467,405.491259 101.162608,396.452533 C100.780749,387.412409 92.1868268,390.754024 91.2132965,391.498159 C90.2719375,392.215718 85.2490247,395.295767 83.7859318,403.821151 C83.734178,404.114888 83.6460567,405.380757 83.6460567,405.380757 C83.6460567,405.380757 79.3379054,408.318133 76.9348522,409.095838 C76.9348522,409.095838 83.6460567,397.616294 75.461968,392.403151 C71.7524819,390.130182 68.8067135,394.898522 68.8067135,394.898522 C68.8067135,394.898522 79.8848169,382.365718 77.4272124,371.772981 C76.257857,366.730486 73.7764738,366.189169 71.4993081,367.003242 C68.0443946,368.392201 66.7323667,370.444168 66.7323667,370.444168 C66.7323667,370.444168 62.2563653,377.043473 61.22129,386.859903 C60.1834172,396.674935 58.6559818,408.543332 58.6559818,408.543332 C58.6559818,408.543332 56.5270836,410.64985 54.563238,410.76175 C52.5993925,410.87365 53.4722127,404.826852 53.4722127,404.826852 C53.4722127,404.826852 54.9996482,395.623074 54.8905456,394.070461 C54.7814431,392.517848 54.6723406,391.685592 52.8721488,391.130288 C51.071957,390.576383 49.1095102,392.906701 49.1095102,392.906701 C49.1095102,392.906701 43.9243424,400.890768 43.4865335,402.110479 L43.2151759,402.609833 L42.9424196,402.278329 C42.9424196,402.278329 46.6001519,391.410038 43.1074721,391.242188 C39.6147923,391.074338 37.3236391,395.123721 37.3236391,395.123721 C37.3236391,395.123721 33.3399979,401.889476 33.1763441,402.665783 L32.9035878,402.33288 C32.9035878,402.33288 34.5401258,394.457915 34.2128182,392.517848 C33.8841119,390.576383 32.0839201,390.965236 32.0839201,390.965236 C32.0839201,390.965236 29.7927669,390.685485 29.1913042,392.184946 C28.5898415,393.681609 26.4077909,403.608541 26.1364333,406.769716 C26.1364333,406.769716 20.4071516,410.928201 16.6417155,410.982753 C12.8762793,411.038703 13.2567394,408.555921 13.2567394,408.555921 C13.2567394,408.555921 27.0624061,403.752612 23.2997674,394.269084 C21.6072794,391.829663 19.6434339,391.063148 16.8599205,391.119098 C14.0764072,391.175048 10.6214937,392.899707 8.38629049,398.00095 C7.31904392,400.437573 6.92879256,402.745512 6.71058749,404.49395 C6.71058749,404.49395 4.29354677,404.994702 2.98431638,403.885493 C1.67508599,402.776284 1.00088829,403.885493 1.00088829,403.885493 C1.00088829,403.885493 -1.24550489,406.796293 0.992495783,407.683101 C3.22769895,408.569908 6.72037874,408.983938 6.72037874,408.983938 L6.71758124,408.983938 C7.03929384,410.536551 7.97226037,413.174595 10.6956274,415.278315 C14.7883712,418.439491 22.6451523,414.987375 22.6451523,414.987375 L25.8622782,413.150816 C25.8622782,413.150816 25.9741782,416.152534 28.3184839,416.591742 C30.6655871,417.029551 31.6475099,416.584748 35.7402537,406.492764 C38.1405094,401.334172 38.3041632,401.611125 38.3041632,401.611125 L38.5769195,401.555175 C38.5769195,401.555175 36.7221765,411.426157 37.4299442,414.087979 C38.1405094,416.749801 41.2513303,416.471449 41.2513303,416.471449 C41.2513303,416.471449 42.9438183,416.804352 44.3062012,411.925511 C45.6685841,407.042473 48.2898424,401.662879 48.2898424,401.662879 L48.61715,401.662879 C48.61715,401.662879 47.4701747,411.75766 49.2186127,414.974786 C50.9628545,418.191912 55.4920083,416.056021 55.4920083,416.056021 C55.4920083,416.056021 58.6573805,414.43347 59.1483419,413.934116 C59.1483419,413.934116 62.9053855,417.183413 68.2024534,416.594539 C80.0470719,414.226455 84.2601082,411.027513 84.2601082,411.027513 C84.2601082,411.027513 86.2938913,416.265833 92.5966607,416.751199 C99.8002253,417.305105 103.727916,412.701817 103.727916,412.701817 C103.727916,412.701817 103.671966,415.695143 106.184122,416.749801 C108.69348,417.80306 110.38457,411.882149 110.38457,411.882149 L114.586416,400.111665 L114.969674,400.111665 C114.969674,400.111665 115.187879,407.767026 119.333775,408.986736 C123.482469,410.206446 128.884443,406.130488 128.884443,406.130488 C128.884443,406.130488 130.193673,405.396144 129.975468,403.179124 L129.974069,403.176327 Z" id="Shape"></path>
            </g>
        </g>
    </g>
</svg>