<?xml version="1.0" encoding="UTF-8"?>
<svg width="900px" height="400px" viewBox="0 0 900 400" version="1.1" xmlns="http://www.w3.org/2000/svg" xmlns:xlink="http://www.w3.org/1999/xlink">
    <!-- Generator: Sketch 43.2 (39069) - http://www.bohemiancoding.com/sketch -->
    <title>Artboard 3</title>
    <desc>Created with Sketch.</desc>
    <defs>
        <rect id="path-1" x="0" y="0" width="272.386845" height="123.492312"></rect>
    </defs>
    <g id="Page-1" stroke="none" stroke-width="1" fill="none" fill-rule="evenodd">
        <g id="Artboard-3">
            <g id="Einstein" transform="translate(310.000000, 88.000000)">
                <g id="Rectangle-4" transform="translate(0.000000, 188.576098)">
                    <mask id="mask-2" fill="white">
                        <use xlink:href="#path-1"></use>
                    </mask>
                    <g id="Mask"></g>
                    <rect fill="#38677E" mask="url(#kitmath-congrats-mask-2)" x="35.3094058" y="41.7203757" width="201.768033" height="250.322254" rx="100"></rect>
                    <rect id="Rectangle-6" fill="#FFFFFF" mask="url(#kitmath-congrats-mask-2)" transform="translate(170.504434, 68.507766) rotate(-60.000000) translate(-170.504434, -68.507766) " x="132.672928" y="51.8196161" width="75.6630125" height="33.3763006"></rect>
                    <rect id="Rectangle-6" fill="#FFFFFF" mask="url(#kitmath-congrats-mask-2)" transform="translate(104.095918, 69.231745) scale(-1, 1) rotate(-60.000000) translate(-104.095918, -69.231745) " x="66.2644121" y="52.543595" width="75.6630125" height="33.3763006"></rect>
                </g>
                <rect id="Rectangle-4" fill="#FBDECC" x="35.3094058" y="31.7074855" width="201.768033" height="250.322254" rx="100"></rect>
                <g id="Group-3" transform="translate(85.751414, 145.186907)">
                    <g id="Page-1" transform="translate(15.000000, 52.000000)">
                        <path d="M5.9902,8.7617 L64.6282,8.7617 C67.2602,8.7617 69.4902,7.0577 70.2942,4.6917 C70.5022,3.1567 70.6182,1.5917 70.6182,-0.0003 L0.0002,-0.0003 C0.0002,1.5937 0.1172,3.1587 0.3242,4.6977 C1.1302,7.0637 3.3592,8.7617 5.9902,8.7617" id="Fill-1" fill="#FFFFFF"></path>
                        <path d="M64.6284,8.7617 L5.9904,8.7617 C3.3594,8.7617 1.1294,7.0637 0.3244,4.6977 C0.6924,7.4167 1.3724,10.0367 2.3304,12.5227 C2.4904,12.9387 2.6534,13.3537 2.8294,13.7617 C4.9094,18.5917 8.0544,22.8587 11.9664,26.2837 C18.1904,20.8347 26.3574,17.5227 35.3094,17.5227 C44.2604,17.5227 52.4284,20.8347 58.6514,26.2837 C62.5644,22.8587 65.7094,18.5917 67.7894,13.7617 C67.9644,13.3537 68.1284,12.9387 68.2884,12.5227 C69.2474,10.0357 69.9274,7.4137 70.2944,4.6917 C69.4904,7.0577 67.2594,8.7617 64.6284,8.7617" id="Fill-4" fill="#805641"></path>
                        <path d="M11.9668,26.2842 C18.1908,31.7322 26.3578,35.0452 35.3098,35.0452 C44.2608,35.0452 52.4278,31.7322 58.6518,26.2842 C52.4278,20.8352 44.2608,17.5222 35.3098,17.5222 C26.3578,17.5222 18.1908,20.8352 11.9668,26.2842" id="Fill-6" fill="#FFB5A1"></path>
                    </g>
                    <path d="M100.884017,44.1411469 L100.884017,39.3820558 C100.884017,36.0566741 98.1938596,33.3763006 94.8753826,33.3763006 L6.00863408,33.3763006 C2.68539602,33.3763006 0,36.0651688 0,39.3820558 L0,44.1411469 L0,52.1504696 L100.884017,52.1504696 L100.884017,44.1411469 Z" id="Combined-Shape" fill="#AEAEAE"></path>
                    <rect id="Rectangle-4" fill="#FFB5A1" x="33.6280056" y="2.84217094e-14" width="33.6280056" height="50.0644508" rx="16.8140028"></rect>
                </g>
                <g id="Group" transform="translate(72.300212, 146.855722)" fill-rule="nonzero" fill="#805641">
                    <path d="M9.09331075,17.9459164 C8.0376526,13.4307947 9.68893142,9.86705914 13.8190734,8.76867432 C18.1552608,7.61549303 21.0839945,9.6010835 22.5109681,14.3522289 C23.1741654,16.5603613 25.5153375,17.8168029 27.7401224,17.1585696 C29.9649073,16.5003363 31.2308241,14.1766879 30.5676269,11.9685554 C27.9253822,3.17113367 20.7294146,-1.70750891 11.6431813,0.708916644 C2.69634078,3.08827161 -1.0968593,11.2746311 0.903915788,19.8320821 C1.42869402,22.0765942 3.68736934,23.4738983 5.94880831,22.953048 C8.21024729,22.4321977 9.61808898,20.1904285 9.09331075,17.9459164 Z" id="Line"></path>
                    <path d="M105.443439,14.8401152 C106.803798,10.4060268 110.029153,8.13920081 114.159295,9.23758563 C118.495482,10.3907669 120.031558,13.5637448 118.873865,18.3865038 C118.335818,20.6279192 119.730375,22.8778537 121.988693,23.4118732 C124.247012,23.9458926 126.513915,22.5617748 127.051961,20.3203594 C129.195594,11.3903349 125.42142,3.59425352 116.335187,1.17782796 C107.388346,-1.20152701 99.9792906,4.00566426 97.4010195,12.4095339 C96.7247713,14.6137635 97.9769206,16.9447489 100.197773,17.6159354 C102.418626,18.2871219 104.76719,17.0443449 105.443439,14.8401152 Z" id="Line"></path>
                </g>
                <path d="M18.1030733,22.9833665 C18.1030733,22.9833665 26.3718496,40.6881323 45.2888619,36.0138784 C26.3718496,49.776992 21.6237467,50.3111157 15.9927676,71.5748047 C9.16494202,97.358022 21.0532359,117.039725 5.47580713,131.814182 C11.6207145,137.189174 21.0532359,131.814182 21.0532359,131.814182 C7.92521034,156.065906 26.8554099,164.590966 13.3461114,179.297944 C15.1618982,184.585866 31.7736477,186.493228 35.7041717,174.480541 C35.7041717,159.49221 33.7215701,138.85867 45.2888619,124.999517 C50.7348684,118.474477 55.9354887,115.693843 55.9354887,87.2983347 C55.9354887,87.0491149 94.1797707,92.5428897 124.171451,87.2983347 C139.353834,84.6434369 145.28936,81.9943897 176.071731,57.0261547 C196.62823,71.1226875 218.236436,74.8564321 218.236436,120.776187 C218.236436,135.208003 233.100758,129.670503 237.408612,170.895756 C245.683579,176.347691 267.188286,165.180782 267.188286,165.180782 C267.188286,165.180782 252.114908,160.287601 252.114908,127.201857 C267.188286,127.201857 263.145453,127.201857 270.546338,120.776187 C254.297643,120.776187 250.855639,71.9944971 243.082734,60.3098692 C235.309829,48.6252412 224.627295,40.0876049 206.633046,37.7179144 L210.800881,22.9833665 L184.790888,22.9833665 L168.005562,7.11388651 C168.005562,7.11388651 164.873515,21.4755579 164.873515,21.4755579 C129.279312,-13.6792729 64.6541738,3.61502771 45.2888619,18.5552706 C36.5451776,25.30098 18.1030733,22.9833665 18.1030733,22.9833665 Z" id="Path-3" fill="#D8D8D8"></path>
                <polygon id="Rectangle-5" fill="#AEAEAE" transform="translate(79.816728, 132.317690) rotate(-15.000000) translate(-79.816728, -132.317690) " points="63.8434253 123.973615 95.7900305 128.98006 95.7900305 140.661765 63.8434253 140.661765"></polygon>
                <polygon id="Rectangle-5" fill="#AEAEAE" transform="translate(190.789146, 132.317690) scale(-1, 1) rotate(-15.000000) translate(-190.789146, -132.317690) " points="174.815844 123.973615 206.762449 128.98006 206.762449 140.661765 174.815844 140.661765"></polygon>
            </g>
            <g id="Group-2" transform="translate(189.000000, 55.000000)">
                <polygon id="Rectangle-7" fill="#BFD849" transform="translate(442.776955, 261.893719) rotate(-29.000000) translate(-442.776955, -261.893719) " points="436.051354 244.371161 449.502556 244.371161 452.865357 279.416276 432.688553 279.416276"></polygon>
                <polygon id="Rectangle-7" fill="#BFD849" transform="translate(20.344957, 116.294494) rotate(66.000000) translate(-20.344957, -116.294494) " points="13.6193559 98.7719364 27.0705581 98.7719364 30.4333587 133.817052 10.2565554 133.817052"></polygon>
                <polygon id="Rectangle-7" fill="#19B3FE" transform="translate(74.811510, 228.069048) rotate(66.000000) translate(-74.811510, -228.069048) " points="68.0859091 217.011473 81.5371113 217.011473 84.8999118 239.126622 64.7231085 239.126622"></polygon>
                <polygon id="Rectangle-7" fill="#19B3FE" transform="translate(50.167435, 141.330495) rotate(110.000000) translate(-50.167435, -141.330495) " points="46.8977856 132.736729 53.4370844 132.736729 55.0719091 149.924261 45.2629609 149.924261"></polygon>
                <polygon id="Rectangle-7" fill="#19B3FE" transform="translate(83.496603, 24.167547) rotate(81.000000) translate(-83.496603, -24.167547) " points="80.2269533 15.3770368 86.7662521 15.3770368 88.4010768 32.9580581 78.5921286 32.9580581"></polygon>
                <polygon id="Rectangle-7" fill="#19B3FE" transform="translate(473.303376, 215.883219) rotate(15.000000) translate(-473.303376, -215.883219) " points="466.577775 204.825645 480.028977 204.825645 483.391778 226.940794 463.214974 226.940794"></polygon>
                <polygon id="Rectangle-7" fill="#19B3FE" transform="translate(461.567688, 91.867604) rotate(-61.000000) translate(-461.567688, -91.867604) " points="454.842087 80.8100298 468.29329 80.8100298 471.65609 102.925179 451.479287 102.925179"></polygon>
                <polygon id="Rectangle-7" fill="#F76707" transform="translate(474.023934, 107.229292) rotate(-96.000000) translate(-474.023934, -107.229292) " points="468.419266 96.1717172 479.628601 96.1717172 482.430935 118.286866 465.616932 118.286866"></polygon>
                <polygon id="Rectangle-7" fill="#FFE035" transform="translate(423.948547, 159.295713) rotate(140.000000) translate(-423.948547, -159.295713) " points="420.3872 152.269452 427.509894 152.269452 429.290567 166.321974 418.606527 166.321974"></polygon>
                <polygon id="Rectangle-7" fill="#FFE035" transform="translate(383.630716, 8.888092) rotate(-41.000000) translate(-383.630716, -8.888092) " points="380.361066 1.37464889 386.900365 1.37464889 388.53519 16.4015354 378.726242 16.4015354"></polygon>
                <polygon id="Rectangle-7" fill="#FFE035" transform="translate(417.122894, 36.902413) rotate(-98.000000) translate(-417.122894, -36.902413) " points="413.853244 29.3889701 420.392543 29.3889701 422.027368 44.4158566 412.21842 44.4158566"></polygon>
                <polygon id="Rectangle-7" fill="#FFE035" transform="translate(55.755287, 150.942362) rotate(28.000000) translate(-55.755287, -150.942362) " points="52.19394 143.916101 59.3166334 143.916101 61.0973068 157.968622 50.4132667 157.968622"></polygon>
                <polygon id="Rectangle-7" fill="#FFE035" transform="translate(28.117832, 123.044255) rotate(-81.000000) translate(-28.117832, -123.044255) " points="24.5564851 116.017994 31.6791785 116.017994 33.4598519 130.070516 22.7758117 130.070516"></polygon>
                <polygon id="Rectangle-7" fill="#FFE035" transform="translate(28.338120, 202.407556) rotate(-104.000000) translate(-28.338120, -202.407556) " points="24.7767733 195.381295 31.8994667 195.381295 33.68014 209.433817 22.9960999 209.433817"></polygon>
                <polygon id="Rectangle-7" fill="#FFE035" transform="translate(72.229041, 264.420963) rotate(-33.000000) translate(-72.229041, -264.420963) " points="68.6676942 257.394702 75.7903876 257.394702 77.5710609 271.447223 66.8870208 271.447223"></polygon>
                <polygon id="Rectangle-7" fill="#FFE035" transform="translate(391.263978, 247.591819) rotate(26.000000) translate(-391.263978, -247.591819) " points="387.702631 240.565558 394.825324 240.565558 396.605998 254.61808 385.921958 254.61808"></polygon>
                <polygon id="Rectangle-7" fill="#FFE035" transform="translate(516.058941, 223.497833) rotate(-11.000000) translate(-516.058941, -223.497833) " points="512.497594 216.471572 519.620287 216.471572 521.400961 230.524094 510.716921 230.524094"></polygon>
                <polygon id="Rectangle-7" fill="#F76707" transform="translate(40.429686, 284.663184) rotate(22.000000) translate(-40.429686, -284.663184) " points="33.7040853 273.605609 47.1552875 273.605609 50.518088 295.720758 30.3412847 295.720758"></polygon>
                <polygon id="Rectangle-7" fill="#F76707" transform="translate(69.936702, 72.794856) rotate(111.000000) translate(-69.936702, -72.794856) " points="66.9305668 59.1501045 72.9428363 59.1501045 74.4459037 86.4396067 65.4274994 86.4396067"></polygon>
                <polygon id="Rectangle-7" fill="#F76707" transform="translate(83.930287, 186.985099) rotate(407.000000) translate(-83.930287, -186.985099) " points="82.2883925 182.608718 85.5721819 182.608718 86.3931293 191.361479 81.4674451 191.361479"></polygon>
                <polygon id="Rectangle-7" fill="#F76707" transform="translate(94.085193, 27.411303) rotate(469.000000) translate(-94.085193, -27.411303) " points="92.4432982 23.0349226 95.7270876 23.0349226 96.548035 31.7876838 91.6223508 31.7876838"></polygon>
                <polygon id="Rectangle-7" fill="#F76707" transform="translate(462.403582, 209.215629) rotate(356.000000) translate(-462.403582, -209.215629) " points="459.133932 200.425118 465.673231 200.425118 467.308056 218.006139 457.499107 218.006139"></polygon>
                <polygon id="Rectangle-7" fill="#F76707" transform="translate(388.313898, 49.047001) rotate(252.000000) translate(-388.313898, -49.047001) " points="386.672003 44.6706208 389.955792 44.6706208 390.77674 53.423382 385.851055 53.423382"></polygon>
            </g>
        </g>
    </g>
</svg>
