<?xml version="1.0" encoding="UTF-8"?>
<svg width="457px" height="325px" viewBox="0 0 457 325" version="1.1" xmlns="http://www.w3.org/2000/svg" xmlns:xlink="http://www.w3.org/1999/xlink" style="background: #FFFFFF;">
    <!-- Generator: Sketch 43.2 (39069) - http://www.bohemiancoding.com/sketch -->
    <title>Artboard 4</title>
    <desc>Created with Sketch.</desc>
    <defs>
        <radialGradient cx="50%" cy="50%" fx="50%" fy="50%" r="50%" gradientTransform="translate(0.500000,0.500000),scale(0.051903,1.000000),rotate(90.000000),scale(1.000000,19.139727),translate(-0.500000,-0.500000)" id="radialGradient-1">
            <stop stop-color="#805641" offset="0%"></stop>
            <stop stop-color="#805641" stop-opacity="0" offset="100%"></stop>
        </radialGradient>
        <linearGradient x1="0%" y1="16.2484254%" x2="70.2512936%" y2="16.2484258%" id="linearGradient-2">
            <stop stop-color="#F4EFEA" stop-opacity="0.51" offset="0%"></stop>
            <stop stop-color="#F4EFEA" offset="100%"></stop>
        </linearGradient>
    </defs>
    <g id="Page-1" stroke="none" stroke-width="1" fill="none" fill-rule="evenodd">
        <g id="Artboard-4">
            <path d="M229.5,287 C292.819097,287 328.019046,287 351.009548,285.806724 C374,284.613445 374,282.786458 374,279.5 C374,276.213542 374,274.386555 351.009548,273.193276 C328.019046,272 292.819097,272 229.5,272 C166.180903,272 130.980954,272 107.990452,273.193276 C85,274.386555 85,276.213542 85,279.5 C85,282.786458 85,284.613445 107.990452,285.806724 C130.980954,287 166.180903,287 229.5,287 Z" id="Shape" fill="url(#radialGradient-1)"></path>
            <g id="Group-2" transform="translate(9.000000, 152.000000)">
                <polyline id="Rectangle-7" fill="#BFD849" points="339 133.688646 341.404788 130 353.969922 133.068174 350.36274 138.601143"></polyline>
                <polyline id="Rectangle-7" fill="#BFD849" points="11.7335514 134 14.5804805 138.637851 5.11337363 143.084351 0.842979978 136.127575"></polyline>
                <polyline id="Rectangle-7" fill="#19B3FE" points="142.576072 134 144.512873 137.155187 134.905201 141.202937 132 136.470157"></polyline>
                <polyline id="Rectangle-7" fill="#19B3FE" points="428.864909 135.935509 427.228221 139.197054 415 136.892318 417.455033 132"></polyline>
                <polyline id="Rectangle-7" fill="#19B3FE" points="70.894271 129 71.6428658 132.428132 59.1228922 134.74493 58 129.602732"></polyline>
                <polyline id="Rectangle-7" fill="#19B3FE" transform="translate(353.969922, 130.597247) rotate(-11.000000) translate(-353.969922, -130.597247) " points="347.559322 134.844327 346.484961 130.913038 359.84334 126.350167 361.454882 132.247102"></polyline>
                <polyline id="Rectangle-7" fill="#FFE035" points="393.771319 133.448941 389.000003 136.312555 379.908362 130.295421 387.065336 126"></polyline>
                <polyline id="Rectangle-7" fill="#FFE035" points="321.795841 142.370928 321 138.320632 333.813571 136 335.007333 142.075444"></polyline>
                <polyline id="Rectangle-7" fill="#FFE035" points="71.9783136 131 76.5804805 132.774843 72.9032503 139.804158 66 137.141894"></polyline>
                <polyline id="Rectangle-7" fill="#FFE035" points="42 135.733968 42.8153797 132 53.1760358 132.233299 51.9529663 137.834251"></polyline>
                <polyline id="Rectangle-7" fill="#FFE035" points="84.3474705 143.067927 84 142.057116 93.8910881 140 94.4122938 141.516217"></polyline>
                <polyline id="Rectangle-7" fill="#FFE035" points="102 133.059015 106.371383 131 113.064979 136.740603 106.507905 139.829126"></polyline>
                <polyline id="Rectangle-7" fill="#FFE035" points="362.786404 129 368.384553 130.95294 364.397223 139.340996 356 136.411586"></polyline>
                <polyline id="Rectangle-7" fill="#F76707" points="122.065093 132 126.480163 133.29381 123.622604 140.728648 117 138.787934"></polyline>
                <polyline id="Rectangle-7" fill="#F76707" points="65.5351695 136.702242 63.8286909 139.926626 53 137.836575 55.5597179 133"></polyline>
                <polyline id="Rectangle-7" fill="#F76707" points="98.0941339 129 99.7329937 130.274704 95.4582898 133.761742 93 131.849686"></polyline>
                <polyline id="Rectangle-7" fill="#F76707" points="29.0341097 135.924488 28.251761 137.572468 22 136.471969 23.1735231 134"></polyline>
                <polygon id="Rectangle-7" fill="#F76707" transform="translate(453.403582, 112.215629) rotate(356.000000) translate(-453.403582, -112.215629) " points="450.133932 103.425118 456.673231 103.425118 458.308056 121.006139 448.499107 121.006139"></polygon>
                <polyline id="Rectangle-7" fill="#F76707" points="366.887356 136.133439 366 134.180069 373.057491 132 374.388524 134.930054"></polyline>
            </g>
            <g id="kitmath-logo" transform="translate(101.000000, 29.000000)">
                <path d="M128,256 C184.088889,256 215.269467,256 235.634756,235.634756 C256,215.269467 256,184.088889 256,128 C256,71.9111111 256,40.7305333 235.634756,20.3652444 C215.269467,0 184.088889,0 128,0 C71.9111111,0 40.7305333,0 20.3652444,20.3652444 C0,40.7305333 0,71.9111111 0,128 C0,184.088889 0,215.269467 20.3652444,235.634756 C40.7305333,256 71.9111111,256 128,256 Z" id="Shape" fill="#F76707"></path>
                <path d="M193.494306,125.701652 C188.141598,122.352449 183.45965,116.860076 179.861677,109.881928 C178.954713,108.123261 178.11861,106.268397 177.35593,104.331894 C173.15578,96.2741675 166.992582,89.409629 159.500669,84.3785456 C150.930759,78.6235572 140.626035,75.2652199 129.53814,75.2652199 L129.53814,53 C95.5741005,53 67.7914721,84.5364003 65.6454372,124.392857 C68.9286628,123.496253 72.4216256,122.769494 76.0759465,122.231703 C80.8475373,121.529778 85.895173,121.151554 91.1195343,121.151554 C105.665957,121.151554 118.850369,124.072295 128.47551,128.806223 C129.203756,129.164465 129.914074,129.531841 130.600486,129.910349 C140.225628,134.644563 153.410039,137.565018 167.956747,137.565018 C173.181108,137.565018 178.228459,137.186795 183.00005,136.484869 C186.654371,135.947364 190.147334,135.220319 193.430559,134.324001 C197.777838,133.137094 201.757152,131.654744 205.26662,129.9329 C205.335205,129.74022 205.402935,129.54754 205.469812,129.35429 C201.246611,129.316039 197.208958,128.025798 193.494306,125.701652" id="Fill-1" fill="#F4EFEA"></path>
                <path d="M183.000164,136.412502 C178.228573,137.114427 173.180937,137.49265 167.956576,137.49265 C153.410153,137.49265 140.225741,134.572196 130.6006,129.837982 C129.872354,129.47974 129.162037,129.112649 128.475624,128.734141 C118.850483,123.999927 105.666071,121.079187 91.1193635,121.079187 C85.8950023,121.079187 80.8476512,121.457696 76.0760603,122.159621 C72.4217394,122.697126 68.9287766,123.424171 65.645551,124.320489 C61.1562657,125.545933 56.2930394,127.49157 52.7007574,129.285919 C66.6452885,135.565852 74.613592,144.700302 82.8664778,156.403815 C91.6885281,170.39094 107.055971,183.236259 128.146078,183.361287 C128.609662,183.368709 129.072678,183.378985 129.53797,183.378985 C130.003546,183.378985 130.466562,183.369279 130.930146,183.361287 C154.11421,182.966222 174.906644,172.730215 189.33468,156.634745 C196.258282,148.911568 201.714009,139.840204 205.266734,129.860533 C201.757266,131.582662 197.777667,133.065011 193.430673,134.251633 C190.147447,135.147951 186.654485,135.874996 183.000164,136.412502 Z" id="Fill-4" fill="url(#linearGradient-2)"></path>
            </g>
        </g>
    </g>
</svg>