<?xml version="1.0" encoding="UTF-8" standalone="no"?>
<svg width="50px" height="50px" viewBox="0 0 50 50" version="1.1" xmlns="http://www.w3.org/2000/svg" xmlns:xlink="http://www.w3.org/1999/xlink" style="background: #FFFFFF;">
    <!-- Generator: Sketch 39.1 (31720) - http://www.bohemiancoding.com/sketch -->
    <title>ooo-icon</title>
    <desc>Created with Sketch.</desc>
    <defs></defs>
    <g id="Page-1" stroke="none" stroke-width="1" fill="none" fill-rule="evenodd">
        <g id="Logo" transform="translate(5.000000, 5.000000)">
            <path d="M29.3333333,19.8387097 C29.3333333,14.7339767 25.1447012,10.6129032 20,10.6129032 C14.8552988,10.6129032 10.6666667,14.7339767 10.6666667,19.8387097 C10.6666667,24.9434426 14.8552988,29.0645161 20,29.0645161 C25.1447012,29.0645161 29.3333333,24.9434426 29.3333333,19.8387097 Z M8,19.8387097 C8,13.3181865 13.372583,8.03225806 20,8.03225806 C26.627417,8.03225806 32,13.3181865 32,19.8387097 C32,26.3592329 26.627417,31.6451613 20,31.6451613 C13.372583,31.6451613 8,26.3592329 8,19.8387097 Z" id="Inner" fill="#E58D8E"></path>
            <path d="M33.2916667,19.8387097 C33.2916667,12.5831097 27.3308284,6.71841398 20,6.71841398 C12.6691716,6.71841398 6.70833333,12.5831097 6.70833333,19.8387097 C6.70833333,27.0943096 12.6691716,32.9590054 20,32.9590054 C27.3308284,32.9590054 33.2916667,27.0943096 33.2916667,19.8387097 Z M4.04166667,19.8387097 C4.04166667,11.1673195 11.1864559,4.13776882 20,4.13776882 C28.8135441,4.13776882 35.9583333,11.1673195 35.9583333,19.8387097 C35.9583333,28.5100999 28.8135441,35.5396505 20,35.5396505 C11.1864559,35.5396505 4.04166667,28.5100999 4.04166667,19.8387097 Z" id="Middle" fill="#DB6365"></path>
            <path d="M37.3333333,19.8387097 C37.3333333,10.3869613 29.5629792,2.74193548 20,2.74193548 C10.4370208,2.74193548 2.66666667,10.3869613 2.66666667,19.8387097 C2.66666667,29.2904581 10.4370208,36.9354839 20,36.9354839 C29.5629792,36.9354839 37.3333333,29.2904581 37.3333333,19.8387097 Z M0,19.8387097 C0,8.97117105 8.954305,0.161290323 20,0.161290323 C31.045695,0.161290323 40,8.97117105 40,19.8387097 C40,30.7062483 31.045695,39.516129 20,39.516129 C8.954305,39.516129 0,30.7062483 0,19.8387097 Z" id="Outer" fill="#C52D2F"></path>
        </g>
    </g>
</svg>