<?xml version="1.0" encoding="UTF-8" standalone="no"?>
<svg width="800px" height="600px" viewBox="0 0 800 600" version="1.1" xmlns="http://www.w3.org/2000/svg" xmlns:xlink="http://www.w3.org/1999/xlink">
    <!-- Generator: Sketch 39.1 (31720) - http://www.bohemiancoding.com/sketch -->
    <title>ooo-intro</title>
    <desc>Created with Sketch.</desc>
    <defs></defs>
    <g id="Page-1" stroke="none" stroke-width="1" fill="none" fill-rule="evenodd" opacity="0.25">
        <g id="ooo-intro">
            <g id="Group" transform="translate(57.000000, 66.000000)">
                <g id="tb-Calendar" transform="translate(684.000000, 32.000000)" fill="#000000">
                    <path d="M42.8055556,3.68421053 L41.3055556,2.18421053 L41.3055556,44.8157895 L42.8055556,43.3157895 L2.19444444,43.3157895 L3.69444444,44.8157895 L3.69444444,2.18421053 L2.19444444,3.68421053 L42.8055556,3.68421053 Z M0.694444444,0.684210526 L0.694444444,2.18421053 L0.694444444,44.8157895 L0.694444444,46.3157895 L2.19444444,46.3157895 L42.8055556,46.3157895 L44.3055556,46.3157895 L44.3055556,44.8157895 L44.3055556,2.18421053 L44.3055556,0.684210526 L42.8055556,0.684210526 L2.19444444,0.684210526 L0.694444444,0.684210526 Z" id="Rectangle-223"></path>
                    <rect id="Rectangle-224" x="1" y="1" width="43" height="11.8421053"></rect>
                    <polygon id="Rectangle-225" points="32.0555556 34.1578947 32.0555556 46 44 34.1578947 32.0555556 34.1578947"></polygon>
                    <polygon id="Shape" points="11.9888889 32.5 14.6166667 32.5 14.6166667 23.7368421 11.9888889 23.7368421 11.9888889 22.0789474 16.5277778 22.0789474 16.5277778 32.5 19.1555556 32.5 19.1555556 34.1578947 11.9888889 34.1578947 11.9888889 32.5"></polygon>
                    <path d="M28.2333333,23.9736842 L20.35,23.9736842 L20.35,22.0789474 L30.6222222,22.0789474 L30.6222222,23.5 C28.2333333,29.4210526 25.8444444,34.3947368 23.2166667,39.3684211 L21.3055556,38.8947368 C23.9333333,34.1578947 26.0833333,29.4210526 28.2333333,23.9736842 L28.2333333,23.9736842 L28.2333333,23.9736842 Z" id="Shape"></path>
                </g>
                <g id="logo" transform="translate(483.000000, 5.000000)" stroke="#000000" stroke-width="3">
                    <circle id="Oval" opacity="0.25" cx="28" cy="28" r="16"></circle>
                    <circle id="Oval" opacity="0.5" cx="28" cy="28" r="22"></circle>
                    <circle id="Oval" cx="28" cy="28" r="28"></circle>
                </g>
                <g id="office-austin" transform="translate(557.000000, 440.000000)" fill="#000000">
                    <path d="M9.971,29.002125 C9.971,27.053125 11.763,26.614125 12.834,26.351125 C14.08,26.045125 14.069,25.975125 14.005,25.584125 C13.909,24.996125 13.636,24.857125 12.6,24.558125 C11.533,24.252125 9.748,23.739125 9.748,21.404125 C9.748,19.026125 11.849,18.695125 12.978,18.518125 C13.8,18.389125 14.154,18.293125 14.311,18.125125 C14.424,18.004125 14.438,17.846125 14.438,17.605125 C14.438,17.406125 14.4,17.251125 14.311,17.117125 C14.104,16.808125 13.591,16.629125 12.417,16.378125 C11.088,16.094125 9.079,15.666125 9.079,13.594125 C9.079,11.514125 11.068,10.875125 12.386,10.451125 C13.473,10.100125 13.992,9.88112503 13.992,9.58412503 C13.992,9.47812503 13.967,9.38912503 13.846,9.27712503 C13.234,8.70912503 11.34,8.51612503 10.253,8.56212503 C9.64,8.57512503 9.107,8.12312503 9.08,7.52212503 C9.052,6.92112503 9.533,6.41212503 10.154,6.38612503 C10.641,6.36312503 12.719,6.32412503 14.311,7.01812503 C14.717,7.19512503 15.093,7.41712503 15.401,7.70312503 C15.951,8.21312503 16.242,8.86312503 16.242,9.58412503 C16.242,10.936125 15.303,11.633125 14.311,12.071125 C13.893,12.256125 13.466,12.399125 13.095,12.519125 C11.693,12.970125 11.329,13.191125 11.329,13.594125 C11.329,13.846125 11.667,13.987125 12.902,14.251125 C13.318,14.339125 13.815,14.454125 14.311,14.624125 C15.505,15.033125 16.689,15.806125 16.689,17.605125 C16.689,19.534125 15.43,20.193125 14.311,20.479125 C13.958,20.569125 13.618,20.624125 13.338,20.668125 C11.999,20.879125 11.999,20.980125 11.999,21.404125 C11.999,22.047125 12.115,22.148125 13.24,22.470125 C13.564,22.563125 13.938,22.678125 14.311,22.840125 C15.159,23.208125 16.001,23.850125 16.229,25.245125 C16.526,27.074125 15.355,27.827125 14.311,28.198125 C13.971,28.319125 13.645,28.399125 13.387,28.463125 C12.273,28.736125 12.221,28.836125 12.221,29.002125 C12.221,29.698125 13.31,30.177125 14.311,30.441125 C14.739,30.554125 15.153,30.632125 15.457,30.663125 C16.074,30.726125 16.523,31.262125 16.458,31.859125 C16.397,32.419125 15.91,32.835125 15.341,32.835125 C15.302,32.835125 15.264,32.833125 15.225,32.830125 C14.944,32.802125 14.634,32.754125 14.311,32.690125 C13.135,32.454125 11.778,31.960125 10.898,31.101125 L10.898,30.765125 L10.594,30.765125 C10.211,30.280125 9.971,29.699125 9.971,29.002125 M21.689,7.01712503 C23.281,6.32412503 25.358,6.36212503 25.844,6.38612503 C26.465,6.41212503 26.945,6.91912503 26.917,7.52112503 C26.891,8.12212503 26.331,8.58512503 25.746,8.56212503 C24.618,8.51312503 22.765,8.70812503 22.151,9.27812503 C22.031,9.38912503 22.007,9.47812503 22.007,9.58412503 C22.007,9.88112503 22.524,10.100125 23.614,10.451125 C24.93,10.875125 26.921,11.514125 26.921,13.594125 C26.921,15.666125 24.91,16.094125 23.581,16.378125 C22.408,16.629125 21.896,16.808125 21.689,17.117125 C21.599,17.250125 21.561,17.406125 21.561,17.605125 C21.561,17.846125 21.576,18.004125 21.689,18.125125 C21.846,18.293125 22.199,18.389125 23.022,18.518125 C24.15,18.695125 26.25,19.026125 26.25,21.404125 C26.25,23.739125 24.465,24.252125 23.399,24.558125 C22.362,24.857125 22.09,24.996125 21.993,25.584125 C21.93,25.975125 21.918,26.045125 23.165,26.351125 C24.236,26.614125 26.026,27.053125 26.026,29.002125 C26.026,31.235125 23.609,32.305125 21.689,32.690125 C21.366,32.754125 21.055,32.802125 20.775,32.830125 C20.734,32.833125 20.696,32.835125 20.658,32.835125 C20.088,32.835125 19.601,32.419125 19.54,31.859125 C19.476,31.262125 19.925,30.726125 20.541,30.663125 C20.845,30.632125 21.26,30.554125 21.689,30.441125 C22.69,30.176125 23.776,29.697125 23.776,29.002125 C23.776,28.836125 23.725,28.736125 22.611,28.463125 C22.354,28.399125 22.028,28.319125 21.689,28.198125 C20.645,27.828125 19.472,27.074125 19.77,25.245125 C19.997,23.849125 20.84,23.208125 21.689,22.839125 C22.062,22.678125 22.435,22.563125 22.758,22.470125 C23.882,22.148125 24,22.047125 24,21.404125 C24,20.980125 24,20.879125 22.661,20.668125 C22.38,20.624125 22.041,20.569125 21.689,20.479125 C20.57,20.193125 19.311,19.535125 19.311,17.605125 C19.311,15.805125 20.495,15.033125 21.689,14.624125 C22.185,14.454125 22.682,14.339125 23.097,14.251125 C24.332,13.987125 24.669,13.846125 24.669,13.594125 C24.669,13.191125 24.307,12.970125 22.904,12.519125 C22.532,12.399125 22.106,12.256125 21.689,12.072125 C20.696,11.633125 19.756,10.937125 19.756,9.58412503 C19.756,8.86312503 20.047,8.21312503 20.596,7.70312503 C20.904,7.41712503 21.281,7.19412503 21.689,7.01712503 M43.616,36.920125 C41.61,35.573125 37.038,34.714125 31.921,31.496125 C31.028,30.934125 30.12,30.310125 29.205,29.589125 L29.205,6.28412503 C29.205,6.28412503 28.494,3.97812503 21.689,1.70212503 L21.689,1.37612503 L20.674,1.37612503 L20.673,1.37612503 C20.079,1.19312503 19.455,1.01212503 18.776,0.833125026 C13.474,-0.564874974 10.37,-0.0808749744 8.653,1.37612503 C7.28,2.54112503 6.793,4.32812503 6.793,6.28412503 L6.793,30.765125 L6.793,37.660125 L5.97,37.835125 L4.902,37.835125 L5.459,36.434125 L4.079,36.838125 L3.447,37.023125 L1.814,35.765125 L1.76,37.785125 L0,38.898125 L1.978,39.557125 L2.524,41.502125 L3.801,39.891125 L5.898,39.980125 L4.823,38.485125 L6.793,38.904125 L6.793,41.083125 L6.842,41.083125 C6.819,41.238125 6.793,41.390125 6.793,41.550125 C6.793,43.356125 8.308,44.819125 10.169,44.819125 L10.725,44.819125 C10.784,44.819125 10.839,44.805125 10.898,44.802125 C12.68,44.713125 14.102,43.294125 14.102,41.550125 C14.102,41.408125 14.076,41.273125 14.058,41.135125 C16.688,42.169125 24.354,45.049125 29.679,45.673125 C35.939,46.406125 45.795,41.829125 45.795,41.829125 C45.795,41.829125 45.894,41.717125 46,41.519125 L46,39.395125 C45.672,38.674125 44.978,37.833125 43.616,36.920125" id="Fill-1"></path>
                </g>
                <g id="office-boston" transform="translate(197.000000, 232.000000)" fill="#000000">
                    <path d="M39.233233,0.400715488 C38.7435983,0.14709596 38.1330663,0.322306398 37.8680993,0.792760947 L30.361376,14.1455387 C30.1608877,14.1126263 29.9603996,14.0835859 29.7518514,14.0835859 C27.8557767,14.0835859 25.8992533,15.4891414 24.8837147,17.5819866 C24.2661303,18.8539562 24.0575823,20.2275674 24.2973623,21.4530724 C24.5552767,22.7763468 25.3330503,23.8179294 26.431202,24.3096801 C26.8956496,24.517803 27.397374,24.6233165 27.9232777,24.6233165 C29.8193526,24.6233165 31.775876,23.2177609 32.790407,21.1249158 C33.4079914,19.8539141 33.6165396,18.479335 33.3767596,17.2538299 C33.1994434,16.3429294 32.7621977,15.5820707 32.156703,15.025463 L39.6412617,1.71237373 C39.9052211,1.24191919 39.7228676,0.65530303 39.233233,0.400715488 L39.233233,0.400715488 L39.233233,0.400715488 Z M30.9648557,20.3069444 C30.1427533,21.9980639 28.4250021,23.0648148 27.2835289,22.5556398 C26.595421,22.2468435 26.357656,21.5092171 26.2770577,21.0958755 C26.117876,20.277904 26.2750427,19.2953704 26.709266,18.4009259 C27.389314,16.9982743 28.6406026,16.0196128 29.7518514,16.0196128 C29.9805491,16.0196128 30.1961496,16.0641414 30.390593,16.1512627 C31.0787009,16.459091 31.3164657,17.1976852 31.397064,17.610059 C31.5562457,18.4289984 31.399079,19.4125 30.9648557,20.3069444 L30.9648557,20.3069444 L30.9648557,20.3069444 Z" id="Fill-1"></path>
                    <path d="M18.881157,23.3213384 C18.3240213,23.3213384 17.8736784,22.8886363 17.8736784,22.353325 L17.8736784,20.8316077 C17.8736784,20.6718854 17.7961026,20.565404 17.4868066,20.2285354 C17.0767628,19.7822812 16.4581709,19.1075757 16.4581709,17.9314394 C16.4581709,17.0989479 16.8117959,16.4958755 17.1241143,15.963468 C17.5452404,15.24617 17.8484914,14.7273148 17.4505374,13.5289141 C17.281281,13.0197391 17.5744573,12.4747475 18.104391,12.3121212 C18.6302949,12.149495 19.2005277,12.4302189 19.3707917,12.9403619 C20.0357276,14.9422138 19.3677693,16.0815657 18.8801496,16.9130891 C18.62022,17.3564394 18.4731283,17.621675 18.4731283,17.9314394 C18.4731283,18.3573653 18.643392,18.5616162 18.9980246,18.9488215 C19.373814,19.3582912 19.8886357,19.9187711 19.8886357,20.8316077 L19.8886357,22.353325 C19.8886357,22.8886363 19.4372853,23.3213384 18.881157,23.3213384 L18.881157,23.3213384 L18.881157,23.3213384 Z M13.8488013,23.3213384 C13.2916656,23.3213384 12.8413226,22.8886363 12.8413226,22.353325 L12.8413226,20.8316077 C12.8413226,20.6718854 12.7627393,20.565404 12.4544509,20.2285354 C12.0444071,19.7822812 11.4258152,19.1075757 11.4258152,17.9314394 C11.4258152,16.8492003 12.0182126,16.0283249 12.49475,15.3691078 C12.8413226,14.8899411 13.1405438,14.4756313 13.1405438,14.1058502 C13.1405438,13.5947391 12.9108387,13.23367 12.471578,12.588005 C12.1501923,12.1156145 11.7864925,11.580303 11.4943237,10.862037 C11.2918205,10.3644781 11.5487276,9.8030303 12.0665716,9.6084596 C12.5844156,9.41388889 13.1697607,9.66073232 13.3712564,10.1592593 C13.5868568,10.6897306 13.8770107,11.1156566 14.1580972,11.5280303 C14.6487393,12.2482323 15.1555011,12.9936027 15.1555011,14.1058502 C15.1555011,15.0816078 14.6215374,15.82117 14.1500374,16.4726431 C13.7692105,17.0002104 13.4407724,17.4551768 13.4407724,17.9314394 C13.4407724,18.3573653 13.6110363,18.5616162 13.9656688,18.9488215 C14.3414583,19.3582912 14.8562799,19.9187711 14.8562799,20.8316077 L14.8562799,22.353325 C14.8562799,22.8886363 14.4049295,23.3213384 13.8488013,23.3213384 L13.8488013,23.3213384 L13.8488013,23.3213384 Z M8.7177126,23.3213384 C8.1615844,23.3213384 7.71023397,22.8886363 7.71023397,22.353325 L7.71023397,20.8316077 C7.71023397,20.6718854 7.63265813,20.565404 7.32336217,20.2285354 C6.91331837,19.7822812 6.2947265,19.1075757 6.2947265,17.9314394 C6.2947265,16.8492003 6.88712393,16.0283249 7.36366133,15.3691078 C7.71023397,14.8899411 8.00945513,14.4756313 8.00945513,14.1058502 C8.00945513,13.5260101 7.7888173,13.2791667 7.24377137,12.728367 C6.99794657,12.4795875 6.73902457,12.2162879 6.4921923,11.8997475 C5.5260203,10.6616582 5.8131517,9.23383838 7.34854914,7.65597643 C7.90165491,7.08678451 8.0860235,6.13329125 8.110203,5.8138468 C8.15150961,5.28240741 8.62905449,4.87100169 9.18417521,4.91649831 C9.73728097,4.95328283 10.1563921,5.41018519 10.1211303,5.94162458 C10.1090406,6.12845118 9.96698611,7.79924243 8.82047543,8.97731481 C7.66086753,10.1699074 7.95001389,10.5396885 8.10415813,10.7381313 C8.30061646,10.9898148 8.50916453,11.1969697 8.70461539,11.3944444 C9.32320727,12.0197811 10.0244124,12.729335 10.0244124,14.1058502 C10.0244124,15.0816078 9.49044873,15.82117 9.01894873,16.4726431 C8.6381218,17.0002104 8.30968376,17.4551768 8.30968376,17.9314394 C8.30968376,18.3573653 8.47994764,18.5616162 8.83458013,18.9488215 C9.21036966,19.3582912 9.72519124,19.9187711 9.72519124,20.8316077 L9.72519124,22.353325 C9.72519124,22.8886363 9.27384081,23.3213384 8.7177126,23.3213384 L8.7177126,23.3213384 L8.7177126,23.3213384 Z" id="Fill-2"></path>
                    <path d="M35.2557073,29.905766 L0.318363247,29.905766 C0.6931453,33.7671717 2.40888141,39.5471801 8.85775214,43.2382155 C9.17007051,43.4163299 9.52671794,43.5102273 9.88941026,43.5102273 L29.729687,43.5102273 C30.0923793,43.5102273 30.4490267,43.4163299 30.7603376,43.2382155 C37.2102157,39.5471801 38.925952,33.7671717 39.300734,29.905766 L35.2557073,29.905766" id="Fill-3"></path>
                    <path d="M4.27876176,28.9377525 L39.3712574,28.9377525 C39.4528633,27.2214646 39.2815919,26.0521044 39.2594273,25.9069023 C39.109313,24.9601852 38.2620236,24.2603114 37.2666346,24.2603114 L2.3524626,24.2603114 C1.35606624,24.2603114 0.50877671,24.9601852 0.359669873,25.9069023 C0.337505343,26.0521044 0.166233974,27.2214646 0.246832264,28.9377525 L4.27876176,28.9377525" id="Fill-4"></path>
                </g>
                <g id="office-denver" transform="translate(499.000000, 257.000000)" fill="#000000">
                    <path d="M32.7668,4.2581 C32.8788,4.1561 33.0458,4.1631 33.1518,4.2781 L42.5138,14.3391 C42.5958,14.4261 42.6208,14.5591 42.5758,14.6751 C42.5328,14.7891 42.4268,14.8651 42.3118,14.8651 L40.9368,14.8651 L47.5548,23.2751 C47.6468,23.3901 47.6448,23.5621 47.5528,23.6751 C47.4968,23.7451 47.4168,23.7811 47.3368,23.7811 C47.2838,23.7811 47.2298,23.7661 47.1828,23.7331 L39.2628,18.3081 C39.1548,18.2351 39.1058,18.0931 39.1408,17.9631 C39.1768,17.8311 39.2888,17.7401 39.4158,17.7401 L40.3068,17.7401 L37.0298,14.0011 C36.9508,13.9121 36.9298,13.7811 36.9748,13.6681 C37.0208,13.5551 37.1238,13.4821 37.2378,13.4821 L38.3908,13.4821 L32.7138,4.6711 C32.6308,4.5401 32.6528,4.3621 32.7668,4.2581 M57.8078,26.8951 L52.6228,21.2801 L33.1388,0.1821 C33.0268,0.0601 32.8788,0.0001 32.7318,0.0001 C32.5848,0.0001 32.4378,0.0611 32.3268,0.1831 L27.6638,5.2681 L20.6118,12.9581 L21.6908,11.3751 C21.8628,11.1211 21.8298,10.7691 21.6148,10.5551 L18.5728,7.5571 C18.3448,7.3331 17.9938,7.3431 17.7778,7.5791 L0.1648,26.8991 C-0.1902,27.2881 0.0658,27.9461 0.5728,27.9461 L27.6638,27.9461 L27.6638,28.0001 L52.6228,28.0001 L52.6228,27.9461 L57.4028,27.9461 C57.9118,27.9461 58.1668,27.2841 57.8078,26.8951" id="Fill-1"></path>
                </g>
                <g id="office-newyorkcity" transform="translate(237.000000, 69.000000)" fill="#000000">
                    <path d="M52.396474,55.087617 C52.3964736,45.7042672 44.8200506,38.09756 35.4740578,38.09756 C26.1280648,38.09756 18.5516408,45.7042672 18.5516414,55.087617 C18.5516414,55.380549 52.396474,55.380549 52.396474,55.087617 L52.396474,55.087617 Z" id="Oval-3"></path>
                    <polygon id="Triangle-1" transform="translate(13.145869, 41.682925) rotate(-60.000000) translate(-13.145869, -41.682925) " points="13.1458694 30.4487788 16.2013057 52.9170714 10.0904331 52.9170714"></polygon>
                    <polygon id="Triangle-1" points="34.7689572 18.49756 37.8243933 40.9658527 31.7135208 40.9658527"></polygon>
                    <polygon id="Triangle-1" transform="translate(22.077145, 32.599998) rotate(-30.000000) translate(-22.077145, -32.599998) " points="22.077145 21.365852 25.1325812 43.8341448 19.0217087 43.8341448"></polygon>
                    <polygon id="Triangle-1" transform="translate(58.742379, 40.726828) rotate(60.000000) translate(-58.742379, -40.726828) " points="58.7423792 29.4926813 61.7978153 51.9609739 55.6869428 51.9609739"></polygon>
                    <polygon id="Triangle-1" transform="translate(47.930836, 33.556096) rotate(30.000000) translate(-47.930836, -33.556096) " points="47.9308358 22.3219501 50.9862722 44.7902429 44.8753997 44.7902429"></polygon>
                    <polygon id="Triangle-1" points="20.901977 49.5707308 20.901977 55.3073159 0.219023677 55.3073162"></polygon>
                    <polygon id="Triangle-1" transform="translate(61.327748, 52.439023) scale(-1, 1) translate(-61.327748, -52.439023) " points="71.6692245 49.5707308 71.6692245 55.3073159 50.9862711 55.3073162"></polygon>
                    <path d="M3.03942626,22.3219504 C3.03942626,22.3219504 9.46202755,29.2536577 8.75413875,36.185365 L24.829471,36.185365 C24.8294716,29.2536577 30.7733864,22.3219504 30.7733864,22.3219504 L3.03942626,22.3219504 L3.03942626,22.3219504 Z" id="Rectangle-1"></path>
                    <rect id="Rectangle-2" x="13.3809029" y="36.6634138" width="7.05100681" height="18.6439024" rx="3.5255034"></rect>
                    <rect id="Rectangle-3" x="11.0305673" y="36.6634138" width="11.2816109" height="3.34634146"></rect>
                    <path d="M16.4295882,20.5740854 C21.2271979,20.5740854 25.379666,20.879076 25.379666,15.9754966 C25.379666,8.28092819 22.2208151,3.47056233 16.4295882,0.263651762 C17.4825385,5.07401762 15.3766378,7.74644308 15.3766378,7.74644308 C15.3766378,7.74644308 15.3766378,5.6085027 13.2707371,5.07401762 C13.5689299,7.74644308 12.4789526,10.1537293 11.1648364,11.4878387 C10.111886,12.5568089 8.00598536,14.1013425 8.00598536,15.9754966 C8.00598536,20.876731 11.6319784,20.5740854 16.4295882,20.5740854 L16.4295882,20.5740854 Z" id="Oval-9"></path>
                </g>
                <g id="office-philadelphia" transform="translate(323.000000, 368.000000)" stroke="#000000" fill="#000000">
                    <path d="M16.5678687,42.1508905 C17.462112,42.1404124 18.1703677,42.1303508 18.5907459,42.1240308 L18.5907459,42.1240308 L18.5907459,45.4870748 C17.8271601,46.0438724 17.3332419,46.9303612 17.3332419,47.9288411 C17.3332419,49.6143746 18.7407512,50.9807692 20.4770024,50.9807692 C22.2132537,50.9807692 23.6207631,49.6143746 23.6207631,47.9288411 C23.6207631,46.9303612 23.1268448,46.0438724 22.3632588,45.4870748 L22.3632588,42.1240308 C24.7028018,42.159204 35.9587256,42.3102595 38.5679046,42.0041066 C41.4838655,41.6619568 41.1262738,40.4641346 40.6681454,39.8862352 C40.2100171,39.308336 37.4985962,36.3452237 36.4446381,35.2257858 C35.3906799,34.1063481 32.3224433,19.8496113 31.0001604,14.4708857 C29.6778776,9.09216032 21.7383275,7.46337247 21.7383263,7.46337247 L21.7383263,3.99323857 C21.7383263,3.99323857 28.1910179,4.95775116 29.6299637,8.33692724 L39.8837358,8.33692724 C39.8837358,8.33692724 35.863143,5.84769825 35.8631448,0.0192307692 L19.7609043,0.0192307692 L5.16881972,0.0192307692 C5.16882157,5.84769825 1.14822881,8.33692724 1.14822881,8.33692724 L11.4020008,8.33692724 C12.8409467,4.95775116 19.2936383,3.99323857 19.2936383,3.99323857 L19.2936383,7.46337247 C19.2936381,7.46337247 11.2761273,9.09216032 9.95384457,14.4708857 C8.6315616,19.8496113 5.56332486,34.1063481 4.50936681,35.2257858 C3.45540876,36.3452237 0.640300053,39.3414928 0.285859469,39.8862352 C-0.0685811157,40.4309776 -0.529860462,41.6619568 2.38610032,42.0041066 C3.91299612,42.1832676 8.4010644,42.205853 12.3305019,42.1867145 L14.5469895,38.2006709 L11.3029907,35.8618029 L14.7488473,31.4320364 L11.0679762,26.8024342 L16.3917999,16.0060892 L14.119481,26.4729512 L18.8302099,31.9227591 L16.0218553,35.5513944 L18.9453379,38.6511581 L16.5678687,42.1508905 L16.5678687,42.1508905 Z" id="Philadelphia-2"></path>
                </g>
                <g id="office-raleigh" transform="translate(640.000000, 191.000000)" fill="#000000">
                    <path d="M18.07476,39.1106974 C18.6403928,39.1892353 19.6690358,41 20.2428597,41 C20.8417445,41 21.6631333,39.2130977 22.2383402,39.1106974 C30.4974067,37.6403914 35.6543206,26.0873619 35.654321,18.032344 C35.654321,18.032344 27.2867438,20.6295179 19,20.5800943 C10.6328114,20.5301909 2.345679,17.8346271 2.34567902,18.032344 C2.34567899,28.1902639 9.57376058,37.9303384 18.07476,39.1106974 L18.07476,39.1106974 Z" id="Oval-6"></path>
                    <path d="M3.89430746,13.2920758 C6.70662287,15.6540742 11.5826839,15.9326491 15.717135,16.6948049 C17.1290422,16.9550798 15.5662651,18.9230777 19.6867471,18.9230777 C23.807229,18.9230777 22.7310855,16.9494577 23.9821339,16.6840178 C27.478204,15.9422428 31.6009434,15.7800544 33.932686,13.7014529 C37.1882883,10.7992887 37.9999997,6.61614524 38,3.64016439 C36.6253293,2.07758639 28.573782,0.0368718983 19.6867471,0.000525835835 C10.3764362,-0.0375513014 0.240024026,2.00316316 0,3.64016439 C-1.28691139e-08,6.95275753 0.822615549,10.7122328 3.89430746,13.2920758 L3.89430746,13.2920758 Z" id="Oval-6" transform="translate(19.000000, 9.461539) rotate(180.000000) translate(-19.000000, -9.461539) "></path>
                </g>
                <g id="office-sanfrancisco" transform="translate(32.000000, 0.000000)" fill="#000000">
                    <path d="M68.0186666,14.3647058 L67.68,14.3647058 C65.0840001,13.6205883 60.7746666,8.96911771 57.6759999,5.00147062 L57.6759999,2.94117646 C57.6759999,1.31617646 56.4826668,0 55.0093332,0 C53.5359999,0 52.3426668,1.31617646 52.3426668,2.94117646 L52.3426668,4.38823521 C49.3933332,7.25882354 42.8106666,12.7382352 35.5333332,12.7382352 C28.6653333,12.7382352 22.264,7.95441167 19.0093332,5.05294125 L19.0093332,2.96176479 C19.0093332,1.33676479 17.8160001,0.0205883333 16.3426668,0.0205883333 C14.8693332,0.0205883333 13.676,1.33676479 13.676,2.96176479 L13.676,4.69705875 C9.93999999,10.0808823 4.54266667,13.7294117 2.32933332,14.3647058 L2,14.3647058 C0.894666672,14.3647058 0,15.3529413 0,16.5705883 C0,17.7897058 0.894666672,18.7764706 2,18.7764706 L13.676,18.7764706 L13.676,21.3573529 C13.676,22.9823529 14.8693332,24.2985294 16.3426668,24.2985294 C17.8160001,24.2985294 19.0093332,22.9823529 19.0093332,21.3573529 L19.0093332,18.7764706 L52.3426668,18.7764706 L52.3426668,21.3897058 C52.3426668,23.0132352 53.5359999,24.3308823 55.0093332,24.3308823 C56.4826668,24.3308823 57.6759999,23.0132352 57.6759999,21.3897058 L57.6759999,18.7764706 L68.0186666,18.7764706 C69.1226667,18.7764706 70.0186668,17.7897058 70.0186668,16.5705883 C70.0186668,15.3529413 69.1226667,14.3647058 68.0186666,14.3647058 L68.0186666,14.3647058 L68.0186666,14.3647058 Z M8.16000001,14.3647058 C9.99066666,13.0102942 11.916,11.2558823 13.676,9.21470583 L13.676,14.3647058 L8.16000001,14.3647058 L8.16000001,14.3647058 L8.16000001,14.3647058 Z M19.0093332,14.3647058 L19.0093332,8.78823521 C21.4319999,10.7455883 24.7626667,12.9838235 28.5706666,14.3647058 L19.0093332,14.3647058 L19.0093332,14.3647058 L19.0093332,14.3647058 Z M42.3906667,14.3647058 C46.4519999,12.8588235 49.9266667,10.3338235 52.3426668,8.23088229 L52.3426668,14.3647058 L42.3906667,14.3647058 L42.3906667,14.3647058 L42.3906667,14.3647058 Z M57.6759999,14.3647058 L57.6759999,9.42058833 C59.1000001,11.1 60.7706667,12.8955883 62.4733334,14.3647058 L57.6759999,14.3647058 L57.6759999,14.3647058 L57.6759999,14.3647058 Z" id="Imported-Layers"></path>
                </g>
                <g id="office-stockholm" transform="translate(34.000000, 463.000000)" fill="#2F3038">
                    <path d="M38.8527968,25.0624 L7.86450406,25.0624 C7.12962602,25.0624 6.53499187,25.6423619 6.53499187,26.356419 L6.53499187,30.2407112 C6.53499187,30.9547683 7.13299187,31.5347302 7.86450406,31.5347302 L38.8527968,31.5347302 C39.5865529,31.5347302 40.1811871,30.9547683 40.1811871,30.2407112 L40.1811871,26.356419 C40.1811871,25.6412445 39.5831871,25.0624 38.8527968,25.0624" id="Fill-1"></path>
                    <path d="M25.6306017,3.69879365 L21.0855772,3.69879365 C20.7747968,3.69879365 20.5246017,3.94798731 20.5246017,4.25752381 L20.5246017,24.0466286 C20.5246017,24.356165 20.7747968,24.6064762 21.0855772,24.6064762 L25.6306017,24.6064762 C25.9413821,24.6064762 26.1926992,24.356165 26.1926992,24.0466286 L26.1926992,4.25752381 C26.1926992,3.94798731 25.9413821,3.69879365 25.6306017,3.69879365" id="Fill-2"></path>
                    <path d="M19.9871871,4.22846984 C19.8065529,4.12789841 19.5855284,4.13795555 19.412748,4.25305397 C19.2455772,4.36144762 15.2536748,7.02100317 11.4704553,14.1682794 C11.4222114,14.262146 11.3997724,14.3671873 11.408748,14.473346 C11.8283577,19.7242921 9.23552845,21.2909714 8.38396748,21.8050031 L8.21230895,21.9100445 C7.36299187,22.4654222 7.33494309,23.867835 7.33830895,24.1427302 C7.3416748,24.4500317 7.59074796,24.6969905 7.89928456,24.6969905 L19.7212845,24.6969905 C20.030943,24.6969905 20.2822602,24.4466793 20.2822602,24.1382603 L20.2822602,4.72015238 C20.2822602,4.51453969 20.168943,4.32568888 19.9871871,4.22846984" id="Fill-3"></path>
                    <path d="M38.502748,21.9089269 L38.3322114,21.8050031 C37.4806503,21.289854 34.8878211,19.7242921 35.3074309,14.473346 C35.3164065,14.3671873 35.2950895,14.262146 35.2457236,14.1682794 C31.463626,7.02100317 27.4706017,4.36144762 27.3034309,4.25305397 C27.1306503,4.13795555 26.9085041,4.12789841 26.7289918,4.22846984 C26.5472357,4.32568888 26.4339187,4.51453969 26.4339187,4.72015238 L26.4339187,24.1382603 C26.4339187,24.4466793 26.6852357,24.6969905 26.9948944,24.6969905 L38.8168944,24.6969905 C39.1254309,24.6969905 39.3745041,24.4500317 39.3778699,24.1427302 C39.3812357,23.867835 39.3531871,22.4654222 38.502748,21.9089269" id="Fill-4"></path>
                    <path d="M11.1204065,14.5828571 C11.0990894,14.4074159 10.9969919,14.2520889 10.8432846,14.1638095 C3.03450406,9.66714921 4.10708944,1.00012698 4.15645529,0.6336 C4.19123577,0.374349207 4.0408943,0.125155556 3.79518699,0.0346412698 C3.54723577,-0.0569904762 3.27235772,0.0357587302 3.12986992,0.255898412 C3.05694309,0.367644445 1.34933333,3.04172698 1.02508943,6.98971429 C0.725528456,10.6315175 1.60626016,16.0746667 7.49986992,21.3177905 C7.60533333,21.4105397 7.73884553,21.4597079 7.87347968,21.4597079 C7.95426017,21.4597079 8.03504065,21.442946 8.11021138,21.4071874 C8.25718699,21.3401397 11.7161626,19.6784762 11.1204065,14.5828571" id="Fill-5"></path>
                    <path d="M43.5874309,0.359822222 C43.444943,0.1408 43.1678211,0.0480507936 42.9221138,0.13968254 C42.6752845,0.230196826 42.524943,0.479390476 42.5608456,0.739758731 C42.5731871,0.829155555 43.7018699,9.76213333 35.8740163,14.2688508 C35.7214309,14.3571302 35.6182114,14.5113397 35.5968944,14.6878984 C35.0011383,19.7835174 38.4601138,21.4440635 38.6070895,21.5122286 C38.6822602,21.5468698 38.7641626,21.5647493 38.8438211,21.5647493 C38.9784553,21.5647493 39.1119675,21.515581 39.2174309,21.4228317 C50.5199675,11.3668064 43.6592357,0.469333333 43.5874309,0.359822222" id="Fill-6"></path>
                    <path d="M25.9021138,2.36901588 L23.7131871,0.587784126 C23.506748,0.420165079 23.208309,0.420165079 23.0029918,0.587784126 L20.7299187,2.43829841 C20.5459187,2.58692064 20.4774796,2.83499683 20.5571383,3.05737143 C20.6356748,3.2808635 20.8488456,3.42836826 21.0855772,3.42836826 L25.6306017,3.42836826 C25.6395772,3.42948571 25.6485529,3.42948571 25.6530406,3.42836826 C25.9626992,3.42836826 26.2140163,3.1791746 26.2140163,2.8696381 C26.2140163,2.65061588 26.0872357,2.45953016 25.9021138,2.36901588" id="Fill-7"></path>
                </g>
                <g id="checklist-admin" transform="translate(0.000000, 247.000000)" fill="#000000">
                    <path d="M24.513896,19.7541162 C29.8169246,19.7541162 34.6201337,21.5561296 37.5814089,24.268019 L39.922068,21.0872096 C36.2241943,17.9285211 30.6935775,15.9217855 24.5136772,15.9217855 C18.3173643,15.9217855 12.7740551,17.938538 9.07661905,21.1112086 L11.4153086,24.2961918 C14.3741766,21.5684422 19.193142,19.7541162 24.513896,19.7541162 L24.513896,19.7541162 Z M24.7657751,11.6280476 C30.560307,11.6280476 35.9653126,13.2245042 39.984217,16.1248381 C40.8004717,16.7137532 41.5366324,17.3408581 42.1865725,17.999266 L44.530514,14.8065614 C39.9678043,10.542457 32.8116812,7.79550818 24.7657751,7.79550818 C16.5257623,7.79550818 9.21973713,10.6760168 4.67628499,15.1170879 L7.0320437,18.32607 C7.75551218,17.5474583 8.59627623,16.8095406 9.54689546,16.1246294 C13.5655813,13.2245042 18.9708056,11.6280476 24.7657751,11.6280476 L24.7657751,11.6280476 Z M24.513896,3.83295674 C33.7110932,3.83295674 41.841032,7.02837426 46.6731275,11.8868196 L49,8.72479204 C43.3654367,3.42017358 34.4929905,0 24.513896,0 C14.5177323,-0.000417374284 5.63390693,3.43039924 0,8.74879105 L2.32512181,11.9160358 C7.15327829,7.04089547 15.2983167,3.83295674 24.513896,3.83295674 L24.513896,3.83295674 Z M43.5017708,28.3664258 L4.69488597,28.3664258 C3.10351787,28.3664258 1.86250463,29.6166705 1.86250463,31.1402954 L1.86250463,55.2828934 C1.86250463,56.7971273 3.10351787,58 4.69488597,58 L43.5017708,58 C45.0988287,58 46.5048433,56.7971273 46.5048433,55.2828934 L46.5048433,31.1402954 C46.5048433,29.6166705 45.0988287,28.3664258 43.5017708,28.3664258 L43.5017708,28.3664258 Z M14.2115822,46.0841729 C11.4868677,46.0841729 9.27488354,43.968294 9.27488354,41.3745216 C9.27488354,38.768019 11.4868677,36.6581921 14.2115822,36.6581921 C16.939798,36.6581921 19.1517822,38.7678104 19.1517822,41.3745216 C19.1517822,43.9685025 16.939798,46.0841729 14.2115822,46.0841729 L14.2115822,46.0841729 L14.2115822,46.0841729 Z M34.0478803,46.0841729 C31.313318,46.0841729 29.0976138,43.968294 29.0976138,41.3745216 C29.0976138,38.768019 31.313318,36.6581921 34.0478803,36.6581921 C36.7767526,36.6581921 38.9887368,38.7678104 38.9887368,41.3745216 C38.9887368,43.9685025 36.7767526,46.0841729 34.0478803,46.0841729 L34.0478803,46.0841729 L34.0478803,46.0841729 Z M16.7428465,41.3745216 C16.7428465,42.7019803 15.612345,43.7836058 14.211801,43.7836058 C12.8215423,43.7836058 11.6875393,42.7019803 11.6875393,41.3745216 C11.6875393,40.0343327 12.8215423,38.9595938 14.211801,38.9595938 C15.612345,38.9595938 16.7428465,40.0343327 16.7428465,41.3745216 L16.7428465,41.3745216 L16.7428465,41.3745216 Z M34.0478803,43.7836058 C32.6512754,43.7836058 31.5201173,42.7019803 31.5201173,41.3745216 C31.5201173,40.0343327 32.6512754,38.9595938 34.0478803,38.9595938 C35.4387955,38.9595938 36.5854909,40.0343327 36.5854909,41.3745216 C36.5854909,42.7019803 35.4387955,43.7836058 34.0478803,43.7836058 L34.0478803,43.7836058 Z" id="Ralph"></path>
                </g>
            </g>
        </g>
    </g>
</svg>