<?xml version="1.0" encoding="UTF-8" standalone="no"?>
<svg width="800px" height="600px" viewBox="0 0 800 600" version="1.1" xmlns="http://www.w3.org/2000/svg" xmlns:xlink="http://www.w3.org/1999/xlink">
    <!-- Generator: Sketch 39.1 (31720) - http://www.bohemiancoding.com/sketch -->
    <title>schoolkeep-intro</title>
    <desc>Created with Sketch.</desc>
    <defs></defs>
    <g id="Page-1" stroke="none" stroke-width="1" fill="none" fill-rule="evenodd" opacity="0.5">
        <g id="schoolkeep-intro" fill="#1EA573">
            <g id="Group" transform="translate(51.000000, 49.000000)">
                <path d="M68.379,49.001 C55.732,50.039 47.977,52.878 43.514,55.169 L43.514,16.27 C47.977,13.968 55.732,11.129 68.379,10.102 L68.379,49.001 Z M10.102,49.001 L10.102,10.102 C22.348,11.129 29.861,13.969 34.19,16.27 L34.19,55.169 C29.861,52.878 22.348,50.038 10.102,49.001 L10.102,49.001 Z M46.76,5.102 C42.35,6.937 40,8.722 39.19,9.411 C38.965,9.602 38.852,9.713 38.852,9.713 C38.852,9.713 38.738,9.601 38.514,9.411 C37.704,8.722 35.354,6.937 30.943,5.102 C24.921,2.594 15.06,0 0,0 L0,58.278 C1.774,58.278 3.471,58.315 5.102,58.381 C11.126,58.626 16.192,59.292 20.412,60.169 C34.01,62.995 38.852,67.991 38.852,67.991 C38.852,67.991 43.694,62.995 57.292,60.169 C61.69,59.255 67.016,58.574 73.379,58.356 C74.774,58.309 76.206,58.278 77.703,58.278 L77.703,0 C62.644,0 52.783,2.594 46.76,5.102 L46.76,5.102 Z" id="Fill-1"></path>
                <path d="M113,385.769231 C113,384.182692 112.428819,382.824519 111.286458,381.694713 C110.144097,380.564903 108.770833,380 107.166667,380 L48.8333332,380 C47.2291668,380 45.8559026,380.564903 44.7135418,381.694713 C43.5711806,382.824519 43,384.182692 43,385.769231 L43,434.230769 C43,435.817308 43.5711806,437.175481 44.7135418,438.305287 C45.8559026,439.435097 47.2291668,440 48.8333332,440 L107.166667,440 C108.770833,440 110.144097,439.435097 111.286458,438.305287 C112.428819,437.175481 113,435.817308 113,434.230769 L113,385.769231 Z M96.1034483,423.29873 L96.1034483,432.89873 L105.758621,432.89873 L105.758621,423.29873 L96.1034483,423.29873 Z M96.1034483,411.29873 L96.1034483,420.89873 L105.758621,420.89873 L105.758621,411.29873 L96.1034483,411.29873 Z M96.1034483,399.29873 L96.1034483,408.89873 L105.758621,408.89873 L105.758621,399.29873 L96.1034483,399.29873 Z M96.1034483,387.29873 L96.1034483,396.89873 L105.758621,396.89873 L105.758621,387.29873 L96.1034483,387.29873 Z M50.2413793,387.29873 L50.2413793,396.89873 L59.8965517,396.89873 L59.8965517,387.29873 L50.2413793,387.29873 Z M50.2413793,399.29873 L50.2413793,408.89873 L59.8965517,408.89873 L59.8965517,399.29873 L50.2413793,399.29873 Z M50.2413793,411.29873 L50.2413793,420.89873 L59.8965517,420.89873 L59.8965517,411.29873 L50.2413793,411.29873 Z M50.2413793,423.29873 L50.2413793,432.89873 L59.8965517,432.89873 L59.8965517,423.29873 L50.2413793,423.29873 Z M62.3103448,411.2 L62.3103448,432.8 L93.6896552,432.8 L93.6896552,411.2 L62.3103448,411.2 Z M62.3103448,387.2 L62.3103448,408.8 L93.6896552,408.8 L93.6896552,387.2 L62.3103448,387.2 Z" id="Video-Icon-2" transform="translate(78.000000, 410.000000) scale(1, -1) translate(-78.000000, -410.000000) "></path>
                <path d="M413.488889,128.81203 C432.536576,128.81203 447.977778,113.407932 447.977778,94.406015 C447.977778,75.4040976 432.536576,60 413.488889,60 C394.441202,60 379,75.4040976 379,94.406015 C379,113.407932 394.441202,128.81203 413.488889,128.81203 Z M423.661791,95.7251822 L408.06527,107.081784 C407.66067,107.376243 407.09747,107.383937 406.686502,107.102767 C406.275534,106.822996 405.944444,106.332698 405.944444,105.762665 L405.944444,83.0494598 C405.944444,82.4794264 406.275534,81.9891277 406.686502,81.7086575 C407.09747,81.4281871 407.613785,81.4358807 408.018385,81.7303397 L423.63806,93.0869422 C424.031662,93.3737074 424.266667,93.8507167 424.266667,94.4060623 C424.266667,94.9614075 424.055395,95.4391164 423.661791,95.7251822 Z" id="Oval-1"></path>
                <path d="M644,200.94011 L708.396427,200.94011 L708.396427,129 L644,129 L644,200.94011 Z M651.727458,152.446154 L651.727458,136.727458 L700.668969,136.727458 L700.668969,157.334375 L651.727458,157.334375 L651.727458,152.446154 Z M650.868973,165.964573 L650.868973,163.344645 L699.810265,163.344645 L699.810265,166.779022 L650.868973,166.779022 L650.868973,165.964573 Z M650.868973,172.833545 L650.868973,170.213617 L699.810265,170.213617 L699.810265,173.647994 L650.868973,173.647994 L650.868973,172.833545 Z M650.868973,179.7023 L650.868973,177.08259 L675.768971,177.08259 L675.768971,180.516967 L650.868973,180.516967 L650.868973,179.7023 Z" id="Page-1"></path>
                <g id="Pencil" transform="translate(529.000000, 358.000000)">
                    <path d="M7.87041819,57.7950269 L7.08502602,59.1672798 C6.97828699,59.6666174 5.0520896,65.4375636 3.29610622,71.2851493 C2.22461055,74.8532184 1.42469942,77.753563 0.918320611,79.9056093 C-0.0478570977,84.0115719 0.210937683,84.6819717 0.618472357,85.0883033 C0.819634377,85.2886363 1.08537667,85.4530888 1.8006545,85.4530888 C2.53314321,85.4530888 3.73711526,85.2804531 5.82452649,84.7977966 C7.98804454,84.2972 10.9039464,83.5057821 14.4913885,82.4452599 C20.3768775,80.7055253 26.185944,78.7956728 26.6320059,78.6488458 L27.8127339,77.7610185 L7.87041819,57.7950269 L7.87041819,57.7950269 Z" id="Fill-1" opacity="0.25"></path>
                    <path d="M22.1262147,72.1682449 C22.1262147,72.1682449 -0.147250617,84.970018 0.260175685,85.394663 C0.461284213,85.6040251 0.726955839,85.7758896 1.44204346,85.7758896 C2.17433738,85.7758896 3.37798929,85.5954729 5.46484542,85.0910632 C7.62778816,84.5679046 10.5429147,83.7408174 14.1294027,82.6324974 C20.0133268,80.8143526 25.8208485,78.8184228 26.2667916,78.6649783 L27.4472058,77.7371365 L22.1262147,72.1682449 L22.1262147,72.1682449 Z" id="Path" opacity="0.5"></path>
                    <path d="M0.902492244,80.3306191 C-0.0406947325,84.3609317 0.211941883,85.0189798 0.609779044,85.4178249 C0.806154303,85.614467 1.06557311,85.7758896 1.76383051,85.7758896 C2.47888924,85.7758896 3.65421211,85.6064344 5.69195224,85.1326707 L0.902492244,80.3306191 L0.902492244,80.3306191 Z" id="Path-2"></path>
                    <path d="M78.6224404,7.74352452 C68.8329239,-2.01299557 66.2980299,0.513435932 66.2980299,0.513435932 L59.6723479,7.11699842 C59.345804,7.44245225 78.9633023,26.9170125 79.3092368,26.57224 C81.4984069,24.3904236 85.8767471,20.0267908 85.8767471,20.0267908 C85.8767471,20.0267908 88.4117992,17.5000446 78.6224404,7.74352452 L71.3232405,17.8630442" id="Fill-2"></path>
                    <polygon id="Fill-1" opacity="0.5" points="57.7262064 8.78759344 7.87041783 57.7950274 27.8127328 77.761019 77.6685221 27.84604"></polygon>
                    <polygon id="Fill-3" points="72.2297094 22.4007695 22.3739202 72.3157486 27.8127328 77.761019 77.6685221 27.84604"></polygon>
                </g>
                <g id="Group-2" transform="translate(183.000000, 165.000000)">
                    <path d="M49.9753399,3.2 C49.9753399,3.2 47.368348,13.1806782 41.0745129,19.4745132 C34.7806782,25.768348 24.8,28.3753399 24.8,28.3753399 C24.8,28.3753399 36.9441043,33.1457579 41.0745129,37.2761666 C45.3358845,41.5375381 49.9753399,53.5506798 49.9753399,53.5506798 C49.9753399,53.5506798 52.5823315,43.5700016 58.8761666,37.2761666 C65.1700016,30.9823318 75.1506798,28.3753399 75.1506798,28.3753399 C75.1506798,28.3753399 65.1700016,25.768348 58.8761666,19.4745132 C52.5823315,13.1806782 49.9753399,3.2 49.9753399,3.2 Z" id="Rectangle-10" opacity="0.5"></path>
                    <path d="M23.077764,72.6934661 C19.4063603,69.0220624 17.8856149,63.2 17.8856149,63.2 C17.8856149,63.2 16.3648699,69.0220624 12.6934661,72.6934661 C9.0220624,76.3648699 3.2,77.8856149 3.2,77.8856149 C3.2,77.8856149 10.2840609,80.6683591 12.6934661,83.077764 C15.1792661,85.563564 17.8856149,92.5712301 17.8856149,92.5712301 C17.8856149,92.5712301 19.4063603,86.7491677 23.077764,83.077764 C26.7491677,79.4063603 32.5712301,77.8856149 32.5712301,77.8856149 C32.5712301,77.8856149 26.7491677,76.3648699 23.077764,72.6934661 L23.077764,72.6934661 Z" id="Rectangle-11"></path>
                    <path d="M17.0380834,8.13725646 C13.8911659,4.99033893 12.5876701,0 12.5876701,0 C12.5876701,0 11.284174,4.99033893 8.13725646,8.13725646 C4.99033893,11.284174 -4.4408921e-14,12.5876698 -4.4408921e-14,12.5876698 C-4.4408921e-14,12.5876698 6.0720523,14.972879 8.13725646,17.0380834 C10.2679422,19.1687689 12.5876701,25.1753399 12.5876701,25.1753399 C12.5876701,25.1753399 13.8911659,20.1850007 17.0380834,17.0380834 C20.185001,13.8911659 25.1753399,12.5876698 25.1753399,12.5876698 C25.1753399,12.5876698 20.185001,11.284174 17.0380834,8.13725646 L17.0380834,8.13725646 Z" id="Rectangle-12" opacity="0.25"></path>
                </g>
                <g id="Page-1" transform="translate(315.000000, 471.000000)">
                    <path d="M0,0.000190588235 L0,53.3896729 L13.63136,53.3896729 L64,53.3896729 L64,0.000190588235 L0,0.000190588235 Z M22.19904,10.7461906 L24.2176,12.8903082 L14.30528,22.0468024 L14.23552,21.9737435 L12.28736,19.9020494 L9.40736,16.8437435 L11.53984,14.8736965 L14.41984,17.9332729 L22.19904,10.7461906 Z M27.90016,18.4268965 L53.08352,18.4268965 L53.08352,14.3019318 L27.90016,14.3019318 L27.90016,18.4268965 Z M22.19904,21.7450376 L24.2176,23.8891553 L14.30528,33.0456494 L14.23552,32.9725906 L12.28736,30.9015318 L9.40736,27.8425906 L11.53984,25.8731788 L14.41984,28.93212 L22.19904,21.7450376 Z M27.90016,29.4263788 L53.08352,29.4263788 L53.08352,25.3014141 L27.90016,25.3014141 L27.90016,29.4263788 Z M48.8864,40.4252259 L53.12384,40.4252259 L53.12384,36.3002612 L48.8864,36.3002612 L48.8864,40.4252259 Z M41.8912,40.4252259 L46.128,40.4252259 L46.128,36.3002612 L41.8912,36.3002612 L41.8912,40.4252259 Z M34.896,40.4252259 L39.13344,40.4252259 L39.13344,36.3002612 L34.896,36.3002612 L34.896,40.4252259 Z M27.90016,40.4252259 L32.1376,40.4252259 L32.1376,36.3002612 L27.90016,36.3002612 L27.90016,40.4252259 Z" id="Fill-1"></path>
                    <polygon id="Fill-3" opacity="0.5" points="27.90016 40.4247812 32.1376 40.4247812 32.1376 36.2998165 27.90016 36.2998165"></polygon>
                    <polygon id="Fill-6" opacity="0.5" points="34.896 40.4247812 39.13344 40.4247812 39.13344 36.2998165 34.896 36.2998165"></polygon>
                    <polygon id="Fill-9" opacity="0.5" points="41.8912 40.4247812 46.12864 40.4247812 46.12864 36.2998165 41.8912 36.2998165"></polygon>
                    <polygon id="Fill-12" opacity="0.5" points="48.8864 40.4247812 53.12384 40.4247812 53.12384 36.2998165 48.8864 36.2998165"></polygon>
                </g>
            </g>
        </g>
    </g>
</svg>