<?xml version="1.0" encoding="UTF-8" standalone="no"?>
<svg width="800px" height="600px" viewBox="0 0 800 600" version="1.1" xmlns="http://www.w3.org/2000/svg" xmlns:xlink="http://www.w3.org/1999/xlink">
    <!-- Generator: Sketch 39.1 (31720) - http://www.bohemiancoding.com/sketch -->
    <title>sharespost-intro</title>
    <desc>Created with Sketch.</desc>
    <defs>
        <path d="M0,471.1 L0,460 L56,460 L56,471.1 C51.8762739,471.1 48.5333333,474.413093 48.5333333,478.5 C48.5333333,482.586907 51.8762739,485.9 56,485.9 L56,497 L0,497 L0,485.9 C4.12372613,485.9 7.46666667,482.586907 7.46666667,478.5 C7.46666667,474.413093 4.12372613,471.1 1.33404399e-12,471.1 Z" id="path-1"></path>
        <mask id="mask-2" maskContentUnits="userSpaceOnUse" maskUnits="objectBoundingBox" x="0" y="0" width="56" height="37" fill="white">
            <use xlink:href="#path-1"></use>
        </mask>
        <path d="M261,73.1 L261,62 L317,62 L317,73.1 C312.876274,73.1 309.533333,76.4130929 309.533333,80.5 C309.533333,84.5869071 312.876274,87.9 317,87.9 L317,99 L261,99 L261,87.9 C265.123726,87.9 268.466667,84.5869071 268.466667,80.5 C268.466667,76.4130929 265.123726,73.1 261,73.1 Z" id="path-3"></path>
        <mask id="mask-4" maskContentUnits="userSpaceOnUse" maskUnits="objectBoundingBox" x="0" y="0" width="56" height="37" fill="white">
            <use xlink:href="#path-3"></use>
        </mask>
    </defs>
    <g id="Page-1" stroke="none" stroke-width="1" fill="none" fill-rule="evenodd" opacity="0.300000012">
        <g id="sharespost-intro">
            <g id="Group" transform="translate(32.000000, 56.000000)">
                <path d="M615,12.1 L615,1 L671,1 L671,12.1 C666.876274,12.1 663.533333,15.4130929 663.533333,19.5 C663.533333,23.5869071 666.876274,26.9 671,26.9 L671,38 L615,38 L615,26.9 C619.123726,26.9 622.466667,23.5869071 622.466667,19.5 C622.466667,15.4130929 619.123726,12.1 615,12.1 Z" id="Stock" fill="#000000"></path>
                <path d="M363,379.1 L363,368 L419,368 L419,379.1 C414.876274,379.1 411.533333,382.413093 411.533333,386.5 C411.533333,390.586907 414.876274,393.9 419,393.9 L419,405 L363,405 L363,393.9 C367.123726,393.9 370.466667,390.586907 370.466667,386.5 C370.466667,382.413093 367.123726,379.1 363,379.1 Z" id="Stock" fill="#000000"></path>
                <path d="M66.2752768,16.168744 L72.2078118,22.101279 L84.8089548,9.50013599 L88.365457,13.0566381 L72.2748486,29.1472465 L62.7858114,19.6582093 L66.2752768,16.168744 Z M74.999828,38.0001 C85.4722196,38.0001 94.0001,29.4935293 94.0001,19.000272 C94.0001,8.52788038 85.4935293,0 74.999828,0 C64.5278804,0 56,8.50657067 56,19.000272 C56,29.4722196 64.5065707,38.0001 74.999828,38.0001 L74.999828,38.0001 Z" id="Fill-1" fill="#000000"></path>
                <use id="Stock" stroke="#000000" mask="url(#mask-2)" stroke-width="8" xlink:href="#path-1"></use>
                <use id="Stock" stroke="#000000" mask="url(#mask-4)" stroke-width="8" xlink:href="#path-3"></use>
                <g id="Page-1" transform="translate(580.000000, 368.000000)" fill="#000000">
                    <path d="M44.634674,73.5655 C44.419854,73.55492 44.207794,73.53514 43.993894,73.5195 C43.759754,73.50248 43.525154,73.48914 43.291014,73.46614 C43.020534,73.43992 42.753274,73.40358 42.485094,73.36954 C42.310754,73.347 42.135494,73.3286 41.961154,73.30284 C41.669514,73.26006 41.381554,73.20808 41.093134,73.1561 C40.941794,73.12896 40.790454,73.10504 40.640034,73.0756 C40.346554,73.01764 40.056754,72.9514 39.766954,72.8847 C39.619294,72.8502 39.471634,72.81892 39.324434,72.78212 C39.043374,72.71266 38.765534,72.63492 38.488154,72.55672 C38.330374,72.5121 38.172594,72.46978 38.015274,72.4224 C37.757214,72.34466 37.501914,72.25956 37.247074,72.17446 C37.069974,72.11558 36.892874,72.05762 36.716694,71.99506 C36.487614,71.91318 36.261294,71.82578 36.034974,71.73792 C35.834874,71.66064 35.635234,71.58428 35.436514,71.50194 C35.238714,71.42006 35.043674,71.33266 34.848174,71.24618 C34.625534,71.1482 34.402434,71.04976 34.182094,70.94534 C34.014654,70.86576 33.849974,70.78158 33.684374,70.69924 C33.441954,70.57826 33.200454,70.45682 32.961254,70.32894 C32.818194,70.25212 32.678354,70.17116 32.536674,70.09204 C32.283674,69.95036 32.031134,69.80776 31.781354,69.6578 C31.653014,69.58052 31.527434,69.4991 31.400474,69.41952 C31.147014,69.26128 30.893554,69.10212 30.643774,68.93468 C30.517734,68.85004 30.395374,68.76126 30.270714,68.67478 C30.028754,68.50642 29.786794,68.33852 29.549434,68.16142 C29.409134,68.05746 29.273434,67.94798 29.135434,67.84126 C28.920614,67.67474 28.704414,67.51006 28.493274,67.33618 C28.313874,67.18898 28.140454,67.03442 27.965194,66.88262 C27.800974,66.74094 27.634914,66.6034 27.473454,66.45666 C27.139494,66.15444 26.812894,65.8444 26.494114,65.52608 C26.490894,65.5224 26.487214,65.51964 26.483994,65.51596 L13.472894,78.52706 C13.741994,78.7957 14.013854,79.0602 14.287554,79.32102 C14.424174,79.45074 14.563094,79.5777 14.701094,79.70604 C14.836794,79.83254 14.972494,79.95996 15.109574,80.08462 C15.295414,80.25298 15.484014,80.41858 15.672614,80.58418 C15.760934,80.66192 15.848794,80.74058 15.937574,80.81786 C16.160674,81.01014 16.386074,81.19966 16.612394,81.38826 C16.666674,81.43334 16.720494,81.47934 16.774774,81.52396 C17.027774,81.73234 17.283074,81.9375 17.540214,82.14036 C17.567814,82.16244 17.594954,82.18452 17.622554,82.20614 C17.900394,82.42418 18.180534,82.639 18.463434,82.8506 C18.470334,82.85612 18.477234,82.86118 18.484134,82.86624 C20.249154,84.18598 22.112154,85.38152 24.059794,86.44044 C24.070374,86.44596 24.080494,86.45148 24.091074,86.45746 C24.395134,86.62214 24.701954,86.7836 25.010154,86.9423 C25.048334,86.96162 25.086974,86.9814 25.125154,87.00072 C25.403914,87.14286 25.684514,87.28224 25.966034,87.41886 C26.041014,87.45474 26.115994,87.49062 26.190974,87.5265 C26.436154,87.6438 26.682714,87.7588 26.930654,87.8715 C27.047494,87.92486 27.164794,87.9773 27.282094,88.02928 C27.488174,88.12174 27.695634,88.21236 27.903554,88.3016 C28.065934,88.37106 28.228774,88.43914 28.391614,88.5063 C28.555834,88.57438 28.720514,88.642 28.886114,88.70824 C29.094494,88.79196 29.304254,88.87384 29.514014,88.95388 C29.634994,89.0008 29.756434,89.04726 29.878334,89.0928 C30.131794,89.18756 30.386174,89.27956 30.641014,89.36972 C30.720594,89.39824 30.800634,89.4263 30.880214,89.45436 C31.174614,89.55648 31.469934,89.65584 31.765714,89.75152 C31.808494,89.76532 31.850814,89.77958 31.893594,89.79338 C32.222034,89.89872 32.550934,90.00084 32.881214,90.09836 C32.894554,90.1025 32.907434,90.10664 32.920774,90.11032 C35.045974,90.73822 37.207054,91.21018 39.386994,91.52482 C39.396654,91.5262 39.406774,91.52758 39.416434,91.52896 C39.764654,91.5791 40.113334,91.6251 40.462014,91.66696 C40.499274,91.67156 40.536994,91.6757 40.574254,91.67984 C40.897634,91.71802 41.221014,91.75344 41.544854,91.78472 C41.616614,91.79162 41.688834,91.79714 41.761054,91.80358 C42.052694,91.83072 42.344334,91.85556 42.636434,91.87718 C42.756034,91.88546 42.875634,91.8919 42.995234,91.89972 C43.243634,91.91582 43.492034,91.93192 43.740434,91.94434 C43.929954,91.95354 44.119934,91.95906 44.309914,91.96596 C44.493454,91.9724 44.676994,91.98114 44.860994,91.98574 C45.239574,91.99494 45.619074,92 45.999954,92 L45.999954,73.6 C45.544554,73.6 45.089614,73.58804 44.634674,73.5655" id="Fill-1" opacity="0.100000001"></path>
                    <path d="M73.368528,42.459472 C73.388308,42.614952 73.408088,42.769972 73.425568,42.925912 C73.438448,43.043672 73.453628,43.160972 73.465128,43.279652 C73.497328,43.598892 73.520328,43.917672 73.541488,44.235992 C73.545168,44.293492 73.549768,44.350532 73.552988,44.407572 C73.568628,44.663332 73.580588,44.918172 73.588868,45.172552 C73.589328,45.195092 73.589328,45.217172 73.590248,45.239712 C73.604968,45.751692 73.604968,46.261832 73.591168,46.769672 C73.590708,46.790832 73.590248,46.811532 73.589328,46.832692 C73.543328,48.427512 73.362088,49.998412 73.047908,51.531132 C73.041468,51.561952 73.033648,51.592312 73.027208,51.623592 C72.941188,52.035752 72.846428,52.445152 72.741548,52.851792 C72.732808,52.885832 72.724068,52.918952 72.715328,52.952992 C72.680828,53.085932 72.643108,53.218412 72.606308,53.350892 C72.538688,53.594692 72.469688,53.837572 72.395628,54.078612 C72.366188,54.175212 72.335368,54.271352 72.305008,54.367952 C72.254408,54.526652 72.203348,54.684892 72.149988,54.842672 C72.100308,54.988952 72.048328,55.134312 71.996348,55.279672 C71.939768,55.438372 71.880888,55.595692 71.821548,55.752552 C71.729088,55.997732 71.632948,56.241532 71.533128,56.483952 C71.447108,56.692792 71.357868,56.899792 71.266788,57.105872 C71.160068,57.349212 71.052888,57.592092 70.938808,57.832672 C70.858768,58.000112 70.774588,58.164792 70.691328,58.330392 C70.637968,58.437112 70.585528,58.544292 70.530788,58.650552 C70.445688,58.814772 70.363808,58.979912 70.275488,59.142752 C70.212468,59.259132 70.143468,59.371372 70.078608,59.486832 C70.005008,59.617472 69.929568,59.747652 69.854128,59.877372 C69.834808,59.910492 69.815948,59.944532 69.796168,59.977652 C69.658168,60.212252 69.518328,60.445932 69.372968,60.677312 C69.308568,60.779892 69.240028,60.880632 69.174248,60.982292 C69.049588,61.174572 68.926308,61.367772 68.797048,61.556832 C68.666408,61.748192 68.529328,61.936332 68.393168,62.124932 C68.254248,62.317672 68.114868,62.509952 67.970888,62.699012 C67.920288,62.766172 67.869688,62.833332 67.818168,62.900032 C67.714668,63.032972 67.608408,63.164072 67.502608,63.295632 C67.394968,63.428572 67.288248,63.561972 67.178768,63.693072 C67.066528,63.827852 66.950608,63.959412 66.835608,64.091892 C66.738548,64.203212 66.643328,64.315452 66.544428,64.425852 C66.476348,64.501292 66.409188,64.576732 66.340188,64.651712 C66.158488,64.850432 65.970348,65.043172 65.782668,65.236832 C65.693428,65.327912 65.608788,65.423592 65.518628,65.513752 C65.517708,65.514672 65.516788,65.515132 65.516328,65.516052 C65.512648,65.519272 65.509428,65.522492 65.505748,65.525712 C65.489648,65.542272 65.472168,65.557452 65.455608,65.574012 C65.226068,65.802172 64.989628,66.024352 64.751808,66.244692 C64.676368,66.315072 64.603228,66.387752 64.526868,66.456752 C64.510768,66.471472 64.495128,66.487112 64.479028,66.501832 C64.205788,66.748392 63.925188,66.987132 63.641828,67.223112 C63.609168,67.250252 63.577888,67.279232 63.545228,67.306372 C63.504288,67.339952 63.464268,67.374912 63.422868,67.408492 C63.406768,67.421832 63.389748,67.433792 63.373188,67.447132 C63.047508,67.711632 62.715388,67.968772 62.376828,68.218552 C62.231928,68.325732 62.083808,68.425552 61.937528,68.529512 C61.726388,68.679012 61.516628,68.828972 61.301348,68.972952 C61.107228,69.102212 60.909888,69.224572 60.713468,69.348312 C60.541428,69.456872 60.370768,69.566812 60.195968,69.671692 C59.969188,69.807852 59.739648,69.936652 59.510108,70.065912 C59.397408,70.128932 59.287928,70.196552 59.173848,70.258192 C59.129228,70.282572 59.083688,70.304652 59.039068,70.328572 C58.799868,70.456912 58.557908,70.578352 58.315948,70.698872 C58.150348,70.781672 57.985668,70.865852 57.818228,70.944972 C57.597428,71.049852 57.374788,71.147832 57.151688,71.246272 C56.956188,71.332752 56.761148,71.419692 56.563348,71.502032 C56.365088,71.583912 56.164988,71.660732 55.964888,71.738012 C55.738568,71.825412 55.512708,71.913272 55.283168,71.995152 C55.107448,72.057712 54.929888,72.115672 54.753248,72.174552 C54.497948,72.259652 54.243108,72.344292 53.984588,72.422492 C53.827728,72.469872 53.669488,72.512192 53.511708,72.556812 C53.234328,72.635012 52.956488,72.712292 52.675888,72.782212 C52.528688,72.819012 52.380568,72.850292 52.232908,72.884332 C52.068228,72.922512 51.904468,72.963452 51.738868,72.998412 L55.563768,90.994992 C58.905668,90.284292 62.084728,89.227672 65.071968,87.870672 C65.140968,87.838932 65.209048,87.806272 65.277588,87.774532 C65.501148,87.671492 65.723328,87.567532 65.944128,87.461732 C65.974488,87.447012 66.004388,87.432752 66.034748,87.418492 C66.315808,87.281872 66.595488,87.143412 66.873328,87.001272 C66.912428,86.981492 66.951528,86.961712 66.990628,86.941472 C67.298368,86.783692 67.604268,86.622692 67.907868,86.458012 C67.918908,86.452032 67.929948,86.446052 67.940988,86.440072 C69.888628,85.381152 71.751168,84.185612 73.515728,82.866332 C73.522628,82.861272 73.529988,82.855752 73.536888,82.850232 C73.819328,82.639092 74.099468,82.424272 74.376848,82.206692 C74.404908,82.184152 74.432968,82.161612 74.461488,82.139072 C74.717708,81.937132 74.972548,81.732432 75.224628,81.524512 C75.280288,81.478512 75.335488,81.431592 75.391148,81.385132 C75.616088,81.197912 75.840108,81.009772 76.061828,80.817952 C76.151528,80.740672 76.240308,80.660632 76.329548,80.582432 C76.517228,80.417292 76.705368,80.252612 76.890288,80.084712 C77.028748,79.959132 77.164908,79.830792 77.301988,79.702912 C77.438608,79.575952 77.576608,79.450372 77.711848,79.321572 C77.986008,79.060752 78.257868,78.796252 78.526968,78.526692 C78.827808,78.226312 79.121748,77.921332 79.412008,77.614512 C79.515508,77.505492 79.617628,77.394632 79.719748,77.284232 C79.901908,77.088272 80.081768,76.891392 80.259788,76.693132 C80.384448,76.553752 80.509108,76.414372 80.632388,76.273152 C80.777288,76.107552 80.919888,75.940572 81.062488,75.773132 C81.168288,75.648472 81.274548,75.524272 81.378968,75.398232 C81.466368,75.292892 81.553308,75.187092 81.639788,75.081292 C81.664168,75.051392 81.688088,75.021032 81.712468,74.991132 C81.809528,74.871532 81.906128,74.751932 82.002268,74.631412 C82.137048,74.461672 82.271368,74.291012 82.403848,74.118972 C82.469168,74.034792 82.534028,73.950152 82.598428,73.865512 C82.771848,73.637352 82.944348,73.408272 83.113628,73.176892 C83.132028,73.151592 83.150888,73.125832 83.169288,73.100072 C85.852468,69.417772 87.987328,65.344932 89.486928,61.016792 C89.505788,60.961592 89.523728,60.906392 89.542588,60.850732 C89.641028,60.563232 89.738088,60.274812 89.830548,59.985012 C89.947388,59.618852 90.060548,59.251772 90.167728,58.882852 C90.180608,58.838692 90.192108,58.794532 90.204988,58.750372 C90.316768,58.361212 90.424408,57.971592 90.526068,57.580592 C90.526988,57.576912 90.527908,57.573232 90.528828,57.569552 C90.966288,55.878592 91.305768,54.167392 91.548188,52.445612 C91.551868,52.419392 91.555548,52.393632 91.559228,52.367412 C91.613968,51.975032 91.662728,51.581732 91.706888,51.187972 C91.712408,51.141052 91.717928,51.094132 91.722988,51.047212 C91.764388,50.671852 91.800268,50.295572 91.832008,49.918832 C91.837068,49.861332 91.843048,49.803832 91.847648,49.746332 C91.878468,49.364992 91.903768,48.983652 91.925388,48.601852 C91.928148,48.554472 91.931828,48.506632 91.934128,48.459252 C91.957128,48.030072 91.974148,47.600432 91.985188,47.170792 C91.985188,47.163892 91.985188,47.157452 91.985648,47.150552 C91.995768,46.743912 91.999448,46.337272 91.998988,45.930632 C91.998528,45.616452 91.991628,45.303652 91.984728,44.991312 C91.982428,44.879532 91.982428,44.768212 91.979208,44.656432 C91.975528,44.526712 91.969088,44.397452 91.964488,44.267732 C91.958508,44.115472 91.950688,43.963672 91.943788,43.811412 C91.936888,43.663752 91.931828,43.516552 91.923548,43.368892 C91.916648,43.247912 91.908368,43.127392 91.900548,43.006872 C91.879848,42.689012 91.856848,42.371612 91.829708,42.054212 C91.821888,41.963132 91.814068,41.872512 91.805788,41.781432 C91.772668,41.421712 91.735868,41.062452 91.694468,40.703192 C91.688948,40.653512 91.683428,40.603372 91.677448,40.553232 C91.637888,40.219272 91.592808,39.885312 91.545888,39.551812 L73.331728,42.149432 C73.346908,42.252932 73.355188,42.355972 73.368528,42.459472" id="Fill-3" opacity="0.800000012"></path>
                    <path d="M18.991192,40.27277 C20.021132,35.37423 22.341832,30.99319 25.555852,27.45855 C25.567812,27.44567 25.580232,27.43233 25.592192,27.41899 C25.862212,27.12321 26.138212,26.83387 26.420652,26.55051 C26.461592,26.50911 26.502072,26.46817 26.543012,26.42723 C26.799692,26.17285 27.061432,25.92353 27.328232,25.67881 C27.387112,25.62453 27.445532,25.56933 27.505332,25.51551 C27.762012,25.28413 28.023752,25.05827 28.288712,24.83655 C28.355872,24.78089 28.421192,24.72293 28.488352,24.66727 C28.780912,24.42761 29.078072,24.19439 29.380292,23.96669 C29.484712,23.88757 29.590972,23.81121 29.696772,23.73347 C29.951152,23.54763 30.206912,23.36271 30.468192,23.18515 C30.660932,23.05359 30.859192,22.92847 31.055612,22.80151 C31.199132,22.70905 31.340812,22.61521 31.486172,22.52551 C31.706512,22.38889 31.930992,22.25779 32.155472,22.12715 C32.279212,22.05539 32.402492,21.98317 32.527612,21.91325 C32.767272,21.77893 33.009232,21.64921 33.253032,21.52179 C33.363892,21.46383 33.475672,21.40679 33.587912,21.35021 C33.845972,21.22003 34.105872,21.09307 34.368532,20.97071 C34.461912,20.92701 34.556212,20.88561 34.650512,20.84329 C34.933412,20.71495 35.217692,20.58937 35.506112,20.47069 C35.553032,20.45137 35.600872,20.43389 35.648252,20.41457 C36.628052,20.01759 37.635912,19.67581 38.668152,19.39199 C38.745432,19.37083 38.821792,19.34737 38.899072,19.32667 C39.161272,19.25721 39.426232,19.19511 39.691652,19.13301 C39.846212,19.09667 40.000772,19.05941 40.156252,19.02583 C40.393612,18.97431 40.632352,18.92831 40.871552,18.88323 C41.063372,18.84689 41.255192,18.81239 41.448392,18.78019 C41.667352,18.74385 41.886312,18.70981 42.107112,18.67853 C42.331132,18.64679 42.556532,18.61919 42.781932,18.59297 C42.980192,18.56997 43.177992,18.54605 43.377172,18.52719 C43.648572,18.50143 43.921352,18.48303 44.194592,18.46509 C44.355132,18.45497 44.514292,18.44117 44.675752,18.43335 C45.115052,18.41265 45.556192,18.40023 46.000092,18.40023 C52.189392,18.40023 57.902592,20.43757 62.506272,23.87791 C62.494312,23.86871 62.482812,23.85859 62.470392,23.84985 L73.468532,9.09903 C65.803092,3.38353 56.296732,0.00023 46.000092,0.00023 C45.368052,0.00023 44.740152,0.01633 44.114552,0.04163 C44.020712,0.04531 43.927332,0.04807 43.833952,0.05221 C43.238712,0.07981 42.646232,0.11983 42.056972,0.16997 C41.946112,0.17963 41.835252,0.18929 41.724852,0.19941 C41.135132,0.25369 40.548632,0.31763 39.965812,0.39399 C39.879792,0.40549 39.794692,0.41837 39.708672,0.42987 C39.111132,0.51175 38.515892,0.60283 37.925252,0.70725 C37.909152,0.71001 37.893052,0.71231 37.876952,0.71507 C37.280332,0.82133 36.688772,0.94231 36.099972,1.07157 C36.008432,1.09181 35.915972,1.11067 35.824432,1.13137 C35.261852,1.25879 34.703412,1.39679 34.148652,1.54445 C34.043772,1.57205 33.939352,1.60057 33.834932,1.62909 C33.278332,1.78135 32.725412,1.94235 32.177552,2.11485 C32.101652,2.13831 32.026672,2.16407 31.951232,2.18799 C31.398312,2.36555 30.849072,2.55093 30.305352,2.74827 C30.277292,2.75839 30.248772,2.76805 30.220252,2.77817 C29.667792,2.98011 29.121772,3.19493 28.579892,3.41665 C28.490652,3.45345 28.401412,3.48887 28.312172,3.52613 C27.790992,3.74325 27.274872,3.97049 26.763812,4.20601 C26.667672,4.25017 26.572452,4.29525 26.476772,4.34033 C25.961112,4.58229 25.449592,4.83207 24.944972,5.09243 C24.881492,5.12509 24.818932,5.15913 24.755452,5.19225 C24.252212,5.45491 23.753572,5.72539 23.261372,6.00599 C23.225952,6.02623 23.189612,6.04555 23.154192,6.06625 C22.653712,6.35283 22.160592,6.65137 21.672532,6.95589 C21.589272,7.00787 21.505552,7.05939 21.422752,7.11183 C20.951252,7.41083 20.485732,7.71765 20.026192,8.03275 C19.940632,8.09163 19.855532,8.15097 19.770432,8.20985 C19.305372,8.53369 18.844912,8.86351 18.392272,9.20391 C18.341672,9.24209 18.291532,9.28165 18.240932,9.31983 C17.793812,9.65885 17.353132,10.00523 16.918892,10.35989 C16.879332,10.39209 16.839312,10.42337 16.800212,10.45557 C16.359992,10.81759 15.928512,11.18927 15.502092,11.56739 C15.427112,11.63363 15.351672,11.69987 15.276692,11.76703 C14.863612,12.13825 14.457432,12.51637 14.057692,12.90231 C13.985012,12.97269 13.912792,13.04353 13.840572,13.11437 C13.434392,13.51135 13.034192,13.91431 12.643192,14.32601 C12.604552,14.36649 12.567292,14.40789 12.529112,14.44837 C12.145472,14.85547 11.769192,15.26901 11.400732,15.68945 C11.361632,15.73453 11.321152,15.77823 11.282052,15.82331 C10.909912,16.25111 10.547432,16.68719 10.190932,17.12879 C10.126992,17.20791 10.062592,17.28703 9.999112,17.36661 C9.652272,17.80223 9.313252,18.24383 8.982052,18.69187 C8.923632,18.77145 8.866132,18.85103 8.808172,18.93061 C8.470532,19.39383 8.139332,19.86165 7.819172,20.33729 C7.793412,20.37547 7.769032,20.41411 7.743272,20.45183 C7.430012,20.92011 7.125952,21.39483 6.829712,21.87507 C6.794292,21.93257 6.757492,21.98915 6.722532,22.04665 C6.426292,22.53103 6.141092,23.02185 5.862792,23.51773 C5.811732,23.60835 5.760672,23.69897 5.710532,23.79005 C5.439592,24.28041 5.176932,24.77583 4.923472,25.27723 C4.879772,25.36417 4.836992,25.45157 4.793752,25.53851 C4.535232,26.05831 4.283612,26.58271 4.043952,27.11355 C4.029692,27.14575 4.016352,27.17795 4.002092,27.20969 C3.767952,27.73271 3.544392,28.26125 3.329112,28.79393 C3.301052,28.86385 3.271612,28.93285 3.244012,29.00277 C3.032412,29.53407 2.832772,30.07089 2.640492,30.61139 C2.605072,30.71167 2.569652,30.81195 2.534232,30.91269 C2.347932,31.45043 2.170372,31.99185 2.003392,32.53787 C1.975792,32.62895 1.949572,32.72003 1.922432,32.81111 C1.752232,33.38059 1.589852,33.95375 1.441272,34.53243 C1.435752,34.55451 1.430692,34.57659 1.425172,34.59867 C1.279352,35.16999 1.146412,35.74683 1.022212,36.32689 C1.010712,36.38025 0.998752,36.43315 0.987252,36.48651 L18.991192,40.27277 Z" id="Fill-5" opacity="0.400000006"></path>
                    <path d="M13.473078,78.526922 L26.483718,65.516282 C26.487398,65.519502 26.490618,65.522722 26.493838,65.525942 C21.493638,60.530342 18.400138,53.626662 18.400138,45.999862 C18.400138,38.862502 21.109538,32.358102 25.555898,27.458642 C22.341878,30.993282 20.021178,35.374322 18.991238,40.272862 L0.987298,36.486602 C0.341918,39.556642 0.000137999999,42.738002 0.000137999999,45.999862 C0.000137999999,58.702762 5.148918,70.202762 13.473078,78.526922" id="Fill-7" opacity="0.200000003"></path>
                    <path d="M62.50641,23.878094 C62.89373,24.167434 63.27139,24.468734 63.64261,24.777394 C63.78429,24.895154 63.92045,25.017974 64.05937,25.138034 C64.29075,25.338594 64.52029,25.540534 64.74523,25.748914 C64.90945,25.900714 65.06953,26.055274 65.22961,26.210754 C65.41637,26.391994 65.59991,26.575534 65.78161,26.761834 C65.95273,26.938014 66.12293,27.114654 66.28945,27.294974 C66.44447,27.462874 66.59489,27.634914 66.74577,27.806954 C66.92241,28.007514 67.09997,28.207154 67.27017,28.412314 C67.37045,28.533294 67.46475,28.658874 67.56319,28.781694 C67.95465,29.271134 68.32863,29.772074 68.68513,30.285894 C68.76011,30.393534 68.83785,30.498414 68.91099,30.606974 C69.08395,30.864114 69.24817,31.126314 69.41239,31.388974 C69.50439,31.536174 69.59731,31.682914 69.68701,31.832414 C69.84019,32.087714 69.98739,32.346234 70.13229,32.606594 C70.22383,32.771274 70.31353,32.936874 70.40139,33.103394 C70.53663,33.358694 70.66957,33.615374 70.79653,33.874814 C70.88623,34.057894 70.97087,34.243274 71.05643,34.428194 C71.17281,34.679814 71.29057,34.930974 71.39913,35.186274 C71.49389,35.408914 71.58037,35.636154 71.66961,35.861554 C71.80531,36.205174 71.93549,36.551094 72.05739,36.900694 C72.16917,37.220394 72.28003,37.540554 72.37985,37.865774 C72.44011,38.061274 72.49209,38.259534 72.54775,38.456414 C72.62917,38.743454 72.70921,39.030494 72.78143,39.321214 C72.83157,39.522694 72.87619,39.726014 72.92173,39.929334 C72.98797,40.222354 73.05007,40.516754 73.10619,40.813454 C73.14437,41.014014 73.18025,41.215034 73.21429,41.416974 C73.26167,41.701714 73.30399,41.987834 73.34263,42.275334 C73.32929,42.173674 73.32193,42.072474 73.30721,41.970814 L91.51355,39.308794 C91.52551,39.389754 91.53425,39.470714 91.54575,39.551674 L91.54667,39.551674 C91.53241,39.450474 91.51999,39.348354 91.50527,39.247154 C91.49469,39.174014 91.48549,39.100874 91.47445,39.028194 C91.41051,38.607294 91.34059,38.189154 91.26515,37.772394 C91.24399,37.653254 91.21961,37.535494 91.19707,37.416814 C91.14095,37.118274 91.08253,36.820194 91.02043,36.523494 C90.98915,36.373074 90.95557,36.223574 90.92291,36.073614 C90.86403,35.808194 90.80377,35.543234 90.74121,35.279194 C90.70395,35.123254 90.66577,34.967774 90.62713,34.812754 C90.56135,34.548714 90.49235,34.285594 90.42197,34.023394 C90.38287,33.878034 90.34423,33.732214 90.30375,33.587314 C90.22003,33.287394 90.13171,32.988854 90.04201,32.691234 C90.01119,32.589114 89.98221,32.486074 89.95093,32.384414 C89.82765,31.986974 89.69977,31.591374 89.56637,31.198534 C89.53509,31.106994 89.50151,31.016374 89.46977,30.925294 C89.36535,30.623534 89.25863,30.323154 89.14823,30.024614 C89.09671,29.886154 89.04335,29.748614 88.99091,29.610614 C88.89477,29.358994 88.79725,29.107834 88.69697,28.857594 C88.63809,28.711314 88.57829,28.565494 88.51803,28.420134 C88.41683,28.175874 88.31333,27.932534 88.20799,27.690574 C88.14727,27.549814 88.08655,27.409054 88.02399,27.269214 C87.90715,27.007014 87.78663,26.747114 87.66473,26.487674 C87.61137,26.373594 87.55939,26.258594 87.50511,26.144974 C87.32755,25.774674 87.14585,25.406674 86.95909,25.042354 C86.93655,24.998654 86.91309,24.955874 86.89055,24.912634 C86.72449,24.591554 86.55521,24.272314 86.38179,23.955374 C86.31601,23.834394 86.24747,23.715254 86.18031,23.595194 C86.04691,23.355994 85.91213,23.117714 85.77459,22.881274 C85.69639,22.747414 85.61727,22.614014 85.53769,22.481074 C85.40383,22.256594 85.26859,22.033954 85.13105,21.811774 C85.05009,21.681594 84.96959,21.550954 84.88725,21.421234 C84.74005,21.188934 84.59009,20.958934 84.43875,20.729394 C84.36423,20.615774 84.29063,20.501694 84.21519,20.389454 C84.01003,20.084014 83.80165,19.781334 83.58959,19.480954 C83.56613,19.448294 83.54405,19.414714 83.52105,19.382054 C83.28507,19.050394 83.04403,18.722414 82.79977,18.397194 C82.72387,18.296454 82.64613,18.197094 82.56977,18.096814 C82.39819,17.872334 82.22569,17.649234 82.04997,17.427974 C81.95567,17.308834 81.85999,17.191534 81.76431,17.073314 C81.60101,16.871374 81.43587,16.670354 81.26889,16.471174 C81.16907,16.352494 81.06925,16.233814 80.96805,16.115594 C80.79509,15.913194 80.61937,15.712634 80.44273,15.512994 C80.34797,15.406274 80.25413,15.298634 80.15845,15.192834 C79.94501,14.956394 79.72835,14.722714 79.50985,14.490414 C79.44959,14.426014 79.39025,14.360234 79.32907,14.295834 C79.04893,14.001894 78.76511,13.711634 78.47761,13.425054 C78.40171,13.349154 78.32351,13.275094 78.24715,13.199654 C78.03325,12.989894 77.81843,12.781054 77.60085,12.574974 C77.49367,12.473774 77.38511,12.373954 77.27701,12.273674 C77.08427,12.094734 76.89061,11.917174 76.69511,11.741914 C76.57919,11.638414 76.46327,11.535374 76.34689,11.432794 C76.14955,11.259834 75.95037,11.088254 75.75027,10.918514 C75.63711,10.822834 75.52487,10.726234 75.41125,10.631474 C75.18493,10.443334 74.95631,10.258414 74.72677,10.074414 C74.63799,10.003114 74.55013,9.930894 74.46089,9.860054 C74.14119,9.608434 73.81919,9.360494 73.49305,9.117154 C73.48477,9.110714 73.47649,9.105194 73.46867,9.099214 L62.47053,23.849574 C62.48295,23.858774 62.49399,23.868894 62.50641,23.878094" id="Fill-9" opacity="0.600000024"></path>
                    <path d="M55.563952,90.994808 L51.738592,72.998688 C51.613012,73.025368 51.486512,73.050668 51.360012,73.075508 C51.209592,73.104948 51.057792,73.129328 50.906912,73.156468 C50.618492,73.207988 50.330072,73.259968 50.038892,73.302748 C49.864552,73.328508 49.689292,73.347368 49.514492,73.369448 C49.246772,73.403488 48.979512,73.439828 48.709032,73.466048 C48.474892,73.489048 48.240292,73.502388 48.005692,73.519408 C47.792252,73.535048 47.580192,73.554828 47.365372,73.565408 C46.910432,73.587948 46.455032,73.599908 46.000092,73.599908 L46.000092,91.999908 C46.380972,91.999908 46.760472,91.994848 47.139052,91.985648 C47.323052,91.981048 47.506592,91.972768 47.690592,91.965868 C47.880112,91.958968 48.070092,91.953448 48.259152,91.944248 C48.508012,91.932288 48.756412,91.915728 49.004812,91.899628 C49.124412,91.892268 49.244012,91.885828 49.363612,91.877088 C49.655712,91.855928 49.947812,91.830628 50.239452,91.803488 C50.311212,91.797048 50.383432,91.791528 50.454732,91.784628 C50.779032,91.753348 51.102872,91.717928 51.426252,91.679748 C51.463512,91.675608 51.500312,91.671468 51.537572,91.667328 C51.886712,91.625008 52.235392,91.579008 52.583612,91.528868 C52.593272,91.527488 52.603392,91.526108 52.613052,91.524728 C54.792992,91.210088 56.954072,90.738588 59.079272,90.110228 C59.092152,90.106548 59.105492,90.102408 59.118832,90.098728 C59.449112,90.000748 59.778012,89.898628 60.106452,89.793288 C60.148772,89.779488 60.191552,89.765688 60.233872,89.751888 C60.530112,89.655748 60.825892,89.556388 61.120292,89.453808 C61.199872,89.426208 61.278992,89.398148 61.357652,89.370088 C61.613412,89.279928 61.868252,89.187468 62.122172,89.092248 C62.243612,89.047168 62.364592,89.000708 62.485112,88.954248 C62.695792,88.873748 62.905552,88.791868 63.114852,88.708148 C63.279532,88.641908 63.443292,88.574748 63.606592,88.507128 C63.770812,88.439508 63.934112,88.370968 64.097412,88.301048 C64.304412,88.212268 64.510952,88.122108 64.716572,88.030108 C64.834792,87.977668 64.953012,87.924768 65.070772,87.871408 C65.071232,87.870948 65.071692,87.870948 65.072152,87.870488 C62.084912,89.227948 58.905852,90.284568 55.563952,90.994808" id="Fill-11"></path>
                </g>
                <path d="M517.452585,207.644185 L521.128964,209.176471 L490,209.176471 L495.176471,204 L495.176471,270 L490,264.823529 L541.764706,264.823529 L536.588235,270 L536.588235,224.818043 L538.088327,228.462229 L517.452585,207.644185 Z M541.764706,224.818043 L541.764706,270 L490,270 L490,204 L521.128964,204 L541.764706,224.818043 Z" id="Stock" fill="#000000"></path>
                <path d="M135.436999,262.768924 L139.567073,262.768924 L139.567073,256.743078 C150.061523,255.998311 153.988479,249.633934 153.988479,243.540382 C153.988479,234.670879 146.540805,232.098046 139.567073,230.134568 L139.567073,215.374631 C143.358616,215.91628 146.879335,217.608933 149.587581,220.588003 L152.972887,216.457929 C149.655287,213.004916 145.186682,210.702907 139.567073,210.228964 L139.567073,204 L135.436999,204 L135.436999,210.161258 C127.312262,210.770613 121.421829,215.713161 121.421829,222.686893 C121.421829,231.014747 128.530973,233.316756 135.436999,235.212528 L135.436999,251.665118 C130.088214,251.055763 125.95814,248.347518 123.385307,245.300742 L120,249.633934 C123.385307,253.493184 128.598679,256.336842 135.436999,256.743078 L135.436999,262.768924 Z M148.165752,243.946619 C148.165752,247.196513 145.999155,251.055763 139.567073,251.732824 L139.567073,236.295826 C144.306502,237.717655 148.165752,239.54572 148.165752,243.946619 L148.165752,243.946619 Z M127.244556,222.348362 C127.244556,218.421407 130.629863,215.577749 135.436999,215.239218 L135.436999,229.05127 C130.832981,227.697147 127.244556,226.0722 127.244556,222.348362 L127.244556,222.348362 Z" id="$" fill="#000000"></path>
            </g>
        </g>
    </g>
</svg>