<?xml version="1.0" encoding="UTF-8" standalone="no"?>
<svg width="800px" height="600px" viewBox="0 0 800 600" version="1.1" xmlns="http://www.w3.org/2000/svg" xmlns:xlink="http://www.w3.org/1999/xlink">
    <!-- Generator: Sketch 39.1 (31720) - http://www.bohemiancoding.com/sketch -->
    <title>summit-intro</title>
    <desc>Created with Sketch.</desc>
    <defs>
        <polygon id="path-1" points="0.0003 54 57.3963 54 57.3963 0.0555 0.0003 0.0555"></polygon>
    </defs>
    <g id="Page-1" stroke="none" stroke-width="1" fill="none" fill-rule="evenodd" opacity="0.25">
        <g id="summit-intro">
            <g id="Group" transform="translate(55.000000, 74.000000)">
                <path d="M52.879192,87.1391272 C52.879192,82.6440035 56.4818727,79 60.9260218,79 C65.370171,79 68.9728516,82.6440035 68.9728516,87.1391272 C68.9728516,91.6342509 65.370171,95.2782544 60.9260218,95.2782544 C56.4818727,95.2782544 52.879192,91.6342509 52.879192,87.1391272 L52.879192,87.1391272 Z M76.7345937,111.642551 C73.8193423,111.075138 64.6804427,108.449688 61.0317801,103.95689 C59.4224142,101.968617 56.5255555,101.680259 54.562129,103.312736 C52.5964034,104.940561 52.3113157,107.870647 53.9229808,109.856594 C60.3167618,117.73992 73.5227591,120.48862 75.0056749,120.774652 C75.2976599,120.832788 75.5873457,120.858369 75.8747325,120.858369 C78.0358811,120.858369 79.9648211,119.309609 80.3855554,117.081814 C80.863767,114.56101 79.229111,112.123922 76.7345937,111.642551 L76.7345937,111.642551 Z M4.34531276,148.147699 C4.91318904,148.17793 5.51325263,148.194209 6.14320445,148.194209 C15.9281495,148.194209 32.6126763,144.129296 35.923372,128.137074 C36.4429673,125.623246 34.849695,123.158253 32.3643742,122.630373 C29.8652587,122.116445 27.4443125,123.71869 26.920119,126.230193 C24.1359159,139.680682 5.61671187,138.897 4.85341259,138.859793 C2.26233339,138.731892 0.147166695,140.680632 0.0069219466,143.245619 C-0.131023707,145.812933 1.80941182,148.005846 4.34531276,148.147699 L4.34531276,148.147699 Z M14.0061067,101.501199 C18.1375791,98.7780791 30.4676214,94.9643167 40.581337,98.687386 C35.2060546,105.954464 33.1736553,111.528603 34.0473111,116.379523 C35.1370818,122.44201 40.3951103,125.376747 44.6208455,127.732443 C48.7707106,130.050931 51.3319016,131.648526 51.9365634,134.301881 C52.5320288,136.920355 51.6698684,142.299155 44.167924,153.061407 C42.7034009,155.161302 43.2023044,158.061156 45.2783865,159.542478 C46.0830694,160.116867 47.0050062,160.391272 47.9223448,160.391272 C49.3684751,160.391272 50.7893153,159.70526 51.6859621,158.421603 C59.491387,147.217513 62.418134,138.890024 60.8984327,132.213614 C59.3304504,125.31861 53.6378931,122.142025 49.0649947,119.59099 C46.1520423,117.96549 43.4023256,116.430683 43.0942469,114.712165 C42.8735339,113.491296 43.2229962,109.628698 51.1893577,100.180334 C52.0377235,99.1734082 52.4239713,97.8502186 52.2469411,96.536331 C52.0699108,95.2270942 51.3525934,94.0527344 50.26972,93.3132366 C36.1808706,83.6509298 16.429352,88.8041601 8.98718402,93.7085656 C6.85822276,95.1084955 6.25815916,97.992072 7.64451299,100.143127 C9.03086681,102.296508 11.8771455,102.908105 14.0061067,101.501199 L14.0061067,101.501199 Z" id="Treadmill" fill="#BD2A2F"></path>
                <path d="M92.0130481,373.517705 C93.11876,372.431191 94.9965961,373.163002 94.9965961,374.708764 C94.9928479,390.987807 94.974107,456.010638 94.974107,458.904275 C94.974107,466.987791 82.436459,466.898182 82.436459,458.904275 C82.436459,456.802188 83.6471198,440.922653 84.1943534,433.88458 C84.355525,431.793694 83.8795067,429.728944 82.9087291,427.873282 C81.626853,425.416491 80.0076411,421.671564 80.0076411,418.370951 C80.0076411,413.266948 79.280495,386.055556 92.0130481,373.517705 L92.0130481,373.517705 Z M118.115344,373.282481 C117.197041,373.282481 116.43991,374.00309 116.394932,374.917853 L115.394169,397.047644 C115.394169,398.335779 114.34468,399.381222 113.051559,399.381222 C111.758438,399.381222 110.708949,398.335779 110.708949,397.047644 C110.596504,388.900655 110.941336,382.407706 111.484821,375.123207 C111.559785,374.130036 110.772668,373.282481 109.768157,373.282481 C108.947306,373.282481 107.725401,373.857474 107.56423,374.660225 C106.818343,378.408886 104.869291,389.277761 104.869291,400.688026 C104.869291,405.61281 107.680423,410.321038 112.283183,412.538871 C113.381398,413.065327 113.992351,414.256385 113.936128,415.469846 L111.829654,458.855737 C111.829654,462.316901 114.644534,465.120929 118.119093,465.120929 C121.593652,465.120929 124.41228,462.316901 124.41228,458.855737 L122.414502,415.406373 C122.358279,414.207847 122.961736,413.027989 124.044958,412.4978 C128.595244,410.261299 131.372642,405.579207 131.372642,400.688026 C131.372642,389.277761 129.423591,378.408886 128.677704,374.660225 C128.516532,373.857474 127.320864,373.282481 126.496265,373.282481 C125.495503,373.282481 124.704637,374.130036 124.779601,375.123207 C125.326835,382.407706 125.671667,388.900655 125.555473,397.047644 C125.555473,398.335779 124.509732,399.381222 123.216612,399.381222 C121.923491,399.381222 120.874002,398.335779 120.874002,397.047644 L119.869491,374.917853 C119.828261,374.00309 119.037396,373.282481 118.115344,373.282481 L118.115344,373.282481 Z" id="Food" fill="#BD2A2F"></path>
                <path d="M282.011355,3.98767686 C281.846153,1.78534374 283.503035,0 285.712352,0 L331.076995,0 C333.286201,0 334.943548,1.78061737 334.777991,3.98767686 L329.446809,75.0584772 C329.281607,77.2608104 327.364222,79.0461541 325.149074,79.0461541 L291.640272,79.0461541 C289.431901,79.0461541 287.508094,77.2655367 287.342537,75.0584772 L282.011355,3.98767686 Z M287.95431,7.63720453 C287.880285,6.53757761 288.715837,5.64615386 289.827986,5.64615386 L326.862476,5.64615386 C327.971305,5.64615386 328.810008,6.54010907 328.736153,7.63720453 L324.443121,71.4089496 C324.369096,72.5085765 323.421833,73.4000002 322.311865,73.4000002 L294.378598,73.4000002 C293.275563,73.4000002 292.321197,72.506045 292.247342,71.4089496 L287.95431,7.63720453 Z M321.383373,32.7234297 L319.109039,66.1440512 C319.010896,67.5627556 317.769186,68.669345 316.271454,68.669345 L300.769279,68.669345 C299.271547,68.669345 298.029837,67.5627556 297.931695,66.1440512 L295.550683,31.1871755 C295.478144,30.1089602 296.101132,29.0793862 297.142291,28.6537748 C298.076774,28.2727514 299.263013,28.0092777 300.765012,28.0092777 C306.303637,28.0092777 310.877909,30.1576015 315.371107,30.1576015 C316.271454,30.1576015 317.607039,29.9630363 318.878618,30.0238379 C320.359283,30.0927464 321.481516,31.3209391 321.383373,32.7234297 Z" id="beer" fill="#BD2A2F"></path>
                <path d="M282.340068,199.556089 C282.340068,204.817424 289.594426,206.945485 289.594426,212.837753 C289.594426,218.494758 286.066622,221.710019 283.880377,223.160807 C283.376405,223.492314 282.751764,222.957626 282.993103,222.401549 C283.706471,220.754709 284.639884,218.241672 284.639884,216.377391 C284.639884,211.076845 277.523941,210.64553 277.523941,203.919147 C277.364232,199.598864 279.876994,195.856044 282.265537,194.159299 C282.691429,193.752935 283.376405,194.187815 283.19895,194.747456 C282.780157,196.066355 282.340068,197.855779 282.340068,199.556089 L282.340068,199.556089 Z M272.200293,204.264913 C272.310315,203.587641 271.451433,203.220488 271.025541,203.758741 C270.042441,205.006348 268.977711,206.802901 268.977711,208.72778 C268.977711,213.190647 273.456674,213.564929 273.456674,216.929903 C273.456674,217.671338 273.218885,218.615954 272.949153,219.457198 C272.736207,220.109518 273.534754,220.622819 274.028079,220.152293 C275.234773,219.00093 276.572783,217.140214 276.572783,214.555886 C276.572783,211.440434 272.005093,208.927397 272.005093,206.200485 C272.005093,205.651538 272.09382,204.942185 272.200293,204.264913 L272.200293,204.264913 Z M319.921476,242.801701 C319.921476,252.711263 311.27942,262.289318 298.673021,260.571185 C297.913514,260.467812 297.154007,260.706639 296.621642,261.262715 C295.730818,262.196638 294.790307,263.112738 293.768167,263.993192 C292.540178,264.823741 291.62806,265.365559 290.158733,265.322784 L266.489793,265.322784 C265.016917,265.365559 264.104799,264.823741 262.876811,263.993192 C248.279367,251.406623 246.558054,233.198694 246.558054,231.305897 C246.558054,229.413099 247.750552,227.709225 249.702556,227.709225 L306.942421,227.709225 C308.571458,227.709225 309.888173,228.903363 310.065628,230.910227 C310.133061,231.662356 310.654779,232.300417 311.382344,232.489341 C315.009523,233.423263 319.921476,235.950558 319.921476,242.801701 L319.921476,242.801701 Z M304.135084,255.890878 C310.363753,254.728821 315.371531,249.371241 315.371531,242.495146 C315.371531,239.597134 313.802829,238.181992 312.006985,237.501155 C310.633484,236.984289 309.118019,237.814839 308.748913,239.240675 C307.687732,243.297179 305.831553,248.433754 302.630266,253.577458 C301.952388,254.664658 302.878703,256.126141 304.135084,255.890878 L304.135084,255.890878 Z M310.069177,268.741226 L246.5758,268.741226 C245.706271,268.741226 245,269.45058 245,270.327469 C245,271.051081 245.489776,271.71053 246.188948,271.88876 C249.784185,273.090027 252.648308,273.842155 257.663185,274.811724 C258.174255,274.943614 258.699521,275.007777 259.224788,275.007777 L297.402444,275.007777 C297.931259,275.007777 298.452977,274.943614 298.964047,274.811724 C303.450108,273.870672 307.286684,273.075769 310.456029,271.88876 C311.155202,271.71053 311.644977,271.051081 311.644977,270.327469 C311.644977,269.45058 310.938707,268.741226 310.069177,268.741226 L310.069177,268.741226 Z" id="Coffee" fill="#BD2A2F"></path>
                <path d="M593.015925,0.0140361557 L577.355703,1.07992505 C575.639469,1.19983755 574.020565,1.95262159 572.803954,3.20171014 L540.386937,36.4874219 C538.537688,38.3827056 538.537688,41.4571288 540.386937,43.3557434 L565.825471,69.4766832 C567.67472,71.3719669 570.669206,71.3719669 572.518456,69.4766832 L604.938717,36.1909715 C606.155328,34.941883 606.888539,33.2797625 607.002089,31.5177149 L608.040265,15.439447 C608.160304,13.5608179 607.48549,11.7154977 606.187771,10.3831366 L597.944012,1.91598166 C596.643049,0.583620535 594.848953,-0.109207248 593.015925,0.0140361557 L593.015925,0.0140361557 Z M597.259465,19.4265377 C594.881395,21.8647586 591.030415,21.8647586 588.655589,19.4265377 C586.280764,16.9849859 586.280764,13.0312043 588.655589,10.5929835 C591.030415,8.15476261 594.881395,8.15476261 597.259465,10.5929835 C599.634291,13.0312043 599.634291,16.9849859 597.259465,19.4265377 L597.259465,19.4265377 Z" id="tag" fill="#BD2A2F"></path>
                <path d="M457.272581,347 C450.367597,347 444.287209,350.609395 440.74305,356.080798 C429.833576,356.114463 421,365.155183 421,376.303988 C421,387.472832 429.8672,396.526377 440.803894,396.526377 C443.368946,396.526377 445.818714,396.028613 448.068338,395.122056 L451.238626,399.541821 L449.972912,418.130644 C449.972912,418.130644 451.691753,419.1398 456.724986,419.1398 C461.758219,419.1398 464.079094,418.130644 464.079094,418.130644 L462.705303,398.963901 L465.952446,394.436728 C468.210876,395.3513 470.671853,395.853073 473.248913,395.853073 C484.185607,395.853874 493.052007,386.799528 493.052007,375.631485 C493.052007,364.496306 484.239246,355.463602 473.348185,355.408294 C469.751989,350.315225 463.891759,347 457.272581,347 Z M454.25688,389.725316 L453.394348,395.003536 L450.610567,392.985755 C451.918459,392.007064 453.138407,390.916523 454.25688,389.725316 Z M458.646211,387.814911 L458.646211,387.814911 C460.066852,389.47589 461.675785,390.964618 463.44144,392.252017 L459.734242,394.937545 L458.646211,387.814911 L458.646211,387.814911 Z" id="Shape" fill="#BD2A2F"></path>
                <g id="Page-1" transform="translate(641.000000, 227.000000)">
                    <path d="M41.9451,10.3944 C38.9121,7.4014 34.1541,5.4724 28.8061,5.4724 C23.3291,5.4724 18.4721,7.4944 15.4511,10.6124 L17.0171,12.8644 C17.4981,12.3184 18.0571,11.8004 18.6891,11.3194 C21.3601,9.2834 24.9531,8.1634 28.8061,8.1634 C32.6581,8.1634 36.2511,9.2834 38.9231,11.3194 C39.4651,11.7324 39.9541,12.1734 40.3861,12.6354 L41.9451,10.3944 Z" id="Fill-1" fill="#BD2C30"></path>
                    <path d="M18.4457,14.8203 L20.0007,17.0553 C21.9677,15.1413 25.1707,13.8673 28.7077,13.8673 C32.2327,13.8673 35.4257,15.1323 37.3947,17.0363 L38.9507,14.8033 C36.4927,12.5863 32.8157,11.1773 28.7077,11.1773 C24.5887,11.1773 20.9037,12.5933 18.4457,14.8203" id="Fill-3" fill="#BD2C30"></path>
                    <path d="M28.7075,2.6904 C34.8215,2.6904 40.2265,4.9344 43.4375,8.3444 L44.9845,6.1244 C41.2395,2.4014 35.3415,0.0004 28.7075,0.0004 C22.0625,0.0004 16.1565,2.4084 12.4115,6.1414 L13.9575,8.3654 C17.1665,4.9424 22.5815,2.6904 28.7075,2.6904" id="Fill-5" fill="#BD2C30"></path>
                    <g id="Group-9" transform="translate(0.000000, 42.779000)">
                        <mask id="summit-intro-mask-2" fill="white">
                            <use xlink:href="#path-1"></use>
                        </mask>
                        <g id="Clip-8"></g>
                        <path d="M55.9993,29.8865 L55.9993,1.9985 C55.9993,0.9245 55.1313,0.0625 54.0693,0.0625 L3.3423,0.0555 C2.2803,0.0555 1.3973,0.9175 1.3973,1.9915 L1.3973,29.8805 C0.4223,30.8855 0.0003,32.1845 0.0003,33.6045 C0.0003,35.3625 0.7553,36.9385 1.9923,37.9955 L3.5453,36.4335 C2.7003,35.7835 2.1553,34.7585 2.1553,33.6055 C2.1553,31.6435 3.7353,30.0525 5.6843,30.0525 C7.6333,30.0525 9.2133,31.6465 9.2133,33.6085 C9.2133,34.7705 8.6593,35.8065 7.8033,36.4545 L9.3583,38.0265 C10.6053,36.9695 11.3993,35.4015 11.3993,33.6345 C11.3993,32.2165 10.8843,31.4165 10.0353,29.9435 L10.1723,29.9435 L10.1723,11.7785 L12.5673,11.7785 L12.6853,49.6505 L11.1473,50.7265 L11.1473,53.8255 L28.2103,53.7965 L28.2103,50.7265 L25.7733,49.7595 L25.7733,38.2895 L31.6233,38.2895 L31.6233,50.0725 L31.2183,50.0725 L29.1853,50.7265 L29.1853,54.0005 L46.2493,54.0005 L46.2493,50.7265 L44.7863,49.7595 L44.7863,11.7785 L47.2243,11.7785 L47.2243,29.9435 L47.3613,29.9435 C46.5123,31.4165 45.9973,32.2195 45.9973,33.6385 C45.9973,35.4055 46.7913,36.9615 48.0383,38.0175 L49.5933,36.4535 C48.7363,35.8045 48.1833,34.7735 48.1833,33.6115 C48.1833,31.6485 49.7633,30.0565 51.7123,30.0565 C53.6613,30.0565 55.2413,31.6485 55.2413,33.6115 C55.2413,34.7645 54.6963,35.7895 53.8513,36.4395 L55.4043,38.0015 C56.6413,36.9445 57.3963,35.3685 57.3963,33.6115 C57.3963,32.1905 56.9743,30.8915 55.9993,29.8865" id="Fill-7" fill="#BD2C30" mask="url(#summit-intro-mask-2)"></path>
                    </g>
                    <path d="M23.7573,28.7437 C23.7573,27.8027 23.0063,27.0487 22.0743,27.0487 C21.1503,27.0487 20.3973,27.8027 20.3973,28.7437 C20.3973,29.6757 21.1503,30.4347 22.0743,30.4347 C23.0063,30.4347 23.7573,29.6757 23.7573,28.7437" id="Fill-10" fill="#BD2C30"></path>
                    <path d="M31.9559,28.7437 C31.9559,26.9137 33.4289,25.4337 35.2469,25.4337 C37.0609,25.4337 38.5319,26.9137 38.5319,28.7437 C38.5319,30.5647 37.0609,32.0497 35.2469,32.0497 C33.4289,32.0497 31.9559,30.5647 31.9559,28.7437 M18.7929,28.7437 C18.7929,26.9137 20.2629,25.4337 22.0739,25.4337 C23.8879,25.4337 25.3589,26.9137 25.3589,28.7437 C25.3589,30.5647 23.8879,32.0497 22.0739,32.0497 C20.2629,32.0497 18.7929,30.5647 18.7929,28.7437 M13.7929,21.1347 C13.6629,21.3447 13.5849,21.5867 13.5849,21.8597 L13.5849,38.8077 C13.5849,39.8707 14.7419,40.8107 15.7999,40.8107 L41.5969,40.8107 C42.6589,40.8107 43.8109,39.8707 43.8109,38.8077 L43.8109,21.8597 C43.8109,21.5427 43.7019,21.2727 43.5319,21.0417 C43.3409,20.7827 43.0719,20.5757 42.7539,20.4337 C42.3979,20.2747 41.9919,20.1907 41.5969,20.1907 L15.7999,20.1907 C15.4069,20.1907 15.0009,20.2747 14.6449,20.4337 C14.2879,20.5927 13.9829,20.8287 13.7929,21.1347" id="Fill-12" fill="#BD2C30"></path>
                    <path d="M36.9334,28.7437 C36.9334,27.8027 36.1714,27.0487 35.2464,27.0487 C34.3184,27.0487 33.5664,27.8027 33.5664,28.7437 C33.5664,29.6757 34.3184,30.4347 35.2464,30.4347 C36.1714,30.4347 36.9334,29.6757 36.9334,28.7437" id="Fill-14" fill="#BD2C30"></path>
                </g>
            </g>
        </g>
    </g>
</svg>
